<svg width="32" height="43" viewBox="0 0 32 43" fill="none" xmlns="http://www.w3.org/2000/svg">
<path d="M2.61817 10.6477C2.43823 9.75707 2.81725 8.61463 3.29324 7.86177C3.44082 7.62405 3.85847 7.83928 3.98067 7.6841C4.21913 7.38631 4.07268 7.03053 4.3548 6.75839C4.45006 6.671 5.11052 6.97219 5.19402 6.87937C5.29294 6.76784 5.36868 6.65644 5.4314 6.53984C6.01815 4.78877 6.95581 3.5283 7.85912 2.85437C9.90275 1.43778 11.137 1.36511 12.2215 1.12708C14.1726 0.536152 17.8932 0.931018 19.699 2.52747C20.075 2.83234 20.4327 3.15195 20.7749 3.49026C21.5421 4.23867 21.931 5.5572 22.767 6.1653C22.8671 6.23752 23.3155 5.79469 23.3703 5.78074C24.2242 5.59143 23.1466 6.2661 23.1486 6.54939C23.1575 7.67575 23.5709 8.47881 24.1563 9.08953C24.4052 9.34832 25.3609 8.47923 24.8945 9.10945C24.8627 9.15168 24.2276 9.36764 24.2049 9.48238C24.1547 9.74047 24.4264 10.0458 24.4419 10.2137C24.4685 10.5365 24.4932 10.5787 24.5941 10.8457C24.7266 11.215 24.5734 11.7516 24.8453 12.0805C24.9055 12.1511 25.5135 11.821 25.6686 11.917C25.8244 12.0135 25.8845 12.3864 25.7669 12.5511C25.6499 12.7164 25.1222 12.8246 25.0112 12.8815C24.0711 13.3486 25.5597 13.3213 25.6093 13.3675C26.4575 14.1361 25.8505 15.1205 26.0346 15.9288C26.1768 16.547 26.5767 17.1353 26.659 17.6888C26.7351 18.2146 26.5959 18.7025 26.6419 19.1498C26.6528 19.2598 26.6778 19.3754 26.7223 19.4927C26.7449 19.5545 27.5002 19.275 27.5288 19.3479C27.8371 20.1348 28.0314 21.1369 27.7314 22.2529C27.7007 22.3651 26.9853 22.3949 26.913 22.5139C26.4927 23.2595 25.2857 24.3728 28.3693 24.281C28.3195 24.7363 28.2648 25.2968 27.6873 25.7451C27.3151 26.0318 26.5297 25.8642 26.8817 26.1301C26.96 26.1912 27.6219 26.0463 27.6888 26.1452C27.97 26.5662 27.777 27.0599 28.1328 27.4925C28.2067 27.5816 28.8079 27.5459 28.9167 27.5703C29.799 27.785 28.3468 28.1666 28.2399 28.2359C27.4835 28.7898 27.7083 29.1946 27.6773 29.7086C27.6752 29.7398 27.6724 29.7712 27.6687 29.8029C27.6495 29.9583 28.4722 29.8452 28.4812 30.0057C28.517 30.8423 28.2454 31.7482 27.631 32.3992C27.4928 32.5423 26.9011 32.1531 26.8032 32.2052C26.3859 32.4097 27.5567 32.9817 27.147 33.2062C27.0627 33.2512 26.5467 32.9627 26.4823 32.9476C25.4834 32.6853 26.6974 33.4705 26.6956 33.5429C26.7385 34.3827 25.235 33.9304 25.0697 34.5008C25.0467 34.5749 25.7415 34.8959 25.6349 35.0826C24.9174 36.3407 23.6283 37.1484 22.3186 37.3091C22.1147 37.3358 21.912 36.7968 21.8632 36.7464C21.1191 35.946 21.8189 37.2148 21.7956 37.2945C21.6827 37.6589 21.2464 37.4722 21.0976 37.6788C20.9949 37.8099 20.9886 38.0815 21.1734 38.711C19.0401 39.239 16.6671 40.6339 14.6602 38.9216C14.6366 38.9019 14.7341 38.1951 14.6889 38.1589C14.156 37.7092 14.1743 38.8212 13.5473 40.101C13.3763 40.4201 13.3284 38.7532 13.3344 38.6316C13.321 38.1801 13.6115 37.1565 13.5967 37.0667C13.5737 36.9198 13.53 36.954 13.4691 37.0989C13.2392 37.6477 12.7609 39.791 12.4537 39.723C12.4436 39.7147 12.635 39.0969 12.6185 39.0273C12.5698 38.8098 12.418 39.0371 12.3802 38.799C12.294 38.2474 12.678 36.5896 12.122 37.4601C12.0475 37.5715 11.55 39.5002 11.2401 39.305C11.1224 39.2304 10.5086 39.0504 10.3993 38.8647C10.2867 38.6816 10.635 38.1307 10.6329 38.1001C10.5431 37.1486 10.8362 36.8879 11.1671 35.6648C11.5249 34.456 10.3282 37.1841 10.1058 37.4475C9.88287 37.7104 9.89703 36.9372 9.95085 36.6898C9.99882 36.4405 10.2672 36.1218 10.2761 35.9711C10.3549 34.9926 9.40741 37.1824 9.04022 37.5193C8.12866 38.2882 9.0278 36.2421 8.91385 35.9009C8.878 35.8051 8.64858 36.2584 8.55789 36.2525C8.19557 36.2163 8.47414 35.5644 7.80724 35.8363C7.70615 35.8877 6.59821 36.6911 7.09942 35.8285C7.17448 35.7067 7.59734 35.3473 7.5855 35.1695C7.5679 34.9035 7.41597 34.5859 7.14392 34.5653C6.94114 34.5488 6.40124 35.2996 6.47046 34.9604C6.50403 34.811 7.00106 34.5677 7.03663 34.3219C7.07201 34.078 6.80379 33.7992 6.69728 33.693C6.59004 33.5886 6.10066 34.0786 6.05711 34.0984C5.8014 34.205 5.3465 34.155 5.33055 34.1305C4.40376 33.0061 4.87813 31.3854 4.05983 30.4198C3.99571 30.341 3.3495 30.6774 3.3328 30.6682C2.9215 30.4645 4.80933 29.9856 5.32756 29.5422C3.97044 30.1145 4.16783 29.8914 3.93524 29.7331C3.82204 29.6568 3.3094 29.9135 3.25121 29.9246C2.37917 30.0658 3.38811 29.5654 3.59418 29.4622C4.34976 29.0759 3.37322 29.2972 3.88011 29.0414C4.38454 28.7911 5.21948 28.6728 5.14203 28.4802C4.62347 28.5929 3.37275 29.1937 3.10668 29.105C2.09009 28.7529 2.7896 27.2902 2.77534 26.7987C2.75411 26.2929 2.62136 26.1671 2.73363 25.8453C2.93828 25.2665 1.99595 25.7025 1.46465 25.5197C0.932805 25.3349 3.40411 24.8449 3.91562 24.664C4.42698 24.4836 3.87655 24.5776 4.14975 24.4486C4.42286 24.3194 4.80891 24.3418 4.88349 24.1872C4.95872 24.0347 3.93506 23.9292 3.37838 24.0375C2.19757 24.2601 1.02696 24.7423 1.36505 24.3079C1.3852 24.2826 2.03881 24.1646 2.08357 24.0763C2.3061 23.622 2.31585 23.2035 2.36499 22.7901C2.37847 22.5435 2.41567 22.298 2.51062 22.0518C2.55056 21.9524 3.28289 21.8484 3.31511 21.7916C3.66706 21.2229 2.49763 21.6728 1.08169 21.5949C2.90091 21.3463 3.97404 21.0052 3.94884 20.6944C3.93513 20.4994 3.14199 20.6109 2.5672 20.5051C2.39356 20.4698 2.93298 20.2753 2.55585 20.265C1.3228 20.2156 -0.0535458 20.4492 0.485775 19.94C0.511687 19.9193 1.18613 19.9781 1.2264 19.9081C1.49561 19.4703 0.208105 19.38 0.0931642 18.8267C0.00370457 18.3859 0.887667 17.7827 1.10599 17.3988C3.12166 17.8279 2.73092 17.4132 1.40052 16.8885C1.52694 16.6349 1.53579 16.3253 1.80648 16.1347C1.89861 16.0704 2.44551 16.3171 2.51029 16.3268C3.51925 16.5008 2.25032 15.9448 2.22103 15.8667C1.95394 15.0731 3.10676 15.0576 2.47111 14.0608C2.44668 14.0282 1.2021 13.3163 2.20489 13.6609C2.27229 13.6881 2.7494 14.1732 2.93028 13.9483C2.99415 13.8698 3.15127 13.807 3.31016 13.7385C3.70249 13.4535 4.09275 13.3225 4.18433 12.7585C4.17362 12.5655 4.1375 11.2813 4.76027 12.0396C4.83549 12.145 4.92297 12.5481 5.0371 12.7519C5.35795 13.4147 5.12546 11.983 5.52 13.161C5.92075 14.3483 5.92278 15.2595 6.19795 14.4384C6.19905 14.414 6.4465 13.2882 6.58057 13.3368C6.67443 13.3738 6.77149 13.4736 6.85523 13.5741L6.86868 13.5767L6.90159 13.6115C6.90962 13.7362 6.92006 13.8571 6.97153 13.9318C7.02167 14.004 7.59531 13.578 7.61452 13.5841C8.28484 13.9059 7.96153 14.6245 8.00353 15.3175C8.00746 15.4393 9.03867 15.3376 8.43863 15.8736C7.77531 16.4482 4.49127 17.6646 5.44514 17.7707C5.81813 17.7956 10.0539 16.428 8.05782 17.648C8.87298 18.1937 7.98286 19.2672 9.00847 19.7814C9.05445 19.8058 10.2653 19.5229 10.2761 19.6084C10.2895 19.735 9.76302 19.9846 9.75637 20.083C9.71488 20.4993 10.2964 20.6516 10.3592 21.0005C10.3856 21.1338 9.81615 21.3263 9.85595 21.4972C9.89915 21.6688 10.6281 21.4267 10.4254 21.7654L10.4146 21.7491C10.4125 21.7551 10.4101 21.7612 10.4076 21.7676C10.2715 22.0632 9.20327 23.292 9.28314 23.6423C10.4281 22.5402 10.5196 22.6825 11.0079 22.5629C11.1013 22.5383 11.4358 22.0944 11.4988 22.0614C11.7615 21.916 11.5213 22.3164 11.7965 22.1459C11.8629 22.1052 12.2236 21.6999 12.2978 21.6433C12.9364 21.1417 12.3279 22.2287 12.2276 22.4225C11.8333 23.1477 12.3557 22.6656 12.2521 22.9948C12.1483 23.3236 11.7376 23.4959 11.733 23.7451C11.7272 24.2636 12.1006 24.4651 12.3372 24.6996C12.4349 24.7916 12.8355 24.1813 12.8603 24.1816C13.187 24.2188 12.8974 24.9856 13.952 23.9899C11.6637 26.9424 14.3135 23.8233 14.1237 24.6471C14.1077 24.7132 12.9797 26.0701 12.722 26.1893C12.4671 26.3107 12.6902 25.7746 12.3038 25.9746C12.2111 26.0197 10.9703 27.1329 10.8813 27.1886C10.197 27.6327 11.8839 25.6067 11.9685 25.4885C12.8764 24.2089 11.5149 25.3886 11.3796 25.4351C10.7663 25.6537 10.7945 25.1919 10.3216 25.318C10.014 25.3978 8.88129 26.7013 8.79924 26.5615C8.51294 26.0833 10.0093 24.1997 8.16567 25.334C7.76058 25.5604 6.54978 27.026 7.19187 25.5638C7.22179 25.4614 7.94333 24.249 7.12092 24.597C7.01553 24.6393 6.5909 24.989 6.52381 24.9798C6.46942 24.9714 6.4247 24.9567 6.38756 24.9372L5.91302 24.2189C5.68877 24.0581 5.88748 23.7555 5.612 23.6024C5.29871 23.4298 4.87612 23.2357 4.94424 22.8997C4.98222 22.6928 5.86978 22.1402 6.08212 21.9905C6.69217 21.5561 5.50834 21.7606 6.29714 21.3634C7.09285 20.9723 8.42352 20.7349 8.87183 20.2891C7.51537 20.7389 6.11821 21.1861 4.75099 21.6294C4.58696 20.9847 4.86061 20.3179 4.629 19.8385C4.59908 19.7799 3.89395 20.0919 3.84383 20.0377C3.63601 19.81 4.0709 19.4004 3.76888 19.2195C3.53209 19.0801 2.69587 19.1799 2.43286 19.0843C3.89215 18.3351 3.25531 18.2651 3.29911 18.0115C3.31328 17.9213 3.70886 17.7363 3.81239 17.6233C4.19017 17.1973 2.94057 17.9313 2.71311 17.9845C1.74966 18.2313 4.64304 16.7034 4.41477 16.4555C4.40132 16.4371 2.79032 17.1305 2.68754 17.1705C1.99944 17.3959 3.19945 16.8433 3.25911 16.6908C3.36841 16.414 3.64678 16.0717 3.09712 16.1625C3.06547 16.168 3.00203 16.1903 2.92534 16.2185L5.13956 18.0084C5.12809 18.3593 5.24301 18.9876 5.52924 18.3515C5.57298 18.2477 5.66458 17.6786 5.68442 17.6478C5.96427 17.1209 5.81111 18.9232 6.11962 19.5338C6.45868 20.1411 6.74815 18.8101 6.67931 18.4466C6.59651 17.5027 6.45735 18.0942 6.42847 18.0032C6.14292 16.9499 6.3093 17.1115 6.38641 16.9867C5.83726 15.2981 5.83162 15.4125 6.46564 16.8614C6.52608 17.0241 6.37744 16.905 6.38641 16.9867C6.99423 18.6378 7.82461 18.4994 7.12321 16.9518C6.75644 16.2558 6.05683 15.7148 6.45882 15.7392C6.56029 15.7343 6.90194 15.9242 7.25978 16.0988C7.54357 16.2851 7.8309 16.4723 7.94259 16.5859C8.50455 17.1298 7.36917 16.8435 7.42637 17.1527C7.45091 17.2571 8.09484 17.4567 8.13447 17.5338C8.24552 17.7313 7.73259 17.6589 7.92148 17.8866C7.93981 17.9065 8.60546 18.1264 8.59997 18.1665C8.57548 18.467 8.07235 18.5832 7.99387 18.8846C7.95511 19.0329 8.29911 19.3299 8.21093 19.4417C8.05758 19.625 7.03411 19.9219 7.29762 20.133C7.46569 20.2548 8.16182 20.159 8.64035 20.1484C9.56389 20.0933 7.94337 20.4462 7.70099 20.5442C7.69285 20.5485 7.51157 20.4741 7.16775 20.5943C6.43765 20.768 7.69805 20.546 7.70099 20.5442C7.53893 20.5876 7.43203 20.8339 7.57408 20.8387C7.65059 20.8407 8.28673 20.6505 8.31395 20.6528C8.44402 20.6627 8.55579 20.6706 8.64991 20.6812C9.18684 21.2442 9.4125 21.8401 9.32734 22.4658C9.31774 22.4816 8.5961 22.6575 8.58238 22.692C8.37231 23.1803 9.31345 23.1907 9.91703 23.3671C10.5191 23.5394 10.4051 23.8177 9.21787 24.3147C9.43182 24.4974 8.9683 24.9452 8.68724 25.2131C8.4054 25.4784 9.80498 25.1156 9.8365 25.1225C10.8457 25.3347 10.121 25.8053 10.1373 26.2849C10.1418 26.512 10.4736 26.8382 10.6948 26.9799C10.8715 27.0922 10.5902 27.305 10.8464 27.3645C10.8806 27.3723 11.4716 27.1167 11.4968 27.1131C12.2685 26.9694 10.7818 27.4884 10.5341 27.6255C9.6341 28.1242 9.16979 28.427 9.70013 28.4382C9.82433 28.4471 11.9416 27.6308 12.0882 27.6303C12.2792 27.6403 11.5326 27.9617 11.7533 27.965C11.7714 27.9654 12.2198 27.7425 12.2252 27.8025C12.2555 28.0769 12.1362 28.4553 12.3051 28.621C12.3257 28.6434 12.9694 28.1763 13.0073 28.1968C13.1846 28.293 13.2456 28.4206 13.0549 28.7678C13.0068 28.8555 12.5758 29.2078 12.4574 29.3233C11.7551 30.038 12.8836 29.1184 12.904 29.0994C13.2444 28.9497 13.1954 29.1128 13.1739 29.307C13.1472 29.4965 13.151 29.7128 13.4249 29.5159C13.4714 29.5019 14.3154 28.1936 13.692 29.374C13.6447 29.4495 13.0506 30.6817 13.5295 29.8777C13.5574 29.8263 13.8565 29.1895 13.865 29.2742C13.8823 29.3629 14.1312 28.9617 13.8988 29.7022C13.818 29.9325 13.3965 31.2328 13.8745 30.2517C13.9267 30.1903 14.825 27.9035 14.3293 29.5234C14.2487 29.7903 13.6957 31.4973 14.0942 30.6575C14.1676 30.4933 14.2435 30.0988 14.3685 29.8751C14.5522 29.528 14.5526 30.0244 14.8387 29.2702C14.8942 29.1378 15.2085 27.9609 15.084 28.8779C15.0811 28.9004 15.0754 28.9338 15.0679 28.9743C15.0273 29.1922 14.9351 29.6169 14.9496 29.6773C15.0395 30.0216 15.2249 29.6431 15.3018 30.0649C15.3337 30.2134 15.2355 31.1768 15.2807 31.4397C15.3238 31.7028 15.4608 31.9569 15.5252 31.5142C15.5806 31.0717 15.5287 29.5295 15.5699 29.4055C15.6486 29.1354 15.6836 29.2233 15.7715 29.3865C15.8539 29.5501 15.9911 29.7834 16.0987 29.8145C16.1296 29.8241 15.9181 29.314 15.9386 29.2948C15.9772 29.2581 15.9844 29.1136 16.0674 29.0649C16.3481 28.9008 16.6184 28.9028 17.1012 29.3084C17.8613 29.9162 18.0089 30.6955 18.4193 30.8675C18.6332 30.9349 17.5989 29.4647 17.5698 29.4154C17.3314 28.8694 17.9261 29.3977 17.8316 29.1454C17.8078 29.0969 17.2675 28.6104 17.2491 28.5789C17.1752 28.4734 17.4329 28.6703 17.3943 28.6234C17.3745 28.6027 16.9297 28.2705 16.9605 28.3009C17.0301 28.3683 17.2086 28.5224 17.6538 28.7921C17.6963 28.8134 18.2831 29.1778 18.3133 29.1772C18.3546 29.187 18.8425 29.3567 18.362 29.1308C18.218 29.061 17.0262 28.6254 17.8458 28.9355C18.0166 29.0016 19.4643 29.4765 18.2161 29.0582C18.0166 28.9584 16.2776 28.5889 17.3895 28.864C17.6824 28.9356 18.9111 29.1492 18.7218 29.0923C18.691 29.0867 18.0174 28.983 17.9523 28.969C17.8483 28.9469 17.8103 28.937 17.7764 28.9232C17.7478 28.8008 17.722 28.6813 17.6164 28.5584C17.5609 28.4973 16.8525 28.5479 16.792 28.4621C16.6244 28.2292 16.8071 27.959 17.0226 27.7251C17.1033 27.6386 17.6887 27.6826 17.7521 27.6754C18.7831 27.5398 17.3855 27.5191 17.303 27.4918C16.8076 27.308 17.4518 27.1137 17.2619 26.9264C17.2112 26.8766 16.5517 26.9734 16.4916 26.968C15.9047 26.9161 17.1021 26.8857 17.2266 26.8026C17.5788 26.5677 17.4971 26.3353 17.3825 26.1377C17.3394 26.065 16.5883 26.2619 16.5588 26.1983C16.3695 25.8277 16.3641 25.4043 16.6795 24.8713C16.7402 24.7709 17.3312 24.6903 17.4596 24.6427C18.356 24.3028 17.0501 24.4111 16.9204 24.4006C16.3261 24.3422 16.8167 24.1396 16.675 23.9829C16.2371 23.5046 16.0604 22.8235 15.9278 21.8517C15.8537 21.2833 15.8428 20.7826 15.8308 20.3556C15.7951 18.8944 16.1649 17.8679 15.7598 16.8811C15.7351 16.8198 14.9863 17.0812 14.9554 17.0321C14.5945 16.3994 14.7054 15.7116 14.2963 15.2759C14.2645 15.2411 13.5859 15.5646 13.5127 15.5216C13.3578 15.436 13.3371 15.278 13.5072 15.0701C13.5882 14.9679 14.2107 14.786 14.2786 14.6849C14.4369 14.4468 14.4131 14.2726 14.2407 14.2002C14.1668 14.172 13.525 14.5994 13.4848 14.541C13.1841 14.1428 12.963 14.0595 13.481 13.1589C13.5181 13.0991 14.6175 11.9946 14.3546 12.1543C14.0465 12.4576 13.689 12.8192 13.3629 13.1465C13.1575 13.0915 13.0631 12.9701 12.9534 12.7992C13.2952 12.9628 13.9251 13.1731 14.5877 13.2022C15.2512 13.2404 15.8112 13.0924 16.0577 13.0021C16.0975 12.9884 16.2256 13.808 16.3163 13.7817C16.3848 13.7614 16.4413 13.7465 16.4869 13.7352C16.2638 13.8231 16.3451 13.9649 16.5789 12.9301C16.6112 12.8022 15.6633 11.7095 15.9933 11.7116C16.0251 11.7094 16.1531 11.6741 16.3438 11.6039C16.532 11.5386 16.7848 11.4201 16.9802 11.4142C17.0406 11.4092 17.4842 11.9637 17.6927 11.6912C17.9875 11.2908 18.2828 10.7214 18.4536 10.0622C18.3681 10.3098 18.1543 10.5151 17.8057 10.7075C17.7297 10.7497 17.027 10.5751 16.9663 10.607C16.5383 10.8567 17.0533 11.2101 16.3876 11.4625C15.9393 11.6494 14.6951 11.5386 13.4645 11.6577C13.2907 11.6748 13.2618 11.8545 12.5475 11.8643C10.7509 11.8882 8.78406 11.7759 6.86894 11.8117C6.45618 11.8272 6.90041 12.1169 5.90369 11.9468C5.83684 11.9402 5.50668 11.6992 5.16968 11.6253C4.93647 11.576 4.20884 11.654 3.91086 11.551C3.61334 11.447 4.22411 11.3467 3.87793 11.1647C3.52843 10.9787 2.69746 11.0289 2.61817 10.6477ZM7.43798 26.4118C6.82037 26.7714 9.26304 26.0662 8.63066 26.0727C8.59721 26.0738 7.46822 26.3939 7.43798 26.4118ZM6.68282 19.7316C7.67392 19.1575 6.06139 19.5363 5.29071 19.9615C4.51903 20.3815 6.38211 19.9049 6.68282 19.7316ZM8.33634 21.9469C9.03123 21.3186 5.65725 22.5914 6.49232 22.7014C6.54035 22.7091 8.297 21.9854 8.33634 21.9469ZM13.1452 10.9639C13.1112 10.9633 13.0698 11.085 13.1032 11.0899C13.9049 11.2016 13.9855 10.9779 13.1452 10.9639ZM10.9688 23.7869C11.2226 23.3622 10.6587 23.6173 10.3438 24.1473C10.0927 24.5759 10.6581 24.3199 10.9688 23.7869ZM9.61063 34.874C9.59115 34.9067 9.65731 34.9929 9.77493 34.8138C10.1534 34.2375 9.93696 34.3251 9.61063 34.874ZM14.1397 26.4623C13.7755 25.96 15.4463 23.466 15.7365 24.1672C15.788 24.2934 14.9112 24.7063 14.8517 25.0113C14.7394 25.5637 16.1181 24.2867 15.6742 25.2322C15.5909 25.4034 14.1536 26.4936 14.1361 26.4647C14.1373 26.4639 14.1385 26.4631 14.1397 26.4623ZM4.5378 27.373C4.50649 27.3859 4.51809 27.536 4.55098 27.5294C5.34602 27.3709 5.32531 27.076 4.5378 27.373ZM15.1503 38.2527C15.1555 38.3262 15.541 38.4 15.5535 38.3323C15.7269 37.0153 15.0506 36.8653 15.1503 38.2527ZM1.1612 17.4036C0.406327 17.0499 0.375637 16.7713 1.3993 16.889C1.30054 17.0523 1.24948 17.2311 1.1612 17.4036Z" fill="#F9EF23"/>
<path d="M24.2814 13.8212C24.3799 13.7977 24.5057 13.8319 24.5944 13.8761C24.6229 13.8899 24.6046 13.9418 24.624 13.9537C24.6612 13.9769 24.6985 13.9536 24.7352 13.9811C24.7473 13.9905 24.7248 14.073 24.7375 14.0809C24.8049 14.1235 24.8745 14.1083 24.9444 14.1331C25.2875 14.2555 25.6185 14.3331 25.9569 14.4283C26.0685 14.4596 26.1921 14.559 26.3144 14.5483C26.3287 14.547 26.3344 14.473 26.3381 14.4676C26.3962 14.384 26.3548 14.5275 26.3776 14.552C26.4678 14.6489 26.5816 14.6789 26.6882 14.6725C26.7335 14.6696 26.7213 14.5173 26.7471 14.6069C26.749 14.6129 26.7217 14.6871 26.7316 14.6978C26.7541 14.7218 26.8074 14.7191 26.8267 14.7298C26.8635 14.7506 26.8701 14.7513 26.9073 14.7606C26.9581 14.7741 27.0098 14.826 27.0684 14.8217C27.081 14.8205 27.0841 14.7388 27.106 14.73C27.1279 14.7212 27.1758 14.7397 27.188 14.7622C27.2001 14.7846 27.178 14.8442 27.1775 14.8589C27.1725 14.9832 27.2697 14.8333 27.2783 14.8312C27.4295 14.7958 27.5201 14.9193 27.6445 14.9536C27.7391 14.9794 27.8491 14.9781 27.9379 15.0094C28.0435 15.0469 28.1208 15.1167 28.2264 15.1434C28.2375 15.1463 28.2541 15.0525 28.2678 15.0559C28.2853 15.0602 28.3027 15.0649 28.3199 15.07C28.4458 15.1069 28.5628 15.163 28.6663 15.2597C28.678 15.2707 28.6322 15.3423 28.6421 15.358C28.7038 15.4523 28.7774 15.6541 28.9548 15.3357C29.0063 15.3702 29.0716 15.4109 29.0951 15.4981C29.1109 15.5545 29.0463 15.6261 29.1004 15.6059C29.1125 15.6015 29.1297 15.5233 29.1458 15.5222C29.2133 15.5177 29.2663 15.5665 29.3376 15.5513C29.3521 15.548 29.3756 15.4812 29.3836 15.4707C29.4497 15.386 29.4314 15.563 29.4363 15.5784C29.4754 15.6945 29.5445 15.6839 29.613 15.7153C29.629 15.7227 29.647 15.627 29.6637 15.631C29.7497 15.6526 29.8297 15.6961 29.8917 15.7694C29.9053 15.7858 29.8567 15.853 29.8615 15.8646C29.8828 15.915 29.9524 15.7785 29.9746 15.8244C29.9793 15.8339 29.947 15.8954 29.9452 15.903C29.9178 16.0216 30.0048 15.8749 30.0117 15.8739C30.1016 15.8581 30.0719 16.0387 30.1484 16.046C30.1576 16.0467 30.1762 15.9587 30.1998 15.9656C30.3573 16.0107 30.5026 16.1051 30.6167 16.2362C30.6344 16.2565 30.5905 16.3087 30.5884 16.3167C30.5571 16.4423 30.6441 16.2952 30.6544 16.2929C30.7315 16.2783 30.7246 16.4327 30.8491 16.2672C31.0043 16.3969 31.2042 16.4384 31.3464 16.5389C31.4512 16.5805 31.5531 16.7024 31.571 16.8003C31.5933 16.8989 31.5731 16.9685 31.5472 17.0217C31.5448 17.0266 31.4617 17.0133 31.4573 17.022C31.3992 17.12 31.5297 17.1132 31.6648 17.2313C31.6976 17.2641 31.4974 17.2579 31.4832 17.2551C31.4291 17.2527 31.3166 17.1967 31.3054 17.1981C31.2188 17.2053 31.6074 17.3448 31.5827 17.4048C31.5813 17.4062 31.5146 17.3693 31.5057 17.3711C31.4778 17.3761 31.4994 17.4018 31.4694 17.4048C31.3998 17.4113 31.2162 17.3315 31.2992 17.4254C31.3097 17.4378 31.5225 17.5363 31.4875 17.578C31.4738 17.5945 31.431 17.676 31.4042 17.6893C31.3778 17.7028 31.3235 17.6477 31.3197 17.6476C31.2006 17.6488 31.1793 17.6053 31.0403 17.5479C30.9031 17.4884 31.1961 17.6806 31.2205 17.7141C31.2447 17.7478 31.1499 17.7384 31.1205 17.7296C31.091 17.7213 31.0611 17.6815 31.0423 17.6794C30.9966 17.6744 31.002 17.6903 31.0277 17.7161L31.0191 17.7241C31.0477 17.7782 31.1248 17.8746 31.1335 17.9108C31.1666 18.0478 30.9885 17.8545 30.9375 17.8581C30.9237 17.8591 30.965 17.9027 30.9591 17.9134C30.9349 17.9551 30.8684 17.9019 30.869 17.9908C30.8692 18.0052 30.9221 18.1576 30.8374 18.076C30.8253 18.0641 30.7984 18.0043 30.7751 18.0023C30.7402 17.9991 30.6917 18.0138 30.6788 18.0479C30.6692 18.0732 30.7481 18.1493 30.707 18.1364C30.6887 18.1305 30.6738 18.0658 30.6424 18.0592C30.611 18.0525 30.5641 18.0858 30.5467 18.0994C30.5293 18.1131 30.5828 18.175 30.5842 18.1805C30.5918 18.2127 30.5766 18.2685 30.5734 18.2704C30.4175 18.3801 30.198 18.3534 30.0624 18.4846C30.0517 18.4948 30.1029 18.5638 30.1017 18.5661C30.0767 18.622 29.9966 18.406 29.9291 18.3573C30.0199 18.5049 29.9871 18.4877 29.966 18.5216C29.956 18.5381 29.9973 18.5918 29.9994 18.5985C30.0281 18.6994 29.9478 18.5937 29.9306 18.5724C29.8675 18.4944 29.9096 18.605 29.8674 18.5528C29.8255 18.501 29.7999 18.4036 29.7718 18.4209C29.794 18.4796 29.8951 18.6087 29.8857 18.6441C29.8503 18.7782 29.6308 18.7527 29.5571 18.7764C29.4829 18.8007 29.4662 18.8222 29.4163 18.8227C29.3258 18.8237 29.4071 18.9171 29.387 18.9891C29.3666 19.0611 29.2553 18.7858 29.2202 18.7323C29.1854 18.6787 29.2079 18.7406 29.1844 18.7132C29.161 18.6859 29.1584 18.6389 29.1343 18.6362C29.1104 18.6336 29.1114 18.7594 29.1339 18.8224C29.1823 18.9556 29.2706 19.077 29.198 19.0547C29.1938 19.0533 29.1689 18.9789 29.1546 18.9772C29.0425 18.9653 28.9508 19.0048 28.8425 18.9965C28.8276 18.9953 28.8018 18.9118 28.7927 18.9102C28.6979 18.8929 28.7847 19.0136 28.812 19.1793C28.7316 18.9789 28.6554 18.8686 28.6008 18.8917C28.568 18.9054 28.6119 18.989 28.6176 19.0591C28.6194 19.0802 28.5698 19.0314 28.5835 19.0738C28.6277 19.2125 28.715 19.3514 28.6316 19.3173C28.6278 19.3156 28.6042 19.2394 28.5936 19.2388C28.5252 19.2342 28.578 19.3764 28.5239 19.4194C28.4809 19.4533 28.3596 19.4037 28.2993 19.4119C28.2089 19.1869 28.179 19.259 28.2202 19.4226C28.1821 19.4305 28.147 19.4546 28.104 19.4467C28.0893 19.444 28.0714 19.3755 28.0672 19.3691C28.001 19.2671 28.045 19.4246 28.0395 19.4336C27.978 19.524 27.8666 19.4343 27.8287 19.577C27.8274 19.5821 27.8812 19.7419 27.817 19.6344C27.8127 19.627 27.8125 19.5453 27.7729 19.5537C27.733 19.5621 27.6316 19.5029 27.6055 19.5951C27.6004 19.6134 27.6087 19.7117 27.5775 19.6949L27.5424 19.7043C27.5361 19.6997 27.5289 19.6896 27.5206 19.6718C27.5143 19.6582 27.5097 19.61 27.4996 19.5845C27.4678 19.5031 27.4877 19.6726 27.4431 19.5334C27.399 19.3941 27.3439 19.2935 27.3049 19.4C27.3037 19.4031 27.3096 19.5386 27.292 19.5389C27.2637 19.5393 27.2205 19.5166 27.1918 19.5209C27.1779 19.5231 27.1969 19.6052 27.1947 19.607C27.1054 19.665 27.0295 19.5975 26.9264 19.5739C26.9079 19.5694 26.8632 19.6877 26.8206 19.6002C26.7742 19.5043 26.7845 19.0913 26.7045 19.1949C26.6729 19.2363 26.657 19.7603 26.5769 19.4937C26.454 19.5673 26.3319 19.4336 26.2086 19.533C26.2031 19.5374 26.1894 19.6836 26.1758 19.682C26.1556 19.6793 26.1428 19.6116 26.1284 19.6075C26.0684 19.5885 26.015 19.6479 25.957 19.64C25.935 19.6371 25.9415 19.5666 25.9154 19.5631C25.8894 19.5597 25.8732 19.6527 25.8374 19.6084C25.8103 19.5747 25.7809 19.3856 25.7457 19.3639C25.7467 19.5508 25.7224 19.5473 25.6797 19.5971C25.6715 19.6067 25.681 19.6717 25.6772 19.6796C25.6615 19.7133 25.6462 19.6595 25.6313 19.6962C25.6277 19.705 25.6281 19.7688 25.6252 19.7796C25.6001 19.8738 25.5566 19.7306 25.5491 19.7056C25.5206 19.6109 25.508 19.694 25.4865 19.6567C25.465 19.6194 25.4965 19.5725 25.4716 19.55C25.4197 19.5033 25.3537 19.5139 25.3012 19.5111C25.2804 19.5104 25.2949 19.5956 25.2919 19.5975C25.2487 19.6192 25.2048 19.5286 25.1811 19.6984C25.1505 19.2596 25.155 19.741 25.0931 19.6532C25.0882 19.6461 25.0819 19.4386 25.1005 19.4081C25.1191 19.3776 25.1475 19.4425 25.1734 19.395C25.1795 19.3838 25.2142 19.1893 25.2189 19.1775C25.2562 19.0853 25.2622 19.3954 25.2642 19.4125C25.2872 19.5963 25.3295 19.3866 25.3408 19.3721C25.3921 19.3056 25.4362 19.349 25.4789 19.3014C25.5069 19.2706 25.5084 19.0675 25.5304 19.0735C25.6034 19.0936 25.632 19.3767 25.6984 19.1303C25.7126 19.0777 25.6955 18.8559 25.7501 19.0298C25.7534 19.0408 25.7949 19.2 25.8161 19.0987C25.8187 19.0859 25.8177 19.0212 25.8213 19.0157C25.8458 18.9802 25.8633 19.0315 25.8901 19.0063C25.9169 18.9812 25.9487 18.9438 25.9802 18.9651C25.9991 18.9778 26.0254 19.0978 26.0352 19.1271C26.0626 19.2116 26.0864 19.0716 26.1045 19.1741C26.1231 19.2771 26.0957 19.4351 26.1397 19.5008C26.1367 19.3327 26.1357 19.1601 26.1336 18.991C26.2236 18.9945 26.314 19.0459 26.4035 19.0347C26.4146 19.0331 26.3994 18.9433 26.4111 18.9393C26.4603 18.9228 26.5068 18.9851 26.5572 18.9567C26.5958 18.9343 26.6338 18.8363 26.6728 18.8096C26.7103 19 26.7675 18.9306 26.8125 18.9446C26.8283 18.9495 26.8315 19.0008 26.8439 19.0166C26.8907 19.0749 26.857 18.9071 26.8659 18.8795C26.9036 18.7616 26.9421 19.1446 26.9999 19.1294C27.0032 19.1287 27.0191 18.9209 27.0224 18.9076C27.0452 18.8214 27.0352 18.9781 27.0569 18.991C27.0962 19.0145 27.1283 19.06 27.1628 18.9951C27.1732 18.9758 27.1851 18.8453 27.2217 18.94C27.2266 18.9524 27.2344 19.0197 27.2375 19.0233C27.2932 19.0821 27.2623 18.8712 27.2757 18.7961C27.2884 18.7211 27.3493 18.8599 27.365 18.9001C27.4046 19.0044 27.3575 18.949 27.3582 18.9598C27.3665 19.0883 27.392 19.0616 27.4157 19.0682C27.4278 19.1291 27.4389 19.1703 27.4474 19.1933L27.4038 19.205C27.4329 19.2555 27.4314 19.2083 27.3793 19.088C27.3741 19.0761 27.3676 19.0819 27.3615 19.0858L27.4243 19.0689C27.421 19.0704 27.4178 19.0713 27.4157 19.0682C27.4133 19.0413 27.4117 19.0174 27.4109 18.9966L27.3369 19.0164C27.312 18.8802 27.3429 18.8713 27.4331 19.0156C27.4818 19.0935 27.5001 19.1982 27.5427 19.142C27.562 19.1166 27.503 18.985 27.5116 18.9401C27.5308 18.8378 27.6426 18.9394 27.6869 18.9C27.7029 18.8857 27.6567 18.819 27.6667 18.8067C27.693 18.7739 27.7435 18.8178 27.7666 18.7764C27.7686 18.7726 27.7314 18.6986 27.7415 18.6936C27.817 18.654 27.9051 18.6758 27.9879 18.6437C28.0279 18.6281 28.0811 18.5569 28.1253 18.5482C28.2016 18.5327 28.3361 18.6051 28.3851 18.5516C28.4167 18.5172 28.3746 18.4457 28.3683 18.387C28.3557 18.2734 28.4924 18.4255 28.5128 18.4493C28.5135 18.4502 28.488 18.4831 28.5234 18.5135C28.5704 18.5889 28.5126 18.4499 28.5128 18.4493C28.5259 18.4649 28.6011 18.4509 28.6075 18.4305C28.611 18.4193 28.574 18.3504 28.5765 18.3459C28.6361 18.241 28.714 18.1816 28.8192 18.1704C28.8215 18.1711 28.8578 18.2506 28.8627 18.2511C28.9313 18.2605 28.9172 18.148 28.9301 18.0703C28.9432 17.9925 28.986 17.9943 29.0797 18.1147C29.1025 18.0816 29.1792 18.1162 29.2242 18.1379C29.2693 18.1595 29.1931 18.0074 29.1938 18.0033C29.2146 17.8701 29.301 17.934 29.3823 17.9064C29.4208 17.8937 29.4783 17.8332 29.5064 17.7957C29.5286 17.7659 29.5667 17.7899 29.581 17.7523C29.583 17.7472 29.5414 17.6838 29.5411 17.6806C29.5258 17.5848 29.6041 17.7533 29.6269 17.7783C29.71 17.8691 29.757 17.9159 29.7677 17.844C29.7703 17.8275 29.6608 17.5826 29.6689 17.5597C29.6798 17.5302 29.7207 17.617 29.7311 17.5839C29.732 17.5812 29.7014 17.5308 29.7163 17.5249C29.7845 17.4972 29.8712 17.4846 29.9331 17.4392C29.9417 17.4332 29.881 17.3608 29.8926 17.3508C29.9464 17.3044 30.0139 17.2659 30.095 17.2658C30.1153 17.266 30.1417 17.3268 30.1553 17.3411C30.2381 17.4277 30.1729 17.2665 30.1755 17.2609C30.2361 17.1237 30.4029 17.1987 30.469 17.0651C30.4723 17.0579 30.4203 16.8953 30.5062 16.9751L30.316 17.1526C30.3217 17.1562 30.3282 17.1603 30.3354 17.1651C30.3437 17.1715 30.4804 17.2576 30.4006 17.1807C30.3955 17.1761 30.3242 17.1334 30.3398 17.1264C30.3559 17.1188 30.3238 17.0684 30.4118 17.0999C30.4391 17.1105 30.5854 17.1795 30.4882 17.0933C30.4826 17.0854 30.2469 16.9162 30.4254 17.005C30.4548 17.0195 30.6395 17.1219 30.5564 17.0477C30.54 17.0339 30.4945 17.0193 30.4737 16.9955C30.441 16.9602 30.502 16.9633 30.4214 16.9125C30.4076 16.9025 30.2772 16.843 30.38 16.8782C30.3962 16.8834 30.4618 16.9093 30.4703 16.909C30.5118 16.9074 30.463 16.8896 30.5051 16.9502C30.5207 16.9724 30.6348 16.968 30.665 16.9886C30.6957 17.0086 30.725 17.068 30.7148 17.1694C30.7152 17.2773 30.4794 17.2529 30.5925 17.4388C30.675 17.5578 30.8106 17.6526 30.9183 17.6935C30.7399 17.6447 30.6459 17.5125 30.5259 17.4432C30.5052 17.4311 30.4961 17.4984 30.4634 17.4847C30.3439 17.4348 30.125 17.3986 30.0886 17.2292C30.0595 17.0935 30.1911 17.0623 30.1518 16.9942C30.1323 16.9614 30.0125 17.1383 30.0031 17.1412C29.9081 17.1713 29.9018 17.0654 29.8302 17.064C29.8155 17.0638 29.7917 17.147 29.7796 17.146C29.7381 17.1432 29.7161 17.0912 29.6797 17.0822C29.6631 17.0784 29.6389 17.1391 29.627 17.1281C29.5975 17.1024 29.5804 17.0645 29.5724 16.9938C29.5717 16.9874 29.6252 16.9224 29.6015 16.9084C29.5629 16.886 29.5377 16.8087 29.4659 16.8452C29.4446 16.8563 29.3842 16.9928 29.3962 16.8855C29.3986 16.8631 29.4784 16.7023 29.3817 16.8291C29.365 16.8498 29.2255 17.017 29.2503 16.8811C29.2569 16.8454 29.2952 16.7022 29.2698 16.7164C29.2661 16.7188 29.2435 16.7963 29.2269 16.7977C29.1687 16.8013 29.121 16.7719 29.0621 16.7745C29.0462 16.7753 29.0339 16.8601 29.0113 16.8589C28.9489 16.8556 28.8901 16.8086 28.8469 16.7631C28.8312 16.7463 28.8703 16.688 28.8717 16.6805C28.8944 16.5584 28.8193 16.7052 28.8082 16.7111C28.7392 16.7452 28.7326 16.6596 28.6811 16.6613C28.667 16.6616 28.6471 16.7379 28.6421 16.7434C28.5924 16.7972 28.6621 16.6736 28.6519 16.6529C28.6242 16.595 28.5722 16.5817 28.5239 16.574C28.5062 16.5714 28.4923 16.6632 28.4769 16.6599C28.3846 16.6416 28.2974 16.6001 28.2292 16.5224C28.2164 16.5076 28.2501 16.4455 28.2522 16.4292C28.2667 16.3157 28.1811 16.447 28.1685 16.458C28.1108 16.5078 28.118 16.4449 28.0827 16.4448C28.0127 16.445 27.9436 16.4289 27.875 16.4046C27.7773 16.3699 27.6825 16.3182 27.6008 16.2776C27.4224 16.1895 27.2909 16.0838 27.1022 16.0523C27.0902 16.0502 27.0786 16.1433 27.068 16.1427C26.9331 16.1308 26.8133 16.0641 26.6761 16.06C26.6648 16.0595 26.6605 16.149 26.6419 16.1511C26.6036 16.156 26.5601 16.1413 26.5306 16.1059C26.516 16.0888 26.5559 16.0201 26.5408 16.0044C26.5057 15.9676 26.4627 15.9518 26.4175 15.9567C26.3981 15.9589 26.4066 16.0529 26.383 16.0489C26.2221 16.0241 26.0636 16.0088 25.9221 15.8646C25.9124 15.8548 25.9351 15.6726 25.9048 15.703C25.8941 15.7527 25.8838 15.8116 25.8735 15.865C25.6344 15.8524 25.4124 15.7538 25.178 15.7135C25.1682 15.7118 25.1727 15.8103 25.1538 15.8076C25.0428 15.7919 24.9349 15.8064 24.832 15.6989C24.8218 15.6884 24.8453 15.519 24.8088 15.5414C24.8023 15.5454 24.75 15.5633 24.7341 15.5991C24.7319 15.6045 24.7334 15.6847 24.7175 15.6856C24.6233 15.6892 24.5308 15.6637 24.4426 15.6096C24.4287 15.6008 24.4491 15.5169 24.4392 15.5099C24.3657 15.4604 24.2846 15.5215 24.2168 15.4428C24.1721 15.3899 24.192 15.2436 24.1676 15.0987C24.164 15.0783 24.1337 15.0748 24.1325 14.9907C24.129 14.7794 24.1463 14.548 24.141 14.3227C24.1397 14.2741 24.0925 14.3263 24.1206 14.2091C24.1225 14.2012 24.1576 14.1625 24.167 14.1228C24.1735 14.0954 24.1631 14.0098 24.1763 13.9747C24.1895 13.9397 24.2036 14.0116 24.2243 13.9706C24.2458 13.9291 24.2385 13.8316 24.2814 13.8212ZM29.4281 18.2326C29.4917 18.291 29.3522 18.0264 29.3602 18.1035C29.3607 18.1076 29.425 18.2298 29.4281 18.2326ZM26.3217 19.2711C26.3636 19.4016 26.3809 19.2067 26.3513 19.1059C26.3219 19.0052 26.3091 19.2315 26.3217 19.2711ZM25.9403 19.3777C25.9859 19.4808 25.9842 19.0567 25.9396 19.1433C25.9371 19.1482 25.9376 19.3717 25.9403 19.3777ZM24.2911 15.0605C24.2909 15.0565 24.2692 15.0519 24.2683 15.0559C24.2538 15.1504 24.297 15.1595 24.2911 15.0605ZM25.5576 19.4873C25.5717 19.5446 25.6104 19.478 25.5929 19.4068C25.5788 19.3495 25.5401 19.416 25.5576 19.4873ZM30.855 17.7377C30.8579 17.7411 30.8738 17.7352 30.8594 17.7145C30.8131 17.6479 30.807 17.6796 30.855 17.7377ZM24.9024 19.4939C24.9993 19.5098 25.0583 19.8601 24.9526 19.8206C24.9334 19.8135 24.9938 19.7089 24.9694 19.6773C24.9249 19.6198 24.8954 19.8398 24.8499 19.7219C24.8417 19.7003 24.8969 19.4922 24.9026 19.4934C24.9025 19.4935 24.9025 19.4937 24.9024 19.4939ZM29.6139 18.5405C29.6163 18.5437 29.6383 18.536 29.6369 18.5323C29.6023 18.443 29.5582 18.4584 29.6139 18.5405ZM31.4619 16.9261C31.4737 16.9258 31.4526 16.8255 31.4388 16.8246C31.2926 16.8701 31.3085 16.9723 31.4619 16.9261ZM28.296 19.4063C28.3086 19.5043 28.2838 19.5265 28.2203 19.4227C28.2461 19.4192 28.2704 19.4104 28.296 19.4063Z" fill="#F96640"/>
<path d="M16.9788 37.1097C16.9933 37.2054 16.9447 37.2929 16.8919 37.3413C16.8756 37.3563 16.8269 37.3332 16.8134 37.3424C16.787 37.3603 16.8058 37.3881 16.7758 37.4021C16.7656 37.4066 16.6881 37.3729 16.6793 37.3779C16.632 37.4045 16.6409 37.4442 16.6116 37.4727C16.4678 37.6077 16.3785 37.7227 16.2793 37.8382C16.2466 37.8762 16.1528 37.8925 16.1602 37.9506C16.1611 37.9575 16.2281 37.9884 16.233 37.9922C16.3076 38.0504 16.1782 37.9766 16.1557 37.9772C16.0664 37.9796 16.0381 38.0183 16.0436 38.0682C16.0461 38.0895 16.1833 38.1434 16.1026 38.12C16.0971 38.1185 16.0304 38.0774 16.0207 38.0777C15.9991 38.0783 16.0013 38.1035 15.992 38.1077C15.9734 38.1159 15.9728 38.1187 15.9647 38.1317C15.9528 38.1494 15.907 38.1521 15.9116 38.1803C15.9128 38.1864 15.9861 38.2197 15.9943 38.233C16.0025 38.2464 15.9866 38.261 15.9669 38.2576C15.947 38.2543 15.8933 38.2211 15.8801 38.2151C15.7688 38.1642 15.905 38.2668 15.9072 38.2716C15.9425 38.3542 15.8356 38.3476 15.8106 38.392C15.7918 38.4257 15.7986 38.4778 15.7766 38.5071C15.7499 38.5424 15.6938 38.5523 15.6788 38.5929C15.6771 38.5972 15.7613 38.6401 15.7594 38.6454C15.7588 38.6472 15.7581 38.6489 15.7574 38.6507L15.7868 38.5918C15.7746 38.645 15.7436 38.6898 15.6661 38.7165C15.658 38.7192 15.584 38.6813 15.5714 38.6822C15.4954 38.6881 15.3231 38.6784 15.6502 38.8314C15.6286 38.8476 15.6046 38.8684 15.5294 38.861C15.4809 38.8562 15.4019 38.8108 15.4316 38.8404C15.4382 38.847 15.5134 38.8716 15.5178 38.8793C15.536 38.9118 15.5027 38.9263 15.5322 38.9629C15.5384 38.9704 15.6048 38.9951 15.6161 39.001C15.7082 39.0491 15.5424 39.0043 15.5294 39.0036C15.4319 38.999 15.4575 39.0336 15.4449 39.0599C15.4419 39.066 15.5335 39.0929 15.5339 39.1C15.5344 39.1362 15.5143 39.1658 15.4631 39.1815C15.4515 39.185 15.3782 39.1497 15.3688 39.1498C15.3282 39.1509 15.4699 39.2088 15.4337 39.2109C15.4262 39.2114 15.3621 39.185 15.3548 39.1828C15.2399 39.1485 15.3953 39.2162 15.398 39.2197C15.4354 39.2651 15.2635 39.2197 15.2768 39.255C15.2786 39.2593 15.3633 39.2833 15.3633 39.2935C15.3635 39.3611 15.3174 39.4152 15.2295 39.4493C15.216 39.4547 15.1567 39.4249 15.1489 39.4226C15.0266 39.3873 15.1835 39.4533 15.1884 39.4585C15.2227 39.4983 15.0809 39.4701 15.2646 39.5574C15.1613 39.6324 15.2305 39.7721 15.0231 39.8076C15.0207 39.8081 14.9431 39.7763 14.9386 39.7775C14.8832 39.7912 15.0072 39.8313 15.1486 39.9076C15.1841 39.9268 14.9984 39.8743 14.9847 39.8707C14.9343 39.8573 14.8196 39.8081 14.8096 39.8062C14.7305 39.792 15.117 39.9355 15.11 39.9541C15.1092 39.9544 15.0391 39.9252 15.0315 39.924C15.0075 39.9205 15.0339 39.936 15.0077 39.9315C14.947 39.9209 14.7583 39.8538 14.861 39.9116C14.8744 39.9191 15.0942 39.9988 15.0776 40.0115C15.0708 40.0165 15.0634 40.0472 15.0461 40.05C15.0288 40.0528 14.9606 40.0204 14.9573 40.0198C14.8558 40.0064 14.8204 39.9833 14.6784 39.9417C14.5369 39.9002 14.8655 40.0222 14.9003 40.0407C14.935 40.0591 14.8521 40.0459 14.8239 40.0397C14.7956 40.0334 14.7528 40.0114 14.7364 40.0091C14.6287 39.9945 14.8949 40.0816 14.9439 40.1092C15.0599 40.1746 14.8118 40.0956 14.7816 40.103C14.7735 40.105 14.8301 40.1227 14.8337 40.1287C14.8474 40.1521 14.768 40.1324 14.8304 40.1773C14.8406 40.1846 14.9806 40.2558 14.87 40.2237C14.8541 40.2191 14.7952 40.1918 14.779 40.1933C14.7548 40.1955 14.7345 40.2085 14.7505 40.2272C14.7623 40.2411 14.8653 40.2707 14.8305 40.2687C14.8149 40.2678 14.76 40.2368 14.7357 40.237C14.7114 40.2371 14.7056 40.2595 14.7044 40.2684C14.7032 40.2773 14.7803 40.3024 14.7852 40.3051C14.8127 40.3205 14.8429 40.3504 14.8422 40.3518C14.8239 40.4254 14.6716 40.4388 14.6861 40.5231C14.6871 40.5297 14.7677 40.5583 14.7687 40.5596C14.7944 40.5913 14.5899 40.4916 14.5144 40.4756C14.6756 40.539 14.6435 40.5346 14.6559 40.5546C14.662 40.5642 14.7255 40.5862 14.7316 40.5894C14.8222 40.6371 14.6978 40.5937 14.6722 40.5851C14.5781 40.5537 14.6837 40.6046 14.6207 40.5836C14.5583 40.5627 14.472 40.5164 14.4682 40.529C14.5241 40.556 14.6778 40.6085 14.6983 40.6278C14.7378 40.665 14.7194 40.6878 14.6887 40.7042L14.682 40.7189C14.6512 40.7335 14.6096 40.7405 14.597 40.751C14.5712 40.7725 14.5768 40.7864 14.5487 40.7919C14.4981 40.8015 14.6101 40.8467 14.6498 40.8896C14.6895 40.9326 14.4315 40.7874 14.3738 40.7605C14.3161 40.7336 14.3727 40.7666 14.3401 40.7535C14.3075 40.7405 14.2727 40.7138 14.2572 40.715C14.2418 40.7163 14.3319 40.7881 14.3896 40.8214C14.5118 40.8917 14.6477 40.951 14.5917 40.946C14.5884 40.9457 14.5212 40.9064 14.5121 40.9069C14.4418 40.9122 14.4208 40.9451 14.3569 40.9544C14.3479 40.9557 14.2726 40.9127 14.2666 40.913C14.2029 40.9166 14.3385 40.9717 14.4764 41.0586C14.2847 40.9595 14.162 40.9097 14.1502 40.931C14.1431 40.9438 14.2289 40.9827 14.2846 41.02C14.3015 41.0311 14.2387 41.0123 14.2779 41.0331C14.406 41.1011 14.5561 41.1628 14.4879 41.1559C14.4847 41.1555 14.4145 41.1185 14.4086 41.1197C14.3702 41.1274 14.5062 41.1943 14.5127 41.2239C14.5177 41.2474 14.4197 41.2398 14.3969 41.2543C14.1753 41.1557 14.2172 41.1984 14.3672 41.2728C14.355 41.2836 14.3578 41.3012 14.331 41.3052C14.3219 41.3065 14.2584 41.2763 14.2512 41.2739C14.1378 41.2365 14.2852 41.3056 14.2899 41.3109C14.3344 41.3654 14.2094 41.3457 14.3096 41.4201C14.3132 41.4228 14.4693 41.4861 14.3517 41.4491C14.3435 41.4466 14.2761 41.4085 14.265 41.4208C14.2539 41.4327 14.1592 41.4275 14.2245 41.4756C14.2403 41.487 14.3641 41.5464 14.2603 41.5191C14.2462 41.5153 14.2014 41.4972 14.1755 41.4898C14.0928 41.4665 14.2515 41.5284 14.1129 41.4861C13.9743 41.444 13.8665 41.4233 13.953 41.478C13.9555 41.4797 14.0809 41.5298 14.0766 41.5356C14.0696 41.5449 14.0378 41.5507 14.0349 41.5618C14.0336 41.5671 14.1139 41.5911 14.1151 41.5925C14.1476 41.6424 14.0686 41.643 14.0253 41.6711C14.0171 41.6764 14.1195 41.7312 14.0293 41.7169C13.9303 41.7017 13.543 41.5616 13.6251 41.6274C13.6576 41.6547 14.1514 41.825 13.8852 41.7708C13.9344 41.8393 13.7885 41.8453 13.8666 41.9205C13.8701 41.9239 14.0084 41.9703 14.0051 41.9748C13.9998 41.9815 13.9331 41.9673 13.9272 41.9716C13.9009 41.9896 13.9516 42.0251 13.9369 42.0448C13.9315 42.0523 13.8643 42.031 13.8578 42.0401C13.8513 42.0492 13.9391 42.0799 13.8922 42.0821C13.8566 42.0833 13.6706 42.0454 13.6456 42.0538C13.8264 42.1015 13.8202 42.1098 13.8637 42.1389C13.8721 42.1445 13.936 42.1573 13.9433 42.1607C13.9742 42.1752 13.9205 42.1676 13.9543 42.1825C13.9625 42.1861 14.0243 42.2019 14.0344 42.2057C14.123 42.2388 13.9799 42.219 13.955 42.2158C13.8602 42.2032 13.9395 42.2284 13.9012 42.2275C13.8629 42.2266 13.8206 42.2031 13.7962 42.2072C13.7456 42.216 13.7492 42.2449 13.7415 42.2641C13.7388 42.272 13.823 42.2865 13.8245 42.2881C13.8416 42.3096 13.7493 42.3057 13.9123 42.3542C13.4824 42.2648 13.9512 42.3745 13.8602 42.3779C13.8528 42.3781 13.6501 42.3333 13.6222 42.3191C13.5942 42.3051 13.6601 42.3083 13.6163 42.2871C13.606 42.2822 13.4201 42.2232 13.4091 42.2184C13.3232 42.1818 13.6253 42.2521 13.6421 42.2553C13.8229 42.2895 13.6232 42.2238 13.6103 42.2159C13.5507 42.1801 13.5976 42.1723 13.5558 42.1438C13.5289 42.1252 13.3321 42.0748 13.3404 42.0674C13.3678 42.0426 13.645 42.1025 13.4143 42.0131C13.3651 41.994 13.1486 41.9442 13.3233 41.9663C13.3343 41.9676 13.493 41.9922 13.3977 41.9574C13.3857 41.953 13.3231 41.9365 13.3182 41.9336C13.2869 41.9144 13.3387 41.9203 13.3179 41.9025C13.2971 41.8847 13.2653 41.8613 13.29 41.8541C13.3048 41.8497 13.4238 41.8716 13.4532 41.8758C13.538 41.8883 13.4068 41.8395 13.5078 41.8605C13.6093 41.8818 13.7573 41.9363 13.8263 41.9376C13.6646 41.8918 13.4988 41.844 13.3362 41.7974C13.3525 41.761 13.4155 41.7385 13.4196 41.6986C13.4199 41.6936 13.3318 41.6728 13.3299 41.6668C13.3224 41.6417 13.39 41.6406 13.3721 41.6109C13.3581 41.5877 13.2722 41.5414 13.2552 41.515C13.4424 41.5609 13.3885 41.5147 13.4114 41.5008C13.4194 41.4959 13.4681 41.5121 13.4857 41.5124C13.5506 41.5131 13.3861 41.4692 13.3624 41.4558C13.261 41.3982 13.6272 41.5164 13.6263 41.4893C13.6262 41.4881 13.4373 41.4064 13.426 41.3999C13.3521 41.3585 13.4945 41.4203 13.5119 41.4161C13.5437 41.4085 13.5938 41.4134 13.5436 41.3749C13.5287 41.3636 13.413 41.3073 13.5101 41.3292C13.5228 41.3321 13.5864 41.3555 13.5906 41.3557C13.6602 41.3573 13.4598 41.2852 13.3963 41.2487C13.3328 41.212 13.4781 41.2428 13.5192 41.2539C13.6257 41.2819 13.5604 41.2776 13.5703 41.2818C13.6883 41.332 13.6725 41.3111 13.6863 41.3049C13.8828 41.3757 13.876 41.358 13.6999 41.2982C13.6806 41.2917 13.696 41.3062 13.6863 41.3049C13.4973 41.2251 13.4787 41.1998 13.6646 41.2497C13.7516 41.2735 13.8466 41.318 13.8198 41.2808C13.8078 41.2639 13.672 41.2164 13.6391 41.1925C13.5645 41.1375 13.701 41.1571 13.6905 41.1267C13.6868 41.1154 13.6105 41.0941 13.6055 41.0853C13.592 41.0616 13.6522 41.0706 13.6305 41.0439C13.6285 41.0414 13.5509 41.0132 13.552 41.008C13.5588 40.9668 13.6209 40.9558 13.6388 40.9188C13.6475 40.9007 13.6207 40.8495 13.6379 40.8342C13.667 40.8073 13.7939 40.8194 13.7806 40.78C13.7724 40.7543 13.6963 40.7222 13.6496 40.6899C13.5589 40.6274 13.747 40.6869 13.7756 40.6973C13.7765 40.6977 13.7865 40.7212 13.8284 40.7321C13.9096 40.7666 13.7758 40.6977 13.7756 40.6973C13.7941 40.7038 13.8257 40.6825 13.8146 40.6696C13.8085 40.6626 13.7378 40.6292 13.736 40.6262C13.6936 40.555 13.6964 40.5064 13.7484 40.4854C13.7502 40.4854 13.8272 40.5267 13.8303 40.5264C13.876 40.5227 13.7885 40.4594 13.7411 40.4129C13.694 40.3662 13.7195 40.363 13.8579 40.422C13.8477 40.4006 13.9157 40.4135 13.9567 40.4215C13.9977 40.4296 13.8469 40.3511 13.8443 40.3488C13.7992 40.3073 13.807 40.2977 13.8277 40.2939L13.8078 40.3377C13.8251 40.3322 13.8516 40.33 13.8637 40.3185C13.8768 40.3066 13.8661 40.2678 13.8554 40.2447C13.8467 40.2263 13.8868 40.2337 13.8679 40.2123C13.8654 40.2095 13.7946 40.1826 13.7921 40.181C13.7135 40.1339 13.8824 40.2098 13.9142 40.2195C14.0296 40.2549 14.0914 40.2727 14.0458 40.2346C14.0354 40.2258 13.7928 40.1148 13.7812 40.102C13.7665 40.0855 13.8537 40.1246 13.8361 40.1063C13.8347 40.1048 13.7799 40.083 13.7847 40.0781C13.8062 40.0548 13.85 40.0374 13.8559 40.0065C13.8569 40.0024 13.768 39.973 13.7681 39.9665C13.7682 39.9359 13.7829 39.908 13.8338 39.898C13.8466 39.8956 13.906 39.9234 13.9247 39.9291C14.0375 39.9634 13.8832 39.889 13.8809 39.8858C13.823 39.8083 13.9814 39.8275 13.9316 39.7518C13.9286 39.7476 13.7655 39.6614 13.9157 39.7085C13.9257 39.7116 14.0793 39.76 13.9797 39.7126C13.9735 39.7096 13.8941 39.6857 13.9057 39.6789C13.9174 39.672 13.8718 39.6363 13.962 39.6551C13.9904 39.661 14.1441 39.7078 14.0296 39.6494C14.0216 39.6453 13.7591 39.5228 13.9481 39.5865C13.9792 39.597 14.176 39.6731 14.0808 39.6192C14.0623 39.6088 14.0162 39.5975 13.9917 39.5793C13.9539 39.5513 14.0127 39.5555 13.9304 39.5076C13.9158 39.4991 13.786 39.4376 13.8909 39.4673C13.9074 39.472 13.9723 39.4995 13.9814 39.4976C14.0251 39.489 13.9897 39.4493 14.0437 39.4441C14.0627 39.4422 14.1678 39.4864 14.1994 39.4889C14.2311 39.4913 14.2649 39.4849 14.2194 39.4579C14.174 39.4309 14.0006 39.3765 13.9918 39.3584C13.9541 39.2797 14.0748 39.2609 14.1108 39.2094C14.1161 39.2018 14.0527 39.1859 14.0562 39.1731C14.0689 39.1255 14.0418 39.0244 14.1861 39.0328C14.3016 39.0396 14.3651 39.1097 14.4164 39.101C14.441 39.0968 14.2484 39.0095 14.2433 39.0043C14.1907 38.9525 14.2855 38.966 14.2682 38.9306C14.2646 38.9233 14.1827 38.8981 14.1806 38.8922C14.1724 38.8718 14.2142 38.8693 14.2132 38.8523C14.2125 38.8446 14.151 38.8226 14.158 38.8184C14.1741 38.808 14.2046 38.8051 14.2671 38.8128C14.2728 38.8135 14.3455 38.8511 14.3523 38.8415C14.3632 38.826 14.4278 38.8262 14.3771 38.7841C14.3618 38.7716 14.2225 38.7179 14.3237 38.7422C14.3448 38.7472 14.5108 38.8148 14.3719 38.7446C14.3488 38.7329 14.1634 38.6331 14.2937 38.6692C14.3281 38.6788 14.4681 38.7233 14.4493 38.708C14.4462 38.7057 14.3699 38.6807 14.3649 38.672C14.3485 38.6418 14.3649 38.6232 14.3498 38.5927C14.3456 38.5845 14.265 38.563 14.2612 38.5517C14.2508 38.5206 14.282 38.499 14.3151 38.4855C14.3275 38.4805 14.3892 38.5115 14.3964 38.5136C14.5135 38.5482 14.363 38.4823 14.3554 38.4755C14.3101 38.4341 14.388 38.4468 14.3765 38.4204C14.3735 38.4132 14.2992 38.3881 14.2932 38.3845C14.234 38.3485 14.3615 38.4084 14.3786 38.4073C14.427 38.4044 14.4296 38.3809 14.428 38.3579C14.4273 38.3494 14.3399 38.3236 14.3402 38.3164C14.3408 38.2728 14.3648 38.2365 14.4262 38.2184C14.4379 38.2151 14.5009 38.2458 14.5163 38.2504C14.6238 38.2827 14.4886 38.2106 14.4766 38.2017C14.4215 38.1612 14.4812 38.1787 14.476 38.1608C14.4638 38.1194 14.4734 38.0827 14.4922 38.05L14.5455 37.943C14.5698 37.9119 14.6039 37.8884 14.6321 37.8664C14.7006 37.8129 14.7896 37.7914 14.8122 37.7162C14.8137 37.7115 14.7303 37.6701 14.7305 37.6654C14.7372 37.608 14.7948 37.5792 14.7965 37.5203C14.7969 37.5155 14.7166 37.4785 14.7145 37.4694C14.7096 37.4503 14.7224 37.437 14.7539 37.438C14.7691 37.4384 14.8311 37.4827 14.8451 37.4824C14.8778 37.4815 14.8919 37.4687 14.8873 37.4474C14.8852 37.4382 14.8008 37.4049 14.8042 37.3964C14.8261 37.3366 14.84 37.2769 14.9717 37.2754C14.9808 37.2753 15.1459 37.3549 15.1187 37.3308C15.0736 37.3072 15.0202 37.2803 14.9718 37.2555C14.985 37.1646 15.0785 37.1166 15.1185 37.0493C15.1201 37.0465 15.0289 37.0129 15.0316 37.0074C15.0469 36.9756 15.0332 36.9381 15.1338 36.9444C15.1437 36.945 15.3032 37.0062 15.2823 36.9881C15.2785 36.9848 15.2618 36.964 15.2277 36.949C15.2226 36.9468 15.1466 36.9224 15.1456 36.9182C15.1413 36.8938 15.1632 36.8838 15.2127 36.8866C15.2209 36.8871 15.3029 36.9093 15.3094 36.9095C15.3561 36.9083 15.2929 36.8933 15.3685 36.9097C15.4197 36.9191 15.5661 36.9307 15.7104 36.9371C15.7309 36.9376 15.7343 36.9335 15.8183 36.9348C16.0297 36.937 16.2608 36.952 16.4861 36.9544C16.5348 36.9549 16.4828 36.9133 16.5999 36.9386C16.6079 36.9403 16.646 36.9729 16.6852 36.9832C16.7124 36.9905 16.7983 36.9836 16.8328 36.9984C16.8672 37.0134 16.7949 37.0211 16.8344 37.0438C16.8742 37.0666 16.972 37.0697 16.9788 37.1097ZM14.1403 40.457C14.1627 40.4648 14.1565 40.4591 14.1377 40.4482L14.1275 40.4707C14.0958 40.4548 14.0299 40.4273 14.0011 40.4181L14.0152 40.3872C14.0006 40.3813 13.9957 40.381 14.0101 40.3912C14.0133 40.3934 14.1365 40.4557 14.1403 40.457ZM13.6322 41.8016C13.7633 41.8234 13.58 41.759 13.4791 41.7411C13.3782 41.7235 13.5925 41.7952 13.6322 41.8016ZM13.6822 41.981C13.7872 41.9911 13.3786 41.8772 13.4563 41.9186C13.4606 41.921 13.6761 41.9805 13.6822 41.981ZM15.7484 36.9668C15.7524 36.9673 15.7571 36.9621 15.7532 36.9615C15.6594 36.9461 15.6506 36.9534 15.7484 36.9668ZM13.7443 42.1587C13.8012 42.1674 13.7408 42.1361 13.67 42.1251C13.613 42.1163 13.6734 42.1479 13.7443 42.1587ZM14.6452 40.051C14.6494 40.0524 14.6556 40.0477 14.632 40.0388C14.5561 40.01 14.5742 40.0268 14.6452 40.051ZM13.6878 42.4159C13.7122 42.3808 14.0586 42.4379 14.0109 42.469C14.0022 42.4748 13.9056 42.4283 13.8727 42.4305C13.8126 42.435 14.0245 42.4951 13.9055 42.4869C13.8838 42.4854 13.6856 42.4178 13.6873 42.4157C13.6875 42.4158 13.6877 42.4158 13.6878 42.4159ZM14.4646 40.6116C14.4652 40.6119 14.4659 40.6119 14.4666 40.6118C14.4703 40.6109 14.4747 40.6058 14.4718 40.6043C14.4087 40.5742 14.3844 40.5738 14.4128 40.5894C14.4242 40.5921 14.4407 40.6009 14.4646 40.6116ZM14.9552 39.7558C14.9633 39.7583 14.9782 39.7411 14.9711 39.7378C14.8297 39.6727 14.7992 39.7072 14.9552 39.7558ZM14.3908 41.252C14.4744 41.2992 14.4804 41.3136 14.3673 41.2728C14.377 41.2666 14.3816 41.2583 14.3908 41.252Z" fill="black"/>
<path d="M19.5587 36.8029C19.6737 36.6931 19.8711 36.6473 19.9942 36.6607C20.0332 36.6642 20.0259 36.72 20.0517 36.7256C20.1021 36.7367 20.1364 36.7058 20.181 36.7261C20.1952 36.7332 20.1866 36.8183 20.2006 36.824C20.2724 36.855 20.3305 36.8337 20.3895 36.8548C20.6626 36.9635 20.8111 37.0595 20.9628 37.16C21.0109 37.1935 21.0402 37.2904 21.1039 37.2842C21.1114 37.2834 21.14 37.2154 21.1438 37.2105C21.2021 37.1354 21.1312 37.2664 21.1338 37.2896C21.1443 37.3818 21.1878 37.412 21.2412 37.4085C21.2643 37.407 21.3166 37.2688 21.2951 37.3506C21.2937 37.3562 21.2519 37.4225 21.2526 37.4324C21.2544 37.4548 21.2813 37.4536 21.2862 37.4635C21.2957 37.4829 21.2986 37.4836 21.3129 37.4928C21.3325 37.506 21.3362 37.553 21.3661 37.55C21.3727 37.5492 21.4072 37.4764 21.4214 37.469C21.4356 37.4615 21.4517 37.4789 21.4486 37.4991C21.4452 37.5191 21.4102 37.5716 21.4039 37.5847C21.3502 37.6947 21.4586 37.5628 21.4638 37.561C21.5528 37.5318 21.545 37.6405 21.5913 37.6698C21.6266 37.6919 21.6817 37.69 21.7122 37.7155C21.7494 37.7468 21.7569 37.8043 21.7992 37.8243C21.8036 37.8264 21.8523 37.7454 21.8578 37.748C21.9153 37.7742 21.9612 37.8189 21.9744 37.9066C21.9757 37.9155 21.921 37.9782 21.9194 37.9911C21.9112 38.0689 21.8608 38.2343 22.0922 37.9569C22.0946 37.962 22.0972 37.9673 22.0996 37.973L22.0896 37.9659C22.1004 37.9894 22.1083 38.0203 22.0897 38.079C22.0748 38.1257 22.0112 38.1913 22.048 38.1701C22.0563 38.1655 22.0976 38.0979 22.1065 38.0958C22.1444 38.0871 22.1526 38.1245 22.1972 38.1063C22.2064 38.1025 22.2467 38.0442 22.2553 38.0347C22.326 37.9584 22.243 38.1091 22.2393 38.1217C22.2128 38.2168 22.2541 38.202 22.2786 38.223C22.2842 38.2279 22.3339 38.1463 22.3414 38.1483C22.3796 38.1598 22.4059 38.1898 22.4094 38.2456C22.41 38.2582 22.3548 38.318 22.3526 38.3273C22.3432 38.3673 22.4394 38.2483 22.4322 38.2846C22.4308 38.292 22.3869 38.3457 22.3827 38.3521C22.3173 38.4526 22.4277 38.3239 22.4321 38.3226C22.489 38.3021 22.3958 38.4538 22.4352 38.4531C22.4401 38.4529 22.4881 38.379 22.4985 38.3827C22.568 38.4069 22.6103 38.4727 22.6175 38.5704C22.6187 38.5855 22.5704 38.6311 22.5657 38.6377C22.4921 38.7417 22.6071 38.6162 22.6139 38.6135C22.6646 38.596 22.5909 38.7208 22.7373 38.5795C22.7788 38.7081 22.943 38.7034 22.9013 38.9146C22.9009 38.9171 22.8412 38.976 22.8406 38.9807C22.8328 39.0385 22.918 38.9397 23.0458 38.8418C23.0781 38.8174 22.9567 38.9676 22.9479 38.9787C22.9156 39.0197 22.8242 39.1047 22.8185 39.1132C22.7741 39.1803 23.0611 38.8844 23.0768 38.8997C23.0768 38.9007 23.0215 38.9526 23.0174 38.9593C23.0048 38.98 23.0299 38.9625 23.0154 38.9849C22.9817 39.0367 22.843 39.1812 22.9387 39.1121C22.9511 39.1031 23.1143 38.9356 23.1202 38.9572C23.1224 38.966 23.1492 38.9876 23.1451 39.0051C23.1409 39.0225 23.0822 39.0703 23.0804 39.0731C23.0265 39.1606 22.9901 39.1824 22.8923 39.2936C22.7947 39.4041 23.0453 39.159 23.0771 39.1356C23.1089 39.1124 23.0622 39.1826 23.0445 39.2055C23.0268 39.2284 22.9883 39.2573 22.9792 39.2713C22.9203 39.3628 23.1136 39.1602 23.1602 39.1285C23.2708 39.0538 23.0922 39.2434 23.086 39.2743C23.0844 39.2827 23.1251 39.2394 23.1323 39.2391C23.1602 39.2382 23.1076 39.3008 23.1764 39.266C23.1876 39.2603 23.3151 39.1683 23.2371 39.2531C23.2258 39.2653 23.1747 39.3053 23.169 39.3207C23.1605 39.3438 23.1635 39.3685 23.1879 39.3635C23.2059 39.3597 23.2791 39.2813 23.2619 39.3119C23.2541 39.3256 23.201 39.3596 23.1903 39.3817C23.1795 39.4037 23.1974 39.4202 23.2051 39.4257C23.2128 39.4313 23.2708 39.3746 23.2754 39.3716C23.3021 39.3546 23.3435 39.343 23.3445 39.3443C23.405 39.4 23.3458 39.5432 23.4288 39.5758C23.4353 39.5785 23.5 39.5227 23.5017 39.5226C23.5429 39.5172 23.3538 39.6439 23.3026 39.7018C23.4381 39.5938 23.4186 39.6198 23.4425 39.6197C23.4542 39.6197 23.505 39.5757 23.5109 39.572C23.5982 39.5184 23.4983 39.6045 23.478 39.6223C23.4035 39.6879 23.5012 39.623 23.4513 39.6668C23.4017 39.7102 23.3177 39.7606 23.3269 39.7707C23.3788 39.7364 23.5018 39.6303 23.5292 39.6231C23.6335 39.5961 23.5767 39.734 23.5844 39.7677C23.5924 39.8018 23.6077 39.8039 23.6001 39.8322C23.5861 39.8832 23.678 39.8046 23.7357 39.7915C23.7935 39.7786 23.5426 39.9359 23.4917 39.9741C23.4407 40.0121 23.4966 39.978 23.4697 40.0006C23.4427 40.0231 23.4026 40.0409 23.3963 40.0551C23.39 40.0691 23.4966 40.0252 23.5538 39.9911C23.6748 39.9186 23.7921 39.8279 23.7618 39.8763C23.7599 39.8791 23.6925 39.9182 23.6888 39.9268C23.661 39.9935 23.6803 40.0306 23.6563 40.0924C23.6529 40.1009 23.5769 40.1425 23.5741 40.148C23.544 40.2046 23.6619 40.1178 23.8099 40.049C23.6237 40.1581 23.5163 40.2354 23.5276 40.2565C23.5343 40.2693 23.6138 40.2187 23.6758 40.193C23.6945 40.1852 23.6442 40.2273 23.6833 40.2064C23.8112 40.1382 23.9456 40.0468 23.9037 40.1028C23.9016 40.1054 23.8313 40.1422 23.8292 40.1481C23.8281 40.1513 23.8279 40.1537 23.8286 40.1554L23.8338 40.165C23.8401 40.1849 23.9578 40.1317 23.9847 40.1483C24.0078 40.1627 23.9419 40.2391 23.9389 40.2683C23.7187 40.3701 23.7784 40.3669 23.9348 40.3069C23.9353 40.3247 23.9513 40.3373 23.9365 40.3612C23.9315 40.3694 23.8657 40.3941 23.859 40.3978C23.7539 40.4547 23.9059 40.3964 23.9133 40.3972C23.9856 40.4085 23.8833 40.4839 24.0087 40.4733C24.0131 40.4728 24.1708 40.4132 24.0599 40.4676C24.0523 40.4712 23.9765 40.4879 23.9772 40.5061C23.9781 40.5246 23.9048 40.5861 23.9862 40.5813C24.0058 40.5802 24.1395 40.5478 24.0429 40.5951C24.0298 40.6014 23.9837 40.616 23.9591 40.6271C23.8807 40.6624 24.0427 40.6097 23.9089 40.6654C23.7751 40.7212 23.6778 40.7711 23.7795 40.7603C23.7824 40.7601 23.9122 40.7224 23.9125 40.7301C23.9128 40.7423 23.8912 40.7667 23.8956 40.7778C23.8978 40.7832 23.9766 40.7542 23.9783 40.7547C24.0352 40.7787 23.9721 40.828 23.9527 40.8772C23.9489 40.8861 24.0649 40.8762 23.982 40.9153C23.8911 40.9576 23.4903 41.0517 23.5939 41.0589C23.6352 41.0615 24.1448 40.9464 23.8899 41.0411C23.9678 41.075 23.8446 41.1542 23.9494 41.1829C23.9541 41.1842 24.0978 41.159 24.0971 41.1649C24.0958 41.1737 24.0304 41.1932 24.0273 41.1999C24.0128 41.2287 24.0744 41.2379 24.0706 41.2636C24.0693 41.2732 23.9999 41.2849 23.9982 41.2962C23.9966 41.3073 24.0888 41.2953 24.048 41.3188C24.0169 41.3367 23.8335 41.3857 23.8146 41.4038C23.9979 41.3671 23.9961 41.3775 24.048 41.3854C24.0581 41.3869 24.1211 41.3705 24.1292 41.3706C24.1634 41.3706 24.1118 41.3875 24.1488 41.3864C24.1576 41.3862 24.2203 41.3739 24.2311 41.3731C24.3254 41.3654 24.1879 41.4106 24.1639 41.4183C24.0729 41.4477 24.1555 41.4375 24.1205 41.4532C24.0854 41.4688 24.037 41.4648 24.0166 41.479C23.9744 41.5082 23.9897 41.5338 23.9906 41.5551C23.9914 41.5636 24.0742 41.5425 24.0762 41.5434C24.1007 41.557 24.0147 41.591 24.1836 41.571C23.7537 41.6603 24.2273 41.5739 24.1453 41.6147C24.1387 41.6179 23.9347 41.6563 23.9034 41.6541C23.8721 41.6519 23.934 41.6293 23.8854 41.6274C23.874 41.6269 23.68 41.6471 23.6681 41.6474C23.5748 41.649 23.8796 41.5915 23.8962 41.5876C24.0754 41.5454 23.8661 41.5661 23.8511 41.5643C23.782 41.5556 23.8216 41.5301 23.7718 41.5221C23.7397 41.5167 23.5399 41.5538 23.5444 41.5441C23.5591 41.5119 23.8351 41.4468 23.5887 41.4677C23.5361 41.4723 23.3196 41.5219 23.4867 41.4671C23.4972 41.4638 23.6506 41.4165 23.5498 41.428C23.5371 41.4295 23.4737 41.4426 23.4681 41.4423C23.4317 41.4398 23.4808 41.4229 23.4545 41.4177C23.4282 41.4126 23.3894 41.4076 23.4084 41.3913C23.4197 41.3815 23.5355 41.3467 23.5635 41.3369C23.6445 41.3089 23.506 41.3283 23.6051 41.2999C23.7047 41.271 23.8609 41.2491 23.9223 41.2176C23.7582 41.254 23.5895 41.2906 23.4244 41.327C23.4225 41.2919 23.4675 41.2457 23.452 41.2136C23.4499 41.2098 23.3632 41.2355 23.3587 41.232C23.3402 41.2168 23.3986 41.1849 23.3688 41.1721C23.3453 41.162 23.2487 41.1711 23.2214 41.1624C23.4046 41.1029 23.3354 41.0974 23.3477 41.0764C23.3519 41.0691 23.4014 41.0554 23.4164 41.0467C23.4715 41.0141 23.3102 41.0685 23.2833 41.0717C23.1687 41.0863 23.5374 40.9764 23.5216 40.9567C23.5208 40.9554 23.3204 41.0013 23.3077 41.0035C23.2245 41.0164 23.3753 40.9805 23.3875 40.9686C23.4098 40.947 23.4533 40.922 23.391 40.9247C23.3725 40.9254 23.2475 40.9545 23.3385 40.9147C23.3504 40.9095 23.4149 40.8887 23.4184 40.8865C23.4754 40.8481 23.2733 40.9157 23.2019 40.93C23.1307 40.9445 23.2647 40.8822 23.3034 40.8648C23.404 40.8203 23.3498 40.8553 23.3601 40.8522C23.4827 40.8149 23.458 40.811 23.4651 40.7987C23.6614 40.7273 23.645 40.7187 23.4717 40.7864C23.4527 40.7937 23.4735 40.7938 23.4651 40.7987C23.2693 40.8599 23.2408 40.8581 23.4151 40.7773C23.4967 40.7394 23.5973 40.7093 23.5534 40.7014C23.5335 40.6979 23.4005 40.7528 23.3609 40.7588C23.2706 40.7733 23.3862 40.7009 23.3587 40.6896C23.3488 40.6857 23.2787 40.7222 23.2695 40.7207C23.2449 40.7171 23.2949 40.6836 23.2619 40.6834C23.2588 40.6834 23.1842 40.7184 23.1816 40.7152C23.1611 40.6917 23.1987 40.6463 23.1865 40.6163C23.1805 40.6019 23.1275 40.5962 23.1287 40.5778C23.1296 40.5594 23.1604 40.5236 23.1789 40.4941L23.1956 40.525C23.2079 40.5025 23.2138 40.4841 23.1977 40.4812C23.1733 40.4766 23.1044 40.5221 23.0528 40.5452C22.9529 40.5904 23.1075 40.4694 23.1314 40.4506C23.1322 40.4499 23.1561 40.4518 23.1883 40.4233C23.2611 40.3734 23.1318 40.4505 23.1314 40.4506C23.1469 40.4386 23.1479 40.4047 23.1316 40.4083C23.1227 40.4103 23.0574 40.4532 23.054 40.4535C22.9752 40.4593 22.9393 40.4403 22.9492 40.3892C22.9502 40.3878 23.0235 40.3403 23.0248 40.3376C23.0449 40.2977 22.9483 40.3455 22.886 40.3668C22.8238 40.3881 22.8338 40.3653 22.9507 40.2707C22.9275 40.2705 22.9705 40.2164 22.9966 40.1837C23.0226 40.1509 22.8834 40.2486 22.8802 40.2498C22.7751 40.288 22.8439 40.2172 22.837 40.1824C22.834 40.1658 22.7962 40.1567 22.7716 40.1552C22.7519 40.1541 22.7787 40.1236 22.7513 40.1299C22.7476 40.1307 22.6889 40.1785 22.6863 40.1799C22.6069 40.2254 22.7566 40.1164 22.781 40.0939C22.8696 40.0121 22.9158 39.9672 22.8605 39.9885C22.8477 39.9932 22.6321 40.1502 22.6157 40.1547C22.5947 40.1601 22.6713 40.1029 22.6472 40.11C22.6452 40.1105 22.5995 40.1476 22.5978 40.1415C22.5897 40.1134 22.5972 40.0686 22.5743 40.0506C22.5714 40.048 22.503 40.1119 22.4976 40.1092C22.4725 40.0966 22.457 40.0731 22.4732 40.0252C22.4774 40.0132 22.5293 39.9731 22.543 39.9593C22.6259 39.8754 22.4894 39.9789 22.4858 39.9797C22.3936 39.9994 22.484 39.8689 22.3968 39.8833C22.3917 39.8841 22.2447 39.995 22.353 39.8809C22.3602 39.8733 22.4707 39.7563 22.3855 39.8261C22.3801 39.8305 22.324 39.8914 22.3234 39.8787C22.3228 39.8658 22.2725 39.8931 22.3286 39.8204C22.3464 39.7976 22.4541 39.6784 22.3536 39.7584C22.3464 39.7638 22.127 39.9527 22.2642 39.8079C22.2868 39.7841 22.4377 39.6366 22.3499 39.7017C22.333 39.7144 22.3033 39.7513 22.2771 39.7666C22.2369 39.7904 22.2657 39.7394 22.1895 39.7962C22.176 39.8062 22.0682 39.901 22.1385 39.8177C22.1495 39.8046 22.2006 39.7561 22.2029 39.7473C22.214 39.7053 22.1652 39.7236 22.1831 39.6733C22.1894 39.6556 22.2709 39.576 22.2859 39.5482C22.301 39.5204 22.3087 39.4873 22.2667 39.5192C22.2247 39.5512 22.1072 39.6898 22.0881 39.6918C22.0056 39.7009 22.0377 39.5862 22.0063 39.5376C22.0016 39.5304 21.9637 39.5835 21.9539 39.5765C21.9173 39.5506 21.8206 39.548 21.8791 39.4172C21.9255 39.312 22.0102 39.2731 22.02 39.2227C22.0243 39.1984 21.8801 39.3529 21.8738 39.3563C21.8099 39.3911 21.854 39.3066 21.8167 39.3133C21.809 39.3147 21.7592 39.3844 21.7533 39.3849C21.7326 39.3873 21.7443 39.3478 21.7289 39.3445C21.7218 39.3432 21.6822 39.3951 21.6808 39.3875C21.677 39.3701 21.6844 39.341 21.7114 39.2844C21.7138 39.2792 21.7706 39.2204 21.7641 39.2116C21.7536 39.1975 21.7736 39.1366 21.72 39.174C21.704 39.1853 21.6131 39.3037 21.6659 39.2143C21.6769 39.1957 21.7882 39.0552 21.6827 39.1695C21.665 39.1883 21.5198 39.3403 21.5915 39.2258C21.6103 39.1956 21.6919 39.0735 21.6724 39.0877C21.6695 39.0901 21.6244 39.1565 21.6151 39.1593C21.5832 39.1681 21.571 39.1484 21.5393 39.1563C21.5308 39.1585 21.4883 39.2302 21.4772 39.2315C21.4467 39.2351 21.4362 39.2014 21.4334 39.1674C21.4324 39.1547 21.4772 39.1022 21.4811 39.0958C21.5441 38.9913 21.4437 39.1213 21.4356 39.1273C21.3861 39.1624 21.4184 39.0907 21.3916 39.0968C21.3843 39.0983 21.3422 39.1644 21.3373 39.1695C21.2896 39.2193 21.3769 39.1088 21.3804 39.0923C21.3904 39.0457 21.3696 39.0389 21.3484 39.0363C21.3482 39.0363 21.3481 39.0363 21.348 39.0363L21.3294 39.0231C21.3203 39.0242 21.2744 39.0998 21.268 39.098C21.2281 39.0882 21.2031 39.0593 21.2024 38.9972C21.2023 38.9854 21.2465 38.9311 21.2546 38.9173C21.3114 38.8205 21.2111 38.9362 21.2001 38.9461C21.1495 38.9915 21.1806 38.9378 21.1632 38.9396C21.0771 38.9491 21.0364 38.8715 21.0007 38.8174C20.9547 38.7475 20.9396 38.6587 20.8688 38.6351C20.8644 38.6335 20.8193 38.715 20.8149 38.7148C20.7604 38.7074 20.7371 38.6511 20.6824 38.6507C20.6779 38.6505 20.6389 38.7297 20.6304 38.732C20.6126 38.7373 20.6013 38.7254 20.6041 38.6948C20.6054 38.6799 20.6494 38.6179 20.6499 38.6043C20.6512 38.5725 20.6395 38.559 20.6198 38.5644C20.6113 38.5669 20.5769 38.6508 20.5693 38.6479C20.5166 38.6298 20.4677 38.6226 20.4715 38.496C20.4719 38.4873 20.5447 38.3191 20.5232 38.348C20.5019 38.3942 20.4775 38.4488 20.4551 38.4983C20.3809 38.497 20.3481 38.4181 20.3158 38.3999C20.3147 38.3992 20.2929 38.4938 20.291 38.4931C20.2791 38.4887 20.2775 38.5164 20.2966 38.4212C20.2984 38.4119 20.3112 38.2416 20.3093 38.2673C20.3088 38.272 20.3098 38.2949 20.3116 38.332C20.3119 38.3376 20.3093 38.4173 20.3124 38.4196C20.3298 38.432 20.3699 38.4113 20.4044 38.3509C20.4097 38.3411 20.3786 38.2617 20.3813 38.2542C20.3936 38.2045 20.4672 38.2414 20.4585 38.1531C20.448 38.0966 20.3513 37.9851 20.261 37.8725C20.2479 37.8569 20.2454 37.8547 20.1873 37.794C20.0403 37.6421 19.8903 37.4655 19.7339 37.3033C19.6997 37.2684 19.6998 37.3416 19.6393 37.2366C19.6351 37.2295 19.6379 37.1735 19.6206 37.1362C19.6085 37.1103 19.5412 37.0554 19.5314 37.0174C19.5225 36.9788 19.5823 37.0223 19.5801 36.9721C19.5789 36.921 19.5099 36.8496 19.5587 36.8029ZM23.1117 40.0359C23.1711 39.9787 22.9289 40.1542 22.9934 40.1213C22.9968 40.1195 23.1088 40.0387 23.1117 40.0359ZM23.6869 41.1937C23.8117 41.1484 23.6208 41.1842 23.5242 41.2181C23.4276 41.2516 23.6491 41.2073 23.6869 41.1937ZM23.8149 41.3233C23.9129 41.2839 23.4977 41.371 23.5854 41.3709C23.5904 41.3709 23.8092 41.3256 23.8149 41.3233ZM20.2408 37.8366C20.2389 37.8332 20.2354 37.8307 20.2374 37.8341C20.2878 37.9147 20.2891 37.9228 20.2408 37.8366ZM23.9489 41.4557C24.0041 41.4392 23.936 41.4362 23.8674 41.4567C23.8121 41.4731 23.8801 41.4761 23.9489 41.4557ZM22.9791 39.3737C22.9822 39.3705 22.9805 39.3628 22.9621 39.38C22.9029 39.4354 22.9261 39.4268 22.9791 39.3737ZM24.0017 41.7195C24.0107 41.6777 24.3517 41.5938 24.3203 41.6439C24.3146 41.653 24.2073 41.6459 24.1778 41.6612C24.1242 41.689 24.3432 41.6644 24.2302 41.7031C24.2094 41.71 24.0004 41.7219 24.0012 41.7195C24.0013 41.7195 24.0015 41.7195 24.0017 41.7195ZM23.398 39.8187C23.401 39.8162 23.3984 39.8063 23.3951 39.8084C23.3156 39.8605 23.3206 39.8802 23.398 39.8187ZM22.8259 38.9558C22.8313 38.9493 22.8202 38.928 22.8144 38.9332C22.6996 39.0384 22.7209 39.0809 22.8259 38.9558ZM23.9332 40.2714C24.0244 40.2412 24.0405 40.2494 23.9349 40.3068C23.9362 40.2943 23.9324 40.2839 23.9332 40.2714Z" fill="black"/>
<path d="M18.7664 11.4434C18.8388 11.6999 19.1345 11.8533 19.2213 11.8334C19.2535 11.8325 19.2568 11.7773 19.2758 11.7725C19.3104 11.7619 19.3232 11.7909 19.3429 11.7694C19.3489 11.7619 19.3575 11.6783 19.3623 11.6721C19.3851 11.638 19.3838 11.6582 19.3797 11.6406C19.3523 11.5712 19.2388 11.5546 19.1384 11.558C19.1373 11.5584 19.1417 11.5569 19.1325 11.56C19.12 11.563 19.1615 11.5539 19.0717 11.576C19.0595 11.5783 19.0467 11.5818 19.0051 11.5859C18.9825 11.5873 18.9559 11.5915 18.8864 11.5847C18.8321 11.5598 18.6363 11.6184 18.4158 11.2451C18.3259 11.0568 18.3674 10.8522 18.4117 10.7605C18.4571 10.6613 18.4986 10.6196 18.5274 10.5883C18.5856 10.53 18.6118 10.5164 18.6324 10.502C18.6713 10.4776 18.684 10.4726 18.6958 10.4666C18.7341 10.4488 18.7335 10.4503 18.7405 10.4473C18.7498 10.4438 18.7512 10.4433 18.7534 10.4425C18.7596 10.4403 18.759 10.4406 18.76 10.4402C18.7611 10.4398 18.7612 10.4398 18.7613 10.4398C18.7617 10.4397 18.7611 10.4399 18.7609 10.44C18.7602 10.4403 18.7605 10.4402 18.7603 10.4403C18.7601 10.4404 18.7599 10.4406 18.7598 10.4407C18.7595 10.4409 18.7593 10.4411 18.7594 10.4413C18.7594 10.4415 18.7596 10.4418 18.7599 10.4419C18.7606 10.4423 18.7615 10.4425 18.7627 10.4426C18.7649 10.443 18.7678 10.443 18.7707 10.443C18.7766 10.443 18.783 10.4427 18.7899 10.4422C18.8033 10.4412 18.8177 10.4395 18.832 10.4377C18.8731 10.4328 18.9563 10.4747 18.9738 10.4242C18.9756 10.4184 18.9338 10.3576 18.9313 10.352C18.8914 10.2671 18.9684 10.3945 18.9868 10.406C19.0592 10.4519 19.0985 10.4298 19.0985 10.3905C19.0982 10.3739 18.9894 10.2754 19.053 10.3282C19.0574 10.3316 19.1103 10.3894 19.1183 10.3932C19.1368 10.4014 19.1354 10.3825 19.1429 10.3832C19.1581 10.3845 19.1586 10.3827 19.1641 10.3771C19.1643 10.377 19.1645 10.3768 19.1648 10.3766C19.1731 10.3719 19.2114 10.3803 19.203 10.3602C19.2008 10.356 19.1295 10.3189 19.1191 10.3096C19.1086 10.3005 19.1179 10.2973 19.1363 10.3025C19.1547 10.3079 19.2115 10.3353 19.2249 10.3407C19.3393 10.3841 19.19 10.3026 19.1857 10.3019C19.1276 10.2545 19.2245 10.2587 19.2263 10.2329C19.2271 10.216 19.1917 10.211 19.2007 10.2276C19.2131 10.2451 19.2676 10.2752 19.3407 10.3215C19.349 10.3264 19.2957 10.4054 19.3089 10.4129C19.3172 10.4174 19.3258 10.4216 19.3345 10.4252C19.4908 10.4781 19.5114 10.419 19.4728 10.3774C19.4683 10.3724 19.4353 10.2964 19.4277 10.2873C19.3868 10.2291 19.2265 10.1404 19.4399 10.4328C19.4188 10.4315 19.3937 10.4343 19.329 10.3962C19.2869 10.3722 19.2318 10.2995 19.2469 10.3391C19.2504 10.3479 19.3107 10.3992 19.312 10.4078C19.3177 10.4437 19.2821 10.4455 19.2995 10.4891C19.3034 10.4979 19.3597 10.5409 19.3689 10.5497C19.4448 10.6201 19.2996 10.5294 19.2865 10.5262C19.1934 10.4972 19.2088 10.5398 19.1913 10.5643C19.1872 10.57 19.2729 10.6121 19.2721 10.619C19.267 10.654 19.2446 10.6788 19.1919 10.6915C19.18 10.6944 19.1097 10.6535 19.1001 10.6533C19.0584 10.6539 19.1965 10.7199 19.1602 10.7206C19.1526 10.721 19.0896 10.6919 19.0824 10.6895C18.9682 10.6523 19.1209 10.7264 19.1236 10.7297C19.1352 10.7455 19.1249 10.7509 19.106 10.7531C19.0672 10.7569 18.9905 10.7486 18.9992 10.7756C19.001 10.7803 19.0869 10.8 19.0869 10.8112C19.0877 10.8859 19.0463 10.9514 18.9631 11.014C18.9503 11.0238 18.887 11.0034 18.8789 11.0026C18.7517 10.9925 18.9176 11.0311 18.9233 11.0358C18.9636 11.0733 18.818 11.0829 19.016 11.1311C18.9292 11.2529 19.0368 11.3795 18.862 11.5159C18.86 11.5178 18.7762 11.5189 18.7725 11.5226C18.728 11.5678 18.8577 11.5527 19.0183 11.565C19.0586 11.5674 18.8689 11.604 18.8551 11.6077C18.8041 11.6195 18.6793 11.6247 18.6696 11.628C18.5931 11.6566 19.0027 11.6103 19.0053 11.632C19.0047 11.6328 18.929 11.6388 18.9218 11.6417C18.899 11.6507 18.9297 11.6532 18.9046 11.6626C18.8465 11.684 18.649 11.7188 18.7679 11.7247C18.7833 11.7251 19.0137 11.6854 19.006 11.7065C19.0026 11.7151 19.013 11.7488 19.0002 11.7612C18.9874 11.7739 18.9123 11.7829 18.9093 11.7842C18.8179 11.8333 18.7753 11.8316 18.6352 11.8807C18.4962 11.9315 18.836 11.8449 18.8753 11.8412C18.9145 11.8373 18.8401 11.8779 18.8141 11.891C18.788 11.9038 18.74 11.9098 18.7257 11.919C18.6334 11.9813 18.897 11.8853 18.9531 11.8791C19.085 11.8605 18.8423 11.9547 18.8265 11.9864C18.8221 11.9945 18.8761 11.9698 18.8831 11.9728C18.9098 11.984 18.8392 12.0263 18.9168 12.0186C18.9298 12.0183 19.0783 11.9676 18.979 12.0257C18.9648 12.0343 18.9043 12.0579 18.895 12.072C18.8808 12.0929 18.88 12.1218 18.9057 12.1229C18.9246 12.1237 19.0114 12.0606 18.9885 12.0871C18.9785 12.0992 18.9195 12.1223 18.9056 12.1431C18.8996 12.1523 18.8996 12.1619 18.9022 12.1703C18.9056 12.1811 18.9132 12.1897 18.9176 12.1937C18.9256 12.201 18.9877 12.1487 18.9926 12.1462C19.0207 12.1318 19.061 12.1202 19.0616 12.121C19.1038 12.16 19.0755 12.3132 19.1712 12.3098C19.178 12.3092 19.2107 12.2303 19.2121 12.2294C19.2425 12.2039 19.1351 12.4046 19.1213 12.4815C19.1872 12.3212 19.1833 12.3538 19.2043 12.3415C19.2143 12.3353 19.2339 12.271 19.2369 12.2648C19.2797 12.172 19.2411 12.2978 19.2352 12.3242C19.2114 12.4207 19.2541 12.3114 19.2396 12.3761C19.2267 12.4407 19.1859 12.5304 19.2045 12.5344C19.2252 12.4758 19.2583 12.3168 19.275 12.2941C19.3305 12.2074 19.3721 12.3404 19.4113 12.3539C19.4447 12.3674 19.4552 12.3551 19.4767 12.3761C19.5172 12.4132 19.4924 12.2945 19.5037 12.2377C19.5134 12.1806 19.551 12.4741 19.5641 12.5364C19.5782 12.5985 19.5719 12.5333 19.5828 12.5668C19.5941 12.6003 19.59 12.645 19.6051 12.6556C19.6214 12.6661 19.6321 12.5481 19.6194 12.4826C19.5943 12.3437 19.549 12.2027 19.5821 12.2478C19.5842 12.2505 19.5997 12.3268 19.6069 12.3331C19.6645 12.3797 19.7112 12.3671 19.7769 12.3945C19.7862 12.3983 19.8179 12.4791 19.8241 12.482C19.8902 12.511 19.8111 12.3871 19.7491 12.2364C19.8182 12.3657 19.8737 12.4585 19.9151 12.4975C19.9345 12.5159 19.9504 12.5224 19.9613 12.5161C19.9816 12.5041 19.9267 12.4272 19.8998 12.3653C19.8913 12.3469 19.9401 12.3915 19.9163 12.354C19.8368 12.2326 19.7325 12.1084 19.789 12.1464C19.7918 12.1481 19.838 12.2126 19.8441 12.2139C19.8848 12.2214 19.7889 12.1039 19.7913 12.0765C19.7926 12.0556 19.8827 12.0944 19.9106 12.0833C20.099 12.2362 20.0763 12.1749 19.946 12.0694C19.9613 12.06 19.9633 12.04 19.9916 12.0384C20.0014 12.0377 20.059 12.078 20.0658 12.0814C20.1738 12.1332 20.0393 12.041 20.0354 12.035C20.0019 11.9698 20.1283 11.9924 20.0355 11.9048C20.0322 11.9015 19.8786 11.8324 19.9954 11.8721C20.0036 11.8745 20.0686 11.9174 20.0817 11.9019C20.0944 11.8874 20.1932 11.8825 20.129 11.8295C20.1137 11.8163 19.989 11.7581 20.0946 11.7788C20.109 11.7815 20.1544 11.7982 20.1808 11.8039C20.2652 11.8212 20.1041 11.766 20.2454 11.7986C20.3867 11.8312 20.4985 11.8358 20.4108 11.7777C20.4083 11.7758 20.2799 11.7336 20.2843 11.7251C20.2916 11.7112 20.3242 11.6967 20.3271 11.6806C20.3284 11.6729 20.2457 11.6586 20.2445 11.657C20.21 11.5977 20.2902 11.579 20.3322 11.5297C20.3375 11.5235 20.2895 11.4992 20.2871 11.4833C20.286 11.4758 20.295 11.47 20.3246 11.4685C20.4257 11.4628 20.8285 11.5507 20.74 11.4809C20.7047 11.4515 20.1911 11.3557 20.4638 11.3551C20.4062 11.2767 20.5505 11.2242 20.4608 11.1443C20.4568 11.1407 20.3123 11.1196 20.3148 11.1126C20.3189 11.102 20.3872 11.1008 20.3922 11.0932C20.415 11.0615 20.3586 11.0278 20.3693 10.9967C20.3732 10.9849 20.4433 10.9926 20.4479 10.9783C20.4525 10.9639 20.3603 10.9502 20.4059 10.9326C20.4406 10.9194 20.6305 10.9115 20.6533 10.8918C20.4665 10.8846 20.4708 10.8711 20.4222 10.8457C20.4128 10.8408 20.3476 10.8439 20.3398 10.8415C20.3065 10.8318 20.3606 10.8251 20.3243 10.8158C20.3156 10.8136 20.2518 10.8118 20.2411 10.8099C20.1475 10.7938 20.2915 10.7742 20.3166 10.7705C20.4118 10.7571 20.3289 10.7483 20.3665 10.7372C20.4041 10.726 20.4505 10.7445 20.4735 10.731C20.5209 10.7029 20.511 10.6656 20.5142 10.6364C20.515 10.6247 20.4298 10.632 20.4279 10.6303C20.4065 10.6062 20.4973 10.5823 20.3276 10.5682C20.7665 10.5534 20.2851 10.5536 20.373 10.5197C20.3801 10.517 20.5877 10.514 20.6181 10.5246C20.6485 10.5351 20.5836 10.5508 20.6311 10.5655C20.6422 10.5689 20.8366 10.5898 20.8483 10.5926C20.9403 10.6146 20.6301 10.6155 20.6131 10.6165C20.4292 10.6278 20.6385 10.6535 20.6529 10.6602C20.7189 10.6902 20.6749 10.7146 20.7219 10.7401C20.7522 10.7567 20.9553 10.7621 20.9488 10.775C20.9274 10.8185 20.6437 10.8253 20.8881 10.8731C20.9402 10.8835 21.1625 10.8819 20.9869 10.9082C20.9758 10.91 20.8154 10.9276 20.9158 10.9451C20.9284 10.9474 20.9931 10.9499 20.9984 10.9524C21.0329 10.9693 20.981 10.9774 21.0049 10.9953C21.0288 11.0133 21.0645 11.0357 21.0415 11.0541C21.0277 11.0652 20.9065 11.0732 20.8767 11.0768C20.7909 11.087 20.929 11.1126 20.8256 11.1154C20.7217 11.1178 20.5661 11.0891 20.4977 11.1085C20.6654 11.1212 20.8374 11.1355 21.0059 11.1491C20.9959 11.2064 20.9368 11.2583 20.9381 11.3169C20.9384 11.3242 21.0291 11.3263 21.0317 11.3345C21.0424 11.3695 20.9751 11.3909 20.9961 11.4285C21.0128 11.4576 21.1035 11.5005 21.123 11.5332C20.9369 11.5231 20.9847 11.5699 20.9678 11.5984C20.9672 11.5994 20.9665 11.6004 20.9658 11.6014C20.958 11.611 20.9074 11.6016 20.8896 11.6061C20.8237 11.6233 20.9933 11.64 21.0182 11.6527C21.1241 11.7083 20.7454 11.6403 20.7473 11.6795C20.7474 11.6812 20.9429 11.7485 20.9545 11.7552C21.0309 11.7962 20.8838 11.7441 20.8659 11.7553C20.8331 11.7757 20.7814 11.7818 20.8323 11.8268C20.8475 11.8396 20.9656 11.8941 20.8651 11.8872C20.852 11.8862 20.7868 11.8675 20.7825 11.8683C20.7096 11.8842 20.9146 11.9418 20.9778 11.9831C21.0409 12.0248 20.8899 12.0154 20.8476 12.0083C20.7379 11.9916 20.8069 11.9817 20.7969 11.9775C20.6777 11.9296 20.6921 11.9576 20.6765 11.9706C20.4771 11.9086 20.4822 11.9328 20.6611 11.9842C20.6807 11.9897 20.6664 11.9709 20.6765 11.9706C20.867 12.0476 20.8812 12.0878 20.6907 12.0514C20.6015 12.0339 20.5081 11.9854 20.5296 12.0363C20.5391 12.0595 20.6755 12.1057 20.7051 12.1371C20.772 12.2105 20.6263 12.2077 20.6262 12.2549C20.6258 12.2727 20.7032 12.294 20.7052 12.3077C20.71 12.3453 20.6451 12.3412 20.6558 12.3833C20.6568 12.3873 20.7319 12.4221 20.7276 12.4316C20.6955 12.5055 20.612 12.5355 20.5577 12.6014C20.5321 12.6332 20.5143 12.7216 20.4741 12.7481C20.4048 12.796 20.2562 12.7626 20.2217 12.8213C20.1975 12.8605 20.2502 12.9241 20.2639 12.9821C20.2742 13.0276 20.2526 13.0345 20.2233 13.0236C20.1801 13.0074 20.1217 12.9516 20.109 12.938C20.1085 12.9372 20.1307 12.9029 20.0936 12.875C20.0421 12.8027 20.1094 12.9373 20.109 12.938C20.0948 12.924 20.0237 12.9384 20.0176 12.958C20.0142 12.9689 20.0501 13.0384 20.0475 13.0429C19.985 13.1475 19.8871 13.2013 19.7791 13.1886C19.7771 13.1875 19.7599 13.1018 19.7555 13.1001C19.6934 13.0743 19.6796 13.1851 19.6373 13.2551C19.5957 13.3247 19.5475 13.3072 19.5107 13.1591C19.4754 13.1803 19.4214 13.1147 19.3947 13.0738C19.3681 13.0329 19.3569 13.2024 19.3538 13.2057C19.2602 13.3084 19.2129 13.2051 19.128 13.1728C19.0869 13.1574 18.9956 13.1586 18.9414 13.159C18.8984 13.1599 18.8905 13.114 18.8467 13.1231C18.8407 13.1243 18.8156 13.1959 18.813 13.198C18.7355 13.263 18.8306 13.1024 18.8364 13.0689C18.8586 12.9467 18.8754 12.8841 18.8074 12.9116C18.7932 12.9187 18.6289 13.1318 18.5976 13.1306C18.5594 13.13 18.6214 13.0562 18.5814 13.0575C18.578 13.0575 18.5456 13.1068 18.5296 13.0926C18.4548 13.027 18.3976 12.9326 18.327 12.8662C18.3173 12.8567 18.2614 12.9338 18.2456 12.9203C18.1759 12.8609 18.1166 12.7792 18.1023 12.6878C18.1016 12.6828 18.101 12.6779 18.1006 12.6728C18.0989 12.6494 18.1613 12.6257 18.1755 12.6117C18.2622 12.5288 18.0978 12.5856 18.0915 12.5811C17.9472 12.4902 18.0514 12.3361 17.9439 12.247C17.9379 12.2432 17.7467 12.2457 17.8911 12.1792C17.9006 12.1743 18.0494 12.1104 17.9387 12.1217C17.9317 12.1222 17.8554 12.157 17.8574 12.1317C17.8594 12.1069 17.7963 12.0816 17.8782 12.0308C17.9038 12.0142 18.056 11.9601 17.9254 11.958C17.9165 11.9594 17.6236 11.9653 17.8173 11.9149C17.8492 11.9066 18.0575 11.8742 17.9457 11.8598C17.924 11.8568 17.8793 11.8757 17.8476 11.8634C17.7988 11.8441 17.8501 11.803 17.753 11.7827C17.7359 11.7796 17.5907 11.7708 17.6967 11.7398C17.7134 11.735 17.784 11.7334 17.7908 11.7227C17.8238 11.6727 17.7731 11.6279 17.8192 11.5787C17.8355 11.5616 17.9496 11.5639 17.9793 11.5464C18.009 11.5288 18.0372 11.4965 17.9848 11.4811C17.9324 11.4654 17.7514 11.4883 17.7364 11.4617C17.6714 11.3436 17.7823 11.2298 17.8077 11.1196C17.8115 11.103 17.7455 11.1112 17.7467 11.0858C17.7496 10.994 17.7147 10.8181 17.8674 10.7644C17.9886 10.724 18.0547 10.8191 18.1084 10.7822C18.1339 10.7655 17.9338 10.6946 17.9288 10.6869C17.8763 10.6153 17.9772 10.5993 17.9639 10.5419C17.9613 10.5297 17.8761 10.5161 17.8749 10.5058C17.87 10.4699 17.9168 10.4482 17.9203 10.4158C17.9217 10.4012 17.859 10.3826 17.8682 10.3714C17.8878 10.3465 17.92 10.3288 17.9783 10.3207C17.9833 10.32 17.9885 10.3193 17.9939 10.3188C18.0001 10.3183 18.0692 10.3649 18.0803 10.3446C18.0982 10.3113 18.1709 10.2939 18.1315 10.23C18.1196 10.2109 17.9846 10.147 18.09 10.1651C18.1121 10.1689 18.2702 10.2535 18.1447 10.1574C18.1233 10.1423 17.9637 9.99484 18.0967 10.0325C18.1316 10.0424 18.2687 10.0974 18.2559 10.0732C18.2538 10.0695 18.1797 10.0376 18.1794 10.0223C18.18 9.96818 18.2133 9.92998 18.2197 9.87469C18.2215 9.85953 18.1409 9.83092 18.1462 9.80931C18.1604 9.75005 18.2219 9.70157 18.2779 9.67326C18.299 9.66258 18.3432 9.71733 18.35 9.72074C18.4594 9.7789 18.3413 9.66423 18.3397 9.65132C18.3298 9.57426 18.4147 9.59539 18.4335 9.54664C18.4391 9.53312 18.3764 9.48532 18.3733 9.47848C18.3458 9.40918 18.4302 9.52378 18.4541 9.52184C18.5202 9.51775 18.5573 9.47509 18.5923 9.43285C18.6052 9.41724 18.5296 9.36194 18.5427 9.34807C18.6196 9.26479 18.7327 9.19675 18.8804 9.17972C18.908 9.17689 18.9236 9.24709 18.9353 9.25915C19.013 9.34536 19.0006 9.18569 19.0116 9.16611C19.049 9.0813 19.0963 9.1309 19.1559 9.10355C19.2896 9.04636 19.5107 8.99608 19.8145 9.10511C20.1904 9.24413 20.3715 9.57583 20.4212 9.74833C20.5346 10.1831 20.4112 10.3494 20.3806 10.5874C20.3777 10.6022 20.4715 10.6113 20.47 10.6251C20.4435 10.8044 20.3397 10.9467 20.258 11.1134C20.2509 11.1273 20.3365 11.1587 20.3267 11.1836C20.3191 11.2033 20.3076 11.2233 20.2928 11.2417C20.2695 11.2708 20.2391 11.2943 20.2057 11.3061C20.1796 11.3153 20.1437 11.2416 20.1193 11.251C20.0626 11.2722 20.0215 11.3049 19.995 11.349C19.9837 11.368 20.0689 11.4119 20.0487 11.432C19.9125 11.5686 19.7775 11.675 19.5887 11.6465C19.5754 11.6447 19.4802 11.4879 19.4793 11.5282C19.5018 11.5738 19.5299 11.6266 19.5547 11.675C19.5087 11.708 19.4598 11.7333 19.4082 11.7538C19.3827 11.764 19.3557 11.7732 19.328 11.7815C19.3146 11.7855 19.3002 11.7896 19.2847 11.7938C19.2777 11.7956 19.2691 11.798 19.2607 11.8001C19.2558 11.8015 19.253 11.802 19.2469 11.8037C19.2443 11.8045 19.2418 11.8051 19.2395 11.8057C19.2375 11.8062 19.2356 11.8068 19.2339 11.8073C19.2331 11.8075 19.2323 11.8077 19.2315 11.8079C19.2311 11.808 19.2309 11.8081 19.2291 11.8087C19.2286 11.8088 19.2274 11.8092 19.2287 11.8087C19.2297 11.8084 19.2283 11.8089 19.2357 11.8063C19.2393 11.805 19.2371 11.806 19.2595 11.7975C19.2676 11.7943 19.272 11.7933 19.3087 11.7768C19.3391 11.7568 19.3251 11.7899 19.5097 11.6481C19.5586 11.5934 19.6594 11.5558 19.7713 11.2471C19.8232 11.0957 19.8311 10.8158 19.7078 10.5957C19.5883 10.3746 19.4192 10.2719 19.3152 10.2227C18.913 10.0792 18.9229 10.1581 18.8583 10.1469C18.6467 10.1824 18.7325 10.1737 18.7032 10.1786C18.682 10.1852 18.6871 10.1837 18.6841 10.1847C18.68 10.186 18.6813 10.1856 18.681 10.1857C18.7765 10.1679 18.8739 10.1584 18.9751 10.1418C18.9841 10.1403 18.9485 10.0485 18.9662 10.0451C19.0686 10.0256 19.1787 9.98177 19.3136 10.0727C19.3271 10.0817 19.3263 10.2524 19.3609 10.2259C19.3663 10.2209 19.4226 10.1985 19.4408 10.1624C19.4434 10.1569 19.4345 10.0767 19.4558 10.0753C19.5776 10.0704 19.7394 10.1036 19.9222 10.2427C19.951 10.2658 19.8796 10.3252 19.8984 10.3418C20.0187 10.4412 20.2787 10.6062 20.2736 10.8454C20.2633 10.9873 20.1044 10.9773 19.9712 11.0441C19.9524 11.0529 19.9531 11.0947 19.8688 11.0996C19.6577 11.1108 19.4267 11.1235 19.2019 11.1385C19.153 11.1404 19.2049 11.1081 19.0878 11.1287C19.0798 11.1295 19.0424 11.1612 19.0048 11.1785C18.9785 11.1898 18.8916 11.1849 18.8592 11.2083C18.8275 11.2339 18.901 11.2411 18.8703 11.2866C18.8416 11.3351 18.7388 11.3453 18.7664 11.4434ZM19.2869 12.8865C19.2749 12.8028 19.2308 13.0986 19.2684 13.0312C19.2703 13.0276 19.2877 12.8906 19.2869 12.8865ZM20.7119 11.237C20.5785 11.2465 20.77 11.2807 20.8729 11.2747C20.9759 11.268 20.7523 11.2338 20.7119 11.237ZM20.6319 11.0035C20.5267 11.0229 20.95 11.0503 20.8658 11.0175C20.8611 11.0156 20.638 11.0023 20.6319 11.0035ZM19.8694 10.8877C19.8667 10.8903 19.8796 10.92 19.8832 10.919C19.9778 10.893 19.9439 10.8193 19.8694 10.8877ZM20.5347 10.7806C20.4772 10.7871 20.5429 10.8107 20.6144 10.8028C20.672 10.7963 20.6062 10.7725 20.5347 10.7806ZM18.6893 12.0363C18.6933 12.0344 18.694 12.0243 18.6703 12.0328C18.5939 12.0601 18.6203 12.0659 18.6893 12.0363ZM20.5326 10.414C20.5166 10.468 20.1662 10.5 20.2058 10.4417C20.2129 10.4311 20.3175 10.4646 20.3491 10.4511C20.4066 10.4265 20.1867 10.41 20.3045 10.3848C20.3261 10.3802 20.5343 10.4109 20.5331 10.4141C20.5329 10.414 20.5327 10.414 20.5326 10.414ZM19.319 12.5285C19.3192 12.5245 19.3071 12.5191 19.3063 12.5229C19.285 12.6159 19.3126 12.6273 19.319 12.5285ZM18.779 11.4881C18.7873 11.4871 18.7944 11.4591 18.7867 11.4584C18.631 11.4464 18.6163 11.5071 18.779 11.4881ZM19.9159 12.087C19.8478 12.0191 19.8435 12.0062 19.9458 12.0694C19.9343 12.0744 19.9271 12.0824 19.9159 12.087Z" fill="black"/>
</svg>
