<svg width="40" height="35" viewBox="0 0 40 35" fill="none" xmlns="http://www.w3.org/2000/svg">
<path d="M12.198 16.9541C12.647 17.1872 12.9761 17.307 13.2238 17.3861C13.9039 17.59 14.0835 17.5402 14.2783 17.4764C14.4545 17.404 14.5644 17.2748 14.6628 17.1263C14.7347 17.0166 14.6371 16.5744 14.6728 16.4789C14.7353 16.2928 14.8876 16.4885 14.9854 16.2433C15.013 16.1607 14.7552 15.4929 14.7791 15.4246C14.8359 15.2543 14.9372 15.1759 15.0895 15.0846C15.158 15.0313 15.2507 14.9943 15.2835 14.8716C15.4539 14.2843 15.1762 13.9977 14.8564 14.287C14.535 14.5528 14.2348 15.2121 14.0037 15.9954C13.8478 16.5044 13.1746 17.217 13.4632 17.8636C13.4974 17.9381 14.1235 17.8888 14.1752 17.9025C14.9677 18.1114 13.7024 18.0529 13.5368 18.2038C12.8835 18.8018 12.8588 19.5034 13.1397 20.0858C13.2612 20.3341 14.4853 19.9945 13.8061 20.2975C13.7602 20.3187 13.0921 20.3 13.0262 20.3754C12.8781 20.5464 13.0199 20.8441 12.9775 20.9737C12.8922 21.2234 12.9025 21.2649 12.9145 21.4962C12.9254 21.8127 12.6308 22.2239 12.8134 22.5561C12.8544 22.6264 13.5242 22.4654 13.6507 22.5713C13.7619 22.6661 13.754 22.9243 13.6486 23.0669C13.6325 23.0695 13.6147 23.0719 13.5955 23.0744C13.4359 23.0946 12.904 23.1613 12.7824 23.1783C12.2695 23.2582 12.3768 23.2948 12.6065 23.2481C12.8375 23.2075 13.1831 23.0747 13.1969 23.0598C13.4622 22.8375 13.1407 22.3495 12.7491 22.215C12.3542 22.0609 12.1162 22.2447 12.2164 22.2655C12.275 22.2795 12.4327 22.257 12.6724 22.2353C12.87 22.1916 13.0472 22.1267 13.2133 22.1488C13.5543 22.1973 13.9361 22.5255 14.3432 22.3644C14.3845 22.3483 14.1476 21.5808 14.1919 21.5608C14.6553 21.3487 15.204 21.2282 16.0885 21.3785C16.1782 21.3936 16.42 22.0617 16.5321 22.1125C17.1952 22.4248 18.6917 23.1414 17.2817 20.4C17.6243 20.3228 18.0359 20.1945 18.651 20.5196C19.0484 20.7277 19.3205 21.473 19.3458 21.056C19.3518 20.9626 18.9038 20.4566 18.9412 20.3587C19.0978 19.9479 19.5546 19.8878 19.6541 19.3862C19.6732 19.283 19.3022 18.8088 19.2558 18.7085C18.8842 17.8934 19.9868 18.8844 20.104 18.9293C20.9822 19.261 21.1076 18.7854 21.5215 18.511C21.6182 18.4474 21.0349 17.8711 21.1117 17.7858C21.5167 17.3523 22.0723 17.0474 22.775 17.0121C22.9319 17.0063 23.209 17.6486 23.3028 17.6756C23.635 17.7696 23.2556 17.035 23.3199 16.8109C23.321 16.7696 23.3415 16.755 23.3943 16.7815C23.4547 16.8107 23.7626 17.3137 23.8037 17.3642C24.4618 18.1477 23.735 16.8989 23.7319 16.8621C23.7287 16.3319 24.833 17.3742 24.9756 16.9613C24.9875 16.9139 24.4207 16.4215 24.4797 16.3265C24.8635 15.6901 25.4515 15.285 26.3673 14.8922C26.5085 14.8298 26.9524 15.1827 27.0157 15.211C28.027 15.6156 26.8053 14.8333 26.7738 14.7767C26.5712 14.3254 27.8146 14.5173 26.3123 13.6449C26.768 13.2278 26.9137 12.6436 27.0365 12.0842C27.1451 11.5578 27.2287 11.0731 27.9259 10.4234C27.939 10.4069 28.619 10.1939 28.6403 10.1563C28.8945 9.69441 27.8247 10.1132 26.7654 10.958C26.5879 11.1285 27.2475 10.7271 27.6049 10.374C27.7492 10.2345 27.8558 10.1171 27.8789 10.0918C28.166 9.75568 28.9147 9.0054 28.9637 8.93402C29.2163 8.25644 27.026 11.0195 27.2078 11.1338C27.2118 11.1294 27.5201 10.5628 27.5553 10.5091C27.654 10.3338 27.544 10.5647 27.6313 10.3607C27.8503 9.89291 28.2112 8.21166 27.7768 9.13394C27.7325 9.25661 27.3745 11.2109 27.376 11.1173C27.3783 11.0754 27.2183 11.1051 27.1298 10.9848C27.0494 10.862 27.0436 10.2201 27.0384 10.1926C26.6959 9.37524 26.7448 9.01802 26.386 7.8019C25.9823 6.60071 26.5257 9.53195 26.525 9.86941C26.5303 10.2043 26.1676 9.56568 26.0482 9.34469C25.9328 9.12192 25.9185 8.70747 25.8305 8.58672C25.222 7.81015 26.024 10.062 26.0328 10.5475C26.0909 11.6904 25.2811 9.62724 24.9371 9.5113C24.848 9.47904 25.0629 9.93805 25.016 10.0031C24.8373 10.2525 24.4555 9.65596 24.3939 10.3527C24.3816 10.4669 24.6394 11.7893 24.146 10.9356C24.0744 10.8127 23.9333 10.2766 23.7834 10.2029C23.5583 10.0921 23.2266 10.0961 23.1258 10.337C23.0529 10.5145 23.5424 11.2937 23.2788 11.098C23.1608 11.0108 23.0868 10.4666 22.8806 10.3444C22.6743 10.2221 22.345 10.3872 22.2242 10.4592C22.1033 10.5315 22.4455 11.1336 22.4534 11.1806C22.4958 11.4514 22.3836 11.8615 22.3618 11.8701C21.5392 12.2985 20.4438 12.0311 19.548 12.2693C19.284 12.3411 19.0378 12.4491 18.8148 12.6251C18.7351 12.6867 19.0533 13.342 19.0438 13.3584C18.8369 13.7617 18.4014 11.8639 17.9674 11.3366C18.5108 12.7057 18.2924 12.5029 18.1333 12.7324C18.057 12.844 18.3069 13.36 18.3174 13.4183C18.4549 14.2895 17.9696 13.2747 17.8663 13.0685C17.4839 12.3111 17.7066 13.2873 17.4511 12.7807C17.198 12.2777 17.0784 11.4421 16.8812 11.5226C16.9992 12.0399 17.6059 13.287 17.5257 13.5518C17.2162 14.5537 15.8264 13.8973 15.3497 13.9659C14.8755 14.0305 14.7783 14.1781 14.4576 14.1081C13.8761 13.9871 14.4512 14.8512 14.3976 15.3916C14.3537 15.9309 13.3753 13.6116 13.1011 13.1434C12.8226 12.678 13.0223 13.1997 12.8391 12.9591C12.832 12.9499 12.8252 12.9404 12.8185 12.9308C12.7402 12.8207 12.6872 12.6853 12.6371 12.5673C12.6099 12.5043 12.5833 12.4464 12.5538 12.4002C12.5178 12.3454 12.4761 12.308 12.4213 12.3006C12.2119 12.2785 12.3319 13.326 12.6179 13.8181C13.1974 14.8706 13.9808 15.8562 13.5623 15.6089C13.5358 15.5957 13.1889 15.0307 13.1045 15.0091C12.4278 14.8697 12.0082 15.2318 11.3189 15.4064C11.2214 15.432 10.6732 14.9363 10.6074 14.9497C9.91195 15.1162 11.0348 15.6838 12.0811 16.6034C10.5556 15.5875 9.51209 15.1235 9.28403 15.5176C9.15374 15.7471 9.88611 16.0777 10.3256 16.4608C10.4596 16.5728 9.89269 16.4849 10.222 16.671C11.3036 17.2681 12.6106 17.7149 11.986 17.7773C11.9564 17.7806 11.3534 17.4758 11.2959 17.5075C10.9187 17.7245 12.1072 18.2238 12.1506 18.5788C12.1857 18.8527 11.2973 19.1045 11.0954 19.4115C9.60568 19.049 9.43112 19.2146 10.003 19.4941C10.2013 19.5848 10.4895 19.6849 10.8426 19.7789C10.7519 19.9433 10.8065 20.1458 10.5972 20.311C10.5258 20.3692 9.93336 20.2862 9.86846 20.2894C8.84858 20.3719 10.2271 20.5438 10.2805 20.578C10.5385 20.8148 10.4163 21.0089 10.3681 21.2174C10.3186 21.4164 10.3518 21.6434 10.8902 21.6776C10.9311 21.6874 12.3113 21.3099 11.3245 21.658C11.2597 21.6916 10.6016 21.7718 10.6019 21.9387C10.5945 22.052 10.2477 22.4754 10.453 22.5343C10.4993 22.5399 10.5778 22.512 10.687 22.4244C10.7515 22.3759 10.9813 22.1363 11.0899 21.971C11.2046 21.8095 11.1952 21.7295 10.9881 22.1345C10.9344 22.2456 10.7351 22.605 10.6448 22.8155C10.508 23.1546 10.6204 23.0084 10.6877 22.9095C10.7605 22.8128 10.785 22.7647 10.6333 23.3627C10.2915 24.5541 10.6576 25.6034 11.1974 24.7774C11.2198 24.7539 11.3611 23.6127 11.455 23.6301C11.6195 23.661 11.8912 23.8798 12.081 23.8439C12.1702 23.8267 12.0053 23.1309 12.0185 23.1158C12.2105 22.9153 12.3912 22.8899 12.607 22.9291L12.495 22.9701C12.8002 22.9738 13.1854 23.0899 13.5854 23.0424C13.7207 23.0249 13.485 22.0324 14.0841 22.558C14.7538 23.1227 16.4555 26.198 16.5573 25.1175C16.6149 24.67 14.2202 20.9278 15.9364 22.5084C16.2405 21.5561 17.5905 21.9524 17.6755 20.7825C17.6803 20.7297 16.9346 19.7344 17.0082 19.6901C17.1201 19.6251 17.5628 20.0042 17.6562 19.9698C18.058 19.8357 17.973 19.2336 18.2898 19.034C18.4099 18.9563 18.7922 19.4195 18.9362 19.3255C19.0808 19.23 18.6061 18.5915 19.0352 18.7013C19.3608 18.7863 20.6265 19.7983 20.9265 19.7612C19.8003 18.6402 19.9365 18.5491 19.8294 18.0574C19.8083 17.9623 19.3715 17.6183 19.341 17.5536C19.2073 17.282 19.6028 17.5322 19.4463 17.2474C19.4089 17.1788 19.0185 16.802 18.9656 16.7248C18.5009 16.0554 19.5665 16.706 19.7538 16.8171C19.9136 16.9132 20.0144 16.9596 20.0782 16.9753L20.0645 16.9904C20.2853 17.0363 20.0556 16.7401 20.3108 16.8213C20.6407 16.9255 20.8067 17.3411 21.0585 17.3445C21.5798 17.3509 21.7865 16.9729 22.0181 16.7638C22.108 16.6784 21.5256 16.2401 21.5261 16.2164C21.6023 15.8706 22.287 16.2867 21.5036 15.0654C23.9722 17.8737 21.4044 14.6612 22.2733 15.0002C22.3451 15.0292 23.1964 16.5739 23.2835 16.8227C23.3809 17.0646 22.9879 16.6645 23.1541 17.048C23.1799 17.1481 24.1882 18.4618 24.2612 18.5317C24.7539 19.1413 22.8747 17.2941 22.7626 17.2011C21.5611 16.1918 22.6729 17.6126 22.7329 17.7312C22.9617 18.3205 22.5053 18.2859 22.6197 18.7689C22.69 19.0699 23.8839 20.1433 23.8438 20.3061L23.7325 20.4283C23.731 20.4345 23.7275 20.439 23.722 20.4419C23.2425 20.6938 21.3935 19.1414 22.5614 20.9363C22.8093 21.3198 24.2282 22.5692 22.908 21.795C22.8244 21.7466 21.6676 20.9855 22.1646 21.7028C22.227 21.7935 22.6162 22.1822 22.6299 22.2338C22.7133 22.5728 22.3215 22.3442 22.3285 22.6316C22.3366 22.9179 22.3824 23.3098 22.0901 23.3317C21.9129 23.3473 21.0807 22.7244 20.8627 22.5853C20.2353 22.184 20.9052 23.1798 20.2253 22.6166C19.5465 22.0464 18.7924 20.9243 18.202 20.6959C19.1624 21.7542 20.1372 22.8505 21.0958 23.9214C20.5642 24.3409 19.7623 24.4318 19.2696 24.9228C19.2089 24.985 19.7674 25.5201 19.7136 25.6031C19.4798 25.9538 18.8658 25.7436 18.6608 26.175C18.5034 26.5115 18.6844 27.3891 18.487 27.7779C17.361 26.5715 17.2364 27.3273 16.7941 27.4251C16.6418 27.4587 16.4218 27.081 16.2617 27.0116C15.6617 26.7563 16.5498 27.9084 16.5676 28.1618C16.6007 29.2599 14.9874 26.4172 14.5614 26.7201C14.5458 26.7303 14.7441 27.5477 14.844 28.1071L14.1343 28.3672C14.1329 28.6289 14.1235 28.8332 14.1122 28.8714C13.8751 29.6631 13.8933 28.3024 13.6185 28.2368C13.1078 28.1106 12.77 27.7543 12.2453 28.32C12.1106 28.4865 11.6694 29.604 11.2618 28.7529C11.2119 28.6417 11.2547 28.0663 11.2167 28.0315C10.5584 27.4366 10.3575 29.2255 9.64426 29.7232C8.89308 30.2191 8.20205 28.6362 8.21308 28.2227C8.13879 27.1586 8.73179 28.024 8.79198 27.9355C9.44034 27.0137 8.82492 27.0026 8.45448 26.6844C9.24241 25.0998 8.83322 24.9498 8.08035 26.3493C8.00623 26.5116 8.41337 26.5732 8.45448 26.6844C7.29205 28.063 5.94478 27.3709 6.63569 25.5789C6.65386 25.5343 6.67435 25.4918 6.69656 25.4511C7.12165 24.7866 7.83693 24.5189 7.20109 24.0247C6.91366 23.7806 5.86822 24.4305 5.41272 24.216C4.35791 23.6541 5.27599 22.4611 5.03883 21.9146C4.94893 21.6951 4.30781 21.9907 4.22353 21.8352C3.99931 21.4063 4.4864 21.0199 4.23216 20.6139C4.20843 20.5751 3.50677 20.6648 3.49956 20.5284C3.45084 19.7027 3.79461 19.0113 4.08442 18.2213C4.14656 18.0814 4.20137 17.9344 4.24112 17.7778C4.32985 17.4167 4.14125 16.6365 4.34821 16.2511C4.69701 15.5744 5.9763 15.1101 6.03649 14.4307C6.08454 13.9758 5.4228 13.7382 5.09514 13.3348C4.47335 12.5233 6.29629 12.725 6.55146 12.8122C6.55745 12.8162 6.48474 13.2408 6.90151 13.2541C7.59635 13.5575 6.55039 12.82 6.55146 12.8122C6.71922 12.8468 7.31451 12.278 7.31993 12.0673C7.31859 11.9509 6.76705 11.5782 6.7781 11.5232C7.05293 10.2164 8.02277 9.06703 9.36951 8.59226C9.39698 8.59082 9.76298 9.23775 9.8202 9.22816C10.2521 9.16748 10.4344 8.86522 10.5914 8.4655C10.6463 8.16038 10.6641 7.78535 10.7398 7.4734C10.9044 6.80113 11.3047 6.8253 12.0167 7.90829C12.2342 7.64159 12.8353 8.00847 13.1703 8.24613C13.5056 8.48341 13.0225 7.12146 13.0323 7.0871C13.311 6.00541 13.9327 6.66407 14.5264 6.59196C14.8124 6.55925 15.2364 6.18927 15.4295 5.95207C15.5829 5.76195 15.8132 6.03866 15.9074 5.77274C15.92 5.7372 15.673 5.14245 15.6712 5.11667C15.582 4.3281 16.0476 5.83351 16.1851 6.08208C16.6829 6.98608 16.9776 7.45667 17.0321 6.91725C17.0435 6.81751 16.5924 5.40752 16.4153 4.77882C16.3778 4.62151 16.3584 4.511 16.3689 4.47822C16.4396 4.2661 16.7036 5.03603 16.7729 4.79302C16.7791 4.77287 16.5806 4.31299 16.679 4.29505C17.1349 4.20488 17.7326 4.26141 18.193 4.00524C18.2567 3.97196 17.854 3.28089 17.9412 3.22069C18.3501 2.93914 18.8793 2.74075 19.5075 2.87947C19.6625 2.9162 19.804 3.46029 19.8937 3.60176C20.4364 4.45763 20.1039 3.02358 20.1335 2.98159C20.8063 1.95494 22.0063 2.88855 23.0062 1.92621C23.0451 1.87431 23.1893 0.211907 23.7945 1.43793C23.8403 1.51787 24.407 2.78308 24.4265 1.82235C24.4314 1.76164 24.1 1.11399 24.423 1.11689C24.7364 1.12187 25.2093 0.555548 25.824 1.26147C26.0318 1.4832 26.4709 2.79932 26.9366 1.69792C26.9524 1.65975 27.1526 1.01871 27.4518 0.611372C27.7448 0.202383 28.1629 0.0371791 28.2753 0.899089C28.3228 1.18928 28.0492 2.93849 28.9437 2.14763C29.1367 2.00179 28.8973 1.5482 29.3984 1.39106C30.1982 1.16302 31.0535 1.90734 32.4392 1.77531C32.6526 1.7226 34.1936 1.23811 34.2153 2.47236C34.2084 2.65647 33.6675 2.97918 33.8971 3.26729C34.046 3.45844 34.1969 3.64487 34.3473 3.82987C35.3507 5.04904 36.1863 6.15321 36.2268 7.26849C36.2337 7.71514 35.254 7.84325 35.1199 8.27385C34.9881 8.71052 34.8801 9.37076 35.3627 9.6158C35.849 9.87844 37.3241 9.27217 37.5185 9.81602C38.0605 11.4278 37.668 12.854 37.0994 14.2483C36.864 14.7218 36.6178 15.1791 36.4322 15.652C36.3465 15.867 36.9322 15.8424 36.8373 16.1797C36.5314 17.3965 35.982 19.8018 34.3402 20.1612C33.0693 20.4098 33.056 19.1032 32.3885 19.4339C32.0803 19.5729 33.3522 20.8783 33.3442 20.9852C33.3343 21.9727 32.3536 21.9115 32.0574 22.5937C31.9926 22.7377 32.6257 23.1245 32.561 23.2449C32.3399 23.6647 31.7697 23.7697 31.4935 24.1008C31.3695 24.2512 31.7653 24.6419 31.5985 24.7317C31.2059 24.9475 30.7512 25.016 30.1122 24.8481C30.0561 24.8312 29.8284 24.1372 29.5774 24.295C29.2564 24.4975 28.72 24.4821 28.4212 24.8081C28.3898 24.866 28.3766 24.9531 28.3915 25.0815C28.4116 25.2588 29.1084 26.3187 28.4859 25.68C28.3556 25.5471 27.5469 24.2546 28.1102 25.4622C28.1994 25.6654 28.9297 27.3167 28.1325 26.4783C27.923 26.2572 27.106 25.3075 27.13 25.5306C27.1363 25.5645 27.5775 26.0871 27.5438 26.1924C27.4191 26.5537 27.1019 26.6933 26.9474 27.07C26.9071 27.1716 27.4337 27.6604 27.3604 27.7936C27.1599 28.1605 26.6514 28.3109 26.1902 28.3735C26.0194 28.3954 25.7604 27.8614 25.7141 27.8165C24.9644 27.083 25.698 28.2749 25.6967 28.3762C25.6783 28.9905 25.0575 28.6283 24.86 28.9787C24.8038 29.0743 25.2439 29.5786 25.2614 29.6388C25.4191 30.2357 24.8651 29.165 24.6803 29.1331C24.1605 29.0401 23.8398 29.3223 23.5483 29.6144C23.4412 29.7227 24.0037 30.2771 23.9006 30.3681C23.297 30.9192 22.4679 31.3349 21.4673 31.3821C21.2787 31.3894 21.0977 30.8131 21.0036 30.7092C20.3623 29.9742 20.6331 31.2854 20.6038 31.4362C20.4974 32.1126 20.1277 31.7038 19.8444 31.9347C18.4553 33.1018 15.7732 33.4802 13.7122 33.2894C12.7789 33.222 11.9267 33.0327 11.1383 32.793C10.2711 32.3447 7.57983 32.1683 4.82813 29.1359C4.59115 28.8516 4.20617 29.6418 3.98315 29.3814C2.40639 27.4354 2.09399 25.4827 1.98569 24.1847C1.96683 23.7683 1.93314 23.3348 1.78998 22.9029C1.76555 22.8243 1.02953 23.007 0.965184 22.8823C0.827892 22.6261 0.839258 22.2805 1.05566 21.9848C1.15984 21.8411 1.81516 21.97 1.90703 21.8271C2.12244 21.4936 2.15083 21.1521 2.00922 20.8283C1.94739 20.6904 1.19648 20.9544 1.17569 20.7695C1.01984 19.5132 0.83599 18.1582 1.86721 16.7305C1.93827 16.6316 3.49725 16.599 3.20678 16.3847C2.77548 16.3518 2.26738 16.3318 1.80601 16.3058C1.67717 14.1594 2.37381 11.8529 3.78285 8.9325C3.84576 8.80716 2.9926 8.67945 3.11633 8.42543C3.81549 6.97759 4.84343 5.09767 7.02048 4.40523C7.23285 4.34143 8.04566 5.53721 8.34217 5.05145C8.38895 4.9596 8.9706 4.35521 9.01499 3.98032C9.02022 3.9234 8.54506 3.41051 8.79128 3.25347C8.91812 3.17484 9.04823 3.09997 9.18116 3.02918C10.8822 2.15387 12.3998 2.07774 13.7148 2.37269C13.9477 2.42907 13.7427 3.16171 13.9007 3.20915C14.7334 3.47205 15.4575 3.22754 16.7579 3.66533C17.2308 3.84044 17.8301 4.10174 18.5953 4.7777C19.6244 5.7133 19.69 6.66714 19.4094 7.16023C19.1283 7.68819 18.6992 8.15322 18.2888 8.82032C18.2314 8.91139 18.2651 9.21117 18.1728 9.42363C18.0846 9.6427 17.8997 9.76786 17.544 9.79156C15.7484 9.8581 13.7855 9.98011 11.8734 10.0888C11.6657 10.0869 11.6693 9.95146 11.6052 9.97267C11.5402 9.99364 11.4021 10.0062 10.9037 9.9762C10.8711 9.97797 10.7681 9.97362 10.6439 10.1523C10.5162 10.3146 10.402 10.7151 10.2818 10.9379C10.1211 11.2687 9.27039 10.874 9.15507 11.6152C9.08176 12.4246 10.0597 13.2283 10.7463 14.415C11.0938 15.0079 11.0375 15.3149 11.1383 15.7216C11.2134 16.0999 11.5445 16.6116 12.198 16.9541ZM14.6313 9.33321C15.048 9.92106 14.2213 7.51675 14.2235 8.16219C14.2245 8.19626 14.6102 9.3046 14.6313 9.33321ZM18.5049 22.9753C17.5815 22.2908 18.5075 23.6659 19.2127 24.2037C19.9235 24.7349 18.7886 23.1794 18.5049 22.9753ZM19.9 20.5813C19.0769 20.1479 21.5402 22.7806 21.2696 22.0283C21.2548 21.9853 19.9482 20.6061 19.9 20.5813ZM15.8065 7.10882C15.8056 7.11869 15.8278 7.134 15.8602 7.15065C15.9404 7.19059 16.0938 7.24851 16.1075 7.22869C16.4029 6.76688 16.184 6.47156 16.0043 6.59111C15.9118 6.65209 15.8321 6.81999 15.8065 7.10882ZM21.0552 18.1409C20.6405 17.8696 20.8702 18.444 21.3855 18.7825C21.8011 19.0539 21.5727 18.4769 21.0552 18.1409ZM24.5433 8.33444C24.5581 8.36936 24.6725 8.36812 24.6051 8.16494C24.3874 7.51025 24.2954 7.74506 24.5433 8.33444ZM23.7476 15.9307C23.4667 15.8013 21.7533 13.2216 22.969 13.242C23.1505 13.2645 22.8017 14.2533 23.0802 14.4645C23.3008 14.6637 23.363 14.3043 23.4903 14.0061C23.6111 13.7091 23.7868 13.4799 23.9811 13.9784C24.014 14.1589 23.7323 15.9413 23.7472 15.9349C23.7474 15.9335 23.7475 15.9321 23.7476 15.9307ZM15.7665 12.1701C15.7814 12.2004 15.932 12.1805 15.9242 12.148C15.7305 11.3602 15.4233 11.401 15.7665 12.1701ZM28.6574 10.4555C28.5914 10.4776 28.5713 10.7285 28.6358 10.7283C29.9748 10.7096 29.9796 9.98564 28.6574 10.4555ZM11.0407 19.404C11.5533 19.6252 11.747 19.773 11.5016 19.8164C11.3875 19.8232 11.1728 19.8107 10.8437 19.7785C10.8657 19.7481 10.8841 19.7173 10.9009 19.6872C10.9464 19.5923 10.983 19.4947 11.0407 19.404Z" fill="#F9EF23"/>
<path d="M33.9662 4.7826C34.0399 4.76457 34.1312 4.80279 34.1988 4.8489C34.2196 4.86318 34.2024 4.91459 34.2166 4.92682C34.2442 4.95069 34.2762 4.92815 34.3032 4.95594C34.312 4.96539 34.2904 5.04744 34.2999 5.05544C34.3514 5.09866 34.4097 5.08382 34.4642 5.10809C34.7392 5.22858 35.0133 5.29342 35.2964 5.36816C35.3893 5.39268 35.4943 5.48321 35.5971 5.46328C35.6089 5.46086 35.6119 5.38691 35.6148 5.38117C35.6611 5.29353 35.6301 5.4395 35.6496 5.46206C35.7278 5.55128 35.8242 5.5713 35.9136 5.55504C35.9514 5.54787 35.9354 5.39785 35.9603 5.48429C35.9621 5.49014 35.9421 5.56637 35.9508 5.57602C35.9705 5.59773 36.0151 5.58988 36.0316 5.5985C36.0635 5.61548 36.0694 5.61553 36.1008 5.62092C36.1437 5.62898 36.1896 5.67492 36.2389 5.6642C36.2494 5.66168 36.2478 5.58036 36.2657 5.56918C36.2836 5.55801 36.3244 5.57089 36.3357 5.5917C36.3471 5.61251 36.3318 5.674 36.3322 5.68867C36.3348 5.81237 36.4082 5.65249 36.4151 5.64931C36.5394 5.59595 36.6228 5.70615 36.7293 5.72263C36.8106 5.73501 36.9018 5.71747 36.9785 5.73444C37.0693 5.7549 37.1402 5.81082 37.2304 5.81865C37.2399 5.81957 37.2448 5.7247 37.2565 5.72564C37.3808 5.73578 37.5007 5.76739 37.6109 5.85223C37.6219 5.86082 37.5914 5.93943 37.6015 5.95288C37.6638 6.0334 37.75 6.21596 37.8617 5.87022C37.9096 5.89369 37.9684 5.91992 37.9993 6.0001C38.0193 6.05171 37.9737 6.13468 38.0166 6.10393C38.0263 6.0971 38.0312 6.01752 38.0447 6.01316C38.1013 5.99491 38.1517 6.03128 38.21 6.00156C38.222 5.99534 38.2334 5.92541 38.2389 5.91351C38.2842 5.81741 38.2906 5.99304 38.2968 6.00702C38.3452 6.11161 38.4014 6.08634 38.4638 6.10214C38.4782 6.10584 38.4811 6.00917 38.4958 6.0094C38.5713 6.01183 38.6454 6.03669 38.7071 6.09401C38.7207 6.10698 38.6882 6.18266 38.6938 6.19289C38.7184 6.23704 38.76 6.08962 38.7847 6.12929C38.79 6.13745 38.7705 6.20412 38.77 6.21182C38.762 6.33273 38.8171 6.17164 38.823 6.16917C38.8654 6.14914 38.8833 6.19984 38.9027 6.24508C38.922 6.28017 38.9401 6.31217 38.9727 6.31048C38.982 6.30992 38.9873 6.21997 39.0127 6.22378C39.1828 6.24893 39.3467 6.35175 39.4454 6.50268C39.4608 6.5261 39.4084 6.5703 39.4054 6.57802C39.3539 6.6965 39.4636 6.56595 39.4749 6.56625C39.5582 6.56995 39.5089 6.71521 39.6813 6.59937C39.7826 6.76392 39.9558 6.89911 39.9636 7.21669L39.9791 7.30323L39.8676 7.45699C39.7982 7.51264 39.7156 7.55677 39.6043 7.56768C39.6007 7.5682 39.5465 7.50408 39.5397 7.50535C39.4562 7.52007 39.5564 7.60431 39.6314 7.7526C39.6501 7.78996 39.4922 7.67437 39.4804 7.66614C39.4365 7.63604 39.3602 7.53678 39.3505 7.53205C39.2736 7.49569 39.5581 7.79415 39.5263 7.8237C39.5248 7.82411 39.4775 7.76452 39.4698 7.76143C39.4455 7.75162 39.4577 7.78134 39.4319 7.76955C39.3724 7.74213 39.231 7.60002 39.2813 7.7119C39.2879 7.72632 39.4504 7.89461 39.4144 7.91233C39.4 7.9192 39.3518 7.96776 39.3273 7.96919C39.3029 7.97062 39.2627 7.90553 39.2595 7.904C39.1551 7.86349 39.1423 7.81962 39.0259 7.72557C38.9102 7.63165 39.1467 7.89039 39.1647 7.92666C39.1826 7.96288 39.1003 7.92556 39.0747 7.90995C39.0491 7.89436 39.0262 7.85076 39.0095 7.84386C38.8998 7.79907 39.1056 7.99082 39.1284 8.04464C39.1824 8.17207 38.9882 7.99616 38.9427 8.00136C38.9304 8.00282 38.9751 8.04247 38.9717 8.05268C38.9572 8.09265 38.8883 8.0447 38.9042 8.12832C38.9069 8.1419 38.9808 8.28375 38.8906 8.20955C38.8777 8.19879 38.8431 8.14333 38.8218 8.14211C38.7899 8.14027 38.7487 8.15583 38.7432 8.18832C38.739 8.21238 38.8229 8.28167 38.7839 8.27072C38.7665 8.26578 38.7419 8.20529 38.7126 8.2C38.6835 8.19463 38.6469 8.22774 38.6336 8.2412C38.6204 8.25458 38.6791 8.31132 38.6813 8.31651C38.6938 8.34659 38.69 8.39964 38.6874 8.40157C38.5665 8.51061 38.3664 8.49268 38.2686 8.62244C38.2609 8.63252 38.3186 8.69598 38.3179 8.69822C38.3056 8.7521 38.1963 8.55043 38.1276 8.50688C38.2345 8.64331 38.2019 8.62846 38.1895 8.66131C38.1836 8.67726 38.2297 8.72658 38.2327 8.73288C38.2762 8.82748 38.186 8.73039 38.1671 8.71093C38.0971 8.63942 38.1541 8.7428 38.1073 8.69499C38.0609 8.64753 38.0208 8.55616 37.999 8.57367C38.0292 8.62842 38.1417 8.74691 38.1398 8.78083C38.1323 8.90952 37.9337 8.89499 37.8727 8.92131C37.8117 8.94789 37.8009 8.96919 37.7569 8.97231C37.6774 8.97771 37.7661 9.06268 37.7616 9.13236C37.7568 9.20213 37.6082 8.94539 37.5675 8.89619C37.5269 8.84688 37.5582 8.90472 37.5325 8.87991C37.5068 8.85506 37.4958 8.81033 37.4742 8.8091C37.4526 8.80784 37.4764 8.92808 37.5081 8.98688C37.5753 9.11136 37.6755 9.22237 37.6076 9.20509C37.6037 9.20401 37.5679 9.13438 37.555 9.1335C37.4541 9.12859 37.3814 9.17154 37.2847 9.17049C37.2713 9.17024 37.2331 9.09197 37.2248 9.09098C37.1387 9.08023 37.2373 9.1904 37.2925 9.34735C37.1843 9.16049 37.0967 9.05982 37.0534 9.08541C37.0272 9.10074 37.0815 9.17793 37.0997 9.2448C37.1052 9.26496 37.0527 9.22135 37.0727 9.2611C37.1377 9.39118 37.2404 9.5184 37.161 9.49141C37.1574 9.49001 37.1223 9.41853 37.1129 9.41865C37.0521 9.41898 37.1256 9.55164 37.0863 9.59677C37.0554 9.63217 36.94 9.59325 36.8891 9.60559C36.7674 9.39576 36.7553 9.4671 36.8222 9.62158C36.7905 9.63203 36.7645 9.65782 36.7256 9.65332C36.7123 9.65182 36.6838 9.58723 36.6789 9.58131C36.6021 9.48803 36.67 9.63651 36.6669 9.64555C36.6305 9.7372 36.5169 9.65912 36.5105 9.79969C36.5103 9.80472 36.5866 9.95497 36.5109 9.85607C36.5058 9.84919 36.4906 9.7703 36.4576 9.78136C36.4243 9.79253 36.3257 9.74271 36.3197 9.83386C36.3183 9.8558 36.3552 9.99082 36.2852 9.90665C36.2758 9.89518 36.2567 9.85067 36.2404 9.82882C36.1884 9.75923 36.259 9.91438 36.178 9.7933C36.097 9.67222 36.0177 9.59107 36.0205 9.70127C36.0205 9.70452 36.0708 9.83027 36.0565 9.83503C36.0335 9.84251 35.9909 9.83216 35.969 9.84379C35.9585 9.84943 36.0021 9.92144 36.0009 9.92373C35.9485 10.0014 35.8647 9.9585 35.773 9.96516C35.7563 9.96615 35.7623 10.0891 35.6973 10.0193C35.6264 9.94262 35.4889 9.55353 35.4613 9.67298C35.4507 9.7205 35.6223 10.2152 35.4644 9.98852C35.3945 10.0878 35.26 10.0089 35.1924 10.1129C35.1919 10.1165 35.1886 10.1215 35.1854 10.127C35.1822 10.1326 35.2137 10.2756 35.2022 10.2774C35.1851 10.2797 35.1547 10.218 35.1418 10.2176C35.0872 10.2142 35.0615 10.2841 35.0122 10.291C34.9936 10.2938 34.9775 10.2249 34.9552 10.2282C34.933 10.2315 34.9483 10.3242 34.9056 10.2912C34.8733 10.266 34.7919 10.0933 34.7564 10.0819C34.8144 10.2596 34.7936 10.2625 34.7744 10.3209C34.7707 10.3322 34.7984 10.3915 34.7978 10.4001C34.7955 10.4362 34.7665 10.389 34.7658 10.4277C34.7656 10.437 34.7856 10.4976 34.7866 10.5087C34.7956 10.6048 34.7161 10.4799 34.7024 10.4581C34.6499 10.3755 34.6656 10.4578 34.6366 10.4281C34.6076 10.3983 34.6185 10.3454 34.5913 10.3306C34.5348 10.3 34.4846 10.3276 34.4414 10.3389C34.4242 10.3438 34.4627 10.4208 34.4609 10.4233C34.4328 10.4555 34.3689 10.3812 34.4032 10.5487C34.2403 10.1404 34.3957 10.5961 34.318 10.5294C34.3118 10.5239 34.2412 10.3287 34.2467 10.2948C34.2521 10.2609 34.2955 10.3148 34.3014 10.2628C34.3028 10.2506 34.2697 10.0566 34.2698 10.0441C34.271 9.94667 34.3734 10.2395 34.3804 10.2551C34.4567 10.4234 34.4252 10.2131 34.4297 10.1963C34.4505 10.1195 34.4998 10.149 34.5198 10.0924C34.533 10.0558 34.471 9.86232 34.4909 9.86224C34.557 9.86185 34.6675 10.1238 34.646 9.87191C34.6415 9.81817 34.5593 9.61152 34.6577 9.76276C34.6639 9.7723 34.7464 9.91313 34.733 9.81111C34.7313 9.79825 34.7108 9.73689 34.7121 9.73071C34.7216 9.69049 34.7516 9.73483 34.7662 9.70394C34.7808 9.67304 34.7961 9.62914 34.8286 9.64144C34.8482 9.64875 34.9061 9.75654 34.9228 9.78208C34.9705 9.85581 34.9488 9.7161 34.9942 9.80948C35.04 9.90332 35.0642 10.0609 35.1195 10.1129C35.0676 9.95303 35.016 9.78836 34.9645 9.62728C34.9859 9.62189 35.0084 9.62011 35.0312 9.61964L35.0058 9.62879C35.0608 9.62642 35.1199 9.63178 35.1676 9.6065C35.1757 9.60203 35.1328 9.5219 35.1405 9.51498C35.1729 9.48619 35.2311 9.53171 35.2608 9.49114C35.2837 9.45942 35.2787 9.35733 35.3003 9.32144C35.3971 9.48907 35.4186 9.40801 35.4598 9.40857C35.4743 9.40864 35.4948 9.45575 35.5104 9.46706C35.5688 9.5085 35.4825 9.36101 35.4801 9.33266C35.4696 9.21175 35.6354 9.55904 35.6769 9.52894C35.6793 9.52741 35.6204 9.32833 35.6187 9.31497C35.6079 9.22781 35.6537 9.37739 35.6761 9.38344C35.717 9.39451 35.7591 9.42852 35.7665 9.35798C35.7686 9.3371 35.7353 9.21097 35.7984 9.29001C35.8067 9.30034 35.8356 9.36171 35.8394 9.36425C35.906 9.40493 35.8114 9.21401 35.7995 9.13921C35.7874 9.06451 35.8859 9.17929 35.9119 9.21353C35.9793 9.3022 35.9202 9.26197 35.9242 9.272C35.9715 9.39161 35.9852 9.35985 36.0084 9.36007C36.1068 9.54435 36.127 9.51976 36.032 9.35953C36.0216 9.34204 36.0164 9.36667 36.0084 9.36007C35.9304 9.16968 35.9449 9.13261 36.0647 9.28601C36.1208 9.35789 36.156 9.45771 36.1822 9.4005C36.1941 9.3746 36.1188 9.25177 36.1176 9.20791C36.1148 9.10798 36.2299 9.19815 36.2606 9.15706C36.2717 9.1422 36.2193 9.08119 36.2255 9.06869C36.2417 9.03534 36.2939 9.07385 36.3058 9.03246C36.3068 9.02863 36.2606 8.96008 36.2683 8.95455C36.3256 8.91127 36.4062 8.9259 36.4718 8.88931C36.5034 8.8716 36.5361 8.79944 36.5729 8.78803C36.6363 8.76797 36.7677 8.82812 36.8001 8.77371C36.8214 8.73859 36.771 8.67284 36.7544 8.61699C36.7219 8.50898 36.8704 8.64583 36.8928 8.66734C36.8936 8.66807 36.8774 8.70129 36.9142 8.72809C36.9696 8.79736 36.8927 8.66784 36.8928 8.66734C36.9072 8.68134 36.9703 8.66332 36.9723 8.64328C36.9734 8.63237 36.928 8.56871 36.9293 8.56427C36.9618 8.46034 37.02 8.39847 37.1105 8.38192C37.1126 8.3824 37.1593 8.45629 37.1637 8.45651C37.2263 8.46137 37.1928 8.35501 37.1903 8.27999C37.1878 8.20494 37.2257 8.20465 37.3307 8.31441C37.3451 8.28153 37.4188 8.311 37.4628 8.32927C37.5068 8.34756 37.4119 8.20642 37.4117 8.20241C37.4061 8.07472 37.4945 8.1313 37.5618 8.1014C37.5939 8.08748 37.6339 8.02781 37.6526 7.99087C37.6671 7.96154 37.705 7.9831 37.7113 7.94664C37.7121 7.94175 37.664 7.88321 37.6631 7.88022C37.6327 7.78986 37.732 7.94671 37.7568 7.9695C37.8466 8.05238 37.8966 8.09499 37.8936 8.02643C37.893 8.01062 37.7527 7.78259 37.7558 7.76061C37.7603 7.73231 37.812 7.81302 37.8153 7.7814C37.8156 7.77876 37.7795 7.73218 37.7917 7.72611C37.8481 7.69716 37.9228 7.68251 37.9702 7.63769C37.9768 7.63174 37.91 7.56537 37.9185 7.5556C37.9587 7.50978 38.0112 7.47216 38.0843 7.46927C38.1024 7.46882 38.1366 7.5253 38.1513 7.53842C38.2405 7.61749 38.1537 7.46777 38.155 7.4625C38.1852 7.33165 38.3468 7.39805 38.3821 7.27104C38.3841 7.26373 38.2983 7.09594 38.4165 7.20139C38.4243 7.20844 38.545 7.31655 38.4863 7.22191C38.4826 7.21601 38.4189 7.16178 38.4409 7.15387C38.4629 7.14586 38.4524 7.08159 38.5348 7.12999C38.5608 7.14522 38.6844 7.24991 38.6206 7.13556C38.6163 7.12747 38.4554 6.88369 38.6001 7.0216C38.624 7.04428 38.7633 7.20276 38.716 7.09969C38.7067 7.07979 38.6664 7.05283 38.6592 7.01963C38.648 6.96866 38.7116 6.98707 38.671 6.89661C38.6639 6.88055 38.5833 6.76008 38.6711 6.82677C38.6849 6.83721 38.7288 6.8926 38.7415 6.89154C38.8023 6.88652 38.8054 6.81885 38.874 6.82064C38.8982 6.82117 38.9706 6.90944 39.0048 6.91894C39.0389 6.92844 39.0855 6.92415 39.0626 6.87384C39.0396 6.82355 38.8982 6.70796 38.9079 6.6782C38.9226 6.63291 38.951 6.60284 38.9858 6.57964L38.72 7.24453C38.7478 7.4446 38.8444 7.46504 38.8581 7.47453C38.8623 7.47632 38.8078 7.51191 38.8107 7.51783C38.8205 7.53704 38.7637 7.56129 38.8075 7.42782C38.8382 7.31743 38.9173 7.26654 38.9155 7.21327C38.9117 7.18628 38.7986 7.36521 38.7941 7.37037C38.7405 7.41866 38.7622 7.32618 38.7261 7.34293C38.7191 7.34663 38.6936 7.42841 38.6884 7.43087C38.6712 7.44028 38.6699 7.39964 38.6549 7.40252C38.6483 7.40405 38.6315 7.46719 38.6282 7.46105C38.6241 7.45399 38.6213 7.44309 38.6194 7.42592C38.6094 7.40718 38.6008 7.38251 38.5934 7.34966C38.592 7.3436 38.6288 7.26883 38.6072 7.26061C38.5724 7.24755 38.5407 7.17813 38.4849 7.2293C38.4683 7.24474 38.4346 7.39014 38.431 7.28361C38.4303 7.26136 38.4771 7.08817 38.4118 7.23217C38.4007 7.25605 38.3032 7.44824 38.3068 7.31114C38.3078 7.27506 38.3222 7.12803 38.3022 7.14725C38.2994 7.15039 38.2903 7.23048 38.2763 7.23541C38.2272 7.25143 38.183 7.23314 38.1328 7.24814C38.1194 7.25232 38.12 7.33725 38.1006 7.34089C38.0475 7.35105 37.9905 7.31759 37.9475 7.28229C37.9317 7.26914 37.9577 7.20431 37.958 7.19672C37.9615 7.07327 37.9163 7.23165 37.9076 7.23965C37.8533 7.28714 37.8357 7.20495 37.7919 7.21709C37.7799 7.22025 37.7725 7.29859 37.7689 7.305C37.7332 7.36748 37.7772 7.23285 37.7659 7.21482C37.7343 7.16387 37.6881 7.1613 37.6455 7.16329C37.6298 7.16414 37.6295 7.25652 37.6156 7.25626C37.5336 7.25647 37.4527 7.2325 37.384 7.16907C37.3711 7.15696 37.3928 7.08987 37.3927 7.07361C37.3916 6.95985 37.3333 7.10415 37.3237 7.11716C37.2796 7.17655 37.278 7.11346 37.2474 7.11972C37.0979 7.15137 36.9324 7.08159 36.8038 7.03483C36.6363 6.9743 36.512 6.88738 36.3433 6.87907C36.3326 6.87846 36.3292 6.97201 36.3199 6.97267C36.1997 6.97706 36.0896 6.92402 35.9678 6.93358C35.9579 6.93421 35.9592 7.02347 35.9428 7.02741C35.9093 7.03613 35.8699 7.02566 35.8416 6.99321C35.8278 6.97756 35.8595 6.90564 35.8453 6.89141C35.8124 6.85811 35.774 6.84637 35.7343 6.85512C35.7173 6.85901 35.7293 6.95171 35.7081 6.94982C35.5641 6.93884 35.4232 6.93552 35.2934 6.80076C35.2846 6.79152 35.2997 6.60868 35.2742 6.6408C35.266 6.69102 35.2584 6.75036 35.2507 6.80417C35.0388 6.80612 34.8405 6.71736 34.6316 6.68235C34.6227 6.68089 34.6266 6.77914 34.6093 6.7768C34.5102 6.76345 34.4114 6.77888 34.3208 6.67119C34.3118 6.66064 34.3366 6.49155 34.3039 6.51377C34.298 6.51783 34.2513 6.53537 34.2354 6.57087C34.2331 6.57624 34.2323 6.65641 34.2174 6.65703C34.1315 6.65934 34.0458 6.63129 33.9679 6.57351C33.955 6.564 33.9791 6.48127 33.9701 6.47376C33.9065 6.42127 33.8239 6.47701 33.7681 6.39325C33.7289 6.33668 33.7618 6.19266 33.7542 6.04646C33.7531 6.02583 33.7265 6.01964 33.7344 5.93595C33.7541 5.72548 33.7926 5.49688 33.8121 5.27237C33.8162 5.22401 33.7749 5.27202 33.8088 5.1578C33.8111 5.15015 33.8414 5.11435 33.8524 5.07554C33.8599 5.04871 33.8612 4.96284 33.8743 4.92887C33.8874 4.89494 33.8897 4.96729 33.91 4.92791C33.93 4.888 33.9349 4.7907 33.9662 4.7826ZM37.6606 8.40969C37.7275 8.46232 37.5564 8.21696 37.5773 8.28998C37.5785 8.29379 37.6573 8.40714 37.6606 8.40969ZM35.1844 9.85099C35.2621 9.96204 35.2093 9.77414 35.1512 9.68768C35.0938 9.6011 35.161 9.81723 35.1844 9.85099ZM34.9196 10.0451C34.9879 10.132 34.8593 9.72779 34.8486 9.82175C34.8479 9.82709 34.9156 10.0401 34.9196 10.0451ZM33.8672 6.01762C33.8673 6.01363 33.8483 6.00762 33.8474 6.01149C33.8265 6.10474 33.8646 6.1167 33.8672 6.01762ZM34.6414 10.2484C34.6706 10.2991 34.6815 10.2257 34.6452 10.1626C34.616 10.1118 34.6051 10.1853 34.6414 10.2484ZM38.8474 7.89076C38.8506 7.89391 38.8639 7.88781 38.8474 7.86881C38.7941 7.80765 38.794 7.83774 38.8474 7.89076ZM34.1138 10.4294C34.1971 10.4185 34.3552 10.7351 34.2576 10.7259C34.2399 10.7243 34.2555 10.6089 34.2259 10.5854C34.1718 10.5428 34.2175 10.7594 34.1436 10.6598C34.1301 10.6416 34.1088 10.4293 34.1138 10.4289C34.1138 10.4291 34.1138 10.4292 34.1138 10.4294ZM37.8805 8.69416C37.8832 8.6971 37.9012 8.68878 37.8993 8.68531C37.8526 8.60198 37.8164 8.61855 37.8805 8.69416ZM39.5859 7.4718C39.5926 7.4771 39.631 7.4508 39.6266 7.44421C39.5351 7.31665 39.4582 7.36854 39.5859 7.4718ZM36.8851 9.6004C36.9146 9.69382 36.8974 9.71681 36.8224 9.62163C36.8442 9.61634 36.8634 9.60627 36.8851 9.6004Z" fill="#F96640"/>
<path d="M23.5766 28.2011C23.6091 28.208 23.5962 28.2444 23.5711 28.2796C23.5634 28.2906 23.5146 28.3115 23.5071 28.3202C23.4925 28.3371 23.5193 28.3325 23.5011 28.351C23.4949 28.3573 23.4183 28.392 23.4135 28.3977C23.3876 28.4288 23.4135 28.4326 23.4049 28.4551C23.3623 28.5659 23.3696 28.6489 23.373 28.7367C23.3741 28.7655 23.3221 28.8297 23.3643 28.8375C23.3693 28.8384 23.4331 28.8016 23.4387 28.7992C23.5248 28.7629 23.3927 28.8313 23.3783 28.8461C23.3215 28.905 23.3288 28.9323 23.3651 28.939C23.3807 28.9417 23.5037 28.8617 23.4368 28.9104C23.4323 28.9137 23.3627 28.9497 23.3568 28.9562C23.3434 28.9708 23.3614 28.9743 23.3584 28.9815C23.3522 28.9957 23.3536 28.9967 23.3572 29.0048C23.3615 29.0161 23.3348 29.0481 23.3566 29.0505C23.3615 29.0509 23.4293 29.0079 23.4434 29.0049C23.4573 29.0019 23.4572 29.0154 23.4428 29.0281C23.4283 29.041 23.3728 29.071 23.3607 29.0788C23.2578 29.1447 23.411 29.0721 23.4155 29.0714C23.4928 29.0629 23.4234 29.1348 23.4389 29.1604C23.4456 29.1712 23.4609 29.1772 23.4745 29.1843C23.4851 29.1896 23.4945 29.1956 23.4978 29.2047C23.5063 29.2294 23.4805 29.2707 23.5001 29.2883C23.5021 29.2902 23.5809 29.2383 23.5835 29.2405C23.6107 29.2639 23.6198 29.298 23.5841 29.3611C23.5804 29.3674 23.5078 29.4076 23.5 29.4166C23.4535 29.4706 23.3336 29.587 23.6452 29.405C23.6409 29.4246 23.638 29.4473 23.5836 29.4971C23.5486 29.5293 23.4681 29.5708 23.5061 29.5589C23.5146 29.5562 23.5796 29.5113 23.5873 29.5105C23.6196 29.5073 23.6065 29.5345 23.6487 29.5248C23.6575 29.5227 23.7166 29.4838 23.7278 29.4776C23.8185 29.4278 23.6811 29.5296 23.672 29.5385C23.6047 29.6049 23.643 29.5971 23.6509 29.6136C23.6527 29.6174 23.7299 29.5617 23.7345 29.5635C23.7573 29.5736 23.7622 29.5962 23.738 29.6364C23.7324 29.6455 23.6622 29.6861 23.656 29.6927C23.6298 29.7213 23.7593 29.6396 23.7366 29.6654C23.732 29.6707 23.6732 29.7076 23.6671 29.7121C23.5699 29.782 23.7145 29.6936 23.7184 29.6928C23.7712 29.6801 23.6293 29.7864 23.66 29.7875C23.6638 29.7875 23.7346 29.7355 23.7408 29.7385C23.7826 29.7581 23.7852 29.8061 23.7481 29.8773C23.7424 29.8883 23.685 29.921 23.6784 29.9257C23.5758 30.0008 23.7201 29.9106 23.7265 29.9087C23.7736 29.8964 23.6626 29.9872 23.8376 29.8844C23.8154 29.9784 23.9467 29.9705 23.832 30.1258C23.8307 30.1277 23.7601 30.1728 23.7578 30.1763C23.7298 30.2192 23.8361 30.1439 23.9761 30.0667C24.0112 30.0474 23.8568 30.1624 23.8456 30.1709C23.8041 30.2025 23.6985 30.2687 23.6907 30.2752C23.63 30.3265 23.9724 30.0969 23.9793 30.1071C23.9789 30.1078 23.9149 30.1485 23.9092 30.1535C23.8912 30.1693 23.9181 30.1553 23.8981 30.1723C23.8518 30.2118 23.6865 30.325 23.7896 30.2695C23.803 30.2623 23.9964 30.1309 23.9933 30.1462C23.9919 30.1524 24.006 30.1663 23.9964 30.1792C23.9868 30.1921 23.922 30.2308 23.9195 30.2329C23.8448 30.3004 23.8073 30.3186 23.6886 30.4066C23.5704 30.4942 23.861 30.2981 23.8952 30.2789C23.9293 30.2597 23.8668 30.3143 23.8445 30.3323C23.8222 30.3504 23.7805 30.3742 23.7684 30.3851C23.689 30.4567 23.9169 30.2943 23.9661 30.2677C24.0824 30.2047 23.8713 30.3567 23.8562 30.3801C23.8522 30.3864 23.9001 30.3515 23.9062 30.3506C23.9158 30.3494 23.9107 30.3571 23.9061 30.3645C23.8995 30.3752 23.8937 30.3852 23.9342 30.3667C23.9454 30.3616 24.0807 30.2829 23.9888 30.3518C23.9755 30.3617 23.9203 30.3956 23.9107 30.4074C23.8963 30.425 23.8912 30.4429 23.9132 30.4368C23.9295 30.4323 24.0148 30.3679 23.991 30.3919C23.9803 30.4026 23.9254 30.4328 23.9097 30.45C23.894 30.4672 23.9042 30.4774 23.909 30.4807C23.9138 30.4839 23.9793 30.4363 23.9841 30.4336C24.0115 30.4184 24.0496 30.405 24.05 30.4058C24.0833 30.4375 23.9943 30.5491 24.0566 30.5594C24.0614 30.5602 24.13 30.5093 24.1314 30.5089C24.1673 30.4978 23.9763 30.6208 23.919 30.6715C24.06 30.5707 24.0371 30.5927 24.0574 30.5885C24.0673 30.5864 24.1208 30.5458 24.1266 30.5421C24.213 30.4879 24.1081 30.5674 24.0868 30.5839C24.0084 30.6446 24.1061 30.58 24.0538 30.6207C24.002 30.6612 23.9192 30.7128 23.925 30.7188C23.9767 30.6844 24.1049 30.5851 24.1297 30.5746C24.2231 30.5345 24.1446 30.6423 24.1451 30.6649C24.1453 30.6872 24.158 30.6849 24.1466 30.7068C24.126 30.7465 24.217 30.6676 24.2674 30.6428C24.3177 30.6177 24.0813 30.7957 24.0322 30.8362C23.9832 30.8768 24.0359 30.838 24.0098 30.8613C23.9837 30.8846 23.9467 30.9075 23.9396 30.9198C23.9327 30.9321 24.0302 30.8731 24.0833 30.8329C24.1957 30.748 24.3076 30.6511 24.2748 30.6932C24.2728 30.6957 24.2107 30.7426 24.2063 30.7497C24.1735 30.8046 24.1857 30.8252 24.1599 30.8767C24.1562 30.8839 24.0882 30.9376 24.0854 30.9424C24.056 30.9934 24.1629 30.8937 24.2926 30.796C24.1273 30.9346 24.0308 31.025 24.0402 31.0377C24.0457 31.0453 24.1157 30.9822 24.1694 30.9427C24.1856 30.9308 24.1412 30.9783 24.1752 30.9498C24.2862 30.8567 24.404 30.7452 24.3648 30.7983C24.363 30.8008 24.3024 30.8521 24.3003 30.8569C24.2863 30.8884 24.4001 30.7883 24.4233 30.7865C24.4413 30.785 24.3872 30.8625 24.3857 30.8828C24.2093 31.0492 24.2593 31.0212 24.3834 30.909C24.3845 30.9201 24.3978 30.9202 24.3873 30.9425C24.3837 30.9501 24.3322 30.9979 24.3271 31.0034C24.2463 31.0911 24.365 30.9798 24.3708 30.9766C24.429 30.9472 24.3549 31.0473 24.4529 30.9744C24.4565 30.9718 24.5741 30.8513 24.4924 30.9434C24.4869 30.9498 24.429 31.0005 24.4316 31.0112C24.434 31.0218 24.3852 31.0999 24.448 31.0517C24.4632 31.0402 24.5616 30.9449 24.4938 31.0277C24.4846 31.039 24.4513 31.074 24.434 31.0946C24.3792 31.1606 24.4956 31.0363 24.4017 31.1465C24.3078 31.2566 24.2436 31.3446 24.3209 31.2799C24.3232 31.278 24.4154 31.1794 24.4172 31.1838C24.4201 31.1911 24.4088 31.2186 24.4149 31.2227C24.4178 31.2246 24.4711 31.1599 24.4726 31.1592C24.5203 31.1384 24.4838 31.2054 24.4821 31.2463C24.4818 31.254 24.5643 31.1739 24.5139 31.2493C24.4588 31.3321 24.191 31.6447 24.2722 31.5843C24.3054 31.5606 24.6388 31.1589 24.484 31.3812C24.5499 31.3477 24.4903 31.4763 24.5735 31.4188C24.5772 31.4163 24.6673 31.3017 24.6687 31.3052C24.6707 31.3106 24.6326 31.3672 24.6329 31.3729C24.6327 31.3981 24.6776 31.3587 24.6838 31.3742C24.6863 31.38 24.644 31.4364 24.6471 31.4434C24.6504 31.4504 24.7071 31.377 24.6885 31.4186C24.6742 31.4502 24.5717 31.6098 24.567 31.6334C24.6734 31.4797 24.6763 31.4863 24.7131 31.4517C24.7202 31.445 24.755 31.3899 24.7602 31.384C24.7823 31.3584 24.755 31.4051 24.7785 31.3769C24.7842 31.3702 24.82 31.3173 24.8266 31.3088C24.8841 31.2342 24.8121 31.3588 24.7997 31.3806C24.7526 31.4633 24.8013 31.396 24.785 31.43C24.7687 31.4641 24.7363 31.4987 24.729 31.5211C24.714 31.5674 24.734 31.5681 24.7434 31.5777C24.7474 31.5812 24.7905 31.5077 24.7922 31.5065C24.8128 31.4941 24.7734 31.5765 24.8694 31.4364C24.6407 31.811 24.8978 31.404 24.8634 31.4861C24.8606 31.4928 24.7518 31.6695 24.7315 31.6927C24.7113 31.716 24.7395 31.6571 24.7084 31.6936C24.7011 31.7022 24.5887 31.8612 24.5812 31.8703C24.5227 31.9422 24.689 31.6804 24.6978 31.6658C24.7924 31.5081 24.6698 31.6783 24.6592 31.6887C24.6119 31.7371 24.6256 31.6939 24.5899 31.727C24.5667 31.7484 24.4534 31.917 24.4516 31.9084C24.4453 31.8794 24.5993 31.6414 24.4447 31.8334C24.4117 31.8743 24.2894 32.0597 24.3755 31.907C24.3809 31.8973 24.4627 31.7597 24.3998 31.839C24.3918 31.849 24.3549 31.9021 24.3509 31.906C24.3247 31.9306 24.3504 31.8856 24.3295 31.9011C24.3087 31.9166 24.2792 31.9409 24.2844 31.9176C24.2874 31.9036 24.352 31.8016 24.3672 31.7761C24.4111 31.703 24.3231 31.8113 24.38 31.7254C24.4375 31.6393 24.5367 31.5171 24.5673 31.4567C24.4677 31.5921 24.365 31.7308 24.2645 31.8668C24.2456 31.8456 24.2576 31.7867 24.2314 31.7759C24.228 31.7747 24.1758 31.8486 24.1708 31.8491C24.1495 31.851 24.1784 31.7918 24.1501 31.8022C24.1278 31.8104 24.0573 31.8766 24.0316 31.8868C24.1456 31.7317 24.0902 31.7708 24.09 31.748C24.0901 31.7401 24.123 31.7007 24.131 31.6855C24.1605 31.6295 24.0567 31.7642 24.0368 31.7825C23.9512 31.8598 24.1972 31.5639 24.1782 31.5603C24.1774 31.5601 24.0355 31.7086 24.0258 31.7171C23.9635 31.7735 24.0709 31.6618 24.0758 31.6461C24.0849 31.6173 24.1112 31.5753 24.0614 31.6115C24.0468 31.6225 23.9546 31.7116 24.0142 31.6323C24.022 31.6219 24.0675 31.5716 24.0695 31.5681C24.1026 31.5089 23.9603 31.6675 23.9053 31.715C23.8501 31.7624 23.9388 31.6443 23.9655 31.6112C24.0343 31.5255 24.0012 31.5803 24.0087 31.5726C24.0981 31.4809 24.0764 31.4909 24.0784 31.4781C24.2189 31.3235 24.2036 31.3264 24.08 31.4654C24.0665 31.4806 24.0838 31.4701 24.0784 31.4781C23.9352 31.6248 23.9079 31.6353 24.0298 31.4871C24.087 31.4177 24.1624 31.345 24.1243 31.3616C24.1069 31.369 24.01 31.4753 23.9779 31.4988C23.904 31.5521 23.9821 31.4409 23.9557 31.4446C23.946 31.4458 23.895 31.506 23.8864 31.5087C23.8633 31.5159 23.898 31.4671 23.8687 31.4806C23.866 31.4818 23.8093 31.5417 23.806 31.5399C23.7801 31.5274 23.8013 31.4734 23.7834 31.4523C23.7745 31.442 23.7247 31.4552 23.7219 31.4386C23.7162 31.4097 23.7863 31.3083 23.7511 31.3124C23.7284 31.3148 23.6682 31.3712 23.622 31.4036C23.5322 31.4662 23.6668 31.3236 23.6882 31.3022C23.689 31.3015 23.7111 31.2976 23.7393 31.2654C23.8041 31.2055 23.6886 31.3021 23.6882 31.3022C23.7019 31.2882 23.7016 31.2589 23.6867 31.2656C23.6785 31.2693 23.6195 31.3205 23.6164 31.3214C23.5429 31.3425 23.5071 31.3301 23.516 31.2826C23.5169 31.2812 23.5857 31.2274 23.587 31.2248C23.6064 31.1868 23.5156 31.2442 23.4562 31.2712C23.3969 31.2982 23.4061 31.2753 23.5201 31.1775C23.4983 31.1801 23.5417 31.1275 23.5686 31.0964C23.5956 31.0653 23.4586 31.1661 23.4555 31.1675C23.3542 31.2117 23.4237 31.1419 23.4212 31.1127C23.4202 31.0985 23.3864 31.0938 23.3637 31.094C23.3456 31.0943 23.3746 31.0663 23.3484 31.0734C23.3449 31.0743 23.2837 31.119 23.2811 31.1204C23.201 31.1639 23.3553 31.0615 23.3811 31.0408C23.475 30.9654 23.5249 30.925 23.4712 30.9468C23.4589 30.9519 23.2351 31.0968 23.219 31.101C23.1987 31.1063 23.2788 31.0542 23.2555 31.0611C23.2535 31.0617 23.2051 31.0953 23.2046 31.09C23.2016 31.0657 23.2168 31.0272 23.1998 31.0126C23.1977 31.0105 23.1224 31.0661 23.118 31.0638C23.0975 31.0533 23.0881 31.0332 23.1139 30.9931C23.1205 30.983 23.1765 30.949 23.1921 30.9374C23.2863 30.8668 23.1395 30.9546 23.136 30.9552C23.0753 30.9671 23.1121 30.919 23.1134 30.893C23.114 30.8816 23.1077 30.8744 23.0834 30.8783C23.0788 30.8791 22.9185 30.969 23.0457 30.8766C23.0542 30.8705 23.1844 30.7761 23.09 30.8325C23.0841 30.836 23.0174 30.8851 23.0206 30.8748C23.0239 30.8645 22.9718 30.8861 23.0423 30.8279C23.0645 30.8095 23.194 30.7148 23.0828 30.7783C23.075 30.7828 22.827 30.9317 22.9902 30.8171C23.0171 30.7982 23.1931 30.682 23.0973 30.7332C23.0787 30.7431 23.0416 30.7723 23.0142 30.7841C22.972 30.8025 23.013 30.7622 22.9293 30.8059C22.9144 30.8137 22.7911 30.8868 22.8783 30.8216C22.8919 30.8114 22.9516 30.7739 22.9564 30.7669C22.9796 30.7335 22.9316 30.7465 22.9638 30.7069C22.9751 30.6929 23.0714 30.6321 23.0937 30.6106C23.116 30.589 23.1342 30.5634 23.0876 30.5873C23.041 30.6112 22.8934 30.7169 22.8764 30.7176C22.8026 30.7205 22.8702 30.6298 22.8619 30.5891C22.8607 30.5831 22.8092 30.6228 22.8035 30.6165C22.7823 30.5933 22.7018 30.5817 22.8022 30.4832C22.8826 30.4044 22.9678 30.3809 22.9963 30.3424C23.0099 30.324 22.8289 30.4327 22.8222 30.4347C22.7554 30.4559 22.8264 30.3937 22.7931 30.3951C22.7862 30.3954 22.7165 30.4452 22.7114 30.4449C22.6934 30.4444 22.7195 30.4146 22.7083 30.4102C22.7031 30.4083 22.6488 30.4447 22.6508 30.4385C22.655 30.4242 22.6733 30.402 22.7194 30.3607C22.7236 30.3569 22.7948 30.3174 22.7934 30.3098C22.791 30.2975 22.8338 30.2525 22.7743 30.2754C22.7564 30.2823 22.6311 30.3634 22.7129 30.3001C22.73 30.2869 22.8816 30.1912 22.7463 30.2672C22.7238 30.2798 22.5394 30.3794 22.6479 30.2992C22.6764 30.2781 22.7966 30.1938 22.7747 30.2023C22.7712 30.2038 22.7053 30.2495 22.6966 30.2504C22.667 30.2529 22.6662 30.2359 22.6373 30.2374C22.6294 30.2378 22.5628 30.2876 22.5533 30.2868C22.5271 30.2849 22.5341 30.2566 22.5476 30.2296C22.5527 30.2195 22.6127 30.1858 22.6188 30.1814C22.7177 30.1102 22.5772 30.1954 22.5679 30.1986C22.5122 30.2178 22.5715 30.1674 22.5474 30.1676C22.5409 30.1675 22.4762 30.2117 22.47 30.2148C22.4085 30.2452 22.53 30.1744 22.5406 30.1622C22.5707 30.1277 22.5577 30.1189 22.5422 30.1132C22.5364 30.1111 22.4626 30.1642 22.4583 30.1618C22.4313 30.1484 22.4243 30.1209 22.4533 30.073C22.4589 30.0639 22.5198 30.0293 22.5328 30.02C22.624 29.9551 22.4894 30.0274 22.4759 30.033C22.4141 30.0592 22.4644 30.023 22.4497 30.0213C22.3769 30.013 22.382 29.943 22.3811 29.8926C22.3807 29.8741 22.3831 29.8548 22.386 29.8361C22.3929 29.7888 22.4022 29.7444 22.372 29.7173C22.3694 29.7148 22.2909 29.7647 22.2876 29.7631C22.2487 29.741 22.2611 29.6897 22.2185 29.6692C22.2152 29.6674 22.1408 29.715 22.1328 29.7136C22.116 29.711 22.1135 29.6968 22.1328 29.6737C22.142 29.6625 22.2114 29.6315 22.2194 29.621C22.2382 29.5967 22.2373 29.5822 22.219 29.5783C22.211 29.5767 22.1361 29.6276 22.1318 29.6221C22.1011 29.5852 22.0649 29.5515 22.1453 29.4546C22.1508 29.4479 22.3109 29.3586 22.2768 29.3694C22.2317 29.393 22.179 29.4213 22.131 29.4468C22.0731 29.4008 22.0983 29.3122 22.0768 29.2488C22.0758 29.2461 21.9917 29.2949 21.9895 29.29C21.9763 29.2613 21.9385 29.2463 22.0103 29.1745C22.0173 29.1674 22.1703 29.0916 22.1431 29.0951C22.1382 29.0958 22.1117 29.0938 22.077 29.1074C22.0718 29.1094 22.0018 29.1477 21.9977 29.1447C21.9752 29.1271 21.9793 29.0949 22.0115 29.0504C22.0169 29.0431 22.0947 29.0089 22.0992 29.0035C22.1302 28.9649 22.0625 28.9738 22.1228 28.922C22.1634 28.8871 22.2968 28.8258 22.423 28.755C22.4408 28.745 22.4401 28.7364 22.515 28.6984C22.7036 28.603 22.9124 28.5029 23.1132 28.4008C23.1564 28.3788 23.1049 28.3925 23.2126 28.3458C23.2198 28.3427 23.2581 28.3322 23.2945 28.3161C23.3197 28.305 23.3951 28.2646 23.4278 28.2513C23.4605 28.238 23.3977 28.2727 23.4367 28.2582C23.4762 28.2435 23.5623 28.1983 23.5766 28.2011ZM23.6898 30.958C23.751 30.9035 23.5092 31.0795 23.5721 31.0442C23.5754 31.0422 23.6868 30.9607 23.6898 30.958ZM24.3933 31.6063C24.465 31.4952 24.342 31.6453 24.2864 31.731C24.2311 31.8168 24.3718 31.6402 24.3933 31.6063ZM24.5343 31.5901C24.5853 31.4987 24.3371 31.8427 24.3978 31.7806C24.4012 31.7771 24.5313 31.5954 24.5343 31.5901ZM22.474 28.7652C22.4776 28.7633 22.4784 28.7564 22.4748 28.7581C22.3885 28.7978 22.3868 28.8116 22.474 28.7652ZM24.6763 31.5606C24.7054 31.511 24.6602 31.5605 24.6239 31.622C24.5948 31.6717 24.6402 31.6224 24.6763 31.5606ZM23.7349 30.4613C23.7386 30.4587 23.7396 30.4531 23.7187 30.4671C23.6514 30.5124 23.6736 30.5044 23.7349 30.4613ZM24.8199 31.6467C24.8065 31.6198 24.9801 31.3151 24.9803 31.3617C24.9804 31.3702 24.9133 31.4516 24.9016 31.4816C24.8809 31.5364 25.0017 31.3525 24.9498 31.4588C24.9404 31.4784 24.8204 31.649 24.8196 31.6471C24.8197 31.647 24.8198 31.6468 24.8199 31.6467ZM23.9766 30.7416C23.9797 30.7392 23.9793 30.7324 23.9761 30.7346C23.8976 30.7882 23.8985 30.8021 23.9766 30.7416ZM23.7554 30.1584C23.7623 30.1535 23.7615 30.1381 23.7548 30.142C23.6216 30.2222 23.6228 30.2536 23.7554 30.1584ZM24.3812 30.8874C24.4545 30.8259 24.4668 30.8225 24.3835 30.9089C24.3841 30.9004 24.3809 30.8956 24.3812 30.8874Z" fill="black"/>
<path d="M11.4983 31.2326C11.5243 31.2565 11.4963 31.2903 11.4578 31.3166C11.4458 31.3249 11.3928 31.32 11.3822 31.3256C11.3614 31.3365 11.3873 31.3477 11.3625 31.3586C11.354 31.3623 11.2702 31.3559 11.2632 31.3596C11.2257 31.3802 11.2465 31.4013 11.2278 31.4232C11.1359 31.5304 11.0948 31.6406 11.0396 31.7479C11.0214 31.7838 10.9386 31.8141 10.9639 31.8572C10.9669 31.8623 11.0397 31.8743 11.0455 31.8763C11.1339 31.9084 10.989 31.8741 10.9679 31.8785C10.8845 31.8962 10.8701 31.9287 10.8899 31.9668C10.8986 31.9828 11.044 32.0051 10.9609 31.9987C10.9553 31.9982 10.8802 31.9757 10.8712 31.9773C10.851 31.9807 10.8605 31.9996 10.8529 32.0042C10.8378 32.0129 10.8381 32.0151 10.8341 32.0262C10.8281 32.0409 10.7855 32.0486 10.7979 32.0693C10.8007 32.0739 10.8791 32.0918 10.8905 32.1013C10.902 32.1108 10.8909 32.1241 10.8713 32.1235C10.8517 32.123 10.792 32.1025 10.7779 32.0992C10.6592 32.0703 10.8155 32.1365 10.8187 32.1402C10.8413 32.1651 10.8376 32.1806 10.8244 32.1928C10.8053 32.2101 10.7663 32.2197 10.7592 32.2407C10.7501 32.2679 10.7695 32.3074 10.756 32.3311C10.7394 32.3594 10.6892 32.3686 10.685 32.3996C10.6845 32.4028 10.7735 32.4341 10.773 32.4382C10.7675 32.4817 10.7419 32.517 10.6672 32.5301C10.6596 32.5314 10.5854 32.4942 10.5733 32.4935C10.5007 32.4903 10.336 32.4591 10.6602 32.6176C10.6405 32.6275 10.6187 32.6407 10.5463 32.6245C10.4997 32.6142 10.4212 32.5687 10.4515 32.5952C10.4583 32.6011 10.5317 32.6304 10.5364 32.6369C10.5557 32.6643 10.5248 32.6703 10.5549 32.7025C10.5612 32.7092 10.6259 32.7379 10.6371 32.7441C10.7274 32.7949 10.5667 32.7357 10.5543 32.733C10.461 32.7144 10.4872 32.7443 10.4763 32.762C10.4737 32.7661 10.5621 32.8016 10.5627 32.8071C10.5647 32.8348 10.5465 32.854 10.4982 32.8568C10.4873 32.8573 10.4165 32.8178 10.4075 32.8162C10.369 32.8096 10.5056 32.8785 10.4712 32.8736C10.4642 32.8727 10.4024 32.8412 10.3953 32.8382C10.2851 32.7915 10.435 32.8706 10.4376 32.8738C10.4745 32.9147 10.31 32.8485 10.3238 32.877C10.3256 32.8806 10.4066 32.9148 10.4068 32.9223C10.4087 32.9729 10.3659 33.0042 10.2836 33.0109C10.2709 33.012 10.2145 32.9776 10.207 32.9743C10.091 32.9224 10.2403 33.0041 10.2449 33.009C10.278 33.0456 10.1439 32.9943 10.3183 33.0981C10.222 33.1309 10.2876 33.2498 10.0932 33.2272C10.091 33.227 10.0181 33.1855 10.0139 33.1853C9.9621 33.1821 10.0785 33.2406 10.2111 33.33C10.2444 33.3525 10.0703 33.27 10.0575 33.264C10.0103 33.2422 9.90281 33.1789 9.89341 33.1751C9.81947 33.1457 10.1815 33.3429 10.175 33.355C10.1741 33.355 10.1086 33.3168 10.1014 33.3142C10.079 33.3058 10.1037 33.3235 10.0791 33.3139C10.0224 33.2916 9.84585 33.1969 9.94204 33.2639C9.95453 33.2725 10.1601 33.3839 10.1445 33.3892C10.1382 33.3913 10.1312 33.412 10.115 33.4098C10.0989 33.4077 10.0352 33.3673 10.0321 33.366C9.93735 33.3313 9.90429 33.3058 9.77178 33.2405C9.63981 33.1754 9.94644 33.3452 9.97893 33.3673C10.0113 33.3893 9.93393 33.3591 9.90765 33.3476C9.88134 33.336 9.84139 33.3094 9.82606 33.3036C9.72581 33.2662 9.9739 33.3956 10.0196 33.4279C10.1276 33.5045 9.89638 33.3852 9.86837 33.3829C9.86079 33.3824 9.91354 33.4094 9.91691 33.4146C9.91804 33.4164 9.91848 33.4178 9.9184 33.4189C9.91752 33.4297 9.86086 33.4051 9.91377 33.4492C9.92324 33.457 10.0535 33.544 9.95062 33.4928C9.9358 33.4854 9.88101 33.4508 9.86599 33.4478C9.84347 33.4433 9.82466 33.4475 9.83951 33.4651C9.8505 33.4781 9.94624 33.5258 9.91388 33.5155C9.89944 33.5109 9.84837 33.4745 9.82577 33.4684C9.8032 33.4623 9.79784 33.477 9.79677 33.4832C9.79575 33.4893 9.86739 33.5272 9.87188 33.5303C9.89747 33.5485 9.92559 33.5778 9.925 33.5786C9.90831 33.6271 9.76724 33.598 9.78199 33.6625C9.78305 33.6675 9.85815 33.7083 9.85907 33.7095C9.88351 33.7386 9.69234 33.6158 9.62207 33.5855C9.77256 33.6713 9.74275 33.6602 9.7546 33.6776C9.76044 33.6861 9.81968 33.7177 9.82541 33.7215C9.91031 33.7782 9.79418 33.7161 9.77028 33.7036C9.68241 33.6578 9.78134 33.7204 9.72257 33.6898C9.66422 33.6595 9.5833 33.6048 9.57997 33.6131C9.63244 33.6462 9.776 33.7217 9.79543 33.7406C9.869 33.8119 9.73578 33.7885 9.7144 33.7994C9.69308 33.8102 9.69982 33.8215 9.67463 33.8205C9.62903 33.8189 9.73755 33.8712 9.77925 33.9094C9.82096 33.9475 9.56588 33.7975 9.50947 33.768C9.45308 33.7386 9.50918 33.7724 9.47754 33.7574C9.44591 33.7423 9.41063 33.7168 9.39649 33.7152C9.38232 33.7137 9.47379 33.7819 9.53102 33.8159C9.65224 33.8878 9.78474 33.9538 9.7325 33.9409C9.72941 33.9401 9.66262 33.9001 9.65423 33.899C9.58986 33.8916 9.57409 33.9127 9.51568 33.9094C9.50753 33.9089 9.43284 33.8651 9.42722 33.8643C9.36843 33.8568 9.50046 33.9194 9.63806 34.0058C9.44905 33.9018 9.3297 33.845 9.32089 33.8589C9.31555 33.8672 9.39958 33.9098 9.45538 33.9464C9.47222 33.9573 9.41181 33.9332 9.45044 33.9549C9.57674 34.026 9.7231 34.096 9.65866 34.0799C9.65562 34.0791 9.58642 34.0403 9.58104 34.0402C9.54591 34.0396 9.6794 34.1112 9.68809 34.1344C9.69498 34.1524 9.60225 34.1308 9.58196 34.1377C9.36568 34.0279 9.40856 34.0662 9.55552 34.1462C9.54503 34.1519 9.54879 34.1655 9.52385 34.1638C9.51535 34.1632 9.45333 34.1302 9.44635 34.1272C9.3368 34.0802 9.48081 34.1561 9.48562 34.1607C9.53128 34.2084 9.41196 34.1719 9.51125 34.2436C9.51482 34.2462 9.66638 34.3198 9.55285 34.2721C9.54502 34.2688 9.47893 34.2293 9.46913 34.2361C9.45932 34.2429 9.36925 34.2221 9.43391 34.2682C9.44945 34.2794 9.56994 34.3447 9.46998 34.3063C9.45641 34.301 9.41296 34.2799 9.38797 34.2699C9.30824 34.2382 9.46203 34.3113 9.32837 34.2557C9.19473 34.2001 9.09133 34.1657 9.17598 34.2207C9.17842 34.2224 9.29997 34.2812 9.29612 34.2845C9.28979 34.29 9.25991 34.2879 9.25754 34.2954C9.25646 34.299 9.33402 34.3309 9.33516 34.3321C9.36811 34.3736 9.2927 34.3595 9.25233 34.3713C9.24475 34.3735 9.34431 34.4313 9.25749 34.4046C9.16237 34.3756 8.78772 34.205 8.86815 34.2666C8.90016 34.2917 9.37739 34.5035 9.12087 34.4162C9.17005 34.4727 9.02967 34.4507 9.10603 34.518C9.1094 34.521 9.24322 34.5788 9.24008 34.5814C9.23516 34.5851 9.17064 34.5631 9.1651 34.565C9.14027 34.5722 9.1894 34.6067 9.17548 34.6178C9.17032 34.622 9.10526 34.595 9.09907 34.6002C9.09291 34.6056 9.17806 34.6425 9.13287 34.6354C9.09847 34.6299 8.91849 34.5701 8.89435 34.5717C9.06937 34.6373 9.06347 34.6421 9.1057 34.6702C9.11391 34.6756 9.17576 34.6959 9.18279 34.6996C9.21278 34.7152 9.16079 34.7003 9.1937 34.7166C9.2016 34.7205 9.2615 34.7426 9.27135 34.747C9.35735 34.7856 9.21877 34.7464 9.1946 34.7397C9.10286 34.7142 9.17972 34.7458 9.14264 34.7383C9.10555 34.731 9.0645 34.7071 9.04088 34.7057C8.99198 34.7029 8.99562 34.7233 8.9882 34.7355C8.98559 34.7406 9.06721 34.7654 9.0687 34.7668C9.08527 34.7847 8.99581 34.7659 9.15394 34.828C8.73692 34.691 9.19175 34.8488 9.10351 34.8351C9.09638 34.834 8.89967 34.7678 8.87253 34.753C8.84539 34.7384 8.90928 34.7522 8.86678 34.7298C8.85679 34.7246 8.67647 34.6511 8.66582 34.6458C8.5825 34.6052 8.87552 34.7069 8.89176 34.7121C9.06715 34.7675 8.87347 34.6867 8.8609 34.6789C8.80309 34.6435 8.84842 34.6463 8.80795 34.619C8.78184 34.6012 8.59114 34.5311 8.59916 34.5273C8.62581 34.5141 8.894 34.606 8.67048 34.502C8.62282 34.4798 8.41322 34.4063 8.58227 34.4527C8.59295 34.4555 8.74649 34.501 8.65419 34.4594C8.64256 34.4541 8.58198 34.4314 8.57728 34.4284C8.54697 34.4091 8.59689 34.4229 8.57666 34.4066C8.55646 34.3902 8.52559 34.3679 8.54942 34.3671C8.56369 34.3665 8.67874 34.4032 8.7072 34.4115C8.78914 34.4353 8.662 34.3776 8.7596 34.4107C8.85765 34.4441 9.00098 34.5091 9.06742 34.5228C8.91098 34.4612 8.75062 34.3975 8.59343 34.3352C8.60897 34.3117 8.66902 34.3078 8.67234 34.2798C8.6726 34.2763 8.58752 34.2456 8.58565 34.2409C8.57816 34.2211 8.64284 34.2332 8.62508 34.2089C8.61106 34.1899 8.52802 34.1404 8.51088 34.1189C8.6914 34.1859 8.63838 34.1435 8.66015 34.1373C8.66766 34.1352 8.71478 34.1557 8.73155 34.1591C8.79362 34.1717 8.63501 34.1102 8.61186 34.0963C8.51319 34.0367 8.86693 34.1882 8.86507 34.1686C8.86503 34.1678 8.68182 34.0748 8.67082 34.0681C8.59875 34.0251 8.73687 34.0953 8.75332 34.0955C8.78339 34.096 8.83135 34.1086 8.78198 34.0719C8.76729 34.0611 8.65462 33.9999 8.74804 34.0333C8.76027 34.0377 8.82184 34.0661 8.82579 34.0669C8.89215 34.0808 8.69826 33.9926 8.63621 33.9547C8.57421 33.9168 8.71348 33.9659 8.75305 33.9813C8.85558 34.0208 8.7934 34.0057 8.80303 34.0106C8.91761 34.0679 8.9014 34.0503 8.91428 34.0483C9.10439 34.1348 9.09707 34.1208 8.92683 34.0458C8.90822 34.0377 8.92355 34.0509 8.91428 34.0483C8.73082 33.9567 8.71207 33.9347 8.89075 34.0047C8.97447 34.0376 9.06699 34.0868 9.03947 34.0553C9.02707 34.0411 8.89574 33.9824 8.8633 33.9593C8.78941 33.9063 8.91949 33.9452 8.90746 33.9215C8.90318 33.9128 8.82975 33.8838 8.8244 33.8766C8.81001 33.8573 8.86735 33.8745 8.84499 33.8513C8.84288 33.8492 8.76781 33.8151 8.76839 33.8115C8.77126 33.784 8.82894 33.7865 8.84231 33.7633C8.84886 33.7518 8.81908 33.7102 8.83342 33.7023C8.85802 33.6881 8.97737 33.7184 8.96085 33.6874C8.95042 33.6672 8.87627 33.6312 8.8293 33.5999C8.73834 33.539 8.9194 33.614 8.94717 33.6261C8.94808 33.6265 8.95995 33.6455 9.00005 33.6602C9.07938 33.6989 8.94744 33.6264 8.94717 33.6261C8.96517 33.6338 8.99213 33.6232 8.98034 33.6119C8.9739 33.6057 8.9046 33.5697 8.90254 33.5671C8.8553 33.5076 8.85249 33.4715 8.89908 33.4628C8.90072 33.4631 8.9767 33.5062 8.97958 33.5064C9.02188 33.5103 8.93386 33.4487 8.8856 33.4051C8.83733 33.3615 8.86149 33.3619 8.9961 33.4286C8.98491 33.41 9.05009 33.4295 9.0893 33.4419C9.12852 33.4544 8.98142 33.3691 8.97888 33.3667C8.89735 33.2925 8.98873 33.3288 9.01404 33.3152C9.02636 33.3089 9.01646 33.2767 9.00663 33.2566C8.99861 33.2405 9.03605 33.2554 9.01854 33.2348C9.01621 33.2321 8.95012 33.1951 8.94778 33.1933C8.87451 33.1391 9.03213 33.2363 9.06176 33.2511C9.16948 33.305 9.22714 33.3332 9.18466 33.2937C9.17494 33.2847 8.94889 33.1433 8.93811 33.1308C8.92452 33.1148 9.00576 33.1651 8.98942 33.1472C8.9881 33.1457 8.9371 33.1162 8.9416 33.1136C8.9618 33.1014 9.00272 33.0992 9.00823 33.078C9.00918 33.0752 8.92651 33.0314 8.92655 33.0266C8.92679 33.0042 8.94033 32.9877 8.98754 32.9935C8.99942 32.9951 9.05463 33.0303 9.07196 33.0392C9.17683 33.0927 9.03323 32.9998 9.03111 32.9969C8.98823 32.9412 9.07113 32.9642 9.08429 32.9432C9.08773 32.9378 9.08632 32.9293 9.07646 32.9155C9.07365 32.9118 8.92122 32.8093 9.06103 32.8811C9.07033 32.8859 9.21335 32.9595 9.12039 32.9006C9.11457 32.897 9.04061 32.8597 9.05127 32.8579C9.06194 32.8561 9.01909 32.8196 9.10294 32.856C9.12935 32.8674 9.27271 32.9395 9.1655 32.8694C9.15804 32.8645 8.91221 32.712 9.08874 32.8048C9.11779 32.8201 9.30178 32.9233 9.2124 32.8615C9.19504 32.8495 9.15213 32.8299 9.129 32.811C9.09331 32.782 9.14798 32.7999 9.07048 32.7458C9.05676 32.7362 8.93484 32.6608 9.03288 32.708C9.04824 32.7154 9.10912 32.7509 9.11753 32.7519C9.15784 32.7571 9.12398 32.7208 9.17398 32.7309C9.19158 32.7344 9.29029 32.7912 9.31981 32.8008C9.34931 32.8104 9.38059 32.8142 9.33763 32.7843C9.29465 32.7543 9.13195 32.6737 9.1233 32.6592C9.08564 32.5961 9.19699 32.6136 9.22841 32.5873C9.23307 32.5834 9.17344 32.5573 9.17615 32.5495C9.18603 32.5203 9.15553 32.4468 9.29025 32.4863C9.39829 32.5177 9.4611 32.5797 9.5086 32.5856C9.53135 32.5882 9.34707 32.4851 9.34197 32.4805C9.29004 32.4337 9.37917 32.4645 9.36092 32.4369C9.35711 32.4312 9.27915 32.3959 9.27675 32.3915C9.26784 32.3762 9.30657 32.384 9.30445 32.3726C9.30332 32.3673 9.24445 32.339 9.25065 32.3379C9.26485 32.3347 9.29303 32.3396 9.35193 32.3585C9.3573 32.3602 9.42778 32.401 9.43352 32.3962C9.44257 32.3883 9.503 32.4022 9.45248 32.3635C9.43726 32.3518 9.30294 32.2867 9.39925 32.3244C9.41937 32.3322 9.57987 32.412 9.44448 32.3362C9.42205 32.3235 9.24043 32.2192 9.36517 32.2704C9.39801 32.2839 9.53267 32.3422 9.51382 32.3282C9.51076 32.3261 9.4373 32.2938 9.43184 32.2871C9.41385 32.264 9.42744 32.2553 9.41034 32.2325C9.40563 32.2264 9.32825 32.196 9.32362 32.188C9.31076 32.166 9.33733 32.1589 9.36682 32.157C9.37782 32.1563 9.4388 32.1882 9.44575 32.191C9.55891 32.2361 9.41113 32.1644 9.40324 32.1586C9.35623 32.1235 9.43036 32.1468 9.4165 32.1279C9.41285 32.1228 9.34052 32.0927 9.33441 32.0893C9.27482 32.0555 9.40112 32.1175 9.41694 32.1201C9.46169 32.1275 9.46127 32.113 9.4568 32.0983C9.45505 32.0929 9.37005 32.0607 9.36942 32.0563C9.36408 32.0296 9.381 32.0123 9.43551 32.012C9.44591 32.012 9.50927 32.0417 9.5243 32.0471C9.6295 32.0852 9.49252 32.0179 9.47985 32.0106C9.4222 31.9767 9.48053 31.9974 9.47289 31.9857C9.43441 31.9286 9.48893 31.9023 9.52458 31.8795C9.56874 31.8511 9.63891 31.841 9.64062 31.8021C9.64069 31.8006 9.64065 31.799 9.6405 31.7973C9.64032 31.7946 9.55116 31.7681 9.54984 31.7654C9.53662 31.7337 9.57881 31.7199 9.55974 31.6885C9.55832 31.6861 9.47269 31.6649 9.46751 31.6603C9.45627 31.6507 9.46293 31.6445 9.49174 31.6457C9.50564 31.6462 9.57769 31.6696 9.59022 31.6696C9.61956 31.6695 9.62781 31.6626 9.61594 31.6518C9.61069 31.6471 9.52201 31.6302 9.52197 31.626C9.51995 31.5966 9.50959 31.5711 9.62934 31.5652C9.63755 31.5649 9.81825 31.5954 9.78445 31.5847C9.73442 31.5756 9.67549 31.5653 9.62197 31.5558C9.59979 31.5126 9.66748 31.4841 9.6808 31.4412C9.68133 31.4395 9.58431 31.4348 9.58483 31.4315C9.58776 31.4123 9.56199 31.3928 9.65933 31.3742C9.66885 31.3724 9.83949 31.3804 9.81395 31.3721C9.80929 31.3706 9.7869 31.3589 9.74991 31.3549C9.74433 31.3544 9.66459 31.3539 9.66236 31.3504C9.65085 31.3304 9.66943 31.309 9.71836 31.2866C9.72641 31.283 9.81127 31.2878 9.81774 31.2852C9.86299 31.2664 9.79851 31.2444 9.87562 31.2245C9.92753 31.2111 10.0743 31.2162 10.2188 31.2089C10.2391 31.2079 10.2424 31.1993 10.3264 31.1989C10.5378 31.1978 10.7692 31.2019 10.9945 31.2002C11.043 31.1999 10.9908 31.1883 11.108 31.1952C11.1159 31.1956 11.1548 31.204 11.1946 31.2062C11.2221 31.2076 11.3076 31.205 11.3428 31.208C11.378 31.211 11.3063 31.2143 11.3477 31.2193C11.3895 31.2244 11.4868 31.2222 11.4983 31.2326ZM9.26453 33.4977C9.33926 33.5316 9.08046 33.3816 9.13825 33.4247C9.14135 33.4269 9.26086 33.4961 9.26453 33.4977ZM8.87859 34.3915C9.00487 34.431 8.82759 34.352 8.73024 34.321C8.63296 34.2901 8.84026 34.3797 8.87859 34.3915ZM8.92902 34.5271C9.03047 34.553 8.63518 34.3993 8.71043 34.4426C8.71467 34.445 8.92312 34.5256 8.92902 34.5271ZM10.2599 31.2427C10.2638 31.2426 10.2677 31.2365 10.2638 31.2364C10.1688 31.233 10.1611 31.245 10.2599 31.2427ZM8.99044 34.6625C9.0456 34.6787 8.98703 34.6461 8.91846 34.6258C8.86328 34.6096 8.9218 34.6424 8.99044 34.6625ZM9.74135 33.311C9.74528 33.3131 9.75095 33.3112 9.72901 33.2988C9.65834 33.259 9.67522 33.2756 9.74135 33.311ZM8.93617 34.8317C8.95988 34.8115 9.29613 34.9111 9.2499 34.9241C9.24151 34.9266 9.14763 34.8779 9.11568 34.8737C9.05736 34.8664 9.26321 34.9444 9.14768 34.9181C9.12651 34.9134 8.93405 34.8327 8.93572 34.8315C8.93587 34.8316 8.93602 34.8317 8.93617 34.8317ZM9.57837 33.6726C9.58188 33.6744 9.58818 33.671 9.58486 33.6689C9.50419 33.6187 9.49139 33.6257 9.57837 33.6726ZM10.0293 33.1735C10.0369 33.1772 10.0507 33.1683 10.0441 33.1641C9.91104 33.0838 9.88291 33.1013 10.0293 33.1735ZM9.57608 34.135C9.65844 34.1838 9.66519 34.1954 9.55564 34.1462C9.56421 34.1433 9.56794 34.138 9.57608 34.135Z" fill="black"/>
<path d="M29.0917 6.33329C29.0954 6.42584 29.1442 6.44035 29.1733 6.41637C29.1828 6.40927 29.2257 6.37818 29.2334 6.37073C29.2476 6.35532 29.2238 6.36711 29.2376 6.34545C29.2423 6.33794 29.3087 6.28641 29.3118 6.27942C29.3271 6.2402 29.2951 6.23714 29.2881 6.20502C29.248 6.04095 29.1079 5.89434 28.9618 5.75216C28.9135 5.70507 28.8836 5.59592 28.8049 5.58706C28.7958 5.58616 28.7617 5.65169 28.7572 5.65607C28.6881 5.72293 28.7722 5.5999 28.7684 5.57453C28.761 5.52765 28.7448 5.4938 28.7214 5.46958C28.7043 5.44754 28.6763 5.43852 28.6468 5.44102C28.6228 5.44311 28.578 5.58397 28.5954 5.50125C28.5964 5.4956 28.6345 5.42703 28.6328 5.41699C28.6285 5.39422 28.5997 5.39676 28.5922 5.38689C28.5779 5.36745 28.5743 5.36685 28.5564 5.35876C28.532 5.34711 28.5137 5.29896 28.4787 5.30589C28.4713 5.30762 28.4537 5.38634 28.4398 5.3961C28.4258 5.40575 28.4032 5.39134 28.4 5.3706C28.3969 5.34984 28.419 5.29069 28.4217 5.27639C28.4437 5.15545 28.3629 5.30793 28.3587 5.31114C28.2676 5.35942 28.227 5.25096 28.1526 5.23591C28.0967 5.22488 28.0306 5.2454 27.9774 5.23263C27.9138 5.21707 27.8635 5.16642 27.7981 5.16625C27.7912 5.16614 27.7882 5.26076 27.7799 5.26084C27.6916 5.2617 27.6062 5.24368 27.5211 5.17395C27.5126 5.16688 27.5298 5.08504 27.5216 5.07304C27.4714 5.00123 27.3871 4.83316 27.3382 5.19212C27.3014 5.17643 27.2569 5.16033 27.2245 5.08673C27.2037 5.03937 27.2275 4.94973 27.1994 4.98753C27.1931 4.99596 27.1991 5.07514 27.1898 5.08181C27.1512 5.10983 27.1087 5.08345 27.0708 5.12392C27.063 5.13234 27.0645 5.20316 27.0622 5.21589C27.0434 5.31896 27.0141 5.14815 27.0072 5.13574C26.9562 5.04314 26.919 5.07974 26.871 5.07802C26.8599 5.07758 26.8741 5.17252 26.8635 5.17552C26.8094 5.18983 26.7519 5.18286 26.6973 5.14222C26.685 5.13295 26.6937 5.05166 26.6877 5.04309C26.6609 5.00632 26.6601 5.15943 26.6347 5.12721C26.6293 5.12062 26.6298 5.05121 26.6286 5.04363C26.6095 4.92466 26.6028 5.09444 26.5992 5.09831C26.5539 5.15118 26.5155 4.97582 26.4698 5.00307C26.4645 5.00651 26.4811 5.09355 26.4658 5.09786C26.3636 5.1271 26.2529 5.10986 26.1447 5.04753C26.1278 5.03796 26.1344 4.97137 26.1328 4.96334C26.1066 4.83798 26.1087 5.00845 26.104 5.01523C26.0664 5.06438 26.0159 4.9254 26.0048 5.1297C25.8238 5.07454 25.6633 5.2056 25.4686 5.04621C25.4661 5.04439 25.4601 4.96072 25.4552 4.95745C25.4215 4.93456 25.4153 4.96617 25.4135 5.02754C25.4137 5.07387 25.4165 5.1373 25.4189 5.20642C25.4222 5.24629 25.3712 5.06028 25.3648 5.04727C25.3474 4.99788 25.3282 4.87452 25.3237 4.8652C25.282 4.79361 25.3805 5.19396 25.3692 5.19738C25.3685 5.19688 25.349 5.12353 25.3454 5.11672C25.3337 5.09549 25.3384 5.12565 25.3255 5.10247C25.2972 5.04833 25.2131 4.8657 25.2371 4.98279C25.2414 4.99749 25.3409 5.20894 25.3298 5.20229C25.324 5.19998 25.3172 5.20911 25.3063 5.19871C25.2946 5.18865 25.2483 5.12924 25.2463 5.12662C25.1677 5.06286 25.145 5.02761 25.0275 4.93633C24.9039 4.85299 25.1662 5.08611 25.1933 5.11435C25.2209 5.1418 25.1484 5.10118 25.1209 5.09079C25.0944 5.07904 25.0586 5.04644 25.0421 5.04201C24.9304 5.0211 25.1828 5.14529 25.228 5.17795C25.3428 5.24223 25.1025 5.1417 25.0688 5.16365C25.0605 5.16757 25.1187 5.17907 25.1229 5.18489C25.1395 5.20483 25.0569 5.20533 25.1286 5.23553C25.1402 5.24282 25.2955 5.25968 25.181 5.26684C25.1645 5.26856 25.0996 5.26377 25.0852 5.273C25.0635 5.28658 25.0516 5.31585 25.0755 5.32832C25.093 5.337 25.1966 5.30892 25.1658 5.3259C25.1522 5.33404 25.0886 5.33346 25.0685 5.34931C25.0482 5.36555 25.0588 5.39778 25.0647 5.40892C25.0705 5.4203 25.1457 5.38951 25.1513 5.38897C25.1827 5.38516 25.2254 5.38882 25.2258 5.38996C25.2424 5.42102 25.234 5.46235 25.2339 5.50567C25.2351 5.55803 25.2524 5.6163 25.3082 5.62841C25.3162 5.63021 25.364 5.55923 25.3657 5.55881C25.4049 5.5433 25.2546 5.7147 25.2282 5.78918C25.3256 5.64585 25.3168 5.67825 25.3432 5.6727C25.3559 5.66983 25.3876 5.61048 25.3921 5.60517C25.4558 5.52497 25.3936 5.64102 25.3827 5.66584C25.3408 5.75609 25.4075 5.6594 25.3808 5.72022C25.3554 5.78122 25.2937 5.85857 25.3142 5.86822C25.3482 5.81605 25.4123 5.6666 25.4365 5.64965C25.5216 5.58358 25.5589 5.73448 25.6028 5.76182C25.6425 5.78822 25.6601 5.78099 25.6807 5.80986C25.7184 5.8616 25.7313 5.74062 25.7723 5.69397C25.8133 5.64706 25.7333 5.93218 25.7234 5.99519C25.7139 6.05822 25.7334 5.99552 25.7314 6.0309C25.7297 6.0663 25.7076 6.1057 25.7187 6.12159C25.7304 6.13766 25.7912 6.03473 25.8086 5.97033C25.8458 5.83406 25.8593 5.68606 25.8816 5.74329C25.8829 5.74669 25.8622 5.82193 25.8681 5.83105C25.9161 5.90111 25.9789 5.91495 26.0331 5.97597C26.0405 5.98448 26.0211 6.06916 26.0253 6.07509C26.0707 6.1371 26.0714 5.9899 26.1194 5.83261C26.086 6.04582 26.0858 6.17896 26.1262 6.18497C26.1505 6.18863 26.1571 6.09453 26.1799 6.03025C26.1865 6.01086 26.1964 6.077 26.2042 6.03326C26.2283 5.89721 26.2307 5.74317 26.2592 5.7874C26.2606 5.78964 26.2621 5.79241 26.2637 5.79571C26.2651 5.79894 26.2516 5.87727 26.2571 5.88265C26.293 5.91779 26.3124 5.76747 26.3545 5.75273C26.3877 5.74118 26.4374 5.83749 26.474 5.85454C26.4591 6.09667 26.4996 6.04323 26.5211 5.87675C26.5451 5.88468 26.5708 5.87612 26.5936 5.89982C26.6014 5.9079 26.5945 5.97797 26.5953 5.98558C26.6087 6.10497 26.6227 5.94247 26.6278 5.93617C26.6845 5.875 26.7322 5.9979 26.7826 5.87578C26.7845 5.87138 26.7817 5.70292 26.7998 5.82535C26.8011 5.83378 26.7864 5.91107 26.8116 5.91602C26.8364 5.92103 26.8906 6.00852 26.9203 5.92785C26.9279 5.90842 26.9363 5.77051 26.9627 5.87535C26.9663 5.88959 26.9683 5.93794 26.9742 5.96439C26.9934 6.04862 26.9823 5.8786 27.0099 6.02118C27.0373 6.16376 27.0802 6.26813 27.1061 6.16403C27.107 6.16098 27.0979 6.02604 27.1095 6.02658C27.1281 6.02756 27.1587 6.05137 27.1777 6.04737C27.1868 6.0454 27.1673 5.96366 27.1686 5.96189C27.2205 5.90557 27.2755 5.97104 27.3481 5.98778C27.362 5.99088 27.3677 5.87199 27.4125 5.9537C27.4627 6.0427 27.5407 6.44813 27.5809 6.33529C27.5994 6.28929 27.4772 5.78124 27.5992 6.02611C27.6591 5.93639 27.784 6.03741 27.8283 5.91464C27.8304 5.90915 27.7839 5.77059 27.7924 5.76899C27.8055 5.76678 27.8398 5.82608 27.8502 5.82631C27.8947 5.82874 27.903 5.76027 27.9402 5.75181C27.9545 5.74831 27.9817 5.81347 27.9992 5.80894C28.017 5.80417 27.984 5.71684 28.0255 5.74547C28.0568 5.76739 28.1641 5.92479 28.1977 5.93123C28.1071 5.76769 28.1233 5.76312 28.1235 5.70591C28.1234 5.69486 28.0856 5.64164 28.0838 5.63353C28.0758 5.5994 28.1115 5.64092 28.1013 5.60447C28.0989 5.59571 28.0662 5.54089 28.0623 5.53067C28.0276 5.44189 28.1242 5.55102 28.1418 5.56946C28.2075 5.64042 28.1706 5.56549 28.2024 5.58951C28.2346 5.61327 28.2418 5.66419 28.2683 5.67409C28.3232 5.6946 28.3557 5.66034 28.3868 5.64211C28.3989 5.6346 28.342 5.5704 28.3426 5.5677C28.3532 5.53389 28.4308 5.58953 28.3431 5.44333C28.6203 5.78418 28.3316 5.39903 28.416 5.4453C28.4227 5.44908 28.5525 5.61115 28.5604 5.64339C28.5682 5.67573 28.5137 5.63555 28.5272 5.68464C28.5306 5.69604 28.6244 5.86834 28.6281 5.88019C28.6585 5.97181 28.4753 5.72136 28.4645 5.7082C28.3457 5.56714 28.442 5.75534 28.4427 5.77235C28.4491 5.84844 28.3987 5.82946 28.3977 5.88638C28.3968 5.92332 28.5037 6.09612 28.4855 6.1002C28.4244 6.114 28.2646 5.87933 28.3426 6.11819C28.3588 6.16925 28.4787 6.35664 28.3554 6.22573C28.3472 6.21771 28.2432 6.09275 28.2759 6.18988C28.2799 6.20216 28.3107 6.2591 28.3106 6.26533C28.309 6.30606 28.2733 6.26663 28.2647 6.29893C28.2561 6.33118 28.248 6.37649 28.2151 6.36812C28.1954 6.3632 28.1253 6.26306 28.1064 6.23936C28.0521 6.17097 28.0912 6.30646 28.0371 6.21791C27.9837 6.12849 27.939 5.97626 27.8851 5.9272C27.9526 6.08118 28.0203 6.23989 28.087 6.39529C28.0149 6.4208 27.9268 6.39772 27.8597 6.4301C27.8513 6.43431 27.8913 6.51597 27.8828 6.52274C27.8467 6.55104 27.7909 6.50199 27.7566 6.53991C27.7305 6.56948 27.7213 6.67227 27.6916 6.70576C27.6176 6.52687 27.5844 6.60355 27.5422 6.59576C27.5277 6.59309 27.5165 6.54293 27.5034 6.52884C27.4546 6.47671 27.5096 6.63837 27.5058 6.66673C27.4877 6.78792 27.4019 6.41285 27.3584 6.43145C27.3564 6.43225 27.3648 6.6396 27.3623 6.65303C27.3496 6.74014 27.3446 6.58373 27.3247 6.57198C27.2881 6.55044 27.2594 6.50564 27.2324 6.57063C27.2248 6.58983 27.2164 6.72032 27.1817 6.62523C27.1772 6.61278 27.1696 6.54539 27.1669 6.54175C27.1196 6.48127 27.1451 6.69266 27.1294 6.76718C27.1134 6.84171 27.0609 6.69926 27.0499 6.65771C27.0205 6.5504 27.0597 6.60968 27.0597 6.59883C27.0584 6.47024 27.0355 6.4948 27.0156 6.48574C26.9936 6.27804 26.9702 6.29267 26.9952 6.47715C26.998 6.4973 27.011 6.4766 27.0156 6.48574C27.0182 6.69133 26.9869 6.72038 26.9408 6.5316C26.9196 6.44304 26.9266 6.33786 26.8853 6.37867C26.8662 6.39703 26.8816 6.54023 26.8649 6.58032C26.826 6.6718 26.7657 6.53934 26.7237 6.56086C26.7081 6.56869 26.7242 6.64727 26.7133 6.65533C26.6842 6.67691 26.6591 6.61778 26.6298 6.64769C26.6271 6.6505 26.6326 6.73299 26.6234 6.73392C26.5536 6.74248 26.4952 6.68752 26.4256 6.6821C26.3917 6.67958 26.328 6.72067 26.2943 6.70867C26.2541 6.69497 26.2132 6.6326 26.1761 6.60113C26.158 6.58609 26.1406 6.57807 26.1238 6.58568C26.0896 6.60064 26.0872 6.68328 26.0666 6.73746C26.0266 6.84247 26.0007 6.64268 25.9988 6.61195C25.9988 6.61095 26.0292 6.59523 26.0196 6.55136C26.0222 6.46281 25.9992 6.61162 25.9988 6.61195C25.9972 6.59214 25.9431 6.56596 25.9297 6.57987C25.9223 6.58751 25.9146 6.66531 25.9109 6.66782C25.8236 6.72584 25.738 6.73177 25.6615 6.67912C25.6603 6.67727 25.6798 6.59208 25.6769 6.58883C25.638 6.54128 25.5852 6.63901 25.5281 6.69064C25.4716 6.74231 25.4404 6.71204 25.4556 6.56064C25.4192 6.57026 25.392 6.49285 25.3787 6.44617C25.3659 6.39971 25.308 6.55947 25.3043 6.56179C25.1921 6.63684 25.1774 6.52723 25.1018 6.47599C25.0656 6.45154 24.9739 6.43174 24.9179 6.41893C24.8738 6.40958 24.8737 6.36192 24.8257 6.35949C24.8192 6.35904 24.7802 6.42418 24.7771 6.42556C24.6842 6.47041 24.8124 6.33447 24.8243 6.30233C24.8684 6.18504 24.8965 6.12653 24.8186 6.13395C24.8019 6.13678 24.5913 6.30556 24.5574 6.29392C24.5162 6.2806 24.5947 6.22436 24.5512 6.21202C24.5476 6.21083 24.5048 6.25163 24.4897 6.23106C24.4619 6.19331 24.4374 6.15039 24.4148 6.10637C24.3762 6.03372 24.3466 5.9627 24.3106 5.89931C24.3026 5.88465 24.2287 5.94607 24.2154 5.92441C24.153 5.82261 24.113 5.69609 24.1313 5.57418C24.1361 5.54427 24.2039 5.54811 24.2217 5.53827C24.3298 5.48234 24.1542 5.46321 24.1496 5.45262C24.0431 5.24182 24.1985 5.06896 24.2223 4.80018C24.2199 4.79 24.1091 4.59048 24.277 4.61792C24.2892 4.6178 24.4494 4.66219 24.3846 4.56403C24.3811 4.55734 24.2931 4.53767 24.3352 4.49395C24.3757 4.45217 24.4036 4.33653 24.5238 4.35071C24.5642 4.35279 24.7006 4.44532 24.6776 4.30507C24.6691 4.29863 24.6141 3.98965 24.7466 4.14575C24.7682 4.17176 24.8623 4.35895 24.8743 4.23261C24.8774 4.20802 24.8346 4.17596 24.8553 4.13401C24.8905 4.06823 24.9753 4.09649 25.0082 3.9888C25.0121 3.97009 25.0268 3.81714 25.0885 3.91456C25.0978 3.92986 25.1037 4.00077 25.1233 4.00438C25.1836 4.01557 25.2325 3.99679 25.2854 3.99214C25.3011 3.9913 25.3173 3.99444 25.3347 4.0101C25.3518 4.02529 25.3578 4.13926 25.3769 4.1677C25.396 4.19612 25.4305 4.22161 25.4406 4.16806C25.4509 4.11447 25.4122 3.93626 25.4352 3.919C25.5357 3.84403 25.6538 3.93871 25.7623 3.94413C25.7784 3.94495 25.7591 3.88153 25.7826 3.87811C25.8683 3.86514 26.0153 3.79206 26.101 3.92445C26.1689 4.03045 26.0994 4.11968 26.1481 4.16135C26.1712 4.18125 26.1813 3.96914 26.1863 3.96216C26.2348 3.89137 26.2767 3.98248 26.3227 3.95119C26.3322 3.94471 26.3178 3.85986 26.326 3.85528C26.354 3.83889 26.3862 3.87545 26.4131 3.86716C26.4252 3.86324 26.4198 3.79812 26.4315 3.80261C26.4594 3.81263 26.4849 3.839 26.5138 3.89908C26.5164 3.90456 26.5036 3.98639 26.5236 3.9886C26.556 3.99196 26.598 4.05086 26.6332 3.98737C26.6436 3.96828 26.6397 3.81905 26.6665 3.92141C26.6722 3.94279 26.6707 4.12212 26.6941 3.96658C26.6976 3.94072 26.7404 3.73073 26.7664 3.86492C26.7733 3.90023 26.7913 4.04658 26.8041 4.02332C26.8059 4.01961 26.7973 3.93957 26.8082 3.93157C26.8466 3.90478 26.8884 3.91287 26.9286 3.88756C26.9394 3.88064 26.9228 3.79775 26.939 3.7901C26.9833 3.76892 27.0403 3.7902 27.0836 3.81661C27.0996 3.82651 27.0878 3.89512 27.0889 3.90261C27.1062 4.02444 27.119 3.86041 27.1257 3.85093C27.1659 3.79416 27.1944 3.87187 27.2307 3.85234C27.2408 3.84717 27.2357 3.76873 27.2379 3.7618C27.2604 3.69414 27.2412 3.8343 27.2539 3.85014C27.2896 3.895 27.3303 3.89007 27.3675 3.88154C27.3812 3.8783 27.3696 3.78698 27.382 3.78513C27.4563 3.77251 27.5325 3.78531 27.6014 3.84014C27.6142 3.85062 27.6009 3.91979 27.6026 3.93591C27.6139 4.04863 27.6527 3.89872 27.6607 3.88478C27.6959 3.821 27.7028 3.88358 27.73 3.8743C27.8646 3.82781 28.0245 3.88735 28.1461 3.93161C28.306 3.98914 28.4205 4.0788 28.5851 4.10203C28.5955 4.10363 28.608 4.01086 28.6175 4.01113C28.7414 4.01964 28.8486 4.08958 28.9815 4.1101C28.9926 4.11206 29.0082 4.02376 29.0274 4.0243C29.0675 4.02497 29.1094 4.04672 29.1352 4.08823C29.1474 4.10812 29.0947 4.16792 29.1071 4.18637C29.1356 4.22939 29.1743 4.25384 29.2221 4.26145C29.2425 4.26456 29.2553 4.17035 29.2792 4.18101C29.3283 4.2023 29.3814 4.22691 29.4303 4.25549C29.5073 4.30032 29.5758 4.36164 29.6098 4.4791C29.6132 4.49077 29.5221 4.64989 29.5566 4.63021C29.5851 4.58805 29.6171 4.53754 29.6468 4.49201C29.8235 4.5699 29.947 4.73152 30.1033 4.86852C30.11 4.87439 30.1585 4.78885 30.1719 4.79999C30.2493 4.86395 30.3473 4.91247 30.3633 5.06173C30.365 5.07658 30.2422 5.19519 30.283 5.19912C30.29 5.19935 30.3411 5.21864 30.3772 5.20289C30.3825 5.20039 30.4335 5.13826 30.4469 5.14904C30.5243 5.21306 30.5889 5.31589 30.6197 5.44982C30.6247 5.47196 30.5415 5.50011 30.5442 5.5158C30.5591 5.62065 30.6803 5.70705 30.647 5.87156C30.6207 5.97834 30.468 5.97666 30.3327 6.03865C30.3137 6.04665 30.3149 6.09011 30.2306 6.0964C30.0196 6.10918 29.7885 6.12134 29.5639 6.13825C29.5151 6.14199 29.5668 6.10681 29.4498 6.12935C29.4417 6.13096 29.4047 6.16208 29.3664 6.17433C29.3399 6.18341 29.2536 6.183 29.2205 6.20112C29.1878 6.22087 29.2606 6.22164 29.2242 6.24767C29.1878 6.27488 29.0913 6.29274 29.0917 6.33329ZM25.3263 6.23683C25.3346 6.15231 25.2185 6.42802 25.2718 6.37213C25.2745 6.36909 25.326 6.24101 25.3263 6.23683ZM27.8449 6.18659C27.7718 6.07352 27.8229 6.26147 27.8778 6.34962C27.934 6.43713 27.8678 6.22058 27.8449 6.18659ZM28.0653 5.98281C27.9914 5.90346 28.1734 6.28663 28.1681 6.19345C28.1679 6.18814 28.0697 5.98737 28.0653 5.98281ZM30.2534 5.90642C30.25 5.9083 30.255 5.93217 30.2588 5.93141C30.3533 5.91273 30.3408 5.85838 30.2534 5.90642ZM28.2513 5.75839C28.2132 5.71453 28.2249 5.78497 28.2719 5.83987C28.3101 5.88384 28.2992 5.8127 28.2513 5.75839ZM24.9283 5.1239C24.9326 5.12475 24.9399 5.11453 24.9159 5.10708C24.8382 5.08328 24.8544 5.10949 24.9283 5.1239ZM28.6155 5.49051C28.5522 5.52169 28.3082 5.26748 28.3835 5.25806C28.3974 5.256 28.4332 5.36146 28.465 5.37642C28.5241 5.40268 28.3989 5.22087 28.4968 5.29264C28.5152 5.30543 28.6199 5.4891 28.6157 5.49096C28.6156 5.49081 28.6156 5.49066 28.6155 5.49051ZM25.4465 5.89803C25.4475 5.89422 25.4347 5.88498 25.4329 5.88846C25.3885 5.97288 25.4163 5.99242 25.4465 5.89803ZM25.4992 4.96019C25.5011 4.96845 25.537 4.97219 25.5372 4.96436C25.5379 4.80795 25.4644 4.80001 25.4992 4.96019ZM26.4742 5.86103C26.4957 5.76659 26.5136 5.75622 26.5211 5.87662C26.5054 5.86955 26.4899 5.86782 26.4742 5.86103Z" fill="black"/>
</svg>
