<svg width="52" height="37" viewBox="0 0 52 37" fill="none" xmlns="http://www.w3.org/2000/svg">
<path d="M15.4396 15.8993C16.0428 16.8001 16.2408 16.5021 16.2619 16.1742C16.2676 16.0648 16.4835 15.6687 16.4848 15.5699C16.4791 15.374 16.3008 15.5375 16.2681 15.3004C16.2556 15.2188 16.5659 14.5738 16.5428 14.502C16.5411 14.497 16.5393 14.492 16.5375 14.4871C16.9575 14.3326 17.2498 14.5441 17.4769 14.3934C17.8958 14.0768 17.5428 13.8421 16.9799 13.9233C16.3951 13.9925 15.6523 14.2754 14.5732 14.7266C14.6009 14.6323 14.6236 14.5153 14.5652 14.4707C14.5263 14.4341 14.3297 14.3732 14.1369 14.4432C13.946 14.5079 13.7748 14.6897 13.8443 14.9497C13.8613 15.0101 14.4706 15.1594 14.5173 15.1834C15.239 15.5326 14.0351 15.1432 13.8438 15.2095C13.0861 15.4795 12.9212 16.1635 13.1171 16.7588C13.2019 17.0144 14.4613 16.8619 13.7473 17.0527C13.699 17.0671 13.0396 16.9581 12.9642 17.0227C12.7937 17.1719 12.8979 17.4845 12.8415 17.6113C12.7288 17.8541 12.7348 17.8962 12.7242 18.1351C12.7045 18.4577 12.3779 18.8624 12.5395 19.2241C12.576 19.3004 13.2545 19.1786 13.3743 19.2962C13.4936 19.4133 13.4489 19.7372 13.2941 19.8557C13.1389 19.9739 12.6013 19.954 12.4795 19.9799C11.4518 20.2006 12.9095 20.5118 12.9483 20.5557C13.6114 21.4173 12.8707 22.2775 12.967 23.1708C13.0289 23.7286 13.2806 24.3035 13.3892 24.8605C13.3993 24.8685 13.402 24.8632 13.392 24.8474C13.3602 24.7962 13.1834 24.5966 12.9467 24.4516C12.7115 24.2998 12.4826 24.2637 12.474 24.2273C12.4691 24.2187 12.8094 23.4923 12.7886 23.4737C12.6129 23.3503 13.2162 23.5386 13.9749 23.8905C14.1375 23.9774 14.2983 24.0767 14.4589 24.1907C14.5428 24.2503 14.391 24.9471 14.4753 25.0488C14.9728 25.6627 16.015 27.0397 16.1802 23.9562C16.5319 24.0588 16.9555 24.1454 17.3575 24.7171C17.618 25.0844 17.5129 25.8724 17.7365 25.5113C17.7859 25.4306 17.6142 24.7767 17.6922 24.7063C18.0197 24.4101 18.4534 24.5512 18.7273 24.134C18.7829 24.0475 18.6293 23.4652 18.6245 23.3551C18.5802 22.4657 19.1815 23.8094 19.2799 23.8919C19.9502 24.5258 20.2228 24.1162 20.6605 23.9819C20.7623 23.9506 20.3735 23.2312 20.4581 23.1749C20.8993 22.8926 21.406 22.7572 22.034 22.861C22.1752 22.8854 22.3677 23.5554 22.4516 23.5982C22.8257 23.7747 22.3077 22.5803 22.6464 22.7259C22.718 22.7544 22.9563 23.2944 22.9937 23.348C23.5881 24.1869 23.0533 22.8424 23.0696 22.7982C23.2906 22.1935 24.2881 23.36 24.6194 22.9252C24.6568 22.8725 24.1711 22.2916 24.2973 22.1839C25.1318 21.4659 26.2553 20.9863 27.6152 20.8573C27.8245 20.8379 27.9987 21.3874 28.0448 21.4402C28.7637 22.2667 28.1298 20.9614 28.157 20.8819C28.3941 20.2856 29.3807 21.1226 28.8988 19.4311C29.1875 19.3627 29.4759 19.2748 29.763 19.1801C30.9848 18.8501 31.3148 17.8376 33.1505 17.4397C33.1765 17.4316 33.7635 17.8366 33.8139 17.8167C34.4293 17.5624 33.4256 17.0745 32.3457 16.2163C32.0671 16.0154 33.6416 16.506 33.7645 16.523C34.2016 16.6266 35.1341 17.1373 35.224 17.1454C35.9494 17.1611 32.7082 15.8317 32.7979 15.5985C32.8066 15.5922 33.3958 15.8569 33.4642 15.8575C33.6797 15.8576 33.4649 15.6993 33.6991 15.7027C34.2369 15.72 35.8884 16.1555 35.0281 15.5734C34.9141 15.5029 32.9961 14.9894 33.148 14.7874C33.2131 14.7053 33.2733 14.2851 33.4177 14.1928C33.5647 14.1003 34.1819 14.2884 34.2105 14.2861C35.104 14.0713 35.4289 14.2576 36.7009 14.206C37.9697 14.1135 34.9995 13.8539 34.6753 13.756C34.3531 13.6553 35.0645 13.4734 35.3074 13.4037C35.5514 13.344 35.9571 13.4327 36.0955 13.3721C36.1163 13.3626 36.1353 13.3534 36.1526 13.3445C36.8719 12.8898 34.6018 13.2687 34.1402 13.2564C33.5794 13.2949 33.8646 13.3315 34.2809 13.1821C34.7015 13.0507 35.2275 12.7259 35.2677 12.5869C35.2916 12.5166 34.8899 12.8214 34.8386 12.8299C34.7442 12.8526 34.8247 12.7512 34.8342 12.6631C34.8486 12.5795 34.7878 12.5152 34.5606 12.7477C34.5228 12.785 34.3149 13.0784 34.1959 13.2688C34.0725 13.4571 34.0321 13.5355 34.1653 13.0646C34.1995 12.9276 34.4407 12.429 34.3962 12.2821C34.3385 12.0623 34.0627 11.8695 33.8564 12.0245C33.7064 12.1386 33.7076 13.0564 33.6066 12.7569C33.5579 12.6235 33.7573 12.1142 33.6463 11.9062C33.5322 11.6956 33.1393 11.6916 32.9923 11.7085C32.8422 11.7236 32.912 12.4138 32.8984 12.4598C32.82 12.723 32.5798 13.0563 32.5566 13.0567C31.4594 13.1639 30.0695 12.2167 28.8802 12.8631C28.7877 12.9129 29.0074 13.6079 28.9948 13.6228C28.7285 13.9927 28.5764 12.0502 28.1928 11.4742C28.5518 12.903 28.3531 12.6739 28.1506 12.8875C28.0537 12.9917 28.2483 13.5316 28.2512 13.5909C28.2854 14.473 27.9081 13.4138 27.8216 13.1994C27.5068 12.4098 27.6238 13.406 27.4098 12.8797C27.1943 12.3583 27.1725 11.5094 26.9388 11.5799C27.005 12.1072 27.5167 13.3982 27.3999 13.6587C26.9714 14.6376 25.4836 13.9394 24.9166 13.9965C24.3602 14.0485 24.2231 14.1943 23.8572 14.1099C23.1994 13.9579 23.717 14.8658 23.518 15.4218C23.3243 15.9769 22.708 13.5328 22.4908 13.0349C22.2738 12.5373 22.3965 13.0825 22.24 12.8212C22.0848 12.5596 22.1051 12.166 21.9234 12.1083C21.7392 12.0516 21.6581 13.0917 21.7822 13.6464C22.0553 14.8179 22.625 15.9526 22.1166 15.6573C22.0873 15.6395 21.9448 14.9897 21.8432 14.9534C21.2838 14.7794 20.7915 14.8138 20.2803 14.7908C20.0329 14.7796 19.7873 14.7537 19.5298 14.6886C19.4206 14.6604 19.2548 13.9387 19.1869 13.9151C18.4689 13.6759 19.0789 14.7756 19.3518 16.1507C18.7111 14.4341 18.1234 13.4489 17.6432 13.6708C17.3629 13.8055 17.7817 14.4929 17.9157 15.065C17.9618 15.2338 17.5161 14.8619 17.6895 15.1992C18.2807 16.2852 19.1373 17.3636 18.6253 17.057C18.5994 17.0439 18.2265 16.4809 18.1645 16.4767C18.1378 16.475 18.1161 16.4782 18.0988 16.4856C17.8471 16.6019 18.5832 17.4703 18.581 17.6929C18.59 17.8608 17.7431 17.7152 17.4946 17.965C15.6205 17.0975 15.8785 17.7117 17.1934 18.2753C17.0788 18.4426 17.0854 18.6656 16.8937 18.8322C16.8799 18.844 16.8651 18.8557 16.849 18.8672C16.7676 18.9268 16.1943 18.7536 16.1293 18.7492C15.1034 18.7091 16.4405 19.0907 16.4866 19.1426C16.9168 19.749 15.8356 20.17 16.8591 20.717C16.8964 20.7391 18.3275 20.7427 17.2853 20.8876C17.2137 20.902 16.5569 20.7433 16.5143 20.9919C16.4678 21.2154 15.7566 21.8309 16.4812 22.0049C16.6607 22.0696 17.7986 21.8292 16.969 22.1953C16.8589 22.252 16.4713 22.3893 16.2688 22.498C15.9654 22.6661 16.1139 22.6491 16.2299 22.6234C16.3631 22.6019 16.4464 22.5578 15.9194 22.9393C15.4226 23.3034 15.0523 23.7357 15.0213 24.1133C14.9748 24.481 15.332 24.7906 15.8402 24.5447C15.8894 24.5397 16.427 23.521 16.4893 23.5503C16.6313 23.6218 16.9211 23.8626 17.1429 23.8122C17.244 23.7891 17.0389 23.1028 17.0531 23.0868C17.2263 22.8699 17.4028 22.8281 17.6516 22.828L17.4649 22.9581C17.7982 22.8286 18.2179 22.7895 18.6156 22.606C18.7506 22.5441 18.318 21.5965 19.0502 21.9393C19.8609 22.3031 22.203 24.925 22.0865 23.8188C22.0516 23.3606 18.9343 20.191 20.988 21.3219C21.1513 20.2443 22.6334 20.2433 22.5095 18.9766C22.5041 18.9204 21.5499 18.1198 21.6144 18.0523C21.7134 17.9516 22.244 18.1967 22.3319 18.1298C22.7155 17.8517 22.4946 17.2547 22.7608 16.9338C22.8617 16.8087 23.3605 17.1445 23.4816 16.9902C23.6042 16.8299 22.9614 16.3589 23.4153 16.3014C23.7598 16.2594 25.3026 16.769 25.5966 16.575C24.153 15.9102 24.2612 15.7548 23.9979 15.2973C23.9459 15.2105 23.4106 15.0573 23.3595 15.0059C23.1394 14.7925 23.6024 14.8698 23.3535 14.6547C23.2936 14.6034 22.7885 14.4051 22.7104 14.3533C22.6391 14.3065 22.5886 14.2669 22.5555 14.2335L22.5794 14.1745C22.3209 13.8429 23.3472 13.9945 23.5401 14.0307C24.3618 14.1735 23.7628 13.7897 24.1204 13.7794C24.476 13.7746 24.7307 14.1593 24.983 14.0816C25.5023 13.9264 25.6416 13.4802 25.85 13.1683C25.9303 13.0419 25.2522 12.7681 25.2491 12.7416C25.2511 12.3705 26.0723 12.5043 24.941 11.5918C28.2222 13.381 24.735 11.2352 25.6199 11.2422C25.6911 11.2436 27.1907 12.1733 27.3369 12.4236C27.4841 12.6721 26.9114 12.5439 27.1583 12.9108C27.2137 13.0005 28.499 14.066 28.5718 14.1397C29.1222 14.7416 26.8378 13.4279 26.7049 13.3678C25.2752 12.715 26.6667 13.8711 26.7431 13.9882C27.0723 14.5573 26.6155 14.6349 26.8555 15.0615C27.0107 15.3384 28.5679 16.0859 28.4683 16.1752C28.3145 16.316 27.7432 16.2212 27.3444 16.2109L27.3926 16.0921C26.9083 16.1573 26.6761 16.2743 27.5742 17.0219C27.9302 17.3194 29.7141 17.9588 28.1507 17.8164C28.0498 17.8134 26.6719 17.558 27.3551 18.1135C27.4409 18.1844 27.9351 18.4259 27.9609 18.4783C28.1223 18.8264 27.6591 18.7707 27.7268 19.093C27.7922 19.4193 27.9155 19.8455 27.6051 20.0121C27.4199 20.1113 26.4218 19.786 26.1676 19.7219C25.4344 19.5402 26.3175 20.3643 25.5005 20.0188C24.6865 19.6598 23.6898 18.7385 23.0366 18.7052C24.2319 19.4885 25.4484 20.3086 26.6422 21.1091C26.1414 21.7895 25.2982 22.1736 24.8579 22.8453C24.8035 22.9305 25.4741 23.3197 25.4297 23.4251C25.24 23.8661 24.5621 23.8315 24.4276 24.328C24.3259 24.7139 24.672 25.5537 24.5612 25.9816C23.1921 25.0588 23.2276 25.8379 22.8401 26.0234C22.7051 26.0889 22.3974 25.7788 22.2271 25.7494C21.5946 25.6421 22.7441 26.5333 22.8333 26.7669C23.2011 27.773 20.869 25.4799 20.5769 25.8749C20.567 25.8872 20.9188 26.4312 21.2032 26.889L20.0484 27.6943C20.0838 28.0634 20.0909 28.39 20.0737 28.445C19.7845 29.3415 19.7423 27.9311 19.3524 27.9506C18.5947 27.9697 18.1261 27.7254 17.0408 28.3056C16.8758 28.3876 16.5721 28.7051 16.1411 28.8502C15.7203 28.9989 15.155 28.952 14.8406 28.4068C14.76 28.2647 15.0049 27.7387 14.9334 27.6786C13.7669 26.5911 12.7993 27.9887 11.4946 27.6366C10.4299 27.2861 10.4424 25.8352 10.7345 25.2903C10.7919 25.1625 10.8507 25.0639 10.8946 25.0027C11.3184 24.4419 11.4048 24.7039 11.4532 24.9415C11.4824 25.0738 11.5043 25.2032 11.5368 25.1976C12.197 25.0745 12.2781 24.8188 12.2358 24.5617C12.2078 24.3838 12.1176 24.198 12.0936 24.026C13.7239 23.3294 13.5131 23.0145 12.0476 23.6228C11.8873 23.6933 12.1387 23.9217 12.0936 24.026C10.3318 24.3178 9.87524 23.53 11.3935 22.7273C12.1079 22.363 13.0067 22.4253 12.611 21.8682C12.438 21.6135 11.23 21.8301 10.8774 21.5852C10.073 20.9911 11.221 20.2196 11.0841 19.6596C11.0347 19.4449 10.3517 19.6007 10.296 19.4467C10.1486 19.0261 10.6879 18.7381 10.4971 18.2982C10.4793 18.2564 9.7723 18.2403 9.78515 18.1054C9.80937 17.8179 9.88206 17.5414 9.98468 17.2661C10.2497 16.5632 10.6855 15.9165 11.0634 15.0859C11.2967 14.5391 11.5676 13.2943 12.1069 12.7549C12.6265 12.2079 13.507 11.8604 14.2384 11.6092C14.7533 11.4298 15.1921 11.2813 15.46 11.0043C15.8835 10.579 15.4426 10.0301 15.4575 9.48319C15.5345 8.40118 16.931 9.62136 17.0778 9.84274C17.0842 9.84817 16.7656 10.156 17.1037 10.4066C17.4967 11.056 17.0728 9.84828 17.0778 9.84274C17.2083 9.96559 17.9493 9.8651 18.0157 9.70388C18.0588 9.61178 17.8068 8.99638 17.8337 8.96015C17.9586 8.79561 18.0787 8.65085 18.1919 8.5257C18.6177 8.0211 19.2005 7.75768 19.8795 7.79485C19.8972 7.80306 20.112 8.51417 20.1507 8.52472C20.6853 8.69451 20.6853 7.73832 20.8854 7.10636C21.0927 6.47247 21.4411 6.55135 22.047 7.69707C22.2729 7.45757 22.8514 7.86907 23.177 8.12809C23.5059 8.38596 23.1258 6.99136 23.1385 6.95766C23.528 5.88809 24.1453 6.57132 24.8664 6.5088C25.2093 6.48117 25.817 6.10755 26.1497 5.86512C26.4125 5.67046 26.6673 5.95867 26.8913 5.68576C26.922 5.64919 26.7428 5.02988 26.7487 5.00315C26.8927 4.18182 27.0846 5.75125 27.2083 6.01155C27.6585 6.95913 27.8984 7.46321 28.1901 6.91409C28.2543 6.78877 28.0952 4.51181 28.2546 4.348C28.4564 4.14036 28.5112 4.95533 28.7219 4.71884C28.7402 4.69942 28.6505 4.20628 28.8088 4.20206C29.5372 4.17745 30.3917 4.35417 31.2275 4.23966C31.3454 4.22583 31.1318 3.44487 31.3064 3.4119C32.1063 3.26004 33.1465 3.26347 34.1639 3.72786C34.4173 3.84584 34.1986 4.38431 34.2382 4.55397C34.4426 5.57549 35.1256 4.21172 35.2475 4.20646C37.3944 3.93921 40.5194 5.98365 42.7181 10.1385C42.8515 10.2428 44.8364 11.8775 43.4998 12.6343C43.4407 12.6744 42.7855 13.0282 42.6887 13.3641C42.6467 13.4742 42.7156 13.5885 42.9966 13.7116C43.0537 13.7339 43.7674 13.5039 43.6776 13.9463C43.5873 14.376 43.9911 15.0496 43.1542 15.4127C42.8894 15.5362 41.4989 15.6156 42.4832 16.2228C42.5603 16.2395 44.8017 17.4761 43.0936 17.2993C42.8124 17.268 41.0927 16.776 41.8518 17.4724C41.997 17.6114 42.4302 17.5558 42.5985 17.8689C42.8554 18.3568 42.2412 18.686 42.8135 19.4243C42.9183 19.5481 43.9045 20.3684 42.9289 20.2973C42.7772 20.2837 42.2622 19.9667 42.1388 20.0826C41.5551 20.6192 41.5533 21.5021 40.7986 21.9529C40.5339 22.108 39.7804 21.4863 39.4221 21.5688C39.0624 21.6551 38.5739 21.9272 38.7653 22.4084C38.9498 22.8995 40.3816 23.5667 40.1902 24.0174C39.3129 26.0177 36.9883 26.8462 35.1685 27.7087C34.8918 27.8403 35.387 28.2002 34.9796 28.4302C34.7474 28.5596 34.4916 28.7072 34.2102 28.8601C33.9997 29.0735 33.2988 29.7263 32.2535 29.2124C31.2587 28.7225 31.52 27.7205 30.9278 27.6372C30.6416 27.5999 31.3755 29.2554 31.3563 29.3338C31.191 30.1117 30.4216 29.6543 30.0836 30.1433C30.0119 30.2456 30.4834 30.81 30.4171 30.8908C30.1957 31.1712 29.7159 31.0777 29.4565 31.2953C29.3395 31.3951 29.6392 31.8632 29.4939 31.8966C29.1537 31.9791 28.7659 31.9269 28.2264 31.6259C28.1779 31.5981 28.0295 30.8941 27.7971 30.9894C27.4158 31.1482 26.7382 30.9187 26.5385 31.6024C26.4801 31.8069 27.0128 32.9597 26.3541 32.2995C26.2154 32.1616 25.6629 30.7405 25.8752 32.0888C25.9198 32.3101 26.0264 34.2012 25.2862 33.2646C25.091 33.0189 24.4412 31.9365 24.3499 32.1817C24.3382 32.2197 24.6765 32.8197 24.5596 32.936C24.1383 33.3361 23.5779 33.4557 23.1079 33.8268C22.98 33.9278 23.4092 34.5329 23.2067 34.6631C22.6474 35.0234 21.8154 35.0584 21.153 34.9787C20.911 34.9476 20.9409 34.3426 20.9102 34.2843C20.4404 33.3289 20.5798 34.724 20.5042 34.8222C20.0452 35.4097 19.5188 34.8327 19.0442 35.0751C18.9126 35.1399 19.1012 35.7856 19.0816 35.8483C18.8639 36.4626 18.9246 35.2488 18.7257 35.1418C18.1654 34.8374 17.6267 34.9427 17.1163 35.061C16.9322 35.1049 17.1917 35.8619 17.0219 35.8923C15.9973 36.0875 14.9307 36.0133 13.9819 35.5388C13.8072 35.4481 13.9517 34.8606 13.922 34.7232C13.7303 33.7626 13.2827 35.0284 13.1797 35.1436C13.115 35.2217 13.0569 35.2764 13.0039 35.3133C12.7464 35.5305 12.6406 35.1504 12.3397 35.2042C11.4633 35.3313 10.2056 35.3406 8.07988 34.4164C5.91815 33.6382 3.21701 30.4926 2.80964 28.34C2.56654 27.4862 2.48597 26.7587 2.46443 26.1333C2.60681 24.85 2.86417 23.6944 2.62482 22.3279C2.60768 22.2247 1.82855 22.3948 1.80364 22.3057C1.51846 21.1451 1.75621 19.9281 1.51877 18.6276C1.50083 18.5192 0.752234 18.6812 0.698465 18.5044C0.582925 18.1428 0.629462 17.6661 0.881012 17.2925C1.00234 17.1093 1.63673 17.3797 1.74584 17.1976C2.00178 16.7771 2.08059 16.3186 1.99913 15.8487C1.96353 15.6444 1.17371 15.8843 1.1879 15.6182C1.28036 13.8365 1.47609 11.6407 3.48098 9.6124C3.62322 9.46933 5.08439 10.0177 4.98109 9.5716C4.61186 9.3451 4.16229 9.10753 3.76058 8.87886C4.57459 7.01687 6.41872 4.99273 8.69996 3.9245C9.29158 3.7354 10.321 3.27921 11.5412 2.74098C11.65 2.69312 11.1069 2.0368 11.3226 1.93771C12.5528 1.38423 14.1821 0.472791 16.5616 1.09057C16.7954 1.15674 16.7701 2.60118 17.365 2.36822C17.4645 2.31634 18.4327 2.16194 18.7533 1.89751C18.799 1.85583 18.6775 1.15544 19.0398 1.18403C19.8381 1.25677 20.673 1.46737 21.4409 1.80288C22.0828 2.11279 22.7118 2.56171 23.2918 3.16428C23.4423 3.32298 22.9063 3.85341 23.0054 3.96967C23.6693 4.78456 25.0429 4.95276 25.7369 6.73138C26.1634 7.98901 24.8773 8.39692 24.0805 9.46208C23.9701 9.58125 24.2037 10.3114 23.4929 10.5065C21.7298 10.8594 19.8407 11.408 17.9778 11.8552C17.7744 11.8955 17.7024 11.5877 17.617 11.2952C17.5357 11.0119 17.3881 10.7659 16.9199 11.3786C16.8887 11.4202 16.8258 11.7964 16.7803 12.1414C16.7303 12.4865 16.6814 12.8058 16.5679 12.9685C16.4177 13.2052 15.627 13.2228 15.5044 13.6717C15.3933 14.1286 16.0777 14.0891 15.9724 14.5416C15.8654 14.9876 15.1667 15.4559 15.4396 15.8993ZM24.6481 9.288C25.0505 9.89502 24.3905 7.43966 24.3212 8.09187C24.3186 8.12632 24.6277 9.25843 24.6481 9.288ZM23.7492 21.0254C22.6705 20.6004 23.8614 21.757 24.687 22.1006C25.5182 22.4339 24.0809 21.1475 23.7492 21.0254ZM24.759 17.9321C23.8209 17.8009 26.9218 19.6411 26.4893 18.92C26.4654 18.878 24.8141 17.9384 24.759 17.9321ZM22.6691 8.26461C22.65 8.29097 22.8218 8.49157 22.8487 8.47295C23.5228 7.99546 23.1258 7.54421 22.6691 8.26461ZM25.2009 14.8609C24.7153 14.7506 25.1197 15.2332 25.7237 15.3645C26.2074 15.4742 25.8013 15.0046 25.2009 14.8609ZM36.3098 11.9131C36.2821 11.9381 36.3227 12.0733 36.5087 11.9693C37.1115 11.6281 36.7999 11.4947 36.3098 11.9131ZM27.5238 10.847C27.0212 11.3298 24.2943 10.0518 25.0308 9.56704C25.1626 9.48263 25.6366 10.3626 25.9622 10.3626C26.55 10.3704 25.1472 9.11381 26.164 9.41263C26.3466 9.47188 27.5567 10.8243 27.5265 10.8504C27.5256 10.8493 27.5247 10.8481 27.5238 10.847ZM25.6059 12.1902C25.6191 12.2214 25.7901 12.2062 25.785 12.173C25.6556 11.3709 25.3065 11.4023 25.6059 12.1902ZM33.5277 18.136C33.4646 18.1044 33.2145 18.3395 33.2596 18.3864C34.1964 19.3449 34.7764 18.7745 33.5277 18.136ZM17.4425 17.947C18.1335 18.3927 18.1959 18.4986 17.1946 18.275C17.2897 18.1637 17.3452 18.0433 17.4425 17.947Z" fill="#F9EF23"/>
<path d="M39.9096 9.06551C40.0464 9.02327 40.2284 9.033 40.3643 9.05898C40.4078 9.0669 40.3911 9.12166 40.4216 9.12951C40.4795 9.145 40.5285 9.11465 40.588 9.1343C40.6075 9.14109 40.5914 9.22669 40.6111 9.23195C40.7175 9.26032 40.8165 9.23113 40.9248 9.24109C41.4561 9.29068 41.9686 9.29618 42.4992 9.31826C42.6746 9.32544 42.8875 9.39683 43.0667 9.361C43.0877 9.35673 43.0741 9.28322 43.078 9.27709C43.1399 9.18325 43.1211 9.33231 43.162 9.35158C43.3251 9.42771 43.5052 9.43378 43.6619 9.40595C43.7284 9.39392 43.6624 9.24722 43.729 9.32973C43.7337 9.33531 43.7163 9.41347 43.7345 9.42193C43.7757 9.44092 43.8546 9.42763 43.8864 9.43421C43.948 9.44726 43.9582 9.44662 44.0166 9.44838C44.0967 9.4515 44.1907 9.49226 44.2768 9.47666C44.2952 9.4731 44.2729 9.39228 44.3025 9.37937C44.3322 9.36647 44.4096 9.37544 44.4352 9.39517C44.4608 9.41489 44.4477 9.47758 44.4518 9.49217C44.4858 9.61524 44.5806 9.44947 44.5925 9.44575C44.8057 9.38238 44.982 9.48737 45.1792 9.49921C45.3288 9.508 45.4919 9.48803 45.6345 9.50453C45.8047 9.52456 45.9448 9.582 46.1107 9.59326C46.1283 9.59457 46.1184 9.49849 46.1401 9.49992C46.1985 9.50383 46.2564 9.5094 46.3137 9.51716C46.4788 9.53954 46.6399 9.57797 46.7966 9.6459C46.818 9.65517 46.7788 9.73365 46.7996 9.74782C46.9264 9.83264 47.1186 10.0223 47.2436 9.67487C47.3349 9.70088 47.441 9.72938 47.5149 9.81237C47.5617 9.86569 47.4987 9.94843 47.5684 9.91875C47.584 9.91215 47.5754 9.83133 47.5981 9.82736C47.692 9.81053 47.7925 9.84975 47.8873 9.82123C47.9072 9.81532 47.9114 9.74446 47.9185 9.73254C47.977 9.63619 48.0277 9.81523 48.0418 9.82966C48.152 9.93787 48.244 9.9137 48.3592 9.93192C48.3855 9.93614 48.3674 9.83762 48.3932 9.83829C48.5258 9.84294 48.6626 9.87053 48.7857 9.93103C48.8128 9.94467 48.775 10.021 48.7873 10.0317C48.8416 10.0775 48.8788 9.92831 48.9317 9.96955C48.9429 9.97805 48.9259 10.0456 48.927 10.0535C48.9441 10.1769 48.9986 10.0138 49.0088 10.0115C49.1311 9.97819 49.1774 10.1642 49.2897 10.1565C49.3032 10.1555 49.2871 10.0641 49.325 10.0665C49.5768 10.0819 49.8337 10.1498 50.0674 10.268C50.103 10.2861 50.0631 10.3453 50.0639 10.3538C50.076 10.4857 50.1371 10.3247 50.1507 10.321C50.2578 10.2961 50.3191 10.4564 50.4334 10.2758C50.6223 10.3601 50.7933 10.3794 51.0504 10.5317C51.1208 10.5802 51.1854 10.6255 51.2596 10.7239C51.3458 10.8079 51.4049 11.1117 51.2769 11.2559C51.0744 11.4866 50.9398 11.4591 50.7992 11.4705C50.7928 11.4706 50.7735 11.3885 50.7618 11.3887C50.6255 11.3866 50.6861 11.5024 50.6464 11.6806C50.6354 11.7256 50.5142 11.5593 50.5076 11.5464C50.4744 11.5015 50.4631 11.3755 50.4539 11.3675C50.3805 11.305 50.4922 11.7022 50.4107 11.7222C50.408 11.7221 50.4008 11.6458 50.3923 11.6401C50.3653 11.6222 50.3543 11.6558 50.3286 11.6349C50.2703 11.5864 50.2111 11.3945 50.1675 11.5232C50.1622 11.5398 50.2251 11.7656 50.1543 11.7693C50.1262 11.7707 50.0038 11.7995 49.9683 11.7909C49.9316 11.7826 49.9404 11.7041 49.9374 11.7014C49.8275 11.6212 49.854 11.574 49.7809 11.4377C49.7099 11.3016 49.7867 11.6438 49.7757 11.6856C49.7647 11.7274 49.6834 11.6588 49.6618 11.6337C49.6402 11.6085 49.6521 11.5577 49.6346 11.5444C49.5198 11.4579 49.6237 11.7232 49.6021 11.7837C49.5519 11.9265 49.4461 11.6813 49.3749 11.6678C49.3556 11.6643 49.3806 11.72 49.3653 11.7283C49.3047 11.7603 49.251 11.6873 49.1899 11.7733C49.1801 11.7873 49.1475 11.9515 49.0893 11.8452C49.0811 11.8298 49.0856 11.7633 49.0555 11.7537C49.0101 11.7394 48.9338 11.7382 48.8934 11.7671C48.8635 11.7885 48.919 11.8873 48.8723 11.8617C48.8515 11.8503 48.8748 11.7829 48.8366 11.7665C48.7983 11.7502 48.7114 11.768 48.6788 11.7759C48.6461 11.7838 48.6781 11.8604 48.6764 11.8663C48.6656 11.8999 48.6088 11.9494 48.6031 11.9503C48.3227 12.0097 48.0377 11.9229 47.7729 12.0222C47.7522 12.0299 47.7833 12.1107 47.7803 12.1127C47.7145 12.1626 47.727 11.9284 47.6603 11.8645C47.7025 12.0327 47.666 12.0081 47.6184 12.0374C47.5953 12.0518 47.6227 12.1146 47.6218 12.1218C47.6061 12.2292 47.5534 12.1059 47.5411 12.081C47.4959 11.9893 47.4941 12.1095 47.4636 12.0484C47.433 11.9878 47.4505 11.8843 47.4012 11.8963C47.4007 11.96 47.4719 12.1102 47.4404 12.1441C47.3209 12.2715 47.0339 12.2099 46.918 12.2276C46.8029 12.2446 46.772 12.2655 46.7003 12.2628C46.5726 12.258 46.6498 12.3607 46.5958 12.4348C46.5414 12.5096 46.4863 12.2168 46.4566 12.1595C46.4268 12.1022 46.4355 12.1682 46.4118 12.1391C46.3881 12.1101 46.4028 12.0598 46.3682 12.0573C46.333 12.0549 46.2873 12.19 46.2985 12.2567C46.3232 12.3975 46.4077 12.5241 46.3153 12.5022C46.3099 12.5009 46.2974 12.4227 46.278 12.4214C46.2496 12.4199 46.2219 12.4205 46.1948 12.4224L46.2139 12.4134C46.0899 12.4431 45.9757 12.4923 45.8495 12.5083C45.8281 12.5109 45.8049 12.4256 45.7921 12.4261C45.659 12.4313 45.764 12.5417 45.7743 12.7175C45.6929 12.517 45.6015 12.4152 45.5194 12.4529C45.4696 12.4756 45.5182 12.5568 45.5137 12.6322C45.5123 12.6549 45.4495 12.6126 45.4616 12.6558C45.5002 12.7973 45.6021 12.9294 45.4861 12.9108C45.481 12.9098 45.4609 12.8319 45.4456 12.8335C45.3463 12.8432 45.3968 12.9866 45.3082 13.0443C45.2388 13.0896 45.0702 13.0587 44.9796 13.0778C44.8926 12.8514 44.8343 12.9337 44.8609 13.1024C44.803 13.1172 44.7462 13.1484 44.6845 13.1463C44.6633 13.1456 44.6514 13.0752 44.6465 13.0689C44.5705 12.9699 44.6018 13.1315 44.5918 13.1419C44.4821 13.2469 44.3361 13.1665 44.2494 13.3222C44.2464 13.3278 44.2919 13.4902 44.2198 13.3844C44.215 13.3771 44.2324 13.2907 44.1717 13.3044C44.1109 13.318 43.9729 13.2675 43.9147 13.3675C43.9006 13.3916 43.8909 13.5379 43.819 13.4482C43.8094 13.436 43.801 13.388 43.7854 13.3647C43.7353 13.2904 43.7715 13.4575 43.6999 13.3281C43.6283 13.1987 43.5368 13.1133 43.4834 13.2335C43.4816 13.237 43.5009 13.3721 43.4744 13.3778C43.432 13.3868 43.3652 13.3772 43.3224 13.3907C43.3019 13.3973 43.3388 13.4738 43.3356 13.4763C43.2093 13.5624 43.0897 13.5194 42.9312 13.5316C42.9023 13.5336 42.8558 13.6661 42.7774 13.5947C42.6918 13.5166 42.6371 13.104 42.5304 13.2371C42.487 13.2906 42.5655 13.8114 42.3927 13.5803C42.2239 13.6998 42.0107 13.619 41.8509 13.7684C41.8437 13.775 41.86 13.9225 41.8396 13.9267C41.8091 13.9328 41.7731 13.8727 41.7508 13.875C41.6568 13.8829 41.5944 13.9638 41.5071 13.9824C41.474 13.9897 41.4633 13.9191 41.4241 13.9277C41.3848 13.9365 41.3883 14.0328 41.3225 14.0074C41.3095 14.0024 41.2932 13.9874 41.2752 13.9679C41.231 13.9079 41.1759 13.81 41.1359 13.8021C41.1744 13.9849 41.138 13.9895 41.082 14.0503C41.0712 14.0621 41.0967 14.1235 41.0921 14.1324C41.0734 14.17 41.0409 14.121 41.0235 14.1609C41.0192 14.1705 41.0294 14.2335 41.0263 14.2449C40.9998 14.3447 40.9103 14.2124 40.8964 14.1889C40.8407 14.1005 40.8311 14.1852 40.7934 14.1518C40.7564 14.1183 40.8002 14.0665 40.7598 14.048C40.6769 14.0098 40.5783 14.0278 40.4984 14.0292C40.4666 14.0302 40.4928 14.1141 40.4883 14.1162C40.4224 14.1414 40.3525 14.0532 40.3205 14.2239C40.2619 13.7865 40.2813 14.2678 40.1829 14.1817C40.1752 14.1747 40.1628 13.9674 40.1906 13.9364C40.2183 13.9055 40.2626 13.9695 40.3005 13.9209C40.3098 13.9095 40.3555 13.7134 40.3616 13.7014C40.4121 13.6073 40.4338 13.9166 40.4378 13.9335C40.4809 14.1156 40.535 13.9025 40.5499 13.8869C40.6214 13.8157 40.6888 13.8534 40.7462 13.7995C40.7836 13.7646 40.7628 13.5624 40.7932 13.5648C40.8914 13.5725 40.9792 13.8452 41.0267 13.5858C41.0362 13.5303 40.9714 13.3174 41.0747 13.4735C41.0801 13.4826 41.1528 13.6015 41.1708 13.5447L41.1379 13.5544C41.1398 13.5482 41.141 13.5403 41.1413 13.5302C41.1416 13.5166 41.1211 13.4553 41.1252 13.4482C41.1525 13.4021 41.1942 13.4427 41.228 13.4057C41.2616 13.3687 41.301 13.3173 41.3553 13.3229C41.388 13.3262 41.4612 13.4295 41.4836 13.4533C41.548 13.5221 41.5476 13.3761 41.6023 13.4669C41.6571 13.5581 41.6575 13.7227 41.7398 13.767C41.6921 13.6058 41.646 13.4394 41.5995 13.2768C41.7409 13.239 41.893 13.2496 42.03 13.2009C42.047 13.1947 42.0035 13.1133 42.021 13.1045C42.0948 13.0675 42.1817 13.109 42.2549 13.0607C42.3117 13.023 42.3535 12.9111 42.4119 12.8689C42.5059 13.0419 42.5836 12.9514 42.6589 12.9479C42.6851 12.9466 42.6977 12.9964 42.7198 13.0075C42.8026 13.048 42.7245 12.8936 42.735 12.8627C42.7806 12.7306 42.8942 13.0983 42.9824 13.0628C42.9872 13.061 42.9885 12.8469 42.993 12.8323C43.0207 12.7375 43.0214 12.8984 43.0577 12.9036C43.1239 12.9131 43.1787 12.948 43.2299 12.8703C43.2449 12.8473 43.2562 12.7106 43.3229 12.7938C43.3317 12.8047 43.3483 12.8705 43.3535 12.8731C43.4464 12.9144 43.3872 12.7097 43.4082 12.628C43.429 12.5464 43.5363 12.6673 43.562 12.7038C43.6287 12.798 43.5493 12.7567 43.5506 12.7675C43.566 12.8967 43.6071 12.8611 43.6464 12.8603C43.7133 13.0583 43.7605 13.0305 43.687 12.8586C43.6789 12.8398 43.6565 12.8672 43.6464 12.8603C43.6178 12.6546 43.6644 12.6127 43.783 12.7761C43.8386 12.8526 43.8432 12.9611 43.9188 12.8967C43.9531 12.8676 43.8938 12.7356 43.9163 12.6871C43.9671 12.5766 44.1109 12.6703 44.1849 12.6226C44.2115 12.6054 44.1576 12.5406 44.1749 12.5263C44.2204 12.488 44.2862 12.5277 44.3286 12.4805C44.3323 12.4761 44.2932 12.4026 44.309 12.3958C44.4283 12.343 44.5526 12.3531 44.6793 12.3051C44.7407 12.2819 44.8313 12.1962 44.8966 12.1786C45.0091 12.1482 45.1898 12.1993 45.2685 12.1305C45.3198 12.0861 45.2717 12.0175 45.2726 11.955C45.273 11.8345 45.4422 11.9687 45.4675 11.9898C45.4684 11.9905 45.4267 12.0327 45.4722 12.0574C45.527 12.1287 45.4671 11.9904 45.4675 11.9898C45.4835 12.0038 45.5918 11.9702 45.6043 11.9458C45.611 11.9326 45.5691 11.8663 45.5733 11.8608C45.6375 11.7764 45.7094 11.7101 45.7927 11.6618L45.8855 11.6182C45.9437 11.5951 46.0052 11.5789 46.0696 11.5699C46.0732 11.5703 46.0974 11.6544 46.1053 11.6544C46.2144 11.6578 46.2411 11.537 46.3048 11.4507C46.3654 11.3656 46.437 11.367 46.5253 11.4978C46.5805 11.4624 46.682 11.5035 46.7413 11.5295C46.8003 11.5556 46.7648 11.3893 46.7682 11.3849C46.8752 11.2464 46.9791 11.3215 47.1198 11.3046C47.1878 11.2965 47.3124 11.2438 47.3798 11.2106C47.4332 11.184 47.4751 11.2159 47.5215 11.1804C47.5278 11.1756 47.5055 11.1029 47.5071 11.0996C47.5468 10.999 47.556 11.1861 47.5744 11.2161C47.6413 11.3252 47.6801 11.3827 47.7423 11.3128C47.7565 11.2968 47.7548 11.0256 47.783 11.0043C47.8196 10.9771 47.8224 11.0738 47.8602 11.0431C47.8634 11.0405 47.8517 10.9828 47.8782 10.9804C48.0013 10.9686 48.138 10.9784 48.2616 10.9504C48.2785 10.9468 48.2403 10.8586 48.2645 10.8519C48.3772 10.8206 48.5046 10.8018 48.6229 10.8258C48.6523 10.8319 48.6462 10.8994 48.6555 10.9175C48.7122 11.0271 48.7347 10.8498 48.7426 10.8452C48.9313 10.7293 49.1125 10.8553 49.302 10.7471C49.3127 10.7409 49.3649 10.5456 49.4292 10.6935C49.4332 10.7035 49.4997 10.8547 49.5131 10.7406C49.5139 10.7334 49.4759 10.6563 49.5177 10.6572C49.5602 10.6579 49.6105 10.5924 49.6841 10.6708C49.7067 10.6956 49.7789 10.845 49.8041 10.7097C49.8051 10.7004 49.8266 10.4013 49.8935 10.5909C49.9044 10.6222 49.9439 10.8296 49.9798 10.7113C49.9864 10.6885 49.9567 10.6467 49.9791 10.6118C50.0162 10.5574 50.0868 10.5994 50.1164 10.4956C50.1224 10.4771 50.126 10.3288 50.181 10.4268C50.1897 10.4422 50.1988 10.5126 50.216 10.5163C50.3003 10.5334 50.3598 10.4667 50.427 10.4943C50.4499 10.5042 50.4813 10.614 50.5124 10.6348C50.5432 10.6559 50.5902 10.6664 50.5685 10.6185C50.5419 10.574 50.4645 10.4083 50.4307 10.4123C50.4031 10.4207 50.3411 10.4449 50.2476 10.5734C50.1337 10.7035 50.0668 11.0817 50.1594 11.2779C50.336 11.6392 50.3809 11.5385 50.3807 11.5438C50.4552 11.5693 50.4139 11.5247 50.3733 11.5074C50.3537 11.4984 50.3506 11.5657 50.3188 11.5568C50.1989 11.522 49.894 11.5177 49.7682 11.354C49.6675 11.2224 49.8371 11.1689 49.7511 11.1068C49.7075 11.0768 49.6216 11.2757 49.6092 11.2802C49.4886 11.3272 49.4292 11.2223 49.326 11.2342C49.3045 11.2367 49.3107 11.3244 49.2926 11.3256C49.2301 11.3303 49.1757 11.2829 49.1161 11.2805C49.0904 11.2799 49.0849 11.3451 49.0624 11.3365C49.0085 11.3166 48.9611 11.2815 48.9162 11.2128C48.912 11.2065 48.9581 11.1313 48.9167 11.122C48.8486 11.1069 48.774 11.0348 48.6852 11.0848C48.6586 11.0999 48.6365 11.2475 48.6016 11.1383C48.5942 11.1155 48.6334 10.94 48.5527 11.0849C48.5388 11.1088 48.4111 11.3016 48.382 11.1615C48.3743 11.1246 48.362 10.9748 48.3301 10.9936C48.3257 10.9967 48.3301 11.0783 48.3053 11.0827C48.2212 11.0973 48.1327 11.0765 48.0465 11.09C48.023 11.0938 48.0453 11.1805 48.0107 11.1835C47.9141 11.1914 47.803 11.1551 47.7138 11.117C47.6817 11.1029 47.7139 11.0379 47.7124 11.0301C47.6897 10.9044 47.6448 11.0641 47.6306 11.0718C47.542 11.1179 47.4897 11.0332 47.4128 11.0437C47.3915 11.0464 47.3959 11.1259 47.3909 11.1323C47.3394 11.1943 47.3895 11.0591 47.3644 11.0402C47.293 10.9865 47.2101 10.9821 47.1313 10.9819C47.1024 10.982 47.1226 11.0762 47.0969 11.0752C46.9461 11.0714 46.7918 11.0428 46.6515 10.9744C46.6249 10.9613 46.6513 10.8942 46.6475 10.8777C46.6218 10.7618 46.5456 10.9056 46.5303 10.9183C46.4614 10.9763 46.4455 10.912 46.3899 10.9165C46.3095 10.9238 46.2244 10.9214 46.1366 10.9128C45.9501 10.895 45.7527 10.8492 45.5901 10.8171C45.2854 10.7578 45.0465 10.6763 44.7464 10.6797C44.7273 10.6799 44.7423 10.7736 44.7259 10.775C44.5142 10.788 44.307 10.7453 44.0938 10.7681C44.0763 10.7698 44.0998 10.8585 44.0717 10.8642C44.0142 10.8765 43.9418 10.8707 43.8842 10.8419C43.8561 10.828 43.8949 10.7528 43.8665 10.7403C43.8002 10.7113 43.7285 10.7044 43.6601 10.7183C43.631 10.7244 43.6745 10.8147 43.6368 10.8157C43.3792 10.8239 43.127 10.8418 42.8633 10.7305C42.8451 10.7229 42.8253 10.54 42.7877 10.576C42.786 10.6269 42.7876 10.6867 42.7876 10.7411C42.4125 10.7791 42.0353 10.7303 41.6574 10.7412C41.6417 10.7417 41.6741 10.8371 41.6438 10.8385C41.4635 10.8471 41.2958 10.8846 41.1057 10.8013C41.0869 10.7932 41.0854 10.622 41.0325 10.6518C41.0231 10.6572 40.944 10.6859 40.9267 10.7245C40.9244 10.7303 40.9448 10.8086 40.9197 10.8129C40.7689 10.8367 40.6146 10.8315 40.4605 10.7972C40.4365 10.7914 40.4532 10.7045 40.4361 10.6997C40.3083 10.6666 40.1851 10.7444 40.0649 10.6811C39.9807 10.639 39.9921 10.4898 39.9343 10.3515C39.9262 10.3319 39.876 10.3353 39.8628 10.2524C39.8275 10.0439 39.8206 9.81122 39.7803 9.58933C39.7709 9.54156 39.7105 9.60286 39.7342 9.48109C39.7355 9.47294 39.782 9.42733 39.7909 9.38609C39.7969 9.35758 39.7685 9.27506 39.7836 9.23759C39.7971 9.20039 39.8248 9.26908 39.8503 9.22428C39.875 9.1791 39.8539 9.08362 39.9096 9.06551ZM47.0023 11.6489C47.0659 11.7175 47.0027 11.4251 46.9708 11.5064C46.9693 11.5107 46.9991 11.6456 47.0023 11.6489ZM41.9576 13.466C42.0514 13.5754 42.0334 13.3783 41.9648 13.2926C41.8961 13.207 41.9289 13.4329 41.9576 13.466ZM41.4088 13.7383C41.5057 13.8163 41.3865 13.4091 41.3424 13.5134C41.3397 13.5194 41.4031 13.7338 41.4088 13.7383ZM40.1212 10.2878C40.12 10.284 40.0837 10.2841 40.0834 10.2881C40.0753 10.3847 40.1471 10.3843 40.1212 10.2878ZM40.8823 13.9705C40.9108 14.0246 40.9597 13.9502 40.9237 13.8835C40.8956 13.8298 40.8478 13.9032 40.8823 13.9705ZM49.348 11.5244C49.3494 11.5286 49.3751 11.5282 49.3702 11.5035C49.3545 11.4239 49.3238 11.4525 49.348 11.5244ZM39.8881 14.0243C40.0364 14.0401 40.1308 14.3896 39.9661 14.3509C39.9364 14.3439 40.0296 14.239 39.9918 14.2075C39.9229 14.1502 39.8773 14.3702 39.8072 14.2523C39.7945 14.2308 39.8796 14.0226 39.8883 14.0238C39.8882 14.024 39.8882 14.0241 39.8881 14.0243ZM47.1123 11.9919C47.1141 11.9955 47.1498 11.9908 47.1497 11.9868C47.1467 11.8899 47.0742 11.8994 47.1123 11.9919ZM50.8679 11.3547C50.8707 11.3638 50.9657 11.3258 50.9627 11.3171C50.9253 11.1625 50.7684 11.2226 50.8679 11.3547ZM44.9759 13.0723C44.9741 13.1756 44.9331 13.2035 44.8611 13.1025C44.8999 13.0945 44.9371 13.0812 44.9759 13.0723Z" fill="#F96640"/>
<path d="M29.5199 28.2575C29.5808 28.2841 29.6094 28.358 29.6153 28.4231C29.6171 28.4432 29.5716 28.4717 29.571 28.4871C29.57 28.5174 29.6026 28.5156 29.5978 28.5478C29.596 28.5586 29.5263 28.6063 29.5258 28.6164C29.5231 28.6705 29.563 28.6849 29.5744 28.7267C29.6283 28.9301 29.7144 29.09 29.7979 29.258C29.8254 29.3133 29.8107 29.418 29.8752 29.4464C29.8828 29.4497 29.9382 29.4009 29.9438 29.3982C30.0306 29.3582 29.9087 29.444 29.9018 29.4672C29.8749 29.5594 29.908 29.613 29.9633 29.6375C29.9871 29.648 30.0884 29.5398 30.0378 29.6086C30.0344 29.6133 29.9691 29.6568 29.9665 29.6669C29.9606 29.6899 29.9881 29.7024 29.9899 29.7149C29.9932 29.7392 29.996 29.7415 30.0078 29.758C30.0233 29.781 30.0124 29.8302 30.0448 29.8428C30.0518 29.8454 30.1099 29.7894 30.1269 29.789C30.1438 29.7884 30.1546 29.8133 30.1452 29.832C30.1358 29.8507 30.0838 29.8865 30.0734 29.8967C29.9852 29.982 30.1376 29.9026 30.1431 29.9029C30.2433 29.9155 30.2057 30.0236 30.2475 30.0766C30.2794 30.1166 30.3381 30.1401 30.3649 30.1813C30.3688 30.1872 30.3721 30.1935 30.3751 30.1999L30.3605 30.1823C30.3827 30.2256 30.3866 30.2796 30.4237 30.3111C30.428 30.315 30.4938 30.2471 30.4993 30.2516C30.5572 30.2999 30.5997 30.3619 30.6038 30.4603C30.6042 30.4703 30.5367 30.5192 30.5335 30.5326C30.5145 30.6125 30.4462 30.7789 30.7283 30.5526C30.7393 30.585 30.755 30.6229 30.7215 30.6933C30.7 30.7387 30.6223 30.7877 30.6657 30.7777C30.6755 30.7755 30.7283 30.7164 30.7386 30.7172C30.7813 30.7202 30.787 30.7635 30.8382 30.758C30.8487 30.7568 30.8987 30.7066 30.9092 30.6991C30.9943 30.6388 30.8886 30.7752 30.8835 30.7878C30.8458 30.8821 30.8938 30.8795 30.9194 30.9094C30.9254 30.9164 30.9863 30.8426 30.9945 30.8469C31.0361 30.8703 31.0631 30.91 31.0639 30.9714C31.064 30.9853 30.9995 31.0352 30.9966 31.0447C30.9843 31.0859 31.0974 30.9827 31.0877 31.0201C31.0858 31.0279 31.0344 31.0746 31.0295 31.0804C30.9523 31.1726 31.081 31.0619 31.0859 31.0615C31.1501 31.0542 31.0412 31.1957 31.086 31.2056C31.0915 31.2067 31.1469 31.1379 31.1585 31.1446C31.2356 31.1888 31.282 31.2701 31.2919 31.38C31.2935 31.397 31.24 31.4366 31.2348 31.4429C31.154 31.5418 31.2811 31.4284 31.2887 31.427C31.3455 31.4188 31.2664 31.5417 31.4266 31.4155C31.4782 31.5674 31.66 31.5886 31.6327 31.8182C31.6325 31.821 31.5709 31.8779 31.5707 31.8832C31.5685 31.9475 31.6546 31.8494 31.7877 31.7574C31.8211 31.7343 31.7008 31.8858 31.6922 31.8972C31.6606 31.939 31.5671 32.0218 31.5617 32.0306C31.5199 32.1005 31.8092 31.8069 31.8281 31.8256C31.8282 31.8267 31.7721 31.8779 31.7683 31.8848C31.7565 31.9064 31.7827 31.89 31.7691 31.9133C31.7374 31.9671 31.5996 32.1126 31.699 32.0471C31.7118 32.0386 31.8739 31.87 31.883 31.8946C31.8864 31.9046 31.9191 31.9316 31.9167 31.9507C31.9144 31.9697 31.8554 32.0173 31.8537 32.0202C31.8056 32.1131 31.7679 32.1338 31.6749 32.2493C31.5822 32.3645 31.8269 32.1135 31.8592 32.0905C31.8874 32.0703 31.8589 32.1253 31.8405 32.1555C31.838 32.1597 31.8356 32.1634 31.8336 32.1664C31.8174 32.1906 31.7785 32.2195 31.7707 32.2345C31.7198 32.3331 31.9042 32.1219 31.9514 32.0905C32.063 32.0158 31.8937 32.2142 31.8927 32.2491C31.8924 32.2585 31.9305 32.2129 31.9385 32.2131C31.9696 32.2143 31.922 32.2814 31.9931 32.2473C32.0047 32.2418 32.13 32.1461 32.0586 32.2369C32.0482 32.2499 31.9986 32.2918 31.9952 32.309C31.9901 32.3347 31.9987 32.3633 32.0251 32.3591C32.0446 32.356 32.1107 32.2711 32.0976 32.3048C32.0917 32.3199 32.039 32.3556 32.0316 32.3801C32.0242 32.4046 32.048 32.4246 32.0579 32.4314C32.0678 32.4382 32.1205 32.3764 32.125 32.3732C32.1512 32.3552 32.1947 32.3435 32.196 32.345C32.2742 32.4092 32.2431 32.571 32.3443 32.6083C32.3521 32.6113 32.4089 32.5474 32.4107 32.5472C32.4546 32.5405 32.2794 32.6863 32.2387 32.7531C32.3593 32.6287 32.3448 32.6585 32.3714 32.6582C32.3843 32.658 32.4283 32.6071 32.4337 32.6028C32.5151 32.5402 32.4285 32.6397 32.4112 32.6604C32.3473 32.7366 32.4368 32.6606 32.3942 32.7116C32.3519 32.7623 32.2734 32.8215 32.2868 32.8331C32.3342 32.7928 32.4395 32.6689 32.4676 32.6598C32.574 32.6257 32.5512 32.7828 32.5706 32.8209C32.5902 32.8592 32.6077 32.8605 32.6086 32.893C32.6103 32.952 32.6842 32.8559 32.742 32.8359C32.8 32.816 32.5815 33.016 32.5393 33.0637C32.497 33.1113 32.5462 33.0679 32.5247 33.0959C32.5033 33.1239 32.4656 33.1474 32.4641 33.1644C32.4626 33.1814 32.5638 33.1227 32.6136 33.0785C32.7191 32.9847 32.814 32.8705 32.798 32.928C32.797 32.9313 32.7381 32.9825 32.7371 32.9926C32.7306 33.0708 32.766 33.1114 32.7642 33.1845C32.7639 33.1947 32.6983 33.2514 32.6974 33.2581C32.6883 33.3272 32.7808 33.2133 32.9119 33.1152C32.7556 33.264 32.6715 33.3666 32.6933 33.3901C32.7063 33.4044 32.7706 33.3354 32.8264 33.2973C32.8432 33.2858 32.8072 33.3413 32.8403 33.3117C32.9485 33.2151 33.054 33.0912 33.032 33.1605C33.0309 33.1638 32.9715 33.2165 32.9717 33.2235C32.9723 33.2686 33.0822 33.1642 33.1201 33.1761C33.15 33.1857 33.119 33.2853 33.1307 33.3183C32.9587 33.4893 33.0191 33.4711 33.1459 33.3614C33.1553 33.3806 33.1775 33.3894 33.1751 33.4197C33.1743 33.4301 33.1215 33.4766 33.1168 33.4825C33.0419 33.576 33.1632 33.4672 33.1709 33.4659C33.2486 33.4559 33.1884 33.5701 33.3062 33.5174C33.3104 33.5156 33.4314 33.3982 33.3529 33.4938C33.3475 33.5003 33.2827 33.544 33.2936 33.5632C33.3044 33.5824 33.2691 33.6748 33.3455 33.6408C33.3639 33.6327 33.4733 33.5486 33.4081 33.6345C33.3992 33.6462 33.3635 33.6788 33.3465 33.6998C33.2923 33.7668 33.4162 33.6499 33.3215 33.7597C33.2267 33.8695 33.1659 33.962 33.2577 33.9126C33.2604 33.9113 33.3609 33.8208 33.366 33.8289C33.3741 33.842 33.3693 33.877 33.381 33.8875C33.3867 33.8925 33.4425 33.8298 33.4445 33.8296C33.514 33.8326 33.4859 33.9102 33.5016 33.9718C33.5044 33.9832 33.6054 33.9226 33.555 34C33.4999 34.0848 33.1936 34.3604 33.2973 34.3254C33.3388 34.3115 33.7258 33.9603 33.5592 34.1761C33.6547 34.1769 33.6014 34.3193 33.7176 34.3002C33.7228 34.2994 33.8327 34.2033 33.8365 34.2098C33.8419 34.2198 33.7978 34.272 33.8 34.2806C33.8081 34.3176 33.87 34.2972 33.8857 34.3257C33.8917 34.3364 33.839 34.3832 33.8462 34.396C33.8535 34.4087 33.9255 34.3496 33.9072 34.3946C33.8931 34.4289 33.7693 34.573 33.7671 34.6021C33.8998 34.4705 33.9064 34.4824 33.9578 34.4641C33.9678 34.4605 34.0104 34.4111 34.0175 34.407C34.0473 34.3895 34.0149 34.4333 34.0464 34.4132C34.054 34.4083 34.0992 34.3633 34.1079 34.3568C34.1841 34.3 34.0986 34.4176 34.0836 34.438C34.0271 34.5157 34.0907 34.462 34.0724 34.4966C34.0541 34.5311 34.0089 34.552 34.0024 34.5776C33.989 34.6305 34.0215 34.6485 34.0392 34.6703C34.0466 34.6788 34.1015 34.6132 34.1039 34.613C34.1356 34.6141 34.0882 34.6949 34.2174 34.5841C33.9185 34.9058 34.2578 34.5642 34.2189 34.6496C34.2158 34.6565 34.0713 34.8056 34.0427 34.8201C34.0143 34.8346 34.0491 34.7778 34.0056 34.8014C33.9954 34.807 33.8444 34.931 33.8343 34.9375C33.7548 34.9883 33.9721 34.767 33.9834 34.7542C34.1048 34.6156 33.9404 34.7474 33.9259 34.7534C33.8596 34.7809 33.8732 34.7329 33.8233 34.7499C33.7908 34.7607 33.6461 34.9033 33.6421 34.8905C33.6284 34.8478 33.8195 34.6381 33.6188 34.7849C33.576 34.8163 33.4247 34.9789 33.5277 34.835C33.5342 34.8259 33.632 34.6979 33.5519 34.7606C33.5418 34.7685 33.4961 34.8143 33.4908 34.8167C33.4562 34.8319 33.4863 34.789 33.4583 34.796C33.4303 34.8029 33.3914 34.816 33.3948 34.7884C33.3968 34.7719 33.4727 34.6773 33.4901 34.6529C33.5404 34.583 33.4313 34.6711 33.4981 34.5922C33.5652 34.5129 33.6882 34.4137 33.7195 34.3505C33.6001 34.4688 33.4767 34.5894 33.3562 34.708C33.3247 34.6682 33.3287 34.5953 33.2881 34.5652C33.2829 34.5615 33.2235 34.6299 33.2163 34.6277C33.1861 34.6178 33.2143 34.5549 33.1757 34.5526C33.1457 34.5511 33.0603 34.6011 33.0266 34.6014C33.1524 34.4552 33.0815 34.4766 33.0761 34.4464C33.0741 34.4359 33.1109 34.4 33.1183 34.3836C33.1451 34.3227 33.0328 34.4509 33.0092 34.4652C32.9086 34.526 33.1789 34.2522 33.1489 34.2355C33.1474 34.2346 32.9872 34.3645 32.9761 34.3715C32.9041 34.4172 33.0245 34.3189 33.0269 34.2998C33.0312 34.2649 33.0552 34.2197 32.9949 34.2444C32.9772 34.2518 32.8744 34.3298 32.9343 34.2499C32.9421 34.2394 32.9908 34.1922 32.9925 34.1883C33.0202 34.1224 32.8688 34.2723 32.8068 34.3122C32.7447 34.3522 32.8316 34.2311 32.8581 34.1977C32.9266 34.1111 32.8982 34.1715 32.9063 34.1644C33.0026 34.0796 32.9746 34.0828 32.9728 34.0657C33.1191 33.9166 33.097 33.9123 32.9703 34.0485C32.9565 34.0635 32.9776 34.057 32.9728 34.0657C32.8195 34.2023 32.7866 34.2065 32.9057 34.0547C32.9616 33.9837 33.0427 33.9168 32.9927 33.9209C32.9701 33.9227 32.8724 34.0284 32.8355 34.047C32.7515 34.0895 32.8188 33.9671 32.7823 33.9604C32.769 33.958 32.721 34.0213 32.71 34.0216C32.6806 34.0225 32.7101 33.9684 32.6743 33.9754C32.671 33.9761 32.6159 34.0375 32.6107 34.0338C32.5698 34.0065 32.5785 33.9405 32.5439 33.9039C32.5272 33.8862 32.4652 33.8885 32.4537 33.8641C32.4339 33.8225 32.4814 33.7006 32.4345 33.6949C32.4043 33.691 32.3498 33.7531 32.3028 33.7855C32.2119 33.8485 32.3248 33.6857 32.3428 33.6609C32.3434 33.6601 32.3718 33.6611 32.3939 33.6233C32.4517 33.5564 32.3432 33.6608 32.3428 33.6609C32.3543 33.6449 32.3383 33.6024 32.3214 33.6078C32.3122 33.6108 32.2587 33.6677 32.2549 33.6682C32.1663 33.6785 32.1135 33.6537 32.0993 33.5879C32.0997 33.5861 32.1626 33.5254 32.1628 33.5219C32.1672 33.4714 32.0773 33.5326 32.0133 33.5583C31.9494 33.5841 31.9495 33.5541 32.0443 33.4369C32.0169 33.4362 32.043 33.3685 32.0597 33.3283C32.0764 33.2881 31.9545 33.4067 31.9511 33.408C31.8429 33.452 31.8926 33.364 31.8699 33.32C31.8593 33.2987 31.81 33.2844 31.7797 33.2804C31.7556 33.2774 31.7753 33.2408 31.7448 33.2463C31.7406 33.247 31.6888 33.3022 31.6862 33.3038C31.6081 33.3538 31.7458 33.2296 31.7662 33.2034C31.8407 33.1078 31.8796 33.0561 31.8216 33.0782C31.8083 33.0831 31.6077 33.2595 31.5891 33.2629C31.5653 33.2671 31.6366 33.2032 31.6099 33.2093C31.6077 33.2098 31.5662 33.2516 31.5617 33.2434C31.5403 33.206 31.5322 33.1495 31.4974 33.1231C31.4928 33.1193 31.4321 33.1908 31.4244 33.1864C31.3881 33.1658 31.3595 33.1323 31.3627 33.0737C31.3638 33.059 31.4143 33.017 31.4266 33.0018C31.5007 32.9096 31.367 33.0176 31.3626 33.0178C31.2538 33.0251 31.3244 32.8771 31.2208 32.8775C31.2149 32.8777 31.0638 32.9856 31.1652 32.8649C31.1715 32.8573 31.2638 32.7482 31.2036 32.7924C31.1997 32.7953 31.1952 32.7987 31.1899 32.803C31.1845 32.8073 31.132 32.8718 31.1276 32.8554C31.1231 32.839 31.0673 32.8614 31.1173 32.7828C31.1331 32.7581 31.2358 32.6341 31.1319 32.7109C31.1247 32.7163 30.8995 32.8998 31.0331 32.7514C31.0551 32.727 31.2055 32.5791 31.113 32.6395C31.0951 32.6512 31.0674 32.6901 31.0385 32.7028C30.994 32.7223 31.0175 32.6659 30.9357 32.717C30.9213 32.7261 30.8087 32.8161 30.8765 32.7301C30.8871 32.7166 30.9396 32.6696 30.9404 32.6592C30.9442 32.6095 30.8871 32.619 30.8982 32.5612C30.9021 32.5408 30.9869 32.4646 30.9999 32.4345C31.0129 32.4043 31.0165 32.3664 30.9707 32.3941C30.9249 32.4219 30.8062 32.5599 30.7825 32.5566C30.6794 32.5426 30.6966 32.409 30.6493 32.3393C30.6422 32.3289 30.6034 32.382 30.5897 32.3699C30.5393 32.3261 30.4143 32.2864 30.4716 32.148C30.5174 32.0371 30.6185 32.0198 30.6255 31.9629C30.6288 31.9356 30.4656 32.0706 30.4579 32.0723C30.3812 32.0906 30.4282 32.0051 30.382 31.999C30.3725 31.9978 30.3167 32.063 30.3092 32.0613C30.2831 32.0559 30.2944 32.0128 30.2746 32.0026C30.2655 31.9981 30.2201 32.0451 30.2176 32.0353C30.2111 32.0125 30.218 31.9803 30.2475 31.9229C30.2502 31.9177 30.3171 31.8699 30.3084 31.8567C30.2943 31.8355 30.3162 31.7716 30.2514 31.7944C30.232 31.8014 30.1248 31.9051 30.1859 31.8202C30.1987 31.8024 30.3306 31.681 30.2047 31.7737C30.1839 31.7892 30.0087 31.9086 30.0932 31.8022C30.1154 31.7742 30.2126 31.6637 30.1889 31.6724C30.1853 31.674 30.1315 31.7337 30.12 31.7331C30.0803 31.7296 30.0647 31.7011 30.0251 31.6961C30.0144 31.6949 29.9632 31.7613 29.9491 31.7576C29.9104 31.7476 29.8963 31.7023 29.8921 31.6603C29.8907 31.6447 29.9463 31.6034 29.9511 31.5976C30.0293 31.5034 29.9046 31.6106 29.8943 31.6136C29.8322 31.6315 29.8728 31.5622 29.839 31.5563C29.8299 31.5545 29.7767 31.6122 29.7706 31.6159C29.7102 31.6513 29.8204 31.5632 29.8249 31.5454C29.8378 31.4951 29.812 31.477 29.7855 31.4633C29.7757 31.4584 29.7174 31.5289 29.7093 31.5238C29.6603 31.4944 29.6272 31.446 29.6275 31.3726C29.6276 31.3585 29.6834 31.3159 29.6937 31.3035C29.7659 31.217 29.6394 31.3045 29.6253 31.3107C29.5613 31.339 29.601 31.2907 29.579 31.2838C29.471 31.2507 29.4201 31.1325 29.3776 31.0453C29.377 31.0441 29.3764 31.0429 29.3758 31.0417L29.347 31.0069C29.3033 30.8979 29.3003 30.7888 29.2209 30.7149C29.2158 30.7101 29.1469 30.7729 29.1415 30.7694C29.0765 30.7226 29.0589 30.6411 28.9903 30.5968C28.9848 30.5931 28.9209 30.6545 28.9098 30.6504C28.8868 30.6428 28.8738 30.6184 28.8833 30.5848C28.8877 30.5684 28.9558 30.5326 28.959 30.5171C28.9669 30.4811 28.9557 30.4566 28.9295 30.446C28.9182 30.4416 28.8568 30.5095 28.8477 30.4995C28.7837 30.432 28.7158 30.3704 28.7506 30.2255C28.753 30.2155 28.8938 30.098 28.8578 30.1091C28.8171 30.1397 28.7701 30.1766 28.727 30.2098C28.622 30.1234 28.5907 29.9808 28.5171 29.8733C28.514 29.8688 28.4441 29.9368 28.4378 29.9286C28.4005 29.8798 28.3432 29.8518 28.3794 29.744C28.3829 29.7334 28.5166 29.627 28.4854 29.6298C28.4799 29.6306 28.445 29.6241 28.4123 29.6429C28.4074 29.6458 28.3492 29.7004 28.3421 29.6955C28.3014 29.6658 28.2835 29.6166 28.2903 29.5505C28.2915 29.5398 28.3604 29.4895 28.3617 29.4813C28.3703 29.4229 28.2966 29.4376 28.3308 29.3617C28.3533 29.31 28.465 29.2145 28.5599 29.1048C28.5731 29.0892 28.5647 29.076 28.6238 29.0163C28.7723 28.8658 28.9434 28.7097 29.1011 28.5488C29.1351 28.514 29.0778 28.5306 29.1728 28.4599C29.1792 28.4551 29.222 28.443 29.2543 28.4192C29.2767 28.4028 29.3329 28.338 29.3638 28.3192C29.3948 28.3006 29.3489 28.3563 29.3877 28.337C29.4268 28.3173 29.4939 28.2466 29.5199 28.2575ZM32.1338 33.1481C32.1806 33.0794 31.9675 33.2893 32.0299 33.2505C32.0332 33.2484 32.1315 33.1515 32.1338 33.1481ZM33.4883 34.4359C33.5674 34.3284 33.4206 34.4559 33.3585 34.5379C33.2966 34.6199 33.4644 34.4685 33.4883 34.4359ZM33.7046 34.5159C33.7613 34.4255 33.4588 34.7228 33.5374 34.6802C33.5419 34.6778 33.7013 34.5211 33.7046 34.5159ZM28.6327 29.1219C28.6354 29.119 28.6303 29.1078 28.6273 29.1103C28.5537 29.1707 28.5634 29.1924 28.6327 29.1219ZM33.9255 34.5885C33.9609 34.5428 33.8991 34.5747 33.8551 34.6316C33.8197 34.6773 33.8815 34.6455 33.9255 34.5885ZM31.7899 32.3528C31.7929 32.3495 31.7894 32.3403 31.7717 32.3583C31.7147 32.4161 31.7397 32.4087 31.7899 32.3528ZM34.1787 34.8348C34.1529 34.7864 34.3784 34.5165 34.3906 34.5846C34.3928 34.5969 34.2959 34.6479 34.2828 34.6795C34.2591 34.7372 34.426 34.5929 34.3601 34.6937C34.348 34.7122 34.1796 34.8381 34.1783 34.8351C34.1784 34.835 34.1786 34.8349 34.1787 34.8348ZM32.3815 32.8878C32.3841 32.8848 32.3779 32.8733 32.375 32.8759C32.3031 32.9383 32.3154 32.9613 32.3815 32.8878ZM31.5514 31.8526C31.5569 31.8461 31.5422 31.8203 31.536 31.8251C31.4155 31.9241 31.4449 31.9768 31.5514 31.8526ZM33.1265 33.3232C33.2036 33.2652 33.2231 33.2688 33.1459 33.3613C33.1409 33.3473 33.1319 33.3369 33.1265 33.3232Z" fill="black"/>
<path d="M17.2934 34.6629C17.2886 34.6891 17.3085 34.6608 17.3264 34.6198C17.3318 34.6071 17.321 34.5551 17.3238 34.544C17.329 34.5224 17.3426 34.5464 17.3474 34.5203C17.3487 34.5114 17.3274 34.4301 17.3286 34.4228C17.3341 34.3836 17.3528 34.4004 17.36 34.3789C17.3922 34.2706 17.3459 34.2476 17.2899 34.2518C17.2871 34.252 17.2832 34.2513 17.2785 34.2501C17.2526 34.2427 17.2008 34.223 17.2088 34.2565C17.21 34.2611 17.2657 34.3093 17.2699 34.3137C17.3342 34.3813 17.2251 34.2801 17.2068 34.271C17.1346 34.2346 17.1116 34.2511 17.1191 34.2866C17.1222 34.302 17.2411 34.3881 17.1717 34.3431C17.167 34.34 17.1083 34.2882 17.1001 34.2849C17.0818 34.2776 17.0851 34.2957 17.0771 34.2956C17.0616 34.2951 17.0613 34.2967 17.0549 34.3032C17.0456 34.3117 17.0061 34.2988 17.0114 34.3206C17.0127 34.3254 17.0779 34.3723 17.0858 34.3844C17.0937 34.3963 17.0809 34.4015 17.0635 34.3931C17.046 34.3846 16.9976 34.3443 16.9858 34.3359C16.886 34.2654 17.0101 34.3809 17.0123 34.3849C17.0477 34.4552 16.9539 34.4192 16.9342 34.4453C16.9195 34.4652 16.9286 34.5056 16.9107 34.5219C16.8891 34.5411 16.8398 34.5341 16.8289 34.5608C16.8277 34.5635 16.9049 34.6179 16.9035 34.6214C16.8891 34.6586 16.8576 34.6829 16.7836 34.6749C16.7761 34.6741 16.7133 34.6198 16.7019 34.6159C16.6333 34.5935 16.4812 34.5231 16.7583 34.7544C16.7373 34.7586 16.7136 34.7655 16.6473 34.7323C16.6046 34.711 16.5389 34.6485 16.5623 34.6812C16.5675 34.6885 16.632 34.7343 16.635 34.7416C16.6477 34.7723 16.6166 34.7705 16.6387 34.8085C16.6433 34.8164 16.6996 34.8593 16.7091 34.8679C16.7854 34.9379 16.6429 34.843 16.6315 34.8375C16.5452 34.7975 16.5641 34.8324 16.5496 34.847C16.5462 34.8504 16.6241 34.9051 16.6235 34.9105C16.6194 34.9376 16.5974 34.952 16.55 34.9436C16.5392 34.9416 16.4792 34.887 16.4708 34.8834C16.4349 34.8682 16.5523 34.9663 16.5199 34.9537C16.5133 34.9512 16.4602 34.9065 16.4541 34.902C16.3574 34.8314 16.4854 34.9425 16.4872 34.9461C16.5138 34.9944 16.3687 34.8925 16.3757 34.9234C16.3766 34.9272 16.4477 34.979 16.4462 34.9864C16.4445 34.9953 16.4415 35.0033 16.4372 35.0103C16.4179 35.0426 16.3729 35.0547 16.3062 35.0442C16.2936 35.0423 16.2465 34.996 16.2401 34.991C16.139 34.9139 16.2656 35.0275 16.2691 35.0334C16.2929 35.0765 16.1743 34.9956 16.3206 35.1364C16.22 35.1456 16.26 35.2733 16.0767 35.208C16.0745 35.2074 16.012 35.1515 16.0079 35.1504C15.9584 35.1358 16.0598 35.2176 16.1715 35.332C16.1996 35.3607 16.0465 35.2439 16.0351 35.2355C15.9934 35.2044 15.9011 35.1205 15.8927 35.1149C15.8263 35.071 16.1406 35.3377 16.1323 35.3475C16.1316 35.3474 16.075 35.2968 16.0685 35.2928C16.0483 35.2799 16.0691 35.3021 16.0471 35.2876C15.9962 35.2542 15.8419 35.1263 15.923 35.211C15.9336 35.2219 16.113 35.3719 16.0972 35.3733C16.0908 35.3738 16.0807 35.3919 16.0654 35.3865C16.0502 35.3811 15.9952 35.3294 15.9924 35.3276C15.9063 35.2751 15.8785 35.244 15.7609 35.1547C15.6435 35.0658 15.9128 35.2903 15.9406 35.3179C15.9685 35.3455 15.8983 35.3011 15.8746 35.2849C15.851 35.2686 15.8166 35.2351 15.8026 35.2266C15.7109 35.1713 15.9311 35.3441 15.9702 35.3841C16.0627 35.4787 15.8575 35.3189 15.8303 35.3117C15.823 35.3097 15.8701 35.3457 15.8726 35.3514C15.8817 35.3735 15.815 35.3268 15.8639 35.3842C15.8719 35.3937 15.9858 35.5011 15.8933 35.4329C15.88 35.4231 15.8318 35.3797 15.8176 35.3741C15.7963 35.3656 15.7772 35.3666 15.789 35.3863C15.7977 35.4009 15.8843 35.4637 15.8541 35.4482C15.8407 35.4412 15.7962 35.397 15.7749 35.3872C15.7537 35.3775 15.7464 35.3907 15.7444 35.3966C15.7425 35.4024 15.8071 35.4513 15.811 35.4551C15.8334 35.477 15.8567 35.5102 15.856 35.5109C15.8331 35.5546 15.6987 35.5038 15.7041 35.5695C15.7044 35.5746 15.7727 35.6259 15.7735 35.6272C15.7934 35.6595 15.6222 35.5102 15.5571 35.4699C15.6935 35.5768 15.6657 35.5613 15.675 35.5801C15.6797 35.5893 15.7337 35.6291 15.7388 35.6337C15.8147 35.702 15.7088 35.6237 15.687 35.6079C15.6067 35.5498 15.6956 35.626 15.6418 35.5873C15.5885 35.5488 15.5163 35.4831 15.5118 35.4908C15.5589 35.5312 15.6901 35.6265 15.7067 35.648C15.769 35.7293 15.6416 35.6859 15.6184 35.6942C15.5959 35.7016 15.6011 35.7136 15.5763 35.7091C15.5314 35.7009 15.6313 35.7683 15.6669 35.8122C15.7026 35.8561 15.4719 35.6708 15.4203 35.6335C15.3687 35.5963 15.4193 35.6378 15.3902 35.6183C15.3611 35.5989 15.3298 35.5686 15.3161 35.5649C15.3024 35.5612 15.3832 35.6417 15.4349 35.6836C15.5444 35.7724 15.6659 35.857 15.6161 35.8366C15.6131 35.8354 15.5529 35.7861 15.5448 35.7838C15.482 35.7673 15.4633 35.7858 15.4061 35.7736C15.3982 35.7719 15.3309 35.7173 15.3255 35.7157C15.2686 35.6992 15.3897 35.7811 15.5124 35.8876C15.3415 35.7559 15.2321 35.6818 15.2213 35.694C15.215 35.7011 15.2914 35.7563 15.3409 35.8009C15.3558 35.8144 15.3 35.781 15.3348 35.8085C15.4485 35.8983 15.5822 35.9903 15.5209 35.9645C15.518 35.9632 15.4557 35.9141 15.4504 35.9132C15.4157 35.9071 15.5362 35.9991 15.5407 36.0238C15.544 36.0434 15.4562 36.0069 15.4349 36.0104C15.2398 35.8663 15.2758 35.9111 15.4071 36.0148C15.3957 36.0188 15.3968 36.0333 15.3726 36.0273C15.3643 36.0253 15.3088 35.9822 15.3025 35.978C15.2026 35.9129 15.3315 36.0123 15.3354 36.0178C15.372 36.0728 15.261 36.0158 15.3454 36.1048C15.3484 36.108 15.4842 36.2077 15.381 36.1405C15.3739 36.1359 15.3161 36.085 15.3051 36.09C15.2944 36.0948 15.2096 36.0579 15.2645 36.1153C15.2777 36.1291 15.3837 36.216 15.2927 36.1596C15.2803 36.1519 15.2417 36.1229 15.219 36.1084C15.1467 36.0621 15.2838 36.1633 15.163 36.0834C15.0423 36.0034 14.9475 35.9498 15.0203 36.0196C15.0224 36.0217 15.1303 36.1028 15.1259 36.1053C15.1188 36.1092 15.0898 36.1015 15.086 36.1083C15.0843 36.1116 15.154 36.1582 15.1549 36.1596C15.1789 36.2068 15.1071 36.179 15.0657 36.1815C15.0579 36.1819 15.1434 36.259 15.064 36.2148C14.9771 36.1665 14.6465 35.9212 14.7127 35.9975C14.7391 36.0282 15.1597 36.3376 14.9281 36.197C14.9642 36.2624 14.8326 36.2091 14.8917 36.2919C14.8943 36.2956 15.0114 36.3825 15.0079 36.3841C15.0023 36.3866 14.9446 36.3503 14.9388 36.3508C14.913 36.352 14.9529 36.3969 14.9368 36.4043C14.9308 36.4072 14.8739 36.3657 14.8667 36.3692C14.8596 36.3728 14.9334 36.429 14.8911 36.4115C14.859 36.3981 14.6983 36.2973 14.6748 36.2926C14.8289 36.3983 14.8222 36.4014 14.8566 36.4385C14.8633 36.4457 14.9183 36.4804 14.9243 36.4857C14.9496 36.5081 14.9029 36.4809 14.9308 36.5047C14.9375 36.5105 14.9903 36.5464 14.9987 36.5532C15.0727 36.6116 14.9477 36.54 14.926 36.5275C14.8433 36.4803 14.91 36.5298 14.8759 36.5135C14.8418 36.4972 14.8079 36.4639 14.7854 36.4567C14.7388 36.4417 14.7372 36.4625 14.7269 36.4724C14.7232 36.4765 14.7959 36.5211 14.797 36.5228C14.8087 36.5442 14.7271 36.5031 14.8643 36.6032C14.4959 36.3645 14.8958 36.6326 14.8138 36.5971C14.8072 36.5942 14.6341 36.4797 14.6116 36.4586C14.5891 36.4375 14.6471 36.4674 14.6116 36.4352C14.6032 36.4276 14.4472 36.3112 14.4381 36.3035C14.3674 36.2437 14.6253 36.416 14.6397 36.4251C14.7953 36.5231 14.6281 36.3965 14.6179 36.3857C14.5708 36.3368 14.6137 36.3514 14.581 36.3152C14.56 36.2917 14.3923 36.1769 14.4009 36.1754C14.4292 36.1703 14.6672 36.3243 14.4746 36.1705C14.4336 36.1377 14.248 36.0158 14.4002 36.1024C14.4098 36.1079 14.5479 36.1889 14.4681 36.1267C14.458 36.1189 14.4046 36.0824 14.4007 36.0784C14.3756 36.0528 14.4208 36.078 14.4047 36.0578C14.3887 36.0376 14.3635 36.0092 14.3865 36.0145C14.4002 36.0176 14.5034 36.0805 14.5291 36.0952C14.603 36.1377 14.4924 36.0525 14.5796 36.1074C14.6673 36.1626 14.792 36.2586 14.8533 36.2874C14.7152 36.1916 14.5736 36.0929 14.4348 35.9963C14.4539 35.9791 14.5132 35.9889 14.5215 35.9641C14.5223 35.9609 14.4463 35.9119 14.4453 35.9072C14.4417 35.8873 14.5016 35.914 14.4888 35.8875C14.4788 35.8665 14.4078 35.8011 14.395 35.7773C14.5568 35.8816 14.5135 35.8296 14.5353 35.8292C14.5429 35.829 14.5847 35.8588 14.6003 35.8658C14.6579 35.8917 14.5156 35.7984 14.4957 35.7803C14.4105 35.7029 14.7255 35.924 14.7275 35.9046C14.7277 35.9037 14.5666 35.7763 14.5571 35.7676C14.4947 35.7116 14.6163 35.8076 14.6321 35.8114C14.661 35.8185 14.7053 35.8407 14.6637 35.7956C14.6514 35.7823 14.5524 35.7009 14.6371 35.7524C14.6482 35.7591 14.7031 35.7989 14.7067 35.8006C14.7686 35.8279 14.5952 35.7041 14.5413 35.6555C14.4873 35.6069 14.6142 35.6823 14.6501 35.705C14.7431 35.7635 14.6853 35.7363 14.6938 35.7429C14.7955 35.8208 14.7828 35.8007 14.7956 35.8015C14.9659 35.9223 14.9612 35.9074 14.8081 35.8018C14.7914 35.7902 14.8041 35.8059 14.7956 35.8015C14.6325 35.6772 14.6175 35.6531 14.7796 35.7556C14.8556 35.8037 14.9376 35.8689 14.916 35.8334C14.9062 35.8174 14.7879 35.7356 14.7599 35.7074C14.6959 35.6433 14.8167 35.7052 14.8086 35.6804C14.8057 35.6713 14.7387 35.6295 14.7346 35.6217C14.7233 35.6008 14.7764 35.6283 14.758 35.6022C14.7562 35.5998 14.6883 35.5531 14.6893 35.5499C14.6956 35.525 14.7513 35.5382 14.7675 35.5187C14.7754 35.5092 14.7516 35.4648 14.7666 35.4599C14.7925 35.4508 14.9048 35.5006 14.8926 35.4683C14.8849 35.4474 14.8173 35.4002 14.7755 35.3623C14.6946 35.2888 14.8617 35.391 14.8872 35.4073C14.8881 35.4078 14.8972 35.428 14.9344 35.4489C15.0069 35.4992 14.8875 35.4076 14.8872 35.4073C14.9038 35.4177 14.9315 35.412 14.9214 35.3992C14.9159 35.3922 14.8529 35.3461 14.8512 35.3434C14.8122 35.279 14.8145 35.2432 14.861 35.2425C14.8625 35.2431 14.9315 35.2968 14.9343 35.2974C14.9752 35.3079 14.8967 35.2346 14.8551 35.1846C14.8135 35.1347 14.8372 35.1388 14.9608 35.2241C14.9522 35.2042 15.0136 35.2333 15.0506 35.2512C15.0877 35.269 14.9543 35.1636 14.9521 35.161C14.8821 35.0758 14.9673 35.1248 14.9942 35.1151C15.0074 35.1104 15.0026 35.0767 14.9959 35.0552C14.9904 35.0381 15.0253 35.0582 15.0111 35.0352C15.0092 35.0321 14.9491 34.9859 14.9471 34.9838C14.8827 34.9192 15.0244 35.0384 15.0516 35.0573C15.1505 35.1261 15.2035 35.1624 15.1675 35.1168C15.1593 35.1064 14.9568 34.9329 14.9482 34.9187C14.9373 34.9006 15.0101 34.9626 14.9968 34.9422C14.9957 34.9405 14.9497 34.9037 14.9546 34.9017C14.9772 34.8916 15.0192 34.8943 15.0287 34.8732C15.0302 34.8705 14.9552 34.8146 14.9561 34.8096C14.961 34.786 14.9787 34.7699 15.0253 34.7821C15.0371 34.7852 15.0856 34.8292 15.1013 34.8407C15.1963 34.9103 15.0706 34.7942 15.0691 34.7909C15.0299 34.7094 15.1673 34.786 15.135 34.7099C15.1329 34.7057 15.0031 34.5755 15.128 34.671C15.1363 34.6773 15.2638 34.7754 15.1837 34.6999C15.1787 34.6952 15.1126 34.6452 15.124 34.6448C15.1354 34.6444 15.1009 34.5995 15.1772 34.6501C15.2013 34.666 15.3287 34.7636 15.2376 34.6735C15.2311 34.6673 15.0208 34.4686 15.1762 34.5936C15.2018 34.6141 15.3619 34.7515 15.287 34.6726C15.2725 34.6573 15.234 34.6299 15.2155 34.6063C15.187 34.57 15.2377 34.5975 15.1735 34.5281C15.162 34.5158 15.0586 34.4165 15.1454 34.4822C15.159 34.4925 15.2112 34.5398 15.2195 34.5422C15.2591 34.5541 15.2345 34.5104 15.2822 34.5297C15.299 34.5365 15.3834 34.6129 15.4105 34.6282C15.4377 34.6434 15.4679 34.6532 15.4326 34.6145C15.3972 34.5758 15.2552 34.4626 15.2504 34.4459C15.2297 34.3734 15.3366 34.4124 15.3742 34.3926C15.3798 34.3896 15.3274 34.351 15.3321 34.3436C15.3493 34.3163 15.3376 34.2364 15.4595 34.3059C15.5575 34.3613 15.6043 34.4361 15.6492 34.4527C15.6708 34.4604 15.515 34.3179 15.5111 34.3122C15.4711 34.255 15.5507 34.3055 15.5389 34.2749C15.5364 34.2685 15.4686 34.2163 15.4672 34.2115C15.4662 34.2083 15.4667 34.2063 15.4682 34.2052C15.4744 34.2003 15.4977 34.2093 15.498 34.2001C15.498 34.1948 15.4471 34.1539 15.4534 34.1542C15.4677 34.1546 15.494 34.1659 15.547 34.1978C15.5518 34.2007 15.6112 34.2564 15.6178 34.253C15.6284 34.2475 15.6839 34.2749 15.6435 34.2257C15.6313 34.2109 15.5153 34.1171 15.6005 34.1756C15.6183 34.1878 15.7565 34.3019 15.6419 34.1974C15.6229 34.1799 15.4698 34.037 15.5797 34.1151C15.6086 34.1357 15.7265 34.2231 15.7114 34.2052C15.7089 34.2024 15.6447 34.1543 15.6409 34.1465C15.6287 34.1198 15.6442 34.1141 15.6329 34.0878C15.6298 34.0807 15.5614 34.0335 15.5588 34.0245C15.5516 33.9998 15.5796 33.9983 15.6092 34.0027C15.6202 34.0044 15.672 34.0497 15.6782 34.054C15.778 34.1239 15.6509 34.0197 15.6447 34.0122C15.6076 33.9665 15.6746 34.006 15.666 33.9837C15.6638 33.9777 15.6005 33.9316 15.5954 33.9268C15.5458 33.8795 15.6537 33.9698 15.6687 33.9758C15.7109 33.9929 15.7145 33.978 15.7143 33.9618C15.7142 33.9558 15.6391 33.9045 15.6398 33.8998C15.6424 33.8708 15.6649 33.8557 15.7196 33.8666C15.73 33.8687 15.7838 33.9135 15.7971 33.9224C15.8899 33.985 15.7747 33.8847 15.7646 33.8741C15.7181 33.8257 15.7697 33.86 15.766 33.8458C15.7472 33.7757 15.8136 33.756 15.8603 33.7365C15.9208 33.7108 16.001 33.7153 16.0225 33.6595C16.0239 33.656 15.9482 33.6019 15.9485 33.5981C15.9561 33.5518 16.0102 33.5417 16.017 33.4904C16.0176 33.4863 15.9456 33.4352 15.9444 33.4267C15.9417 33.4086 15.9554 33.3994 15.9852 33.4074C15.9996 33.4111 16.053 33.4654 16.0663 33.4683C16.0974 33.475 16.1117 33.4675 16.1107 33.4466C16.1101 33.4376 16.0346 33.3875 16.0393 33.3802C16.0698 33.3298 16.1004 33.2706 16.2355 33.2975C16.2449 33.2993 16.3804 33.4227 16.3619 33.3913C16.3258 33.3555 16.2826 33.314 16.2438 33.276C16.2516 33.2616 16.2621 33.2476 16.2737 33.2351C16.3416 33.1626 16.4546 33.1247 16.5725 33.0581C16.5786 33.0546 16.5156 32.9797 16.5276 32.9723C16.5951 32.9307 16.6685 32.8609 16.7961 32.9146C16.8086 32.9199 16.8654 33.0809 16.8796 33.0481C16.882 33.0421 16.9108 33.0082 16.9103 32.9698C16.9101 32.964 16.879 32.8901 16.8917 32.8838C16.9666 32.8482 17.0592 32.8496 17.1313 32.8913C17.1429 32.8981 17.1404 32.9837 17.1483 32.9894C17.2016 33.0292 17.2449 32.9636 17.2763 33.0403C17.2961 33.092 17.2897 33.2389 17.2987 33.3833C17.3 33.4037 17.3091 33.4069 17.3095 33.4909C17.3107 33.7023 17.3068 33.9337 17.3086 34.159C17.3088 34.2075 17.32 34.1553 17.3134 34.2725C17.3128 34.2804 17.3052 34.3193 17.3038 34.3591C17.3028 34.3866 17.3049 34.4721 17.3028 34.5073C17.3008 34.5425 17.2983 34.4708 17.296 34.5122C17.2941 34.5541 17.2953 34.6513 17.2934 34.6629ZM15.2162 35.3313C15.2853 35.3755 15.0506 35.1902 15.1016 35.241C15.1044 35.2437 15.2128 35.3292 15.2162 35.3313ZM14.6984 36.1178C14.8126 36.1846 14.6572 36.0684 14.5694 36.0162C14.4817 35.9641 14.6638 36.0975 14.6984 36.1178ZM14.7185 36.2584C14.8109 36.3076 14.4623 36.0659 14.5258 36.1249C14.5294 36.1283 14.7131 36.2555 14.7185 36.2584ZM17.2586 33.425C17.2589 33.4289 17.2666 33.4326 17.2667 33.4287C17.2691 33.3336 17.2524 33.3263 17.2586 33.425ZM14.7469 36.4027C14.7964 36.4319 14.7475 36.386 14.686 36.3496C14.6365 36.3204 14.6853 36.3663 14.7469 36.4027ZM15.7181 35.2183C15.7216 35.2211 15.7275 35.2203 15.7081 35.2042C15.6457 35.1524 15.6593 35.1718 15.7181 35.2183ZM14.653 36.5506C14.6809 36.5376 14.9804 36.7201 14.932 36.7213C14.9232 36.7216 14.8453 36.65 14.8155 36.6378C14.761 36.6156 14.9394 36.7446 14.8347 36.6892C14.8155 36.679 14.6508 36.5509 14.6527 36.5503C14.6528 36.5504 14.6529 36.5505 14.653 36.5506ZM15.5018 35.5492C15.5051 35.5515 15.5118 35.5491 15.5088 35.5465C15.4361 35.4854 15.4225 35.4904 15.5018 35.5492ZM16.0254 35.1423C16.032 35.1475 16.0472 35.142 16.0416 35.1366C15.9287 35.0296 15.8976 35.0407 16.0254 35.1423ZM15.4296 36.0068C15.5026 36.0687 15.5071 36.0816 15.4073 36.0149C15.4163 36.0133 15.421 36.0086 15.4296 36.0068Z" fill="black"/>
<path d="M35.9396 11.4268C35.85 11.4454 35.7661 11.4064 35.7111 11.3605C35.6937 11.3462 35.7101 11.295 35.6988 11.2828C35.6767 11.259 35.6507 11.2817 35.6302 11.2541C35.6236 11.2447 35.6446 11.1629 35.6374 11.1549C35.5977 11.1121 35.5543 11.1277 35.5135 11.1044C35.3135 10.9891 35.1184 10.9376 34.9137 10.8908C34.8515 10.8765 34.7767 10.8083 34.7091 10.8252C34.7119 10.8265 34.7148 10.8283 34.7178 10.8306C34.7227 10.8343 34.7246 10.908 34.726 10.914C34.7564 11.0048 34.7352 10.8571 34.7404 10.8363C34.7641 10.7515 34.7465 10.7434 34.7558 10.7747C34.7593 10.7879 34.8596 10.8947 34.8024 10.8356C34.7983 10.8318 34.747 10.7727 34.7397 10.7681C34.723 10.7578 34.7233 10.7775 34.7146 10.778C34.6972 10.779 34.6962 10.7815 34.687 10.7915C34.6741 10.8047 34.6267 10.8041 34.6276 10.8358C34.6282 10.8425 34.6996 10.8797 34.7069 10.8936C34.7143 10.9074 34.6977 10.922 34.6773 10.9196C34.6571 10.9169 34.6038 10.8831 34.5905 10.8773C34.4776 10.8288 34.6115 10.9369 34.6141 10.9411C34.647 11.0326 34.535 11.0493 34.5086 11.1183C34.4892 11.17 34.4997 11.237 34.4795 11.2867C34.4691 11.3119 34.4529 11.3338 34.4371 11.3555C34.4163 11.3821 34.3963 11.4085 34.3934 11.4405C34.3928 11.4462 34.4863 11.4606 34.4858 11.4673C34.4814 11.5385 34.4639 11.5923 34.4 11.6477C34.3935 11.6535 34.3107 11.6456 34.2993 11.6521C34.2292 11.6843 34.0801 11.8017 34.4373 11.7411C34.4272 11.7607 34.4178 11.7802 34.3569 11.8234C34.3183 11.8521 34.2305 11.8766 34.2729 11.8771C34.2822 11.877 34.3521 11.8399 34.3604 11.8413C34.3942 11.8454 34.3827 11.8762 34.4265 11.8673C34.4355 11.8652 34.4921 11.8227 34.5028 11.8157C34.5877 11.757 34.4596 11.8699 34.4539 11.8823C34.4013 11.9625 34.4466 11.9558 34.4668 11.9747C34.4716 11.9793 34.5249 11.9001 34.531 11.9013C34.5614 11.9078 34.5822 11.9311 34.5943 11.9854C34.5972 11.9978 34.5524 12.0658 34.5521 12.0755C34.5527 12.1181 34.6243 11.9828 34.6256 12.02C34.6262 12.0278 34.595 12.0897 34.5925 12.097C34.5533 12.2106 34.6329 12.0605 34.6364 12.058C34.647 12.0516 34.6537 12.0531 34.6581 12.0597C34.674 12.0855 34.6585 12.1971 34.6965 12.1888C34.7021 12.1873 34.7201 12.1008 34.7337 12.1016C34.8237 12.1061 34.9101 12.1521 34.9929 12.2395C35.0057 12.2529 34.9828 12.3157 34.9822 12.3238C34.9746 12.4516 35.0161 12.2862 35.022 12.2808C35.068 12.2422 35.0838 12.3892 35.1402 12.1927C35.2962 12.2868 35.4711 12.1874 35.6337 12.3753C35.6358 12.3774 35.6286 12.461 35.6329 12.465C35.685 12.5139 35.6794 12.3834 35.7174 12.2251C35.7267 12.1853 35.7492 12.3781 35.7515 12.3922C35.7593 12.4443 35.7482 12.5687 35.7509 12.5788C35.7746 12.6582 35.7764 12.246 35.8076 12.2461C35.8086 12.2468 35.8038 12.3227 35.8064 12.3302C35.8146 12.354 35.8231 12.3239 35.8311 12.35C35.8495 12.4105 35.857 12.6109 35.886 12.4942C35.8896 12.479 35.8829 12.2452 35.911 12.256C35.9224 12.2606 35.9721 12.2558 35.9864 12.2705C36.0007 12.2853 35.993 12.3609 35.994 12.3641C36.035 12.4628 36.0216 12.5044 36.046 12.6513C36.071 12.7975 36.0537 12.4473 36.0602 12.408C36.0666 12.3687 36.0979 12.4498 36.1063 12.478C36.1146 12.5063 36.1078 12.5545 36.1148 12.5704C36.1618 12.6741 36.1252 12.3958 36.136 12.3396C36.1602 12.2065 36.1987 12.4647 36.2302 12.4882C36.2386 12.4946 36.2284 12.4359 36.235 12.4299C36.2611 12.407 36.2843 12.4867 36.3101 12.4101C36.3145 12.3976 36.3263 12.2398 36.3525 12.3527C36.3563 12.3689 36.3552 12.434 36.3684 12.4474C36.3882 12.4676 36.4214 12.4786 36.4386 12.4551C36.451 12.4377 36.4239 12.3332 36.4449 12.3643C36.4542 12.3782 36.4463 12.4419 36.4635 12.4628C36.4806 12.4837 36.5181 12.4766 36.5323 12.4727C36.5464 12.4688 36.5286 12.3894 36.5291 12.3838C36.5323 12.352 36.5538 12.3099 36.556 12.3096C36.671 12.2845 36.8051 12.4001 36.9093 12.3297C36.9172 12.3244 36.892 12.2426 36.893 12.2409C36.9138 12.1992 36.943 12.4256 36.9832 12.4941C36.9388 12.3265 36.9591 12.3539 36.9753 12.3301C36.983 12.3185 36.9605 12.255 36.9597 12.2482C36.9576 12.2294 36.9573 12.2183 36.9582 12.2128C36.9627 12.1883 36.9938 12.2749 37.0019 12.2955C37.0385 12.3881 37.0174 12.2725 37.0422 12.3342C37.0674 12.3952 37.0785 12.4935 37.0993 12.4861C37.0875 12.4249 37.0265 12.274 37.0339 12.2443C37.058 12.1342 37.1934 12.2193 37.2417 12.2109C37.2878 12.204 37.295 12.1869 37.3279 12.1945C37.389 12.2062 37.3135 12.1108 37.3049 12.0514C37.2938 11.9929 37.4491 12.2447 37.4878 12.2954C37.5274 12.3454 37.4952 12.2882 37.5201 12.3134C37.5454 12.3383 37.5584 12.382 37.5789 12.3836C37.6005 12.3847 37.5658 12.2686 37.526 12.2149C37.444 12.0999 37.3401 11.9942 37.3922 12.0181C37.3954 12.0194 37.4427 12.0813 37.4525 12.0831C37.5304 12.0942 37.5705 12.056 37.6449 12.0368C37.6554 12.034 37.725 12.0859 37.7322 12.0843C37.8091 12.0629 37.6729 12.0053 37.5368 11.9157C37.7281 12.0149 37.8553 12.0586 37.8756 12.0106C37.8868 11.9828 37.7961 11.9559 37.7377 11.921C37.7199 11.9112 37.7868 11.913 37.7448 11.898C37.6072 11.8516 37.4478 11.8219 37.516 11.8136C37.5193 11.813 37.5959 11.8337 37.6016 11.8303C37.6385 11.8054 37.4892 11.778 37.4731 11.7528C37.4606 11.7341 37.5533 11.6943 37.5656 11.6605C37.8077 11.6441 37.7486 11.6081 37.5811 11.6178C37.583 11.6081 37.5813 11.5982 37.5807 11.5882C37.58 11.5763 37.5808 11.5642 37.5909 11.5506C37.5973 11.5421 37.667 11.5329 37.6743 11.5306C37.7879 11.4914 37.6263 11.5146 37.6192 11.512C37.5478 11.478 37.6526 11.3991 37.5218 11.3922C37.517 11.3918 37.3585 11.4488 37.4692 11.3938C37.4767 11.3897 37.5543 11.3778 37.5513 11.3537C37.5489 11.3309 37.6124 11.25 37.5269 11.2533C37.5061 11.2535 37.3762 11.2997 37.4634 11.2363C37.4752 11.2275 37.519 11.2068 37.5411 11.1913C37.6112 11.1408 37.4595 11.2183 37.5796 11.1366C37.6997 11.0551 37.7759 10.9701 37.6694 10.9888C37.6661 10.9892 37.5477 11.0545 37.5433 11.044C37.5362 11.0267 37.5442 10.9888 37.5317 10.9733C37.5258 10.9659 37.4617 11.0203 37.4595 11.0199C37.3869 11.0008 37.4199 10.923 37.3972 10.8513C37.3925 10.8373 37.2888 10.8947 37.3348 10.814C37.3829 10.7239 37.6859 10.4422 37.5608 10.4626C37.5063 10.4678 37.1601 10.8585 37.2877 10.617C37.2483 10.6173 37.2244 10.5994 37.2024 10.5766C37.1623 10.5346 37.1237 10.4735 37.0446 10.5081C37.0388 10.5103 36.9729 10.6407 36.9663 10.636C36.9562 10.6286 36.9733 10.5624 36.9658 10.5549C36.9346 10.5219 36.8826 10.567 36.8494 10.549C36.8364 10.5423 36.8585 10.4752 36.8419 10.4671C36.8249 10.4591 36.794 10.5472 36.7803 10.4987C36.7702 10.4619 36.7854 10.2719 36.7616 10.2456C36.7302 10.4299 36.7139 10.4232 36.6781 10.468C36.6713 10.4768 36.6683 10.542 36.6647 10.5495C36.6501 10.5813 36.6475 10.5266 36.6333 10.5617C36.6299 10.5701 36.6222 10.6335 36.6191 10.644C36.5931 10.7355 36.5828 10.5901 36.5799 10.5648C36.5706 10.4685 36.5545 10.5505 36.5437 10.5122C36.5324 10.4738 36.5575 10.4288 36.5422 10.4049C36.5102 10.3554 36.4632 10.3632 36.4273 10.359C36.4129 10.3576 36.4196 10.4432 36.4175 10.4449C36.3879 10.4655 36.3601 10.3742 36.3406 10.5435C36.3288 10.1044 36.3224 10.5857 36.2828 10.4974C36.2797 10.4902 36.2775 10.2826 36.2908 10.2523C36.3041 10.222 36.3228 10.2872 36.3417 10.24C36.346 10.229 36.3755 10.0351 36.3796 10.0234C36.4101 9.93212 36.4044 10.2423 36.4051 10.2594C36.4146 10.4436 36.4519 10.2354 36.4613 10.2213C36.5018 10.1568 36.5317 10.2023 36.5673 10.1576C36.5907 10.1287 36.6102 9.92649 36.628 9.93433C36.6892 9.96086 36.6712 10.244 36.7615 10.0086C36.7814 9.95868 36.8028 9.73705 36.8231 9.91722C36.825 9.92866 36.8302 10.0916 36.8687 9.9963C36.8736 9.98428 36.886 9.92077 36.8905 9.91612C36.9208 9.8863 36.9257 9.94003 36.9566 9.92178C36.9876 9.90358 37.0291 9.87603 37.0539 9.90576C37.0691 9.92362 37.0575 10.046 37.0565 10.0766C37.053 10.1645 37.1214 10.0405 37.1019 10.1428C37.0801 10.2449 37.0049 10.3848 37.0115 10.4583C37.0708 10.301 37.1338 10.1403 37.1956 9.98295C37.2834 10.0223 37.3456 10.1116 37.431 10.1533C37.4418 10.1585 37.4772 10.0743 37.4905 10.0782C37.4952 10.0796 37.4995 10.0815 37.5035 10.0837C37.5487 10.1086 37.5563 10.1768 37.6111 10.1877C37.6574 10.1966 37.755 10.1518 37.8074 10.1648C37.7042 10.3294 37.7937 10.3221 37.8152 10.3685C37.8225 10.3843 37.7853 10.4198 37.7812 10.4395C37.7657 10.5125 37.8746 10.3808 37.9024 10.3711C38.023 10.3328 37.7413 10.595 37.7819 10.6278C37.7835 10.629 37.965 10.5267 37.9789 10.5237C38.0653 10.4984 37.9267 10.5726 37.9275 10.5981C37.9287 10.6447 37.9034 10.6927 37.9771 10.6929C37.9984 10.6923 38.1226 10.6473 38.0537 10.7228C38.0446 10.7326 37.9868 10.7681 37.9848 10.7724C37.9534 10.8458 38.1344 10.734 38.2115 10.7222C38.289 10.7111 38.1834 10.8236 38.1497 10.8506C38.064 10.9225 38.1005 10.8583 38.0904 10.8624C37.972 10.913 38.0054 10.9273 38.006 10.9516C37.8231 11.0526 37.8464 11.0703 38.0072 10.9763C38.0247 10.9658 37.9996 10.9599 38.006 10.9516C38.1956 10.8716 38.2389 10.8983 38.0819 11.0146C38.0079 11.0685 37.9065 11.0975 37.9613 11.1268C37.986 11.1405 38.1149 11.076 38.1596 11.0813C38.2625 11.0958 38.1598 11.2062 38.1945 11.248C38.2074 11.264 38.2773 11.2231 38.2888 11.2338C38.3198 11.2631 38.2711 11.3093 38.309 11.3376C38.3125 11.3402 38.3908 11.3129 38.3946 11.3244C38.4096 11.3677 38.4074 11.4125 38.4022 11.4574C38.397 11.5023 38.3891 11.5479 38.3922 11.5983C38.3958 11.6455 38.4431 11.7377 38.43 11.7953C38.4096 11.8966 38.27 11.9942 38.2726 12.0808C38.2733 12.1397 38.3544 12.1553 38.3979 12.2003C38.4805 12.293 38.26 12.3013 38.2293 12.2931C38.2286 12.2928 38.2334 12.2395 38.1838 12.2443C38.0986 12.2176 38.2294 12.2921 38.2293 12.2931C38.2091 12.2918 38.1438 12.3666 38.1452 12.3907C38.1464 12.4043 38.2144 12.4432 38.2136 12.4497C38.1927 12.6056 38.0989 12.7308 37.9761 12.7819C37.9734 12.782 37.9212 12.7119 37.9157 12.7129C37.8375 12.7252 37.8664 12.8349 37.8507 12.9203C37.8355 13.005 37.7809 13.011 37.6843 12.8926C37.6583 12.9281 37.5806 12.8921 37.5375 12.8674C37.4953 12.8424 37.5598 12.9996 37.5585 13.0038C37.522 13.1364 37.4406 13.0629 37.3599 13.074C37.3221 13.0789 37.2583 13.1238 37.2243 13.152C37.2195 13.1561 37.2145 13.1584 37.2095 13.1596C37.1879 13.1645 37.1663 13.1463 37.1488 13.1721C37.1459 13.1763 37.1677 13.249 37.1672 13.2521C37.1568 13.3478 37.1288 13.1641 37.1148 13.1335C37.0649 13.0217 37.0388 12.9622 37.0141 13.0254C37.0084 13.0399 37.0386 13.3059 37.0246 13.3246C37.0072 13.3483 36.9967 13.253 36.979 13.28C36.9775 13.2822 36.989 13.34 36.9748 13.3401C36.9097 13.341 36.8365 13.3184 36.7739 13.3335C36.7653 13.3354 36.79 13.4263 36.7777 13.4304C36.7194 13.4501 36.6536 13.455 36.5916 13.4179C36.5765 13.4084 36.578 13.3424 36.5729 13.3234C36.542 13.2085 36.5343 13.3811 36.53 13.3848C36.4341 13.4769 36.343 13.329 36.2448 13.4084C36.2397 13.4131 36.2049 13.5984 36.1777 13.4423C36.1757 13.432 36.1497 13.2723 36.1375 13.3828C36.1367 13.3897 36.1522 13.4719 36.1308 13.4643C36.1096 13.4567 36.0774 13.5132 36.046 13.4231C36.0359 13.3947 36.0112 13.235 35.9872 13.3633C35.9862 13.3723 35.9481 13.6619 35.9304 13.4627C35.9275 13.4299 35.9279 13.219 35.8971 13.3274C35.8912 13.3484 35.9026 13.3954 35.8866 13.4248C35.8617 13.4702 35.8289 13.4137 35.7973 13.5075C35.792 13.5241 35.7669 13.667 35.7496 13.5581C35.747 13.541 35.7535 13.4707 35.7439 13.4626C35.6986 13.4241 35.6491 13.47 35.6038 13.4195C35.5879 13.4018 35.6006 13.2884 35.5849 13.2572C35.5692 13.2261 35.5372 13.1952 35.5168 13.2463C35.4963 13.2973 35.5066 13.4796 35.4783 13.4926C35.3542 13.5489 35.2418 13.4328 35.1233 13.4033C35.1054 13.3989 35.1129 13.4652 35.0858 13.4631C34.9878 13.4568 34.7978 13.488 34.7347 13.3334C34.6861 13.2104 34.7916 13.1466 34.7484 13.0915C34.7287 13.0654 34.6545 13.2648 34.6459 13.2696C34.5669 13.3204 34.5443 13.218 34.479 13.2291C34.4649 13.2312 34.4534 13.3169 34.4414 13.3177C34.3996 13.321 34.373 13.2726 34.3338 13.2667C34.3164 13.2643 34.2981 13.3271 34.2843 13.317C34.252 13.2936 34.2258 13.2545 34.2129 13.1833C34.2119 13.1769 34.2635 13.1101 34.2384 13.0967C34.2363 13.0956 34.2343 13.0943 34.2323 13.093C34.1924 13.0664 34.166 12.9983 34.0917 13.0271C34.0686 13.0364 33.9994 13.1689 34.0129 13.0593C34.0157 13.0363 34.1112 12.8846 33.9982 12.9987C33.9821 13.0196 33.8015 13.1555 33.8402 13.0192C33.8501 12.9833 33.9111 12.8476 33.8807 12.8542C33.876 12.8554 33.8398 12.928 33.8197 12.9233C33.7487 12.9045 33.6953 12.8504 33.6224 12.8163C33.6023 12.8066 33.5686 12.8891 33.5396 12.8718C33.4599 12.825 33.3951 12.7184 33.3631 12.6278C33.3513 12.5942 33.4213 12.5742 33.4259 12.5677C33.5047 12.4683 33.3571 12.5419 33.3412 12.5347C33.2482 12.4943 33.2856 12.4003 33.2367 12.3419C33.2233 12.3253 33.1577 12.3704 33.1497 12.3694C33.069 12.355 33.2114 12.3301 33.2151 12.299C33.2267 12.2127 33.1964 12.1402 33.169 12.0726C33.159 12.0478 33.0781 12.099 33.0699 12.0755C33.0198 11.9354 33.0145 11.7857 33.0639 11.6643C33.0733 11.6415 33.1433 11.6557 33.1593 11.651C33.2708 11.6213 33.1199 11.5754 33.106 11.5632C33.0421 11.5126 33.1053 11.4978 33.0974 11.4573C33.0649 11.2885 33.1242 11.1156 33.1844 10.9915C33.1956 10.9695 33.207 10.9479 33.2177 10.9276C33.3013 10.7689 33.4094 10.664 33.4695 10.4902C33.4736 10.4791 33.3841 10.4509 33.3867 10.4406C33.4247 10.3069 33.5227 10.1983 33.6023 10.041C33.6092 10.0279 33.5252 9.99361 33.5345 9.97028C33.5535 9.92149 33.6006 9.86999 33.6604 9.84528C33.6893 9.83326 33.7207 9.91153 33.7481 9.89921C33.8115 9.87161 33.866 9.82627 33.9155 9.76668C33.9373 9.74062 33.84 9.70376 33.8747 9.67417C34.046 9.52084 34.3723 9.34956 34.713 9.40249C34.7453 9.41724 34.7764 9.4378 34.8082 9.46601C34.8174 9.4742 34.8219 9.65755 34.8415 9.62284C34.8441 9.57203 34.8454 9.51222 34.8473 9.45789C35.0425 9.43308 35.2302 9.50953 35.415 9.53832C35.4227 9.53952 35.419 9.44153 35.4343 9.44337C35.5231 9.45398 35.6124 9.43756 35.6865 9.54444C35.6939 9.55492 35.6677 9.72375 35.6958 9.70138C35.7007 9.69725 35.7412 9.67965 35.7555 9.64417C35.7575 9.6388 35.7614 9.55888 35.7736 9.55816C35.8448 9.55552 35.9122 9.58333 35.9664 9.6395C35.9752 9.64872 35.9538 9.73157 35.96 9.73887C36.0045 9.79007 36.0606 9.73155 36.0855 9.81066C36.1027 9.86389 36.0849 10.0098 36.0917 10.1548C36.0929 10.1753 36.108 10.179 36.1076 10.263C36.1073 10.4744 36.0895 10.7055 36.0899 10.9309C36.0899 10.9796 36.1391 10.9276 36.1094 11.0447C36.1073 11.0527 36.0697 11.0908 36.0601 11.1301C36.0529 11.1574 36.061 11.2433 36.0465 11.2779C36.0314 11.3125 36.0216 11.2402 35.9996 11.2803C35.9773 11.3207 35.9786 11.4184 35.9396 11.4268ZM37.3558 12.7485C37.3053 12.6803 37.4054 12.9622 37.4064 12.8854C37.4063 12.8813 37.3584 12.7518 37.3558 12.7485ZM37.2408 10.3146C37.2077 10.4459 37.3201 10.2867 37.3471 10.1853C37.371 10.0826 37.2491 10.2741 37.2408 10.3146ZM36.9063 10.2925C36.9115 10.4013 37.031 9.99428 36.9672 10.0662C36.9635 10.0702 36.9058 10.2862 36.9063 10.2925ZM36.0167 10.1903C36.0166 10.1943 36.0302 10.1995 36.0308 10.1956C36.0465 10.1017 36.0208 10.0915 36.0167 10.1903ZM36.6076 10.3482C36.6114 10.4061 36.6459 10.3433 36.6417 10.2711C36.6377 10.2129 36.6022 10.2759 36.6076 10.3482ZM36.2403 12.6339C36.2397 12.6294 36.2282 12.6261 36.23 12.6513C36.2358 12.7322 36.2502 12.7084 36.2403 12.6339ZM36.1549 10.3374C36.221 10.3534 36.2581 10.7039 36.1883 10.6642C36.1755 10.657 36.216 10.5525 36.1999 10.5209C36.17 10.4633 36.1501 10.6833 36.1195 10.5654C36.114 10.5438 36.1512 10.3357 36.155 10.3369C36.155 10.337 36.155 10.3372 36.1549 10.3374ZM37.217 12.417C37.2152 12.4134 37.1992 12.4153 37.2003 12.4191C37.2245 12.5114 37.2582 12.5071 37.217 12.417ZM35.5901 12.4553C35.5897 12.4469 35.555 12.4373 35.5535 12.445C35.5266 12.5991 35.5987 12.619 35.5901 12.4553ZM37.572 11.6595C37.4757 11.6536 37.4634 11.6441 37.5809 11.6179C37.5764 11.6323 37.5768 11.6458 37.572 11.6595Z" fill="black"/>
</svg>
