<svg width="42" height="38" viewBox="0 0 42 38" fill="none" xmlns="http://www.w3.org/2000/svg">
<path d="M35.8566 16.1233C34.7302 16.9336 33.4842 17.1158 32.5564 17.0752C32.2673 17.0618 32.262 16.5906 32.0587 16.5602C31.6697 16.4978 31.4148 16.8028 31.038 16.6914C30.9115 16.6526 30.8528 15.9281 30.7263 15.9025C30.0421 15.7644 29.5281 16.0801 28.9015 16.0683C25.8278 15.9963 23.0522 16.0925 20.1344 15.9212C19.1694 15.8644 18.0102 15.2391 17.023 15.5032C16.9069 15.5348 16.9637 16.1624 16.9406 16.2136C16.9353 16.2249 16.9301 16.2358 16.9251 16.2463C15.892 16.914 16.3044 15.6978 15.7819 15.4462C13.6811 14.2888 12.8634 13.2546 11.9439 12.833C11.5778 12.6474 11.0388 13.835 11.216 13.0543C11.2286 13.002 11.7452 12.5726 11.7183 12.4522C11.6532 12.1772 11.2967 12.0093 11.2375 11.8854C11.1231 11.6415 11.0883 11.6203 10.9702 11.5133C10.8643 11.4004 10.8737 11.1938 11.1469 11.305C11.1511 11.3049 11.1562 11.3186 11.1643 11.3519C11.1801 11.3916 10.9458 12.0351 10.9919 12.167C11.0287 12.3041 11.4035 12.2908 11.5371 12.1148C11.6611 11.9464 11.5539 11.4152 11.5629 11.2917C11.5753 10.7692 11.6226 10.8639 11.7823 11.0609C11.9318 11.2614 12.189 11.5494 12.2217 11.5527C12.8734 11.5993 13.0243 11.1792 12.9108 11.0544C12.6874 11.2122 12.422 11.4027 12.3217 11.688C12.1529 12.1706 12.2759 12.7952 12.1494 13.3095C11.9959 13.9224 11.5701 14.4641 11.6033 15.148C11.6063 15.2192 12.4107 15.1703 12.4163 15.2538C12.4766 16.1433 12.423 17.0305 11.9827 18.028C11.9381 18.1289 11.2249 18.0792 11.1388 18.187C10.6188 18.8239 9.41992 20.1166 12.5012 19.8851C12.4571 20.2944 12.4385 20.7824 11.9267 21.2829C11.5983 21.6077 10.798 21.5733 11.1894 21.7803C11.2769 21.8264 11.9046 21.573 11.9862 21.6524C12.3276 21.9821 12.2449 22.4721 12.6987 22.7423C12.7924 22.7964 13.357 22.5864 13.4667 22.5732C14.3544 22.464 13.0835 23.221 13.0107 23.3281C12.5957 23.892 12.7356 24.1905 12.9035 24.4786C12.9328 24.5106 12.9631 24.5333 12.9734 24.5617C12.9803 24.5834 13.6727 24.1659 13.6942 24.1544C13.7953 24.0677 13.5472 23.9594 13.4588 24.3339C13.442 24.417 13.1121 25.0219 13.0962 25.0969C13.0801 25.4417 13.5865 24.2425 13.5639 24.5309C13.5658 24.5919 13.3781 25.1508 13.3627 25.2138C13.1619 26.2158 13.6418 24.8519 13.6525 24.8214C13.9657 24.4498 14.012 25.9727 14.4723 25.7791C14.5218 25.7536 14.4401 25.0052 14.57 24.9785C15.4143 24.7935 16.4929 24.8518 17.7057 25.1958C17.8947 25.2479 17.8958 25.8215 17.9208 25.8868C18.3393 26.8993 18.1334 25.4621 18.1739 25.3966C18.5139 24.9136 19.249 25.9724 19.0892 24.229C21.1139 24.2851 22.6547 22.6904 25.1291 23.4209C25.16 23.4286 25.3615 24.1133 25.4219 24.1258C26.1515 24.2843 25.6515 23.2885 25.6055 21.8664C25.6016 21.5065 26.4524 22.9399 26.5245 23.0421C26.7726 23.4235 27.0109 24.4621 27.0731 24.5311C27.5625 25.0738 26.3791 21.7723 26.822 21.6296C26.8367 21.6311 26.9751 22.2636 27.0291 22.3139C27.0869 22.3686 27.1277 22.3716 27.1636 22.3595C27.199 22.3466 27.2121 22.2794 27.293 22.4052C27.5545 22.8573 28.3434 24.3804 28.1686 23.3594C28.1325 23.2326 27.2043 21.478 27.322 21.5164C27.3819 21.5287 27.4922 21.4019 27.6208 21.4516C27.752 21.5024 28.1812 21.9789 28.2015 21.9979C28.9974 22.3872 29.1966 22.6896 30.3126 23.3045C31.4704 23.8469 29.0277 22.1339 28.7886 21.8974C28.5468 21.6684 29.2529 21.8564 29.5039 21.9018C29.75 21.959 30.063 22.2342 30.2162 22.241C31.2363 22.2249 28.9827 21.4052 28.6054 21.1019C27.6668 20.4647 29.7895 21.0955 30.1001 20.822C30.1797 20.7586 29.678 20.6815 29.652 20.6014C29.55 20.299 30.2646 20.2725 29.7064 19.8263C29.6174 19.7439 28.3467 19.2982 29.3329 19.278C29.4755 19.2728 30.0112 19.4206 30.1507 19.3098C30.3604 19.1456 30.5183 18.7982 30.3514 18.57C30.2281 18.4035 29.31 18.5092 29.6054 18.3401C29.7371 18.263 30.255 18.4631 30.4583 18.3108C30.6623 18.1601 30.6609 17.7242 30.6478 17.5595C30.635 17.3951 29.944 17.4607 29.8981 17.4459C29.6359 17.3559 29.3127 17.0406 29.314 17.0115C29.2934 16.3921 29.5001 15.77 29.7552 15.0661C29.8906 15.0034 30.0103 14.864 30.0015 14.6765C29.9962 14.493 29.8601 14.2869 29.614 14.2031C29.5451 14.1789 29.0884 14.7451 29.0728 14.7469C28.7498 14.8704 30.1267 13.5037 30.3371 12.8468C29.4651 14.035 29.5386 13.7496 29.2943 13.7871C29.1784 13.8088 28.9277 14.324 28.8901 14.3694C28.5663 14.8024 28.6576 14.5942 28.7638 14.3065C28.836 14.1345 28.9173 13.9352 28.9486 13.854C29.2312 13.0562 28.7593 13.9377 28.912 13.3957C29.0271 12.8449 29.4885 12.1257 29.2279 12.051C29.0212 12.539 28.7235 13.8885 28.561 14.0726C28.2812 14.4322 28.1237 14.3482 27.8556 14.1873C27.6022 14.0237 27.2514 13.8169 27.0777 13.8355C27.0541 13.8375 27.0319 13.8404 27.0111 13.8439C26.6115 13.9555 26.5228 14.0978 26.2054 14.0912C25.5815 14.1004 26.3225 14.8342 26.4007 15.3643C26.4976 15.8902 24.9664 13.8949 24.5814 13.5117C24.1862 13.1387 24.505 13.5987 24.2561 13.4228C24.0031 13.2509 23.8789 12.8678 23.6708 12.9056C23.4502 12.9515 23.7894 13.9748 24.1766 14.3923C24.978 15.2901 26.0046 16.0261 25.4702 15.9619C25.4377 15.9594 24.9813 15.4764 24.8808 15.4902C24.0877 15.6285 23.6649 16.19 22.9457 16.5849C22.8447 16.6408 22.2356 16.2191 22.1682 16.2505C21.4622 16.5988 22.6701 16.9667 23.8005 17.8021C22.1604 16.9828 21.0545 16.6847 20.8517 17.1624C20.7347 17.4429 21.5025 17.6808 21.9725 18.0392C22.1153 18.1438 21.531 18.1509 21.877 18.305C23.0109 18.7999 24.3681 19.0723 23.7275 19.2845C23.6973 19.2943 23.0689 19.0438 23.0115 19.093C22.6366 19.4258 23.8674 19.809 23.9296 20.2348C23.9794 20.5613 23.1074 21.0013 22.9436 21.3759C20.8933 21.1431 21.3223 21.6523 22.739 21.8519C22.7092 21.9531 22.707 22.0602 22.7002 22.155C22.6974 22.2341 22.6957 22.2654 22.6834 22.3957C22.6796 22.4329 22.6751 22.4742 22.6666 22.5302C22.6622 22.5584 22.6569 22.5905 22.6489 22.6301C22.6422 22.6643 22.6266 22.7474 22.5921 22.8542C22.5511 22.9657 22.5138 23.1199 22.2996 23.3994C22.1892 23.5359 22.0176 23.7141 21.7297 23.8581C21.4525 24.005 21.0222 24.0687 20.7192 24.0114C20.1113 23.8992 19.8576 23.6051 19.7174 23.4569C19.4565 23.1359 19.4514 23.0299 19.4073 22.9356C19.3722 22.836 19.3694 22.8122 19.3586 22.7673C19.3104 22.5054 19.3444 22.4617 19.3775 22.343C19.4232 22.2195 20.0241 22.188 20.085 22.1619C21.0474 21.7956 19.6647 21.9074 19.5996 21.8469C18.9675 21.2496 19.9139 20.5319 18.7946 20.0754C18.7542 20.0588 17.3378 20.272 18.3376 19.9208C18.4067 19.8978 19.0853 19.9927 19.0823 19.6875C19.0795 19.3817 19.7299 18.6777 18.9963 18.3941C18.8194 18.3233 17.6313 18.3128 18.4788 17.9295C18.5939 17.8775 19.0021 17.8223 19.2175 17.7364C19.9032 17.459 18.4738 17.6961 19.6433 17.2875C20.8128 16.8798 21.6383 16.3448 20.709 16.1107C20.6815 16.1023 19.5426 16.2731 19.528 16.1397C19.5057 15.9255 19.6597 15.5686 19.5921 15.3523C19.5594 15.2488 18.8914 15.5063 18.8739 15.4917C18.2978 14.9226 18.7685 14.2827 18.739 13.4586C18.7375 13.4097 18.6241 13.376 18.4944 13.3398C18.2228 13.2619 17.945 13.3201 18.2587 12.8901C18.6051 12.1432 21.7257 9.83609 19.2184 9.35251C18.7035 9.31118 17.8961 10.3622 17.5703 11.215C17.1831 12.0721 17.3053 12.5896 16.6548 11.5819C16.435 11.7762 16.2414 11.9252 16.0383 12.0767L15.9717 12.112L15.861 12.3087C15.5963 13.0301 14.7656 13.5623 15.1587 14.5184C15.1802 14.5723 16.3295 15.054 16.2863 15.1444C16.2192 15.2796 15.6389 15.2063 15.5732 15.3016C15.2832 15.7011 15.6609 16.2303 15.486 16.639C15.4208 16.796 14.8511 16.6027 14.7733 16.7939C14.6964 16.9855 15.4376 17.2834 15.0089 17.4692C14.6831 17.6068 13.0625 17.4893 12.823 17.7286C14.3788 18.0517 14.3092 18.2309 14.6575 18.6382C14.7251 18.7171 15.2812 18.7544 15.3412 18.797C15.5975 18.9724 15.1262 18.9962 15.4088 19.1702C15.4766 19.2122 16.0093 19.3155 16.0949 19.3554C16.8428 19.699 15.5822 19.7926 15.3629 19.8073C14.5295 19.8671 15.2031 20.1004 14.8591 20.2022C14.5151 20.3031 14.1735 19.9839 13.947 20.1343C13.6103 20.3569 13.5074 20.6789 13.4312 20.9789L13.4195 21.0409C13.3977 21.1738 13.3831 21.3031 13.3624 21.4223C13.3369 21.5914 14.0699 21.5538 14.083 21.5799C14.2298 21.9229 13.4381 22.2203 14.8685 22.484C11.1314 22.5173 15.2171 22.7012 14.4562 23.1285C14.3949 23.1624 12.6298 23.1664 12.3755 23.0058C12.1216 22.8432 12.6812 22.6349 12.2898 22.3993C12.197 22.3494 10.5666 21.9369 10.471 21.8782C9.71774 21.4579 12.3508 21.6414 12.4957 21.6423C14.0668 21.61 12.3388 21.0682 12.2346 20.9318C12.2126 20.9076 12.1925 20.8836 12.1741 20.86L12.2051 20.6951C11.8304 20.2637 12.205 20.0337 11.888 19.6568C11.6737 19.3997 9.98258 19.0488 10.0655 18.8985C10.3425 18.3842 12.7448 18.6395 10.8007 17.6966C10.387 17.492 8.51093 17.247 10.0532 17.1025C10.1506 17.0921 11.5452 17.0461 10.7441 16.6838C10.643 16.6381 10.1046 16.5256 10.066 16.4846C9.81856 16.2105 10.2774 16.1615 10.1242 15.8836C9.97119 15.6052 9.73258 15.2474 9.97985 15.0189C10.1283 14.8791 11.1747 14.919 11.437 14.9057C12.1909 14.8729 11.106 14.3408 11.9877 14.4334C12.872 14.5342 14.094 15.1289 14.7311 14.9559C13.3573 14.562 11.9523 14.1396 10.5744 13.7306C10.8478 12.9401 11.5357 12.2975 11.7587 11.4911C11.7853 11.3901 11.0262 11.2301 11.0371 11.1128C11.0597 10.8929 11.2016 10.7327 11.3524 10.5736L12.494 8.54547L13.1815 8.18106C13.9649 7.74679 14.6794 7.52722 15.4937 7.16153C16.5552 6.66864 18.2634 5.69917 20.2227 6.21509C20.7493 8.0505 22.7517 9.07042 23.2244 10.3223C23.3919 10.7252 22.9857 10.9039 22.9684 11.1965C22.9626 11.2885 22.9631 11.3645 22.9702 11.4279C22.9146 11.8177 23.9835 11.1823 24.2251 11.2214C25.3544 11.437 22.3047 12.6237 22.5603 13.1235C22.5719 13.1454 24.3464 12.967 24.4675 12.9932C25.2437 13.1079 23.9047 13.2262 23.8408 13.4591C23.7225 13.8852 23.3869 14.2281 23.9866 14.4965C24.1633 14.5719 25.2907 14.5917 24.5307 15.0219C24.4311 15.0779 23.8674 15.1989 23.8404 15.2305C23.3959 15.7844 25.1589 15.3768 25.8148 15.4924C26.4708 15.6097 25.3329 16.2618 24.9956 16.4088C24.1258 16.7992 24.5741 16.3414 24.4819 16.3493C23.3913 16.4556 23.6324 16.6818 23.5846 16.9031C21.8532 17.297 22.0134 17.5466 23.5415 17.13C23.7083 17.0838 23.5137 16.9604 23.5846 16.9031C25.3265 16.7222 25.6139 17.0135 24.0822 17.6656C23.364 17.9712 22.4626 17.989 22.8718 18.4033C23.0564 18.5926 24.2429 18.2859 24.6062 18.4197C25.4359 18.7301 24.4114 19.5008 24.6619 19.9143C24.7538 20.0696 25.3873 19.7991 25.4727 19.9008C25.6995 20.1595 25.247 20.5067 25.5459 20.7398C25.5738 20.7608 26.2551 20.5871 26.2778 20.6701C26.324 20.8228 26.3382 20.9908 26.3206 21.0727C26.3159 21.0919 26.3091 21.1047 26.2957 21.0894C26.2726 21.0439 26.2907 21.1145 26.1669 20.7254C26.1499 20.6751 26.1295 20.6156 26.102 20.5411C26.0815 20.4862 26.0952 20.5215 26.0342 20.3636C25.9836 20.237 25.9185 20.0786 25.7962 19.843C25.6673 19.6057 25.506 19.2922 25.0815 18.7943C24.6507 18.3364 23.9092 17.4636 22.091 17.0401C21.2677 16.8362 19.8641 16.9122 18.93 17.3304C17.9539 17.7331 17.3238 18.3054 16.924 18.7551C16.1417 19.6807 16.0057 20.213 15.8615 20.5803C15.7385 20.946 15.6974 21.1624 15.6649 21.3316C15.6489 21.4224 15.6457 21.4495 15.6384 21.5001C15.6261 21.5905 15.6189 21.6616 15.6138 21.7214C15.604 21.8404 15.6023 21.9159 15.6021 21.9734C15.6063 22.1443 15.6226 22.1393 15.6352 22.155C15.738 21.6031 15.8788 21.1409 15.9355 20.6425C15.9869 20.1554 15.7377 19.2481 15.9186 18.7732C16.2209 17.9336 17.4777 17.2459 17.4808 16.5085C17.4886 16.0198 16.8012 15.8664 16.4324 15.4944C15.7251 14.75 17.5619 14.7072 17.8282 14.7528C17.8354 14.7548 17.8129 15.1998 18.2316 15.1495C18.9633 15.3523 17.8283 14.7603 17.8282 14.7528C18.0011 14.7631 18.5184 14.0947 18.489 13.885C18.4697 13.7695 17.8658 13.4892 17.8679 13.4333C17.9325 12.1061 18.5933 10.8793 19.7554 10.1127C19.7813 10.105 20.2948 10.6424 20.3475 10.6195C21.0931 10.3244 20.819 9.35197 21.0244 8.49597C21.2238 7.64993 21.8491 7.45235 22.8413 8.33764C23.1084 8.01706 23.7492 8.05694 24.2331 8.17553C24.3903 8.18142 24.5344 8.19605 24.6586 8.213C25.2874 8.31857 24.8839 6.94599 24.9325 6.89581C26.3314 5.50651 27.5257 6.21919 29.1038 6.49951C29.845 6.62064 31.3874 6.81608 32.3949 7.18674C32.4261 7.19628 32.4565 7.20565 32.486 7.21481C33.1586 7.42929 33.3115 7.93166 33.9469 8.13831C34.0339 8.16869 34.3556 7.60426 34.3922 7.60116C35.4899 7.49106 34.191 8.47223 34.1242 8.77973C33.8583 9.91379 33.6242 10.4066 34.5449 10.7871C34.7306 10.8374 37.0228 10.154 37.4323 10.6496C37.9169 11.2395 37.0654 11.3206 37.5323 11.9569C37.5687 12.0159 38.0422 11.819 38.1801 12.3271C38.4508 13.3418 38.5265 14.5295 38.3744 15.6534C38.273 15.7532 38.1815 16.0607 38.204 16.3908C38.2074 16.4704 39.0038 16.383 39.0218 16.4999C39.1056 17.0587 39.0626 17.8245 38.6487 18.5375C38.5442 18.7136 37.9955 18.5665 37.8283 18.5955C36.8177 18.7609 38.2392 19.2076 38.2609 19.2756C38.8117 20.8049 37.3862 21.7864 37.3291 23.8471C37.3463 23.9289 38.4232 25.4373 37.0035 25.282C36.9035 25.2845 35.5195 25.0075 36.1453 25.7892C36.1809 25.8427 36.9402 25.94 36.6207 26.3419C36.313 26.7261 36.1725 27.7584 35.0748 27.8312C34.7119 27.8727 33.4285 27.2739 33.6419 28.5252C33.7259 28.5736 34.2142 31.3153 32.8835 30.1358C32.6682 29.9361 31.7903 28.3978 31.5731 29.5708C31.5184 29.8012 31.9686 30.0186 31.7003 30.4382C31.3244 31.014 30.5183 30.9759 30.0035 31.6409C30.0079 31.7014 30.0149 31.7741 30.0258 31.8612C30.0444 32.0034 30.3032 33.1985 29.8914 32.3629C29.8252 32.2326 29.6714 31.6526 29.5809 31.6126C29.1393 31.424 28.8516 31.9547 28.2831 31.7222C28.0816 31.6412 27.8261 30.704 27.5741 30.5203C27.3183 30.3382 26.9134 30.2217 26.885 30.7033C26.8654 31.1819 27.5871 32.5601 27.3682 32.7719C26.3958 33.6992 24.8729 33.2819 23.5564 33.5606C23.3594 33.6021 23.685 34.0785 23.4024 34.1777C22.3905 34.5464 20.5227 35.5817 19.2078 34.6362C18.1891 33.8774 19.097 32.9741 18.4042 32.7172C18.0848 32.5917 18.0469 34.4145 17.9681 34.4838C17.2736 35.1709 16.6117 34.4489 15.8545 34.7419C15.6946 34.802 15.8984 35.5183 15.7571 35.5613C15.2735 35.7141 14.7085 35.3997 14.1872 35.4422C13.9471 35.4621 13.967 36.0186 13.7378 35.9637C13.2006 35.8369 12.6732 35.5477 12.1907 34.9401C12.1506 34.8852 12.6009 34.2607 12.1844 34.1642C11.4895 33.9999 10.7893 33.3019 9.70296 33.4184C9.38313 33.452 8.81765 34.6041 8.5863 33.4994C8.53409 33.2581 9.45637 32.0502 8.11141 32.7741C7.94535 32.9583 5.52816 33.4106 5.75118 31.9712C5.80765 31.6033 6.40474 30.4183 6.02448 30.2518C5.96538 30.2272 5.57311 30.831 5.30786 30.6011C4.61623 29.9764 4.15328 29.1779 3.73819 28.4014C3.65418 28.2738 3.5628 28.149 3.45462 28.0309C3.34196 27.909 2.77682 28.3918 2.62842 28.197C2.21945 27.6625 2.11388 26.8416 2.13638 26.1959C2.14528 25.9558 2.74937 25.9244 2.80459 25.8888C3.71075 25.3305 2.33706 25.6108 2.23278 25.5489C1.60857 25.1738 2.12838 24.5992 1.83844 24.1756C1.75995 24.0565 1.13958 24.3154 1.07536 24.3041C0.442873 24.171 1.65322 24.0809 1.73785 23.8778C1.98021 23.3105 1.80984 22.7994 1.62862 22.3318C1.56123 22.1601 0.845036 22.5133 0.792978 22.3546C0.470431 21.4146 0.385311 20.3718 0.704108 19.3706C0.765674 19.1822 1.36876 19.2321 1.4997 19.1806C2.41711 18.8347 1.0951 18.593 0.964763 18.5112C0.370742 18.1605 0.884074 17.9619 0.765899 17.6178C0.171472 15.9123 0.587404 13.6463 1.08569 11.8926C1.65534 9.87588 2.55072 8.29821 3.5689 6.28999C3.83055 5.78243 4.1426 5.25786 4.54549 4.71242C4.75605 4.43507 3.91335 4.22003 4.10496 3.95869C5.1497 2.54936 7.07176 1.14443 9.33273 0.67215C11.5929 0.174188 13.6594 0.622261 15.0764 1.14109C15.9373 1.46352 16.5224 1.78978 16.9998 2.05575C17.2396 2.19493 17.3262 1.34874 17.7241 1.55586C18.5344 1.9823 19.0397 2.49184 19.191 2.94694C19.2625 3.16662 18.6357 3.46706 18.7113 3.67406C18.876 4.1495 19.0798 4.4136 19.3117 4.45722C19.4066 4.4704 19.8268 3.81956 19.9023 3.87387C20.0664 3.98738 20.0928 3.92368 19.7241 3.71882C19.3801 3.5312 18.4448 3.14649 17.1809 3.26765C17.4989 3.40092 17.8235 3.60039 18.163 3.89927C18.238 3.96652 18.3293 5.52328 18.4932 5.22128C18.497 4.78883 18.4858 4.28045 18.4815 3.8184C20.0567 3.53629 21.709 3.93317 23.3562 3.76982C23.4253 3.76272 23.1842 2.96461 23.3152 2.94692C24.0729 2.84256 24.7346 2.48896 25.6513 3.1278C25.7414 3.18996 26.0178 4.61645 26.1979 4.35042C26.2299 4.30249 26.5218 4.03494 26.5315 3.7075C26.5313 3.65859 26.3122 3.0146 26.4101 2.97018C26.982 2.72303 27.6079 2.70605 28.2388 2.92913C28.3407 2.96639 28.488 3.67871 28.5644 3.71045C29.1208 3.92653 29.3242 3.24385 29.7055 3.77754C29.9559 4.14295 30.554 5.23977 31.2786 6.23406C31.3902 6.3681 31.4336 6.37112 31.8888 6.921C33.0798 8.26834 34.1602 9.92399 35.4201 11.3684C35.6716 11.7267 36.2968 10.518 36.4305 11.7709C36.4345 11.8134 36.3066 12.0663 36.2026 12.3189C36.1137 12.5616 36.0299 12.8273 36.0536 13.0167C36.0838 13.2802 36.6874 13.7469 36.641 14.1415C36.6044 14.5273 36.0343 14.1673 35.9498 14.6209C35.8541 15.0822 36.3395 15.7658 35.8566 16.1233ZM27.1616 9.10646C27.5958 9.7586 27.4999 7.21563 27.0442 7.87178C27.0223 7.90696 27.137 9.07513 27.1616 9.10646ZM13.3645 12.909C14.5254 12.9706 13.0387 12.2294 12.145 12.1638C11.2482 12.1125 13.0109 12.8961 13.3645 12.909ZM13.2911 16.2241C14.2313 16.0861 10.7402 15.1847 11.3575 15.7434C11.3923 15.7758 13.2364 16.2328 13.2911 16.2241ZM30.8937 6.83017C30.911 6.85973 31.0512 6.83081 31.0383 6.79954C30.7499 6.04314 30.5003 6.08756 30.8937 6.83017ZM13.5556 19.3815C14.0543 19.3702 13.5585 18.9655 12.9382 18.9806C12.4394 18.9923 12.9353 19.3954 13.5556 19.3815ZM31.2924 21.1662C31.2552 21.1594 31.1838 21.2763 31.3886 21.3381C32.0499 21.5364 31.9224 21.2838 31.2924 21.1662ZM13.0837 24.5869C13.2208 23.8218 16.2055 23.4241 15.8625 24.21C15.8008 24.3549 14.9148 23.892 14.6451 24.0748C14.1538 24.4152 16.0238 24.6437 15.0218 24.9935C14.8384 25.0571 13.0692 24.6307 13.0796 24.5855C13.081 24.586 13.0823 24.5864 13.0837 24.5869ZM27.6526 12.1251C27.6605 12.1573 27.838 12.1778 27.8408 12.1453C27.9224 11.3318 27.4887 11.2938 27.6526 12.1251ZM24.9209 24.2384C24.8889 24.1739 24.4734 24.2555 24.4853 24.3213C24.7367 25.6352 25.5738 25.4757 24.9209 24.2384ZM22.8883 21.3761C23.679 21.6265 23.7644 21.7734 22.7401 21.8512C22.8015 21.6968 22.8217 21.537 22.8883 21.3761Z" fill="#F9EF23"/>
<path d="M26.8025 31.2984C26.8285 31.3277 26.8006 31.366 26.7624 31.3953C26.7506 31.4044 26.6975 31.3998 26.687 31.4061C26.6664 31.4184 26.6924 31.4299 26.6678 31.4422C26.6594 31.4462 26.5754 31.4412 26.5686 31.4454C26.5315 31.4686 26.5528 31.4906 26.535 31.5142C26.4629 31.6091 26.4287 31.7025 26.3977 31.798C26.3908 31.8188 26.3841 31.8398 26.3772 31.8607C26.3647 31.8983 26.2887 31.9439 26.3225 31.9816C26.3265 31.9861 26.4002 31.9826 26.4063 31.9833C26.4994 31.9951 26.3506 31.9926 26.3309 32.0015C26.2533 32.0367 26.2473 32.0755 26.2766 32.1074C26.2893 32.1211 26.4352 32.1031 26.3535 32.1194C26.3479 32.1205 26.2696 32.1191 26.2614 32.1232C26.2428 32.1324 26.2573 32.1483 26.2513 32.1553C26.2394 32.1689 26.2403 32.1708 26.2398 32.1831C26.2385 32.2001 26.2004 32.2213 26.219 32.2389C26.2231 32.2425 26.3031 32.2339 26.317 32.2395C26.3309 32.2448 26.3248 32.261 26.3062 32.2674C26.2875 32.2737 26.2244 32.2745 26.2101 32.2762C26.0886 32.2905 26.2583 32.3005 26.2626 32.3026C26.336 32.3424 26.2423 32.3852 26.2454 32.4266C26.2481 32.4579 26.2824 32.4888 26.2805 32.5185C26.278 32.5543 26.2375 32.5884 26.2483 32.6219C26.2494 32.6254 26.3428 32.6119 26.3443 32.6162C26.3599 32.6616 26.3547 32.7083 26.297 32.7625C26.2912 32.7679 26.2082 32.7718 26.1975 32.7779C26.1333 32.8147 25.9773 32.8836 26.3371 32.853C26.3256 32.8739 26.3145 32.8997 26.245 32.9271C26.2003 32.945 26.1094 32.9468 26.1495 32.9553C26.1585 32.9573 26.2361 32.9419 26.2436 32.9456C26.2751 32.9613 26.2529 32.9864 26.2962 32.9997C26.3052 33.0024 26.375 32.9906 26.3878 32.9898C26.4913 32.9833 26.325 33.0249 26.3133 33.0303C26.226 33.0706 26.2652 33.0845 26.2669 33.1088C26.2673 33.1146 26.36 33.0922 26.3637 33.0971C26.3819 33.1229 26.3787 33.1525 26.3421 33.1875C26.3337 33.1953 26.253 33.2039 26.2449 33.2084C26.2423 33.2099 26.2407 33.2112 26.2401 33.2122C26.2321 33.2246 26.3591 33.2049 26.3311 33.2218C26.3249 33.2256 26.2564 33.2366 26.249 33.2385C26.1328 33.2676 26.3006 33.2435 26.3046 33.2446C26.3594 33.2597 26.1885 33.3077 26.2177 33.327C26.2214 33.3293 26.3063 33.3062 26.3114 33.3135C26.3453 33.3615 26.3329 33.4221 26.2752 33.4893C26.2663 33.4997 26.2006 33.5073 26.1927 33.5094C26.0702 33.5437 26.2379 33.5146 26.2447 33.516C26.2943 33.5278 26.1589 33.5773 26.3602 33.5496C26.3104 33.6542 26.4413 33.7199 26.2839 33.8492C26.2821 33.8508 26.1998 33.8668 26.1966 33.8699C26.1567 33.9073 26.2827 33.8741 26.4422 33.8579C26.4823 33.8539 26.2976 33.9094 26.2842 33.9137C26.2345 33.9295 26.1117 33.9517 26.1022 33.9554C26.0279 33.9851 26.4299 33.894 26.4338 33.9107C26.4332 33.9113 26.3586 33.9255 26.3516 33.9286C26.3294 33.938 26.3598 33.9358 26.3353 33.9458C26.2784 33.9687 26.0836 34.0155 26.2008 34.0054C26.216 34.004 26.4436 33.9505 26.4362 33.9681C26.4331 33.9754 26.4428 34.0006 26.4297 34.0114C26.4165 34.0221 26.3418 34.0333 26.3388 34.0346C26.2459 34.0761 26.2039 34.0775 26.0621 34.1194C25.9209 34.1613 26.2625 34.0828 26.3016 34.0785C26.3406 34.0742 26.2636 34.1068 26.2365 34.1164C26.2094 34.1262 26.1616 34.132 26.1465 34.1387C26.048 34.1826 26.3185 34.1105 26.3743 34.1054C26.5066 34.0936 26.2556 34.1625 26.2341 34.1833C26.2283 34.1889 26.2854 34.1728 26.2916 34.1753C26.3155 34.1855 26.2381 34.2112 26.3144 34.2117C26.3268 34.2118 26.4824 34.1916 26.3722 34.2249C26.3564 34.2296 26.2923 34.24 26.2795 34.2493C26.2603 34.2632 26.2502 34.2833 26.2734 34.2883C26.2907 34.2921 26.3931 34.261 26.3627 34.2772C26.3491 34.2844 26.2865 34.2902 26.2661 34.3027C26.2457 34.3151 26.2526 34.334 26.2563 34.3411C26.2601 34.3481 26.3383 34.3267 26.3438 34.3262C26.3751 34.3232 26.4164 34.3293 26.4166 34.3306C26.44 34.392 26.3193 34.4796 26.3767 34.5324C26.3811 34.5366 26.4639 34.5156 26.4655 34.516C26.5041 34.5255 26.2792 34.5595 26.2074 34.5869C26.3765 34.5492 26.3472 34.5625 26.3683 34.5702C26.3786 34.5739 26.4436 34.5569 26.4504 34.556C26.5518 34.5432 26.4243 34.5764 26.3983 34.5834C26.3026 34.6095 26.4183 34.5913 26.3544 34.6088C26.2909 34.6261 26.1937 34.6376 26.1973 34.6486C26.2587 34.6389 26.4155 34.5971 26.443 34.6003C26.5473 34.6129 26.4352 34.6983 26.4277 34.7275C26.4203 34.7567 26.4331 34.7621 26.4143 34.7818C26.3802 34.8171 26.4959 34.783 26.5533 34.789C26.6108 34.7951 26.3192 34.8461 26.2574 34.8613C26.1956 34.8764 26.2602 34.8659 26.2266 34.8759C26.193 34.8859 26.1493 34.8881 26.1379 34.8977C26.1265 34.9074 26.2411 34.9038 26.3068 34.893C26.4459 34.8701 26.5891 34.8321 26.5419 34.8609C26.5391 34.8626 26.4622 34.8746 26.4553 34.8802C26.4031 34.9241 26.4065 34.9597 26.3608 35.0017C26.3544 35.0076 26.2688 35.0206 26.2641 35.0242C26.2151 35.0617 26.3563 35.0236 26.5183 35.0069C26.306 35.0455 26.1782 35.0793 26.181 35.1C26.1826 35.1125 26.2746 35.0921 26.3413 35.0873C26.3614 35.0859 26.2997 35.1073 26.3435 35.1002C26.4866 35.0774 26.6441 35.038 26.5849 35.0714C26.5821 35.0729 26.5037 35.0853 26.4996 35.0894C26.4728 35.116 26.622 35.0894 26.6444 35.1085C26.6619 35.1234 26.5774 35.173 26.5664 35.1954C26.3281 35.2407 26.3863 35.2489 26.552 35.2252C26.5477 35.2394 26.5597 35.2518 26.5394 35.2687C26.5325 35.2746 26.463 35.2848 26.4556 35.2868C26.3403 35.3174 26.5012 35.2927 26.508 35.2944C26.5747 35.3135 26.4581 35.3604 26.582 35.3675C26.5864 35.3677 26.7524 35.3386 26.6329 35.3689C26.6247 35.371 26.5475 35.3754 26.5442 35.3902C26.5409 35.4051 26.457 35.4475 26.5372 35.452C26.5565 35.4531 26.6931 35.44 26.5897 35.4686C26.5757 35.4724 26.5279 35.4798 26.5018 35.4864C26.4186 35.5076 26.5866 35.4801 26.4456 35.5129C26.3045 35.5457 26.2005 35.5791 26.3022 35.5805C26.3051 35.5806 26.4388 35.5611 26.4378 35.5675C26.4361 35.5779 26.4108 35.5961 26.4134 35.6059C26.4147 35.6106 26.4967 35.5927 26.4983 35.5933C26.5503 35.617 26.4809 35.6532 26.4551 35.6937C26.4503 35.7013 26.566 35.6993 26.4791 35.7272C26.384 35.7576 25.9764 35.8151 26.0783 35.8286C26.119 35.834 26.6361 35.7604 26.3735 35.8292C26.4472 35.8618 26.3174 35.924 26.4192 35.952C26.4237 35.9532 26.5684 35.9352 26.5672 35.9402C26.5652 35.9477 26.4987 35.9628 26.4951 35.9685C26.4783 35.9923 26.5389 36.0011 26.5332 36.0223C26.5312 36.0304 26.4613 36.0393 26.4589 36.0489C26.4566 36.0584 26.549 36.0492 26.5069 36.0687C26.4747 36.0835 26.2893 36.1235 26.2695 36.1392C26.454 36.1093 26.4516 36.1187 26.5027 36.1253C26.5126 36.1265 26.5763 36.113 26.5843 36.1131C26.6183 36.1131 26.5659 36.1268 26.6028 36.1261C26.6116 36.126 26.6746 36.1157 26.6854 36.115C26.7797 36.1087 26.6403 36.1463 26.616 36.1528C26.5238 36.1775 26.6065 36.1687 26.5708 36.182C26.5351 36.1953 26.4872 36.1918 26.4661 36.204C26.4227 36.2292 26.4365 36.2504 26.4365 36.269C26.4369 36.2764 26.5203 36.258 26.5223 36.2588C26.546 36.2702 26.4588 36.2991 26.6278 36.2808C26.1959 36.3597 26.6712 36.283 26.5878 36.3179C26.581 36.3207 26.3764 36.3551 26.3453 36.3535C26.3142 36.3519 26.3767 36.3321 26.3284 36.3308C26.3171 36.3304 26.1231 36.349 26.1112 36.3493C26.0183 36.3511 26.3243 36.3006 26.341 36.2972C26.5214 36.2608 26.312 36.2786 26.2971 36.2771C26.2288 36.2698 26.2694 36.2478 26.2203 36.2406C26.1885 36.2358 25.9878 36.2674 25.9928 36.2589C26.009 36.2307 26.2873 36.1763 26.041 36.1927C25.9884 36.196 25.7701 36.237 25.9394 36.1905C25.9501 36.1876 26.1055 36.148 26.0045 36.1566C25.9917 36.1577 25.9279 36.1683 25.9223 36.1679C25.8862 36.165 25.9361 36.1508 25.9102 36.1455C25.8843 36.1401 25.8461 36.135 25.866 36.1208C25.8779 36.1122 25.9954 36.0841 26.024 36.0762C26.1064 36.0535 25.9674 36.0673 26.068 36.0449C26.1692 36.0222 26.326 36.007 26.3894 35.9813C26.2236 36.0086 26.0532 36.0361 25.8863 36.0633C25.8868 36.0307 25.9352 35.9908 25.9225 35.9609C25.9208 35.9573 25.8324 35.9765 25.8282 35.973C25.8111 35.9581 25.872 35.9318 25.8435 35.9177C25.8211 35.907 25.7241 35.9079 25.6978 35.8974C25.8858 35.8554 25.8176 35.8448 25.8322 35.8262C25.8372 35.8196 25.8879 35.8111 25.9037 35.8042C25.9621 35.7785 25.7959 35.8151 25.7689 35.8156C25.6533 35.8179 26.0319 35.7491 26.0188 35.7299C26.0182 35.7288 25.8139 35.7514 25.801 35.7518C25.7169 35.7548 25.871 35.7373 25.8846 35.7273C25.9094 35.7091 25.956 35.6911 25.894 35.6862C25.8757 35.6848 25.748 35.6968 25.8436 35.6701C25.8561 35.6666 25.923 35.6551 25.9267 35.6535C25.9887 35.6244 25.779 35.662 25.7063 35.6652C25.6335 35.6683 25.7754 35.627 25.8166 35.6163C25.923 35.5885 25.8638 35.614 25.8745 35.6125C26.0013 35.5946 25.9776 35.5875 25.9868 35.5771C26.192 35.5383 26.1775 35.5287 25.9954 35.5666C25.9755 35.5707 25.9958 35.5737 25.9868 35.5771C25.7838 35.6067 25.7557 35.5988 25.9414 35.55C26.0285 35.527 26.1326 35.5145 26.0911 35.5009C26.0724 35.4947 25.9317 35.5245 25.8916 35.5235C25.8001 35.5211 25.9275 35.4724 25.9032 35.4573C25.8943 35.4518 25.8182 35.473 25.8095 35.4698C25.7862 35.4612 25.8422 35.4396 25.8101 35.4324C25.8071 35.4318 25.7266 35.4499 25.7248 35.4462C25.7098 35.418 25.7567 35.3822 25.7522 35.3512C25.7501 35.3365 25.7002 35.318 25.7062 35.3007C25.716 35.2707 25.8272 35.2152 25.7941 35.1977C25.7728 35.1861 25.6926 35.2054 25.6363 35.2099C25.527 35.2185 25.714 35.1588 25.743 35.15C25.744 35.1497 25.7656 35.1588 25.8057 35.1437C25.8914 35.1225 25.7434 35.15 25.743 35.15C25.7617 35.1442 25.775 35.115 25.7585 35.113C25.7495 35.112 25.6733 35.1288 25.67 35.128C25.5946 35.1073 25.5682 35.0765 25.597 35.035C25.5984 35.0341 25.6842 35.0176 25.6865 35.0156C25.7205 34.988 25.613 34.9958 25.5475 34.9921C25.482 34.9882 25.5001 34.9709 25.645 34.9308C25.6239 34.9223 25.6851 34.8909 25.7223 34.8722C25.7595 34.8535 25.5927 34.8867 25.5893 34.8864C25.478 34.8798 25.5699 34.8439 25.5786 34.8114C25.5829 34.7956 25.5529 34.7727 25.5315 34.7615C25.5143 34.7527 25.5518 34.7373 25.5246 34.7317C25.5209 34.7309 25.4472 34.7481 25.4442 34.7483C25.353 34.7548 25.5353 34.7222 25.5671 34.7128C25.6827 34.6784 25.744 34.6592 25.6853 34.6551C25.6719 34.6541 25.409 34.6992 25.3923 34.6959C25.3712 34.6915 25.4653 34.6747 25.4407 34.6705C25.4387 34.6702 25.3811 34.6827 25.3825 34.6766C25.3881 34.6488 25.4153 34.6126 25.4038 34.5872C25.4024 34.5837 25.3121 34.6082 25.3086 34.6034C25.2925 34.5815 25.2898 34.5525 25.3273 34.5191C25.3368 34.5108 25.4015 34.5006 25.4202 34.4951C25.5334 34.4621 25.364 34.4873 25.3604 34.4862C25.2704 34.4587 25.4141 34.3924 25.332 34.3618C25.3272 34.3602 25.1441 34.3806 25.2956 34.3382C25.3057 34.3354 25.4608 34.2923 25.3518 34.3086C25.345 34.3096 25.2654 34.3327 25.2716 34.3218C25.2778 34.3107 25.2205 34.3076 25.3065 34.2753C25.3336 34.2651 25.488 34.221 25.3606 34.2367C25.3517 34.2378 25.0655 34.282 25.2587 34.2322C25.2905 34.224 25.4967 34.1795 25.3879 34.1884C25.3668 34.1902 25.322 34.2054 25.2917 34.2045C25.245 34.2031 25.2969 34.1762 25.2022 34.183C25.1854 34.1842 25.0434 34.2052 25.1477 34.1735C25.164 34.1685 25.2333 34.1558 25.2401 34.1497C25.2724 34.1209 25.2217 34.1096 25.2647 34.0784C25.2798 34.0674 25.3918 34.0467 25.4199 34.0324C25.448 34.0181 25.4732 33.9961 25.4206 33.9992C25.368 34.0023 25.1927 34.0501 25.1759 34.0411C25.1027 34.0021 25.1951 33.9263 25.1988 33.8694C25.1994 33.861 25.1373 33.8812 25.1336 33.8698C25.1196 33.8275 25.0439 33.7635 25.1712 33.6974C25.2731 33.6442 25.3635 33.6661 25.4027 33.6336C25.4214 33.6181 25.2122 33.648 25.2051 33.6465C25.1336 33.6332 25.2214 33.5957 25.1885 33.577C25.1816 33.5731 25.0987 33.5946 25.0938 33.5911C25.0763 33.5792 25.1108 33.5563 25.1012 33.5433C25.0967 33.5375 25.0327 33.551 25.0366 33.5441C25.0449 33.5278 25.0695 33.5101 25.1271 33.4851C25.1324 33.4828 25.2138 33.4763 25.2148 33.4653C25.2162 33.4474 25.2717 33.4157 25.2069 33.4075C25.1941 33.4059 25.1269 33.4166 25.1096 33.4155C25.1005 33.4149 25.1053 33.411 25.1396 33.4004C25.1603 33.3939 25.3374 33.3659 25.1823 33.3784C25.1566 33.3806 24.9464 33.3917 25.077 33.3566C25.1114 33.3474 25.2546 33.3145 25.2307 33.3114C25.2269 33.3111 25.1485 33.3284 25.1398 33.3238C25.1105 33.3075 25.1154 33.2848 25.0871 33.2675C25.0794 33.2629 24.9989 33.2848 24.99 33.2774C24.9655 33.257 24.9818 33.2246 25.0039 33.1975C25.0122 33.1875 25.081 33.183 25.0883 33.1813C25.2071 33.1532 25.0439 33.172 25.0339 33.1701C24.9742 33.1584 25.0482 33.1312 25.0253 33.1154C25.0191 33.111 24.9422 33.1258 24.9351 33.1258C24.866 33.1246 25.0064 33.1127 25.0208 33.1038C25.0615 33.0788 25.0523 33.0582 25.0398 33.0404C25.0351 33.0339 24.9462 33.054 24.943 33.0479C24.9224 33.0121 24.9259 32.9712 24.9711 32.928C24.9798 32.9199 25.0497 32.9159 25.0654 32.9126C25.1751 32.8894 25.0222 32.8932 25.0073 32.8913C24.9397 32.8835 25.0004 32.8704 24.9874 32.8583C24.9228 32.7984 24.9553 32.7113 24.9752 32.6467C25.0006 32.562 25.0624 32.4947 25.0405 32.4187C25.0392 32.4138 24.9467 32.4243 24.9444 32.4201C24.9187 32.366 24.9524 32.31 24.9234 32.2559C24.9212 32.2515 24.8334 32.2615 24.8268 32.2543C24.8128 32.2395 24.817 32.2204 24.8446 32.2042C24.8579 32.1963 24.9338 32.2038 24.9457 32.196C24.9735 32.1778 24.9793 32.1597 24.9647 32.1423C24.9583 32.135 24.8684 32.1486 24.8671 32.1389C24.8565 32.0726 24.84 32.007 24.9564 31.9413C24.9644 31.9368 25.1476 31.9319 25.1124 31.9229C25.0615 31.9225 25.0017 31.9228 24.9473 31.9228C24.9336 31.88 24.9399 31.838 24.9515 31.798C24.9651 31.751 24.9859 31.7048 24.9912 31.6575C24.9916 31.6538 24.8945 31.6602 24.8947 31.6531C24.8962 31.612 24.8693 31.5718 24.9658 31.5295C24.9752 31.5253 25.146 31.5277 25.1202 31.5152C25.1155 31.513 25.0927 31.4944 25.0556 31.4896C25.05 31.489 24.9703 31.4923 24.968 31.4864C24.9559 31.4515 24.9741 31.4151 25.0228 31.3804C25.0308 31.3747 25.1157 31.3807 25.1222 31.3767C25.1672 31.3485 25.1027 31.3175 25.1798 31.2905C25.2317 31.2724 25.3784 31.2791 25.5229 31.2695C25.5433 31.2681 25.5465 31.2569 25.6306 31.2563C25.8419 31.2548 26.0734 31.2602 26.2987 31.258C26.3472 31.2575 26.2949 31.2425 26.4122 31.2514C26.42 31.252 26.459 31.2629 26.4987 31.2656C26.5262 31.2675 26.6117 31.2641 26.6469 31.2679C26.6821 31.2717 26.6105 31.2759 26.6518 31.2822C26.6937 31.2885 26.7909 31.2858 26.8025 31.2984ZM25.8886 34.7885C25.9665 34.7622 25.6734 34.822 25.7457 34.8177C25.7495 34.8174 25.8848 34.7898 25.8886 34.7885ZM26.1576 35.9532C26.2855 35.9182 26.0928 35.9423 25.9939 35.9683C25.8951 35.9944 26.1189 35.9637 26.1576 35.9532ZM26.2749 36.0695C26.375 36.0375 25.9563 36.105 26.0435 36.1067C26.0484 36.1068 26.2691 36.0714 26.2749 36.0695ZM25.5641 31.3141C25.568 31.314 25.5719 31.3059 25.568 31.3057C25.473 31.3014 25.4653 31.3175 25.5641 31.3141ZM26.4 36.1843C26.4559 36.1704 26.3883 36.1677 26.3189 36.1849C26.263 36.1988 26.3305 36.2015 26.4 36.1843ZM26.0916 34.2151C26.096 34.214 26.0986 34.2075 26.074 34.213C25.9949 34.2309 26.019 34.2338 26.0916 34.2151ZM26.4406 36.4084C26.4511 36.3725 26.7941 36.2978 26.7607 36.3406C26.7547 36.3483 26.6481 36.3435 26.6182 36.3569C26.5638 36.3811 26.7828 36.3576 26.6687 36.3916C26.6479 36.3977 26.4392 36.4105 26.4401 36.4084C26.4403 36.4084 26.4404 36.4084 26.4406 36.4084ZM26.2391 34.7095C26.2429 34.7085 26.2449 34.6999 26.2411 34.7006C26.1472 34.7158 26.1431 34.733 26.2391 34.7095ZM26.1994 33.8458C26.2075 33.8435 26.2112 33.8237 26.2035 33.8248C26.0498 33.8486 26.0419 33.8889 26.1994 33.8458ZM26.5601 35.1969C26.6556 35.1875 26.6686 35.1957 26.5521 35.2251C26.5567 35.2153 26.556 35.2066 26.5601 35.1969Z" fill="black"/>
<path d="M11.3638 35.6678C11.3626 35.7058 11.3176 35.7113 11.2711 35.7037C11.2565 35.7014 11.2223 35.6607 11.2106 35.6575C11.1879 35.651 11.1986 35.677 11.173 35.6678C11.1643 35.6645 11.1087 35.6015 11.1009 35.5995C11.0594 35.5884 11.0594 35.6185 11.0313 35.6211C10.8913 35.6355 10.7926 35.6875 10.6865 35.7361C10.6512 35.7525 10.5668 35.7277 10.5628 35.7774C10.5623 35.7833 10.6149 35.835 10.6184 35.84C10.6728 35.9166 10.5737 35.8055 10.5539 35.797C10.4758 35.7634 10.4436 35.7844 10.4396 35.8271C10.4379 35.8455 10.548 35.943 10.4817 35.8925C10.4772 35.8891 10.4263 35.8295 10.4178 35.826C10.3987 35.8182 10.3962 35.8396 10.3872 35.8395C10.3695 35.8392 10.3685 35.8412 10.359 35.8488C10.3455 35.8587 10.3045 35.8436 10.3036 35.8686C10.3036 35.8741 10.3617 35.9296 10.3665 35.9438C10.3713 35.9579 10.3548 35.9639 10.338 35.9537C10.3211 35.9435 10.2801 35.8955 10.2696 35.8855C10.1811 35.8012 10.2822 35.9378 10.2832 35.9426C10.299 36.0246 10.2068 35.9785 10.1765 36.0064C10.1542 36.0271 10.1503 36.0735 10.1258 36.0897C10.096 36.109 10.0447 36.0966 10.0244 36.1248C10.0221 36.1277 10.0881 36.1953 10.0854 36.199C10.0575 36.2386 10.0157 36.2619 9.93893 36.2446C9.93116 36.2428 9.88097 36.1766 9.86996 36.1711C9.80352 36.1389 9.66262 36.0449 9.88684 36.3278C9.86301 36.3299 9.83547 36.3346 9.77501 36.2908C9.73601 36.2627 9.68505 36.1875 9.70001 36.2254C9.70331 36.2339 9.75804 36.2911 9.75906 36.2993C9.76337 36.3338 9.7301 36.3286 9.74239 36.3719C9.74498 36.3809 9.79196 36.4338 9.79944 36.4442C9.85969 36.5286 9.7366 36.4093 9.72598 36.4021C9.64616 36.3487 9.65549 36.3886 9.63591 36.4024C9.63132 36.4055 9.69803 36.4736 9.69581 36.4793C9.68351 36.5077 9.65584 36.5205 9.60799 36.5057C9.59717 36.5022 9.54909 36.4368 9.54125 36.432C9.50733 36.4115 9.6039 36.5302 9.57318 36.5129C9.56683 36.5094 9.52324 36.4554 9.51796 36.4499C9.43527 36.3632 9.53955 36.4969 9.54049 36.501C9.55493 36.5556 9.42973 36.4298 9.42816 36.4638C9.42808 36.468 9.4892 36.5313 9.48552 36.539C9.48021 36.5504 9.47328 36.5601 9.46478 36.5681L9.4339 36.5912C9.39723 36.6189 9.34303 36.6219 9.27762 36.5977C9.26468 36.5929 9.23546 36.5335 9.23073 36.5269C9.15721 36.423 9.24116 36.5711 9.242 36.5781C9.24679 36.6291 9.15714 36.5164 9.24654 36.6988C9.13093 36.6849 9.10068 36.8297 8.93892 36.7075C8.93697 36.7061 8.90146 36.6302 8.89777 36.6277C8.85305 36.5974 8.91558 36.7117 8.96894 36.8629C8.98217 36.9009 8.88574 36.734 8.87864 36.7218C8.85212 36.6769 8.80199 36.5627 8.79631 36.5543C8.75152 36.4882 8.93193 36.8588 8.91669 36.8663C8.91593 36.8659 8.88522 36.7965 8.88071 36.7902C8.86663 36.7707 8.87573 36.7998 8.86072 36.778C8.82605 36.7276 8.73768 36.5478 8.77439 36.6593C8.77916 36.6738 8.88115 36.8843 8.86299 36.8806C8.8557 36.8789 8.8337 36.8935 8.82077 36.8828C8.80785 36.8721 8.78085 36.8016 8.77901 36.7988C8.71986 36.7163 8.70927 36.6758 8.63925 36.5456C8.56965 36.4158 8.71771 36.7335 8.73038 36.7707C8.74299 36.8079 8.69614 36.7389 8.68124 36.7143C8.66631 36.6896 8.6504 36.6443 8.64096 36.6308C8.57916 36.5427 8.70471 36.7929 8.72154 36.8464C8.76125 36.973 8.64322 36.741 8.61987 36.7236C8.61354 36.7189 8.64063 36.7716 8.63975 36.7781C8.6359 36.803 8.59534 36.7323 8.6115 36.8065C8.61414 36.8186 8.66626 36.9664 8.6122 36.865C8.60442 36.8503 8.58105 36.7898 8.56986 36.7789C8.55311 36.7625 8.53315 36.7559 8.53348 36.7795C8.53374 36.7969 8.58427 36.8912 8.56293 36.8644C8.55342 36.8525 8.53453 36.7925 8.51878 36.7748C8.50306 36.757 8.48749 36.767 8.48203 36.7718C8.47659 36.7766 8.51299 36.849 8.5147 36.8542C8.52431 36.8842 8.52812 36.9252 8.52702 36.9256C8.4775 36.9585 8.37208 36.8563 8.33936 36.9212C8.33677 36.9262 8.37537 37.0024 8.37534 37.0039C8.37676 37.0427 8.29197 36.8318 8.25012 36.7675C8.32468 36.9239 8.30572 36.8981 8.30408 36.9199C8.30335 36.9305 8.3344 36.99 8.33688 36.9964C8.3734 37.0918 8.31266 36.975 8.2999 36.9512C8.25304 36.8638 8.2981 36.972 8.26664 36.9136C8.23531 36.8558 8.20085 36.7643 8.19187 36.7699C8.21591 36.8272 8.2924 36.9703 8.29673 36.9973C8.30968 37.0767 8.25064 37.0389 8.21046 37.018C8.19907 37.0121 8.18929 37.0074 8.18338 37.0071C8.15672 37.0057 8.15539 37.0193 8.13313 37.0056C8.09276 36.9809 8.15626 37.0834 8.16913 37.1388C8.18222 37.1942 8.04935 36.9298 8.01756 36.8746C7.98565 36.8196 8.01429 36.8785 7.99532 36.849C7.97631 36.8195 7.96135 36.7785 7.94919 36.7701C7.93689 36.7618 7.97465 36.8701 8.00477 36.9294C8.06836 37.0552 8.14609 37.1812 8.10726 37.1433C8.10496 37.1411 8.0699 37.0715 8.06298 37.0664C8.00897 37.0278 7.98101 37.0396 7.9288 37.0091C7.92152 37.0049 7.88017 36.9287 7.87537 36.9255C7.82488 36.8912 7.9079 37.0116 7.98192 37.1564C7.87142 36.9711 7.79583 36.8625 7.77782 36.8723C7.76708 36.8781 7.81925 36.9566 7.84877 37.0166C7.85775 37.0346 7.81599 36.9845 7.83876 37.0225C7.91345 37.1468 8.00749 37.279 7.95768 37.2344C7.95534 37.2323 7.91398 37.1646 7.90904 37.1621C7.87676 37.1457 7.95898 37.273 7.95461 37.2981C7.95147 37.3177 7.87769 37.2566 7.85515 37.2544C7.71336 37.0576 7.73113 37.1134 7.82573 37.2515C7.81288 37.2525 7.80922 37.2671 7.78666 37.2552C7.77893 37.2512 7.73803 37.1941 7.73304 37.1884C7.65433 37.0988 7.74994 37.2305 7.75209 37.2369C7.77026 37.3014 7.67561 37.2194 7.73354 37.3281C7.73559 37.3321 7.84319 37.4617 7.75905 37.3717C7.75319 37.3656 7.70994 37.3018 7.69722 37.3048C7.68479 37.3075 7.60785 37.2547 7.64739 37.3241C7.65675 37.3409 7.74139 37.4487 7.66374 37.3749C7.65319 37.3649 7.62148 37.3284 7.6022 37.3096C7.54051 37.2499 7.6538 37.3771 7.55123 37.2749C7.44874 37.1726 7.36349 37.1039 7.41883 37.1891C7.42038 37.1917 7.51065 37.2921 7.5053 37.2943C7.49659 37.2978 7.4679 37.2865 7.46181 37.2938C7.45902 37.2972 7.52005 37.3547 7.52059 37.3563C7.53364 37.4096 7.46636 37.3715 7.4208 37.3726C7.4121 37.3729 7.48492 37.4624 7.41098 37.4094C7.32953 37.3519 7.03445 37.0647 7.08494 37.1551C7.10444 37.1921 7.48734 37.5471 7.26966 37.3854C7.29407 37.4597 7.16279 37.4013 7.21128 37.4941C7.2134 37.4983 7.32427 37.593 7.32023 37.5949C7.31395 37.5977 7.25818 37.5585 7.25186 37.5593C7.22397 37.5618 7.25969 37.611 7.24183 37.6197C7.2351 37.6232 7.18012 37.5792 7.17195 37.5836C7.16379 37.5881 7.23512 37.6475 7.19244 37.63C7.16004 37.6165 7.00148 37.5124 6.9764 37.5094C7.12799 37.6188 7.12023 37.623 7.15245 37.6629C7.15873 37.6706 7.21349 37.7058 7.21921 37.7114C7.2437 37.7348 7.19701 37.7075 7.22421 37.7323C7.23074 37.7382 7.283 37.7749 7.29131 37.7818C7.36406 37.8418 7.23899 37.7702 7.21702 37.758C7.13389 37.7113 7.19999 37.7617 7.16534 37.7462C7.13061 37.7308 7.09774 37.696 7.07443 37.6899C7.02628 37.6773 7.02281 37.701 7.01092 37.7138C7.00649 37.7191 7.0803 37.762 7.08132 37.7638C7.09179 37.7872 7.0082 37.7496 7.14681 37.8478C6.77242 37.6186 7.17818 37.8777 7.09383 37.8467C7.08703 37.8441 6.91049 37.735 6.88814 37.7133C6.86584 37.6916 6.92561 37.7186 6.8903 37.6857C6.88196 37.678 6.72509 37.5624 6.7162 37.5545C6.64626 37.4931 6.90701 37.6611 6.92159 37.6699C7.07953 37.7643 6.91215 37.6375 6.90236 37.6261C6.85688 37.5746 6.90135 37.5867 6.87058 37.5477C6.8508 37.5224 6.68377 37.4068 6.69355 37.4035C6.72635 37.3922 6.96252 37.549 6.77662 37.3863C6.73704 37.3516 6.55322 37.2268 6.7069 37.3121C6.71669 37.3174 6.8545 37.3993 6.77763 37.3333C6.76795 37.3249 6.71564 37.2868 6.71208 37.2825C6.68925 37.2541 6.73478 37.2792 6.72112 37.2562C6.70752 37.2331 6.68576 37.2007 6.71056 37.2043C6.72546 37.2063 6.82695 37.272 6.85246 37.2873C6.92572 37.3314 6.82147 37.2383 6.90652 37.2967C6.99173 37.3557 7.10941 37.4604 7.17075 37.4904C7.03849 37.3866 6.90323 37.2795 6.77059 37.1746C6.79702 37.1504 6.86125 37.1573 6.8781 37.1254C6.8801 37.1213 6.80772 37.067 6.80815 37.061C6.81049 37.0358 6.87068 37.0645 6.86528 37.0315C6.86072 37.0059 6.80092 36.9289 6.79495 36.8994C6.94573 37.0194 6.91405 36.9571 6.93977 36.9552C6.94865 36.9545 6.98595 36.9899 7.00137 36.9979C7.05842 37.0277 6.92886 36.9173 6.91272 36.8954C6.84456 36.8013 7.12468 37.0651 7.1332 37.0426C7.1336 37.0416 6.99759 36.8873 6.99023 36.8766C6.94078 36.8081 7.04275 36.925 7.05955 36.9296C7.09031 36.9379 7.13183 36.9656 7.10285 36.9099C7.09404 36.8936 7.01462 36.7925 7.09085 36.8564C7.10081 36.8648 7.14722 36.9142 7.15075 36.9163C7.2103 36.9509 7.0641 36.796 7.02362 36.7351C6.98335 36.6739 7.09712 36.769 7.1282 36.7981C7.20915 36.8726 7.15461 36.8374 7.16151 36.8457C7.24405 36.9438 7.2382 36.9192 7.25239 36.9209C7.3941 37.0743 7.39463 37.057 7.26662 36.922C7.2526 36.9073 7.26021 36.9267 7.25239 36.9209C7.12039 36.7639 7.11588 36.7326 7.25499 36.8652C7.32008 36.9275 7.38385 37.0108 7.37503 36.9676C7.37121 36.9481 7.2742 36.8418 7.25576 36.806C7.21419 36.7237 7.32239 36.8081 7.32559 36.7783C7.32694 36.7673 7.27125 36.7111 7.27057 36.7014C7.26875 36.6754 7.31609 36.7132 7.30903 36.6803C7.30836 36.6772 7.25482 36.6145 7.25795 36.6107C7.28095 36.5805 7.338 36.6036 7.36905 36.5829C7.38382 36.573 7.38434 36.5169 7.40512 36.5138C7.44127 36.5075 7.53954 36.5862 7.54586 36.5477C7.55042 36.5226 7.50311 36.4551 7.47973 36.4034C7.435 36.3029 7.56054 36.4546 7.57874 36.4789C7.57931 36.4797 7.57681 36.504 7.60568 36.5359C7.65559 36.6088 7.57875 36.4793 7.57874 36.4789C7.59092 36.4943 7.62591 36.495 7.62285 36.4785C7.6212 36.4695 7.57981 36.4032 7.57974 36.3998C7.5791 36.3189 7.60609 36.2808 7.6592 36.2933C7.66058 36.2944 7.70157 36.3715 7.70426 36.373C7.74281 36.3962 7.70475 36.2954 7.69224 36.2303C7.67959 36.1652 7.7035 36.1768 7.7818 36.3051C7.78558 36.2819 7.83332 36.3321 7.86121 36.3631C7.88908 36.3941 7.81443 36.2413 7.81385 36.2379C7.81214 36.2286 7.811 36.2206 7.81037 36.2139C7.80372 36.1404 7.85607 36.2069 7.88792 36.207C7.90459 36.2072 7.92057 36.1723 7.92711 36.1487C7.93221 36.1297 7.95596 36.1626 7.95563 36.1346C7.95561 36.1309 7.92221 36.0629 7.92141 36.0601C7.89501 35.9725 7.96736 36.143 7.98369 36.1718C8.043 36.2768 8.07496 36.3326 8.06581 36.2745C8.06367 36.2613 7.96245 36.0145 7.96231 35.9974C7.96224 35.9757 7.99884 36.064 7.99768 36.0391C7.99762 36.037 7.97304 35.9835 7.97935 35.9835C8.00832 35.9827 8.04839 36.0022 8.07034 35.986C8.07344 35.9839 8.03097 35.9005 8.03482 35.8962C8.05298 35.8759 8.07883 35.8682 8.1179 35.8987C8.12764 35.9065 8.15095 35.9678 8.15998 35.985C8.21473 36.0894 8.15514 35.9289 8.15543 35.9252C8.16053 35.8331 8.25226 35.9615 8.25938 35.8776C8.25972 35.8727 8.19969 35.6989 8.27115 35.8389C8.27589 35.8482 8.34905 35.9915 8.3096 35.8888C8.30712 35.8824 8.26876 35.8089 8.27949 35.8133C8.29026 35.8176 8.27872 35.7622 8.32641 35.8403C8.34139 35.8649 8.41599 36.0071 8.37165 35.8868C8.36869 35.8783 8.26072 35.6099 8.34977 35.7883C8.36443 35.8177 8.45293 36.0092 8.41798 35.9062C8.41113 35.8862 8.38743 35.8453 8.38031 35.8162C8.3692 35.7714 8.40422 35.8173 8.37356 35.7278C8.36817 35.712 8.31331 35.5795 8.366 35.6747C8.37428 35.6897 8.40313 35.7539 8.40959 35.7596C8.4406 35.7866 8.43483 35.737 8.47073 35.7736C8.48344 35.7864 8.5315 35.8896 8.55061 35.9142C8.56969 35.9388 8.59411 35.9593 8.57629 35.91C8.55835 35.8608 8.4702 35.702 8.47157 35.685C8.47676 35.6116 8.55833 35.6887 8.59871 35.684C8.60462 35.6834 8.56898 35.6289 8.57524 35.624C8.59883 35.6053 8.60729 35.5295 8.70068 35.6337C8.7765 35.7167 8.79893 35.8019 8.83671 35.8313C8.85529 35.845 8.74911 35.6624 8.74688 35.656C8.72494 35.5899 8.78581 35.6617 8.78315 35.629C8.78251 35.6223 8.73233 35.553 8.73222 35.5481C8.7322 35.5475 8.7322 35.547 8.73224 35.5465L8.65842 35.6019C8.66059 35.5857 8.6929 35.6049 8.6973 35.5924C8.69921 35.5865 8.65652 35.537 8.66346 35.5378C8.67959 35.539 8.70504 35.5535 8.75304 35.5931C8.75742 35.5967 8.8044 35.6634 8.8129 35.6602C8.82655 35.6548 8.87897 35.6896 8.851 35.6316C8.84255 35.6141 8.74631 35.5001 8.82066 35.5722C8.83619 35.5872 8.94992 35.7258 8.85892 35.5999C8.84385 35.579 8.72383 35.4069 8.81852 35.5031C8.84344 35.5284 8.94352 35.6358 8.93298 35.6145C8.93119 35.6112 8.87686 35.5522 8.87541 35.5432C8.87121 35.5124 8.88997 35.5076 8.88663 35.4774C8.88567 35.4692 8.82653 35.4106 8.8268 35.4004C8.82747 35.3723 8.85888 35.3731 8.88958 35.381C8.901 35.384 8.94234 35.4391 8.94758 35.4444C9.03293 35.5315 8.92929 35.404 8.92504 35.395C8.90003 35.3409 8.95984 35.3912 8.95784 35.3659C8.95741 35.3591 8.90394 35.3018 8.89999 35.296C8.86175 35.2389 8.94903 35.3493 8.96326 35.3575C9.00336 35.3808 9.01212 35.3649 9.01719 35.3472C9.01897 35.3406 8.95456 35.2763 8.95683 35.2712C8.96904 35.2398 8.99796 35.2261 9.05296 35.2444C9.06341 35.2479 9.10698 35.3027 9.11838 35.314C9.1981 35.3926 9.10613 35.2706 9.09849 35.258C9.0636 35.2004 9.10821 35.2435 9.1086 35.2277C9.10972 35.1501 9.18449 35.1383 9.23845 35.1238C9.30775 35.1053 9.38992 35.1206 9.42342 35.0666C9.42565 35.0631 9.35996 34.9972 9.36107 34.9934C9.37798 34.9476 9.43394 34.9454 9.44733 34.8964C9.44858 34.8925 9.38487 34.8313 9.38483 34.8228C9.38434 34.805 9.39839 34.7985 9.42612 34.8111C9.43954 34.8172 9.48547 34.8778 9.49794 34.8827C9.52694 34.8945 9.54226 34.8887 9.5427 34.869C9.54278 34.8604 9.47469 34.8006 9.47957 34.7947C9.51153 34.7525 9.53804 34.7062 9.65676 34.7544C9.66493 34.7577 9.79358 34.8882 9.775 34.8574C9.74035 34.8202 9.69907 34.7769 9.66177 34.7373C9.69675 34.6636 9.79514 34.657 9.85696 34.6105C9.85952 34.6085 9.78778 34.5428 9.79242 34.5387C9.81967 34.5141 9.82544 34.4708 9.9198 34.5133C9.92905 34.5175 10.0476 34.6405 10.0372 34.6144C10.0353 34.6097 10.0309 34.5821 10.008 34.5525C10.0045 34.5482 9.94628 34.4936 9.94845 34.4882C9.9618 34.4579 9.99718 34.4485 10.0539 34.4608C10.063 34.463 10.1192 34.5269 10.1262 34.5289C10.176 34.543 10.1502 34.4776 10.2218 34.5149C10.2701 34.5401 10.3697 34.6481 10.4781 34.744C10.4934 34.7575 10.5029 34.7526 10.5626 34.8117C10.713 34.9602 10.8732 35.1273 11.034 35.2852C11.0686 35.3192 11.0411 35.2728 11.1184 35.3613C11.1236 35.3672 11.1442 35.4017 11.1705 35.4316C11.1888 35.4522 11.2514 35.5105 11.2738 35.5379C11.2962 35.5652 11.2428 35.5173 11.2678 35.5508C11.2932 35.5846 11.3639 35.6514 11.3638 35.6678ZM7.98476 36.5025C8.02939 36.5715 7.89937 36.3022 7.92106 36.3712C7.92226 36.3749 7.98254 36.4991 7.98476 36.5025ZM7.0362 37.3C7.14652 37.3735 7.00239 37.2434 6.91765 37.186C6.8326 37.1292 7.00255 37.278 7.0362 37.3ZM7.02927 37.4655C7.1212 37.5163 6.78414 37.2588 6.84235 37.3241C6.84562 37.3278 7.0239 37.4626 7.02927 37.4655ZM10.4783 34.8019C10.4812 34.8046 10.4892 34.8021 10.4865 34.7992C10.4222 34.7292 10.4063 34.7343 10.4783 34.8019ZM7.0392 37.6314C7.08892 37.6604 7.04184 37.6121 6.98011 37.5759C6.93033 37.5469 6.97722 37.5956 7.0392 37.6314ZM8.55979 36.5905C8.56175 36.5945 8.56821 36.596 8.55779 36.5731C8.52424 36.4992 8.52696 36.5231 8.55979 36.5905ZM6.92627 37.8141C6.95693 37.7947 7.26301 37.9662 7.21285 37.972C7.20368 37.9732 7.12448 37.9024 7.09371 37.8921C7.03731 37.8739 7.22012 37.9966 7.11216 37.9473C7.09228 37.9384 6.92376 37.815 6.92588 37.8138C6.92601 37.8139 6.92614 37.814 6.92627 37.8141ZM8.14782 36.8226C8.14972 36.8261 8.15793 36.8263 8.15637 36.8227C8.11835 36.7356 8.10153 36.7353 8.14782 36.8226ZM8.92057 36.6252C8.92471 36.6326 8.94398 36.6317 8.94098 36.6245C8.8786 36.482 8.84059 36.4828 8.92057 36.6252ZM7.85114 37.2493C7.90136 37.3309 7.90196 37.3444 7.82582 37.2515C7.83542 37.2523 7.84185 37.2488 7.85114 37.2493Z" fill="black"/>
<path d="M32.6035 11.2501C32.7052 11.1176 32.8635 11.0373 32.9825 11.005C33.0192 10.9952 33.0328 11.0496 33.059 11.0453C33.1105 11.0367 33.1335 10.9922 33.1847 10.9904C33.2017 10.9901 33.2286 11.0717 33.2453 11.0699C33.3352 11.0601 33.3901 11.0057 33.4687 10.9848C33.8507 10.8863 34.1793 10.787 34.5224 10.6953C34.6355 10.6652 34.7927 10.688 34.8923 10.6164C34.9039 10.6079 34.871 10.5415 34.8714 10.5349C34.8786 10.4333 34.9164 10.5779 34.9484 10.5873C35.0751 10.6246 35.1882 10.5918 35.2752 10.5313C35.312 10.5054 35.2228 10.3815 35.2911 10.4447C35.2958 10.4489 35.3111 10.5265 35.3251 10.5304C35.3566 10.5394 35.4007 10.5093 35.4222 10.5084C35.4641 10.507 35.4701 10.5041 35.5063 10.4926C35.5563 10.4775 35.6267 10.4946 35.6739 10.4598C35.6838 10.4522 35.6432 10.3813 35.6567 10.3623C35.6702 10.3433 35.7198 10.3337 35.7419 10.3462C35.764 10.3587 35.7773 10.4207 35.7848 10.4335C35.8471 10.5412 35.8478 10.3626 35.8536 10.3563C35.9597 10.2455 36.1002 10.3 36.2205 10.2595C36.2688 10.2432 36.316 10.218 36.3628 10.1942C36.4118 10.1705 36.4624 10.1493 36.5105 10.1381C36.6327 10.1105 36.7401 10.1313 36.8509 10.1019C36.8624 10.0989 36.8307 10.009 36.8449 10.0052C36.9982 9.96444 37.1533 9.95125 37.312 9.99502C37.3278 9.99953 37.3191 10.0841 37.3354 10.0936C37.4374 10.149 37.5929 10.2967 37.6121 9.93271C37.6771 9.94046 37.752 9.94844 37.8141 10.0163C37.8529 10.0601 37.826 10.1528 37.866 10.111C37.8751 10.1017 37.8563 10.0239 37.8704 10.0159C37.931 9.98221 37.9997 10.0032 38.0592 9.95856C38.0713 9.9493 38.0635 9.87885 38.0663 9.8659C38.0904 9.76094 38.1497 9.92851 38.1612 9.94031C38.2495 10.0281 38.3055 9.98901 38.3832 9.98804C38.4009 9.98789 38.3762 9.89371 38.3931 9.89015C38.4808 9.87298 38.5739 9.87822 38.6618 9.91833C38.6815 9.92748 38.6655 10.0089 38.675 10.0174C38.7167 10.054 38.7217 9.90088 38.7615 9.93319C38.7698 9.93982 38.7664 10.0092 38.768 10.0168C38.7934 10.136 38.8108 9.96625 38.8169 9.96242C38.8933 9.91019 38.9423 10.0866 39.0159 10.0612C39.0247 10.058 39.0045 9.97031 39.0292 9.96665C39.1933 9.9418 39.3677 9.96761 39.5287 10.0414C39.5536 10.0527 39.5342 10.1182 39.5356 10.1264C39.5582 10.2539 39.5787 10.0842 39.5871 10.078C39.653 10.0335 39.7096 10.178 39.7597 9.97688C40.0314 10.0562 40.3121 9.95704 40.5709 10.1573C40.5742 10.1597 40.5621 10.2428 40.5687 10.2471C40.648 10.3 40.6409 10.169 40.708 10.0143C40.725 9.97549 40.7521 10.1705 40.7547 10.1848C40.7641 10.2377 40.7402 10.3608 40.7439 10.3712C40.7747 10.4529 40.8019 10.0415 40.8525 10.0456C40.854 10.0464 40.8411 10.1214 40.8447 10.1293C40.8559 10.154 40.8715 10.125 40.8821 10.1522C40.9066 10.2149 40.8995 10.4153 40.9545 10.3031C40.961 10.2897 40.9715 10.0899 41.0081 10.0707C41.0118 10.0692 41.0158 10.0689 41.0201 10.0702C41.0415 10.0761 41.1402 10.0854 41.1648 10.1062C41.1904 10.1264 41.1564 10.1967 41.158 10.2003C41.2075 10.3122 41.1715 10.3472 41.1656 10.4975C41.1536 10.6464 41.2396 10.3067 41.2648 10.2732C41.2918 10.2401 41.316 10.3352 41.3168 10.3665C41.3179 10.3976 41.2867 10.4368 41.2903 10.4556C41.3074 10.5773 41.3871 10.3076 41.4352 10.2683C41.5604 10.1824 41.4825 10.4403 41.5019 10.4895C41.5089 10.5041 41.537 10.4505 41.5514 10.4554C41.6116 10.4806 41.5727 10.5558 41.6714 10.5678C41.6855 10.5655 41.859 10.5512 41.7712 10.6398C41.7579 10.651 41.6932 10.6636 41.6889 10.6918C41.683 10.7345 41.6833 10.7952 41.7083 10.8298C41.7269 10.8564 41.8304 10.8128 41.8003 10.8553C41.7864 10.873 41.7227 10.8466 41.7013 10.8764C41.6806 10.9054 41.6776 10.9724 41.674 10.9984C41.6713 11.0241 41.7532 11.0269 41.7582 11.0298C41.7867 11.0496 41.8084 11.1187 41.806 11.124C41.7815 11.2119 41.729 11.2855 41.6647 11.3444L41.617 11.3922C41.5027 11.4341 41.3804 11.4651 41.3067 11.5644C41.298 11.5759 41.3594 11.636 41.3587 11.6385C41.3448 11.6962 41.2295 11.4971 41.1546 11.4604C41.2691 11.5905 41.2336 11.5792 41.2198 11.6156C41.2133 11.6333 41.2634 11.6788 41.2667 11.685C41.3144 11.7782 41.2166 11.6886 41.1957 11.6711C41.1191 11.6063 41.182 11.7065 41.1305 11.6636C41.0791 11.6212 41.0347 11.5307 41.0103 11.5536C41.0441 11.6064 41.1688 11.7127 41.1675 11.7487C41.1638 11.8831 40.9522 11.9051 40.8887 11.9483C40.8254 11.9907 40.8167 12.0156 40.7697 12.0306C40.6852 12.0578 40.7909 12.1222 40.7962 12.1951C40.8018 12.2681 40.6063 12.0449 40.5558 12.0056C40.5052 11.9664 40.5468 12.0176 40.5155 11.9996C40.4843 11.9817 40.4665 11.9378 40.4426 11.9437C40.4184 11.9497 40.4608 12.0692 40.5043 12.1201C40.5963 12.228 40.7208 12.3113 40.6469 12.3142C40.6426 12.3143 40.5925 12.254 40.5788 12.2572C40.471 12.2847 40.4026 12.3552 40.3007 12.3914C40.2865 12.3965 40.229 12.3308 40.2199 12.3331C40.1257 12.3574 40.2547 12.4314 40.3505 12.5688C40.1926 12.4216 40.0761 12.3545 40.0357 12.4008C40.0115 12.4285 40.0881 12.4838 40.1243 12.5442C40.1352 12.5624 40.0689 12.5412 40.1003 12.5729C40.2028 12.6763 40.3432 12.7606 40.2552 12.7665C40.2512 12.7666 40.1949 12.7102 40.1853 12.7143C40.1232 12.7414 40.2371 12.8416 40.2124 12.9026C40.1929 12.9507 40.0654 12.9649 40.019 13.0019C39.826 12.855 39.8365 12.9337 39.9582 13.0505C39.9307 13.0762 39.9143 13.1148 39.8746 13.1305C39.8609 13.136 39.8087 13.0884 39.8016 13.0852C39.6908 13.0355 39.8134 13.1438 39.814 13.154C39.8139 13.2611 39.6718 13.2498 39.7243 13.3874C39.7262 13.3924 39.8633 13.4904 39.7489 13.44C39.741 13.4365 39.6928 13.3709 39.666 13.4002C39.639 13.4298 39.5222 13.4427 39.558 13.5314C39.5667 13.5525 39.6635 13.6548 39.5591 13.6198C39.545 13.615 39.5063 13.5857 39.4808 13.5757C39.3994 13.544 39.5387 13.6424 39.4056 13.5823C39.2724 13.5222 39.1584 13.5 39.2131 13.6015C39.2146 13.6046 39.3225 13.6867 39.3116 13.7004C39.2941 13.7222 39.249 13.7425 39.2348 13.7676C39.228 13.7799 39.3045 13.8154 39.3045 13.8183C39.2992 13.8847 39.2584 13.9168 39.2094 13.949C39.184 13.9659 39.1537 13.9874 39.1267 14.0158C39.113 14.03 39.1931 14.1273 39.096 14.1208C38.9898 14.1135 38.6363 13.8995 38.6864 14.0207C38.7069 14.068 39.1528 14.3443 38.8816 14.2799C38.8825 14.4237 38.7045 14.4576 38.722 14.6136C38.7228 14.6205 38.8375 14.7123 38.8287 14.7229C38.8154 14.7383 38.7516 14.712 38.7402 14.7219C38.6911 14.7619 38.7106 14.8396 38.6708 14.884C38.6561 14.9004 38.6014 14.8554 38.5837 14.8751C38.5657 14.8953 38.6337 14.9606 38.5765 14.9654C38.5326 14.9694 38.3615 14.8841 38.3235 14.9004C38.477 15.0072 38.4597 15.0257 38.4758 15.0889C38.4789 15.1012 38.5374 15.131 38.5416 15.1388C38.5599 15.1713 38.507 15.1528 38.5278 15.1867C38.5328 15.1949 38.585 15.2316 38.5921 15.2403C38.6542 15.3154 38.5117 15.2681 38.487 15.2596C38.3929 15.2281 38.4535 15.286 38.4104 15.282C38.3675 15.2776 38.3483 15.2242 38.3153 15.2313C38.2462 15.247 38.2162 15.3055 38.1826 15.3461C38.1696 15.3624 38.2466 15.4016 38.2463 15.4051C38.238 15.4528 38.1383 15.4347 38.2602 15.5552C37.891 15.3159 38.2787 15.6016 38.1703 15.5993C38.1617 15.5989 37.9925 15.4785 37.9793 15.4455C37.9665 15.4119 38.0356 15.428 38.013 15.379C38.0079 15.3673 37.8724 15.2236 37.8659 15.2127C37.8145 15.1276 38.0665 15.3084 38.0814 15.3168C38.2428 15.4079 38.0989 15.25 38.0943 15.2318C38.0717 15.1504 38.1316 15.1421 38.1187 15.079C38.1102 15.0384 37.9464 14.9181 37.9638 14.9046C38.0223 14.8578 38.269 14.9996 38.1057 14.8039C38.0708 14.7623 37.8797 14.6484 38.0527 14.7048C38.0637 14.7082 38.2167 14.7675 38.1457 14.692C38.1367 14.6825 38.0831 14.6464 38.0806 14.6403C38.0651 14.6004 38.1164 14.6165 38.1105 14.5807C38.1048 14.5445 38.0901 14.4999 38.1251 14.4862C38.1458 14.4783 38.2593 14.5247 38.289 14.5331C38.3743 14.5574 38.2701 14.4613 38.3652 14.5034C38.4614 14.5447 38.5781 14.6546 38.6573 14.6538C38.5152 14.564 38.3703 14.4703 38.2276 14.3795C38.2773 14.3103 38.3662 14.2665 38.4008 14.1888C38.405 14.179 38.3208 14.1446 38.3231 14.1332C38.3325 14.0863 38.4087 14.0804 38.4082 14.0254C38.4075 13.9828 38.3405 13.9029 38.3363 13.8566C38.5198 13.9195 38.4882 13.8346 38.5247 13.7991C38.5374 13.7867 38.5833 13.8097 38.6036 13.8061C38.6794 13.7916 38.517 13.7371 38.4984 13.7139C38.4277 13.623 38.7065 13.7482 38.7754 13.7261L38.788 13.703C38.7952 13.7014 38.8002 13.698 38.8024 13.6924C38.8037 13.6895 38.648 13.5497 38.6401 13.5379C38.5874 13.4634 38.7047 13.5688 38.7294 13.5569C38.7743 13.5355 38.8316 13.5352 38.8053 13.4627C38.7973 13.4414 38.7066 13.3446 38.8053 13.3728C38.8183 13.3764 38.875 13.4137 38.8799 13.4132C38.964 13.4028 38.7839 13.2891 38.7389 13.2249C38.6941 13.1604 38.8446 13.1975 38.8853 13.2126C38.9913 13.2502 38.9146 13.2538 38.923 13.2607C39.0227 13.3426 39.0223 13.302 39.0454 13.2859C39.2235 13.395 39.2323 13.358 39.0687 13.2687C39.0508 13.259 39.0562 13.2867 39.0454 13.2859C38.8847 13.1566 38.8855 13.1068 39.0702 13.1741C39.1568 13.2057 39.2337 13.279 39.2359 13.206C39.237 13.173 39.111 13.1028 39.0924 13.0599C39.0505 12.9612 39.2043 12.9733 39.2205 12.9127C39.2265 12.8905 39.1497 12.8632 39.1517 12.8463C39.157 12.8011 39.2253 12.8066 39.2237 12.7565C39.2235 12.7518 39.1511 12.7115 39.1575 12.7006C39.2049 12.6174 39.2961 12.5817 39.3568 12.5032C39.3857 12.4656 39.402 12.3695 39.4399 12.3358C39.5055 12.2765 39.6647 12.2697 39.6887 12.195C39.7049 12.1461 39.6347 12.1018 39.6048 12.0498C39.5471 11.9489 39.7426 12.0202 39.7712 12.0332C39.7721 12.0337 39.7603 12.0775 39.8067 12.0883C39.8819 12.1359 39.7712 12.0338 39.7712 12.0332C39.79 12.0412 39.8581 11.991 39.8571 11.9684C39.8564 11.9561 39.7945 11.9083 39.7953 11.9028C39.8161 11.7732 39.8783 11.6753 39.983 11.6178C39.9856 11.6175 40.0469 11.6797 40.052 11.6781C40.1252 11.6574 40.0767 11.5539 40.0702 11.47C40.0632 11.3866 40.1099 11.3701 40.2381 11.4543C40.2539 11.412 40.3422 11.4188 40.3942 11.4248C40.4461 11.4308 40.3324 11.3044 40.3323 11.2998C40.3264 11.1574 40.4331 11.1914 40.5151 11.1383C40.5541 11.1133 40.6069 11.0345 40.633 10.988C40.6534 10.9509 40.6974 10.966 40.7092 10.923C40.7109 10.9172 40.6586 10.8622 40.6579 10.859C40.6319 10.7629 40.7346 10.9182 40.7621 10.9384C40.862 11.0119 40.916 11.0502 40.9205 10.9741C40.9214 10.9567 40.7825 10.7266 40.7907 10.7003C40.8013 10.6668 40.8516 10.7487 40.8612 10.7119C40.8621 10.7088 40.8254 10.6626 40.8419 10.6531C40.8936 10.6227 40.9543 10.5997 41.0102 10.5697L40.8405 10.74C40.8361 10.7533 40.8326 10.7633 40.8263 10.7711C40.8237 10.7748 40.744 10.7253 40.738 10.7318C40.7103 10.7615 40.6972 10.8147 40.7385 10.877C40.7491 10.8919 40.8148 10.8842 40.8341 10.8875C40.9511 10.8991 40.7825 10.9286 40.7805 10.9389C40.7179 11.0996 40.9519 11.151 40.9521 11.225C40.9488 11.2287 40.8927 11.4067 40.9647 11.2664C40.9712 11.2579 41.0332 11.1096 40.9922 11.2116C40.9901 11.2181 40.96 11.2952 40.9649 11.288C40.968 11.2803 40.9541 11.3334 40.9663 11.2429C40.9718 11.2148 40.9898 11.0547 40.9535 11.1783C40.9481 11.1865 40.8946 11.4707 40.9086 11.2718C40.91 11.2469 40.924 11.1203 40.9149 11.1065C40.9097 11.1019 40.9017 11.1087 40.8894 11.1339C40.8797 11.1541 40.8898 11.2022 40.8665 11.2296C40.831 11.272 40.794 11.2121 40.7477 11.3025C40.7395 11.3185 40.6996 11.4589 40.6852 11.3488C40.683 11.3315 40.6955 11.2618 40.6839 11.253C40.6287 11.2107 40.5652 11.2531 40.5096 11.2003C40.4898 11.1817 40.5086 11.0689 40.4888 11.0369C40.469 11.005 40.4267 10.9727 40.4005 11.0231C40.3743 11.0736 40.3873 11.2563 40.3525 11.2686C40.2005 11.322 40.0616 11.208 39.9135 11.1861C39.8917 11.1828 39.9071 11.2484 39.8749 11.2483C39.7554 11.248 39.5505 11.303 39.4499 11.1633C39.3689 11.0513 39.4751 10.969 39.4121 10.9229C39.3815 10.901 39.3457 11.1115 39.3381 11.118C39.2647 11.1846 39.2167 11.0907 39.1512 11.1192C39.1377 11.1251 39.1507 11.2106 39.1393 11.2147C39.1004 11.2295 39.0601 11.1914 39.0234 11.1985C39.0067 11.2019 39.0101 11.2672 38.9948 11.2622C38.9582 11.2511 38.9259 11.224 38.8899 11.1632C38.8866 11.1577 38.9075 11.0762 38.8805 11.0735C38.8365 11.0693 38.7803 11.0099 38.7317 11.0733C38.7173 11.0924 38.7199 11.2416 38.6853 11.1393C38.6781 11.118 38.6821 10.9385 38.6486 11.0943C38.6425 11.1202 38.5877 11.3307 38.5523 11.1972C38.543 11.1621 38.5172 11.0162 38.5 11.0399C38.4977 11.0436 38.5102 11.1234 38.4957 11.1318C38.4451 11.1598 38.3895 11.1535 38.3377 11.1812C38.3239 11.1887 38.3489 11.2706 38.3283 11.2791C38.2717 11.3029 38.1987 11.2857 38.1407 11.2634C38.1192 11.255 38.1293 11.1855 38.1273 11.1781C38.0949 11.0583 38.0911 11.2231 38.0838 11.2332C38.0383 11.2937 37.9939 11.2196 37.9497 11.2435C37.9375 11.2499 37.9526 11.3273 37.9506 11.3345C37.9303 11.4045 37.9383 11.2628 37.9207 11.2487C37.8707 11.2087 37.8192 11.2195 37.7739 11.2338C37.757 11.2393 37.785 11.3278 37.7698 11.3316C37.681 11.3558 37.5897 11.3571 37.4964 11.3185C37.4792 11.311 37.4804 11.2404 37.475 11.225C37.4376 11.1172 37.4225 11.2729 37.4169 11.2883C37.3903 11.3589 37.3691 11.2995 37.3394 11.3155C37.1967 11.3944 37.0146 11.3874 36.8911 11.3939C36.8431 11.3963 36.7993 11.3959 36.7629 11.3946C36.6265 11.4089 36.5009 11.4202 36.3713 11.4764C36.3595 11.4814 36.4012 11.5655 36.3915 11.571C36.2638 11.6375 36.1204 11.6475 35.9953 11.7186C35.9851 11.7242 36.0293 11.8023 36.0138 11.8142C35.9822 11.8391 35.935 11.8503 35.8897 11.8361C35.8676 11.8294 35.8666 11.7497 35.8449 11.7444C35.7942 11.7319 35.7474 11.7415 35.7098 11.7696C35.6939 11.7818 35.7507 11.8574 35.7277 11.8665C35.571 11.9308 35.4221 12.0005 35.2241 11.9494C35.2105 11.9459 35.1374 11.7776 35.1263 11.8193C35.1423 11.8675 35.1634 11.9235 35.1816 11.9747C34.9659 12.0867 34.724 12.1138 34.5097 12.1977C34.5007 12.2012 34.5552 12.2833 34.5381 12.2906C34.4398 12.3327 34.3618 12.3989 34.2274 12.3591C34.2141 12.3553 34.1412 12.2006 34.1254 12.2379C34.1225 12.2447 34.0928 12.2862 34.1009 12.324C34.1023 12.3297 34.1471 12.3961 34.1362 12.4046C34.0711 12.4539 33.9962 12.4775 33.9159 12.4736C33.9029 12.4729 33.8638 12.3967 33.8538 12.3957C33.7805 12.3917 33.7829 12.4731 33.7109 12.4363C33.6607 12.4132 33.56 12.3062 33.4416 12.2218C33.4244 12.2103 33.4088 12.2238 33.3422 12.1727C33.1734 12.0453 33.0054 11.8849 32.825 11.7497C32.7857 11.7203 32.7802 11.8142 32.7148 11.7063C32.7102 11.6988 32.7168 11.6283 32.697 11.5909C32.6833 11.5647 32.6053 11.5241 32.594 11.4835C32.583 11.4427 32.6513 11.4739 32.6456 11.4202C32.6397 11.3664 32.5617 11.3061 32.6035 11.2501ZM40.6258 11.4539C40.7032 11.4937 40.5045 11.27 40.5284 11.3453C40.5298 11.3492 40.6219 11.452 40.6258 11.4539ZM38.5609 14.3791C38.6931 14.4139 38.5366 14.2963 38.4356 14.2679C38.3354 14.2382 38.5209 14.3683 38.5609 14.3791ZM38.4447 14.7499C38.5552 14.771 38.203 14.5346 38.2507 14.6184C38.2533 14.6232 38.4383 14.7487 38.4447 14.7499ZM33.4804 12.1263C33.4774 12.1235 33.4606 12.1334 33.463 12.1365C33.5201 12.2129 33.5507 12.1959 33.4804 12.1263ZM38.3151 15.1248C38.37 15.1466 38.3385 15.0764 38.2705 15.0491C38.2159 15.0268 38.247 15.0974 38.3151 15.1248ZM41.4112 10.6039C41.4138 10.6002 41.4038 10.5873 41.3889 10.6077C41.3411 10.6732 41.3683 10.6656 41.4112 10.6039ZM37.9275 15.6545C37.9984 15.5886 38.3142 15.7521 38.2172 15.8138C38.1999 15.8246 38.1535 15.7133 38.1137 15.7133C38.0413 15.7132 38.1972 15.8713 38.0751 15.8364C38.053 15.8298 37.9229 15.6577 37.9272 15.6541C37.9273 15.6542 37.9274 15.6544 37.9275 15.6545ZM40.8816 11.7067C40.8847 11.7092 40.9043 11.6964 40.902 11.6931C40.8474 11.6144 40.8074 11.6407 40.8816 11.7067ZM40.5027 10.2346C40.502 10.2261 40.4486 10.2146 40.4463 10.2223C40.4083 10.3754 40.5154 10.3989 40.5027 10.2346ZM40.0133 12.9987C40.0749 13.0758 40.0666 13.1058 39.9584 13.0505C39.9781 13.0345 39.9938 13.0149 40.0133 12.9987Z" fill="#F96640"/>
<path d="M29.3201 10.3173C29.3115 10.3415 29.2837 10.2989 29.2561 10.2493C29.2474 10.2338 29.2708 10.1858 29.2649 10.1726C29.2523 10.1467 29.2266 10.1659 29.2139 10.1363C29.2095 10.1262 29.2424 10.0485 29.2371 10.0397C29.2058 9.9915 29.1614 10.0013 29.1195 9.97192C28.9185 9.82872 28.6737 9.74909 28.424 9.66761C28.3413 9.64075 28.2485 9.54856 28.1552 9.56789C28.1442 9.57021 28.1392 9.644 28.1363 9.6497C28.0912 9.73686 28.1241 9.59138 28.1067 9.56872C28.0383 9.47935 27.948 9.45927 27.867 9.47652C27.8322 9.48403 27.8449 9.63366 27.8231 9.54761C27.8215 9.54179 27.8408 9.46547 27.8329 9.45593C27.8149 9.43443 27.7735 9.4428 27.7581 9.43443C27.7291 9.41797 27.724 9.41806 27.6949 9.41322C27.6554 9.40594 27.6122 9.36091 27.5671 9.37286C27.5575 9.37565 27.5591 9.45678 27.5428 9.46841C27.5265 9.48001 27.4888 9.46823 27.4781 9.44779C27.4675 9.42733 27.4811 9.36551 27.4807 9.35088C27.4772 9.22741 27.4104 9.3892 27.4041 9.39263C27.2906 9.44996 27.2116 9.34323 27.1125 9.33156C27.0367 9.32284 26.9531 9.34498 26.8815 9.33229C26.7968 9.31693 26.7291 9.26547 26.6451 9.26356C26.6362 9.26327 26.636 9.35817 26.6252 9.358C26.5102 9.35617 26.3982 9.33357 26.2914 9.25804C26.2807 9.25038 26.3043 9.16961 26.2941 9.15704C26.2316 9.08185 26.1381 8.90753 26.0588 9.26179C26.0129 9.24281 25.9573 9.22237 25.9223 9.14566C25.8998 9.09629 25.9357 9.0093 25.8981 9.04411C25.8896 9.05185 25.8913 9.13147 25.8793 9.13714C25.8284 9.16096 25.7793 9.13008 25.7276 9.16581C25.7171 9.17327 25.7125 9.24397 25.7085 9.25638C25.675 9.35674 25.6543 9.18305 25.6472 9.16986C25.5936 9.07142 25.5433 9.1029 25.4845 9.09467C25.4709 9.09273 25.4775 9.18898 25.4641 9.19051C25.3948 9.1972 25.3241 9.18185 25.2617 9.13316C25.2478 9.1221 25.2696 9.04287 25.2634 9.03346C25.2359 8.99295 25.2138 9.14451 25.1867 9.10856C25.181 9.10118 25.1915 9.03254 25.1911 9.02484C25.1848 8.90405 25.1521 9.07102 25.1471 9.07427C25.1035 9.1048 25.0804 9.03157 25.0516 8.98756C25.0356 8.96655 25.0189 8.95191 24.9976 8.95734C24.9895 8.95952 24.9962 9.04882 24.9737 9.04954C24.8229 9.05448 24.6861 9.00011 24.5816 8.90922C24.5652 8.89519 24.5903 8.83281 24.5906 8.82461C24.5944 8.69618 24.5515 8.86136 24.5448 8.86669C24.4926 8.90422 24.468 8.75666 24.4186 8.95514C24.3464 8.90921 24.2904 8.94039 24.3377 8.91794C24.3794 8.88452 24.3386 8.86886 24.2411 8.9375C24.2389 8.93922 24.1555 8.93051 24.1514 8.93448C24.1026 8.98525 24.2342 8.9811 24.3942 8.99211C24.4342 8.9921 24.2454 9.03352 24.2322 9.03978C24.1819 9.0554 24.0573 9.06429 24.0478 9.0687C23.9743 9.11057 24.38 9.03781 24.3846 9.05872C24.3841 9.05969 24.3092 9.07255 24.3023 9.07636C24.2808 9.08869 24.3118 9.08892 24.2883 9.10231C24.2337 9.1323 24.044 9.19893 24.1652 9.19486C24.1808 9.19355 24.4012 9.1161 24.3983 9.14071C24.3969 9.15119 24.4165 9.18779 24.4083 9.20501C24.3998 9.22238 24.3285 9.24793 24.3259 9.24998C24.2534 9.32807 24.2104 9.33425 24.0917 9.42505C23.9758 9.51911 24.2776 9.34044 24.3153 9.32742C24.3208 9.32555 24.3243 9.32534 24.3262 9.32644C24.3371 9.33316 24.2951 9.38582 24.2783 9.40477C24.2585 9.42679 24.2127 9.44407 24.203 9.45895C24.1418 9.55867 24.3598 9.38085 24.4138 9.36157C24.5392 9.31166 24.3422 9.48262 24.3444 9.52665C24.3445 9.53795 24.3864 9.49549 24.3955 9.49805C24.4305 9.50778 24.3815 9.57545 24.4604 9.55193C24.4738 9.54882 24.6049 9.46042 24.5341 9.55204C24.5241 9.56542 24.4725 9.60529 24.4714 9.62495C24.4697 9.65436 24.4867 9.69051 24.5174 9.68917C24.54 9.68805 24.5985 9.59708 24.5905 9.63446C24.587 9.65126 24.5332 9.68687 24.5307 9.71495C24.5282 9.74319 24.5636 9.76953 24.578 9.77819C24.5923 9.78693 24.6358 9.71796 24.6403 9.71458C24.666 9.69522 24.713 9.68232 24.715 9.68385C24.8212 9.7525 24.8616 9.93588 25.0068 9.95783C25.0179 9.95951 25.0493 9.87979 25.0514 9.87926C25.0991 9.86275 24.9739 10.0543 24.9653 10.1345C25.0366 9.97651 25.0369 10.0115 25.0687 10.0053C25.084 10.0021 25.1057 9.93822 25.1096 9.93246C25.1681 9.84718 25.1253 9.97215 25.1177 9.99822C25.089 10.0939 25.1484 9.99204 25.1298 10.0561C25.112 10.1199 25.0548 10.2015 25.0798 10.2108C25.1106 10.1564 25.1566 9.99994 25.1842 9.98307C25.2856 9.9187 25.3624 10.0822 25.4155 10.1132C25.4666 10.1439 25.4881 10.1383 25.5142 10.1697C25.562 10.2261 25.5742 10.1043 25.6251 10.0616C25.6757 10.0185 25.5796 10.2989 25.568 10.3617C25.5566 10.4245 25.5798 10.363 25.5775 10.3986C25.5752 10.4341 25.549 10.4719 25.5618 10.4889C25.5749 10.5061 25.6479 10.4082 25.6696 10.345C25.716 10.2114 25.7333 10.0634 25.7607 10.1237C25.7623 10.1273 25.736 10.201 25.7431 10.2108C25.8002 10.2866 25.8751 10.3072 25.9378 10.3741C25.9464 10.3834 25.92 10.4664 25.9249 10.4728C25.9762 10.5395 25.9831 10.392 26.0468 10.2393C25.9986 10.4497 25.9921 10.583 26.0405 10.5932C26.0692 10.5993 26.081 10.5056 26.1109 10.4435C26.1198 10.4247 26.1289 10.492 26.1401 10.449C26.1761 10.3103 26.1855 10.15 26.2202 10.214L26.1772 10.2103C26.1777 10.2112 26.1783 10.2121 26.1789 10.213C26.1808 10.216 26.1744 10.2953 26.181 10.3001C26.2252 10.3313 26.2272 10.1797 26.2675 10.1591C26.2985 10.1431 26.3675 10.2286 26.4109 10.2365C26.4479 10.4764 26.4851 10.4135 26.4663 10.2465C26.4937 10.2479 26.5188 10.2322 26.5495 10.2479C26.5601 10.2532 26.5729 10.3225 26.5759 10.3296C26.6257 10.4394 26.5937 10.2792 26.5968 10.2716C26.6364 10.1949 26.7311 10.2907 26.7362 10.1559C26.7366 10.1509 26.6673 9.99739 26.7331 10.1022C26.738 10.1093 26.7536 10.1869 26.7812 10.1801C26.8072 10.1742 26.9017 10.2254 26.8939 10.1375C26.8928 10.1159 26.8334 9.99129 26.9089 10.0687C26.9193 10.0791 26.9451 10.1201 26.9638 10.1398C27.0245 10.2016 26.9282 10.0611 27.0271 10.1676C27.1257 10.2743 27.228 10.332 27.1988 10.2238C27.1983 10.2204 27.1153 10.1135 27.1263 10.106C27.1312 10.1027 27.1377 10.1001 27.145 10.0977C27.165 10.0914 27.1907 10.086 27.2018 10.0728C27.209 10.0641 27.1418 10.0135 27.1419 10.011C27.1514 9.92944 27.2381 9.93783 27.3094 9.88672C27.3228 9.87701 27.2454 9.78434 27.3374 9.80515C27.4386 9.82692 27.7821 10.0569 27.7351 9.9377C27.7171 9.88801 27.2685 9.61931 27.5335 9.69327C27.5183 9.57219 27.6832 9.54414 27.6378 9.41132C27.6358 9.40537 27.5087 9.3327 27.515 9.32351C27.5243 9.31052 27.59 9.33028 27.5988 9.32165C27.6371 9.28572 27.6015 9.222 27.6279 9.18425C27.6379 9.16952 27.6999 9.2034 27.712 9.18554C27.724 9.16775 27.6443 9.11866 27.6968 9.11033C27.7369 9.10379 27.9188 9.16072 27.9504 9.14333C27.7793 9.06803 27.7912 9.05045 27.7593 8.99996C27.7532 8.99011 27.6907 8.97062 27.6847 8.96462C27.659 8.93962 27.7132 8.95026 27.6846 8.92443C27.6778 8.9182 27.6193 8.8926 27.6104 8.88606C27.5328 8.82886 27.6774 8.85634 27.7028 8.86072C27.7987 8.87821 27.7269 8.83519 27.7681 8.8343C27.809 8.83389 27.8419 8.87552 27.8705 8.86664C27.9297 8.84812 27.9418 8.79461 27.9612 8.75777C27.9686 8.74267 27.8859 8.71903 27.8852 8.71607C27.8796 8.67483 27.9762 8.68031 27.8286 8.59428C28.2401 8.74884 27.7984 8.55714 27.8985 8.54783C27.9065 8.54716 28.0985 8.62631 28.1204 8.65206C28.1425 8.67743 28.0737 8.67281 28.1088 8.71088C28.117 8.71993 28.2839 8.82364 28.2932 8.83177C28.3658 8.89557 28.0798 8.77551 28.0636 8.7701C27.8878 8.71326 28.0659 8.82872 28.0757 8.84263C28.1203 8.90622 28.0656 8.92256 28.0955 8.97228C28.1146 9.00516 28.2998 9.08871 28.287 9.10253C28.2448 9.14786 27.9762 9.05499 28.1797 9.20324C28.223 9.23502 28.4312 9.31296 28.2539 9.28291C28.2426 9.28121 28.0838 9.24586 28.1689 9.30357C28.1796 9.31082 28.239 9.3366 28.2427 9.34162C28.2666 9.37474 28.2139 9.36669 28.2277 9.39675C28.2413 9.42729 28.264 9.46735 28.2338 9.48161C28.2155 9.49056 28.0969 9.46079 28.067 9.45559C27.9807 9.4404 28.0993 9.51712 27.9997 9.48773C27.8997 9.45786 27.7663 9.371 27.6914 9.37501C27.8446 9.44432 28.0011 9.51696 28.1548 9.58745C28.1183 9.65519 28.0376 9.70208 28.0107 9.77736C28.0075 9.78683 28.0937 9.81584 28.0923 9.82705C28.0862 9.87395 28.0105 9.88304 28.012 9.93795C28.0132 9.98111 28.0789 10.0632 28.0796 10.1133C27.8971 10.047 27.925 10.1323 27.8836 10.1675C27.8696 10.1791 27.826 10.152 27.8053 10.1537C27.7285 10.1605 27.8842 10.2317 27.8997 10.2573C27.9627 10.3707 27.6389 10.1631 27.6104 10.2193C27.6097 10.2212 27.7465 10.3808 27.7514 10.395C27.7898 10.4808 27.6909 10.3566 27.6627 10.3675C27.6108 10.3873 27.5542 10.378 27.5592 10.4597C27.56 10.4725 27.578 10.5117 27.5801 10.5393C27.5822 10.5636 27.5717 10.5787 27.5288 10.555C27.5169 10.5484 27.4725 10.4972 27.4674 10.4965C27.3804 10.4861 27.5196 10.6468 27.5359 10.7271C27.5513 10.8081 27.4145 10.727 27.3818 10.6981C27.2947 10.6258 27.3715 10.6477 27.3663 10.6379C27.303 10.5253 27.2873 10.5649 27.2589 10.5716C27.1351 10.4034 27.1156 10.4318 27.23 10.5789C27.2427 10.5949 27.249 10.5669 27.2589 10.5716C27.3584 10.7523 27.3267 10.8054 27.1868 10.6661C27.122 10.6002 27.0859 10.5007 27.0531 10.5632C27.0376 10.5914 27.1154 10.7129 27.11 10.7601C27.0946 10.8692 26.9643 10.7808 26.9173 10.8214C26.8992 10.8365 26.9478 10.9022 26.936 10.9152C26.9034 10.9504 26.8495 10.9064 26.8192 10.9475C26.8163 10.9514 26.8499 11.0273 26.8373 11.0322C26.7411 11.0714 26.6433 11.0399 26.5428 11.0549C26.4944 11.0625 26.4113 11.1183 26.3586 11.1127C26.2991 11.1073 26.2307 11.0549 26.1731 11.026L26.0851 11.0185C26.0634 10.9995 26.0417 10.9879 26.0198 10.9943C25.9788 11.0059 25.9725 11.0885 25.946 11.1408C25.8939 11.242 25.8735 11.0395 25.8721 11.0084C25.8721 11.0074 25.9085 10.9947 25.8991 10.9497C25.9059 10.8612 25.8726 11.0081 25.8721 11.0084C25.8707 10.9883 25.8093 10.9569 25.793 10.9695C25.7841 10.9765 25.7721 11.0537 25.7678 11.0559C25.6647 11.1058 25.5681 11.104 25.4852 11.045C25.484 11.0431 25.508 10.9591 25.5049 10.9556C25.4625 10.9046 25.4018 10.9988 25.3398 11.0473C25.2781 11.0957 25.247 11.0642 25.2651 10.9129C25.2264 10.9209 25.199 10.8425 25.1851 10.7954C25.1713 10.7484 25.1129 10.9081 25.1093 10.9104C24.998 10.986 24.985 10.8777 24.9126 10.8328C24.878 10.8112 24.7942 10.8028 24.7455 10.8012C24.7068 10.8002 24.7041 10.755 24.6635 10.7638C24.6579 10.765 24.6293 10.8352 24.6268 10.8372C24.5531 10.9023 24.6504 10.7437 24.658 10.7106C24.686 10.5905 24.7017 10.5269 24.6352 10.5561C24.6205 10.563 24.4669 10.7832 24.4401 10.7863C24.4063 10.7902 24.4618 10.7118 24.4257 10.718C24.4226 10.7184 24.394 10.77 24.3796 10.7588C24.3124 10.7072 24.2529 10.6294 24.1765 10.5832C24.1661 10.5767 24.1256 10.6624 24.1093 10.6539C24.0329 10.6138 23.9571 10.5506 23.9204 10.461C23.9116 10.4388 23.9646 10.398 23.9739 10.3804C24.0312 10.2745 23.8891 10.3762 23.8814 10.3734C23.7068 10.3226 23.7361 10.1266 23.5795 10.0398C23.5715 10.0367 23.3778 10.0808 23.4898 9.96508C23.4968 9.95674 23.615 9.8442 23.5079 9.88018C23.5011 9.88222 23.4417 9.94342 23.4303 9.9091C23.426 9.89623 23.4127 9.8854 23.4005 9.87194C23.3782 9.84626 23.359 9.81204 23.394 9.75602C23.4109 9.72639 23.5389 9.62477 23.403 9.6338C23.3947 9.63806 23.0946 9.6704 23.2703 9.56969C23.2994 9.55326 23.4985 9.48576 23.3777 9.4673C23.3543 9.46316 23.3163 9.4983 23.2787 9.47809C23.2203 9.44507 23.2576 9.36989 23.1525 9.32899C23.1341 9.32309 22.983 9.30018 23.0836 9.24068C23.0994 9.23184 23.1707 9.23195 23.1754 9.21073C23.1983 9.11183 23.1434 9.00754 23.1972 8.8963C23.2164 8.85739 23.3288 8.88407 23.3622 8.84912C23.3955 8.81319 23.4353 8.74454 23.3952 8.68968C23.3558 8.63205 23.165 8.64275 23.1732 8.55823C23.1953 8.33924 23.3718 8.0489 23.681 7.88741C23.8949 7.77492 24.0857 7.76215 24.2169 7.75502C24.2652 7.75331 24.2208 7.69097 24.2905 7.68599C24.5488 7.67169 24.776 7.66429 24.8365 7.81428C24.8861 7.93648 24.7818 8.00193 24.8264 8.0564C24.8476 8.0824 24.9138 7.88034 24.9206 7.8749C24.9882 7.81924 25.0053 7.91746 25.0518 7.89611C25.0611 7.89162 25.0668 7.8059 25.0744 7.80296C25.0999 7.79208 25.117 7.83312 25.137 7.82859C25.146 7.82635 25.1522 7.76131 25.1587 7.76715C25.1638 7.77139 25.1683 7.77722 25.1725 7.78525C25.1901 7.80306 25.2061 7.83079 25.2219 7.87409C25.2241 7.87991 25.1979 7.95893 25.2199 7.96418C25.2555 7.97244 25.295 8.0371 25.3429 7.97925C25.3571 7.96182 25.3725 7.81335 25.3887 7.91859C25.3922 7.94057 25.3671 8.11818 25.4136 7.96722C25.4213 7.94213 25.4945 7.73956 25.5068 7.87614C25.5101 7.91209 25.5126 8.05975 25.5297 8.03831C25.5321 8.03486 25.5321 7.95427 25.5452 7.94774C25.5912 7.92609 25.636 7.93923 25.6836 7.91882C25.6963 7.91322 25.6868 7.82885 25.7055 7.82314C25.7565 7.80724 25.8156 7.83451 25.8611 7.86529C25.8779 7.87679 25.8586 7.9439 25.8592 7.95147C25.8676 8.07462 25.8965 7.91253 25.9044 7.90372C25.9529 7.85107 25.9776 7.93116 26.0192 7.91495C26.0306 7.91069 26.031 7.83201 26.0339 7.8253C26.0635 7.75979 26.0321 7.8979 26.0448 7.91479C26.0804 7.96261 26.1251 7.96095 26.1666 7.95524C26.1818 7.95303 26.1746 7.86099 26.1882 7.86005C26.2688 7.85278 26.3497 7.87011 26.4215 7.92815C26.435 7.93924 26.4184 8.00776 26.4197 8.02396C26.4286 8.13726 26.4753 7.98906 26.4839 7.97539C26.523 7.91296 26.5288 7.97577 26.5582 7.96737C26.7023 7.92526 26.8687 7.98508 26.9961 8.02528C27.1628 8.07733 27.2865 8.15909 27.4514 8.16221C27.4619 8.1625 27.463 8.06892 27.4722 8.06798C27.5899 8.0601 27.6991 8.11081 27.819 8.09978C27.8288 8.09904 27.8267 8.00981 27.8429 8.00569C27.8762 7.99663 27.9154 8.00679 27.9431 8.03903C27.9567 8.05459 27.9256 8.12666 27.9396 8.14082C27.9723 8.17397 28.0105 8.18563 28.0496 8.17692C28.0663 8.17302 28.0551 8.08035 28.0759 8.08225C28.2182 8.09347 28.3609 8.09913 28.4859 8.23742C28.4946 8.24694 28.4741 8.42925 28.5005 8.39794C28.5102 8.34799 28.5197 8.28893 28.5291 8.23539C28.7415 8.24036 28.9378 8.3397 29.15 8.39427C29.159 8.39657 29.1632 8.29824 29.1808 8.30223C29.2812 8.32495 29.3913 8.32227 29.4766 8.44348C29.4849 8.45537 29.4368 8.61932 29.4743 8.60234C29.4812 8.59922 29.5351 8.58998 29.5573 8.55767C29.5605 8.55275 29.5726 8.4734 29.5889 8.47548C29.6826 8.48869 29.7817 8.53765 29.8644 8.61922C29.8783 8.63277 29.8316 8.70616 29.8412 8.71653C29.9074 8.78873 30.0239 8.76621 30.0874 8.88745C30.1256 8.96793 30.0281 9.08189 29.9827 9.22316C29.9761 9.24277 30.0068 9.26708 29.9593 9.33673C29.8394 9.51077 29.7008 9.6963 29.5752 9.88334C29.5487 9.92404 29.5744 9.87804 29.5079 9.97477C29.5038 9.98151 29.4858 10.0164 29.4649 10.0503C29.4509 10.0739 29.4026 10.1445 29.3863 10.1759C29.3708 10.2077 29.4098 10.1475 29.3898 10.1837C29.3698 10.2205 29.3237 10.3061 29.3201 10.3173ZM25.1262 10.5845C25.131 10.4993 25.023 10.7782 25.0745 10.721C25.0772 10.7178 25.1261 10.5887 25.1262 10.5845ZM27.8321 9.60822C27.6991 9.58183 27.8666 9.68178 27.9683 9.70453C28.0701 9.72669 27.8725 9.61593 27.8321 9.60822ZM27.8723 9.28075C27.7629 9.27125 28.1491 9.44653 28.0858 9.37748C28.0822 9.3735 27.8786 9.28127 27.8723 9.28075ZM29.8445 9.19531C29.8432 9.19907 29.8608 9.21181 29.8632 9.20864C29.9162 9.12872 29.8775 9.10161 29.8445 9.19531ZM27.8997 8.95518C27.8427 8.94234 27.8911 8.99709 27.9618 9.01333C28.0187 9.02645 27.9705 8.97122 27.8997 8.95518ZM24.2304 9.61786C24.2336 9.6148 24.2284 9.60162 24.2086 9.61725C24.145 9.66771 24.1756 9.66947 24.2304 9.61786ZM28.1059 8.47275C28.0601 8.53669 27.7206 8.43841 27.7908 8.37718C27.8035 8.36622 27.8798 8.45218 27.9165 8.44734C27.9833 8.43846 27.7918 8.32763 27.9147 8.3414C27.9371 8.34408 28.1092 8.4695 28.1063 8.47308C28.1061 8.47297 28.106 8.47286 28.1059 8.47275ZM25.237 10.2425C25.238 10.2386 25.222 10.2287 25.2202 10.2322C25.1772 10.3175 25.2103 10.338 25.237 10.2425ZM24.1633 8.89546C24.1716 8.89541 24.1849 8.86811 24.1778 8.8657C24.0312 8.80707 23.9981 8.8903 24.1633 8.89546ZM26.4125 10.2428C26.4144 10.1457 26.4286 10.1316 26.4662 10.2464C26.4479 10.2436 26.4306 10.2458 26.4125 10.2428Z" fill="black"/>
</svg>
